<svg class="img-fluid" id="outputsvg" xmlns="http://www.w3.org/2000/svg" style="transform: matrix(1.01591, 0, 0, 1.01591, 0, 0); transform-origin: 50% 50%; cursor: move; transition: transform 200ms ease-in-out 0s; max-height: none;" width="480" height="480" viewBox="0 0 4800 4800"><g id="l6Z53FX67uSSGIYBUnV0PGr" fill="rgb(19,43,63)" style="transform: none;"><g><path id="ph7vnWslu" d="M0 2400 l0 -2400 2400 0 2400 0 0 2400 0 2400 -2400 0 -2400 0 0 -2400z m2670 1405 l0 -25 100 0 c78 0 100 -3 100 -14 0 -7 9 -16 20 -19 12 -3 20 -14 20 -26 0 -23 26 -27 114 -15 43 6 46 9 47 38 2 27 2 28 6 6 7 -37 22 -50 58 -50 46 0 65 9 65 31 0 42 18 15 25 -36 5 -45 10 -55 26 -55 17 0 19 -8 19 -74 0 -103 2 -106 66 -106 l54 0 0 38 c0 20 -4 52 -10 71 -8 29 -6 38 15 66 14 17 25 39 25 48 0 14 10 17 53 17 88 0 93 -4 89 -60 -4 -44 -1 -52 28 -80 l32 -31 -22 -54 c-21 -52 -24 -54 -66 -61 -41 -6 -44 -9 -44 -36 0 -28 -2 -29 -37 -26 -30 2 -38 8 -43 28 -6 24 -9 25 -95 27 -72 2 -92 0 -108 -14 -18 -17 -19 -17 -28 0 -7 11 -22 17 -44 17 -31 0 -34 -3 -37 -32 -3 -32 -4 -33 -55 -36 -40 -2 -55 -8 -63 -23 -6 -10 -17 -19 -24 -19 -8 0 -19 -7 -26 -15 -9 -11 -34 -15 -96 -15 -82 0 -84 -1 -84 -24 0 -14 -7 -31 -15 -40 -8 -8 -15 -21 -15 -30 0 -15 -18 -32 -25 -24 -5 5 19 75 28 84 11 11 7 67 -6 90 -30 52 -55 74 -84 74 -47 0 -69 27 -65 80 l3 45 93 1 c50 0 98 4 104 8 18 11 15 107 -4 135 -15 21 -23 23 -72 19 -31 -3 -58 -10 -60 -16 -7 -23 -31 -12 -34 16 -2 22 -8 28 -35 30 -46 5 -45 32 1 32 30 0 35 4 41 31 4 18 16 34 28 39 33 13 37 12 37 -15z m-150 -94 c0 -6 -4 -13 -10 -16 -20 -12 -11 -73 15 -101 29 -31 33 -49 8 -39 -10 5 -33 10 -51 13 -19 2 -36 11 -39 18 -3 8 -18 14 -34 14 -27 0 -29 3 -29 40 l0 40 48 0 c36 0 51 5 62 20 15 21 30 26 30 11z m-814 -209 c-11 -10 -13 3 -7 43 l6 40 3 -39 c2 -21 1 -41 -2 -44z m-19 -114 c-2 -18 -4 -6 -4 27 0 33 2 48 4 33 2 -15 2 -42 0 -60z m603 -231 c19 -5 83 -7 141 -4 l106 5 17 -29 c16 -26 22 -29 72 -29 30 0 54 -4 54 -10 0 -5 8 -10 19 -10 10 0 32 -7 47 -15 16 -8 41 -15 56 -15 15 0 39 -11 54 -25 15 -14 33 -25 40 -25 8 0 14 -4 14 -10 0 -5 11 -10 25 -10 46 0 26 -18 -29 -24 -47 -6 -56 -11 -71 -40 -11 -20 -16 -46 -13 -69 3 -31 1 -37 -19 -42 -13 -3 -23 -10 -23 -16 0 -6 -7 -17 -15 -25 -8 -9 -15 -30 -15 -47 0 -50 -24 -77 -69 -77 -27 0 -46 -7 -66 -26 -15 -14 -34 -23 -42 -20 -21 8 -11 29 17 36 49 12 52 135 4 167 -26 17 -108 13 -128 -7 -13 -13 -73 -13 -81 0 -3 5 -28 12 -55 16 -28 4 -50 10 -50 15 0 5 -16 9 -35 9 -25 0 -35 -4 -35 -15 0 -13 -7 -15 -36 -9 -34 6 -96 -6 -136 -27 -10 -5 -27 -9 -38 -9 -26 0 -77 -26 -83 -42 -4 -8 -6 -7 -6 4 -3 50 -82 74 -142 42 -28 -14 -31 -19 -27 -60 2 -24 2 -44 1 -44 -15 0 -33 16 -33 31 0 22 -28 25 -95 8 -85 -21 -86 -10 -7 70 39 40 72 78 72 82 0 5 5 9 11 9 6 0 28 12 48 28 44 33 66 47 109 69 17 9 32 20 32 25 0 4 7 8 15 8 26 0 20 63 -7 75 -29 13 -35 41 -11 47 24 6 43 -15 43 -48 0 -26 1 -27 53 -20 28 3 62 6 75 6 12 0 22 5 22 11 0 17 27 39 49 39 11 0 22 9 26 20 4 12 18 23 35 27 16 3 37 16 47 29 l18 24 5 -22 c4 -15 17 -25 40 -31z m805 -242 c45 5 53 4 59 -12 13 -33 31 -63 38 -63 5 0 8 -16 8 -35 0 -33 2 -35 35 -35 32 0 35 2 35 29 0 16 3 36 6 45 8 20 44 21 44 2 0 -8 3 -21 6 -30 4 -10 1 -16 -9 -16 -9 0 -19 -9 -22 -20 -3 -11 -11 -20 -16 -20 -5 0 -9 -16 -9 -35 0 -19 5 -35 10 -35 6 0 10 -6 10 -14 0 -8 10 -16 23 -18 14 -2 23 -11 25 -25 2 -13 7 -23 12 -23 4 0 10 -9 13 -20 3 -14 14 -20 31 -20 16 0 26 -6 26 -15 0 -8 5 -15 10 -15 6 0 10 -16 10 -35 0 -22 8 -44 20 -57 22 -24 26 -38 9 -38 -14 0 -6 -89 9 -99 15 -10 34 -154 39 -298 2 -74 8 -133 14 -133 16 0 10 -18 -9 -24 -13 -4 -21 -25 -31 -78 -7 -40 -16 -77 -19 -83 -4 -5 -16 -37 -28 -70 -30 -84 -57 -149 -65 -155 -16 -12 -39 -72 -39 -100 0 -25 -4 -30 -23 -30 -13 0 -34 -14 -52 -36 -17 -20 -38 -45 -47 -55 -23 -25 -25 -99 -2 -99 8 0 12 -4 9 -10 -3 -5 -32 -10 -63 -10 -75 0 -102 -8 -102 -30 0 -10 -6 -25 -13 -32 -8 -7 -20 -30 -26 -51 -9 -28 -19 -38 -39 -42 -15 -3 -45 -10 -67 -16 -22 -7 -70 -11 -107 -10 l-68 2 0 -39 c0 -33 -4 -41 -22 -46 -16 -4 -27 0 -37 14 -7 11 -21 20 -30 21 -11 0 -10 3 7 11 12 6 22 17 22 25 0 7 8 17 18 20 33 13 82 56 82 73 0 13 11 19 48 24 38 5 51 12 59 29 10 22 67 47 107 47 9 0 16 4 16 8 0 5 12 15 28 22 41 21 72 51 72 72 0 11 7 18 19 18 11 0 31 15 45 33 14 17 33 39 41 48 8 9 15 25 15 37 0 15 6 22 20 22 11 0 24 8 27 18 4 9 13 23 20 31 8 8 13 29 11 50 -2 30 -8 37 -29 41 -23 5 -25 8 -17 36 8 33 28 44 81 44 15 0 27 5 27 12 0 6 6 19 14 27 24 28 46 113 46 178 l0 63 -35 0 c-31 0 -36 3 -41 30 -6 26 -11 30 -40 30 -19 0 -34 5 -34 10 0 6 5 10 10 10 6 0 10 18 10 40 0 36 3 40 24 40 24 0 36 16 36 49 0 13 8 16 40 13 38 -4 40 -3 40 24 0 25 -9 74 -37 217 -4 23 -10 27 -39 27 -24 0 -34 -5 -34 -15 0 -8 -3 -15 -6 -15 -13 0 -33 35 -34 58 0 13 -7 37 -16 54 -11 22 -13 33 -5 41 6 6 11 33 11 61 0 51 -27 96 -57 96 -7 0 -13 9 -13 20 0 11 -4 20 -10 20 -5 0 -10 5 -10 12 0 25 -43 58 -77 58 -28 0 -33 -4 -33 -24 0 -23 -1 -23 -33 -8 -27 12 -33 19 -29 38 2 13 8 24 13 24 5 0 9 14 9 31 0 21 -8 37 -25 51 -14 11 -25 29 -25 40 0 20 1 20 26 3 21 -13 38 -16 79 -10z m-1587 -327 c-2 -12 -7 -15 -17 -9 -9 6 -11 18 -6 42 8 33 8 34 17 9 5 -13 8 -32 6 -42z m12 -97 c30 -6 72 -13 93 -16 l39 -6 -80 -83 c-93 -97 -151 -195 -184 -311 -20 -70 -23 -103 -23 -261 0 -199 -4 -203 -44 -42 -26 107 -48 317 -34 326 5 4 13 31 17 60 10 75 52 217 88 290 26 55 33 63 51 58 12 -3 47 -10 77 -15z m300 -36 c0 -24 -24 -44 -37 -31 -8 7 17 56 29 56 4 0 8 -11 8 -25z m672 -109 c4 -6 8 -38 8 -71 0 -34 5 -66 12 -73 7 -7 11 -29 9 -50 -2 -36 0 -39 31 -48 28 -8 33 -15 36 -44 4 -43 15 -57 52 -65 49 -11 53 -26 23 -91 -36 -79 -38 -186 -3 -290 l23 -71 -34 -38 c-67 -73 -141 -93 -237 -63 -52 16 -75 30 -121 76 -69 70 -82 88 -99 132 -60 155 -92 309 -92 447 l0 81 49 44 c112 101 311 173 343 124z m-873 -272 c-48 -71 -98 -187 -125 -292 -32 -124 -31 -202 2 -202 8 0 14 -9 14 -20 0 -11 7 -20 15 -20 8 0 15 -4 15 -10 0 -5 15 -10 34 -10 33 0 33 1 39 54 7 67 50 177 93 239 19 26 34 50 35 55 0 4 16 20 34 35 l34 28 -29 -85 c-49 -142 -61 -296 -36 -438 18 -97 77 -225 111 -238 13 -5 29 -18 35 -30 6 -11 16 -20 23 -20 7 0 18 -13 24 -30 10 -27 16 -30 52 -30 38 0 41 2 42 28 l0 27 16 -32 c9 -18 23 -33 30 -33 7 0 13 -8 13 -17 0 -9 7 -25 17 -35 15 -17 15 -18 -9 -18 -47 0 -186 46 -243 81 -138 83 -245 261 -245 406 0 43 0 43 -35 43 -24 0 -35 -5 -35 -15 0 -10 -10 -15 -34 -15 -30 0 -35 -3 -38 -27 -3 -25 -7 -21 -37 37 -19 36 -40 69 -48 73 -7 4 -13 17 -13 27 0 16 7 20 35 20 28 0 35 4 39 23 2 12 11 58 20 102 9 44 16 95 16 113 0 19 5 32 13 32 13 0 57 94 57 123 0 9 6 17 14 17 8 0 17 9 21 20 5 17 55 80 63 80 1 0 -11 -21 -29 -46z m-103 20 c-3 -9 -6 -24 -6 -34 0 -10 -10 -20 -22 -23 -29 -8 -29 -7 -16 36 8 26 17 37 31 37 13 0 17 -5 13 -16z m458 -451 c46 -198 137 -421 211 -518 60 -80 61 -82 39 -62 -11 9 -35 17 -52 17 -30 0 -32 2 -32 36 0 27 -5 37 -20 41 -13 3 -20 14 -20 29 0 21 -5 24 -35 24 -34 0 -35 -1 -35 -42 0 -39 -1 -40 -18 -25 -10 10 -24 17 -30 17 -7 0 -12 6 -12 14 0 8 -9 30 -20 49 -55 92 -79 224 -60 326 13 71 47 171 59 171 4 0 15 -35 25 -77z m145 -80 c-1 -10 -4 -29 -8 -43 -7 -22 -8 -20 -12 18 -3 30 -1 42 8 42 7 0 13 -8 12 -17z m947 -263 c8 0 14 -4 14 -10 0 -5 -8 -10 -19 -10 -13 0 -20 9 -23 30 -3 17 -2 33 1 36 3 3 7 -6 9 -20 2 -14 10 -26 18 -26z m-336 -5 c0 -8 -7 -15 -15 -15 -9 0 -12 6 -9 15 4 8 10 15 15 15 5 0 9 -7 9 -15z m-63 -43 c-19 -20 -27 -39 -27 -64 0 -27 -9 -44 -35 -72 -19 -21 -35 -46 -35 -55 0 -14 -10 -20 -39 -25 -34 -5 -42 -11 -52 -41 -18 -48 -25 -44 -21 14 4 48 3 49 -42 80 -25 18 -60 54 -78 82 -31 47 -35 50 -70 47 -35 -2 -67 18 -68 45 0 4 31 7 69 7 50 0 70 -4 74 -14 5 -12 30 -13 143 -9 85 4 148 11 163 20 41 21 47 15 18 -15z"></path><path id="p11Na0EtR3" d="M2930 3525 c0 -45 0 -45 35 -45 35 0 35 0 35 45 0 45 0 45 -35 45 -35 0 -35 0 -35 -45z"></path></g></g><g id="l6yCvARUZKemBUKg0XL5XQv" fill="rgb(23,40,65)" style="transform: none;"><g><path id="p5aJWZ5Gz" d="M2060 4142 c-45 -13 -45 -63 0 -82 40 -17 62 -10 73 23 7 23 6 31 -9 42 -24 17 -45 23 -64 17z"></path><path id="pAmAgIkJD" d="M2775 4051 c3 -6 1 -11 -5 -11 -6 0 -2 -9 9 -21 11 -12 17 -27 14 -35 -3 -8 0 -14 6 -14 15 0 14 33 -1 49 -10 11 -10 13 0 7 21 -12 13 8 -9 22 -12 8 -18 9 -14 3z"></path><path id="pDijElHy1" d="M2630 4039 c0 -5 5 -9 11 -9 5 0 7 -4 4 -10 -3 -5 -2 -10 4 -10 5 0 13 5 16 11 5 6 16 4 32 -7 24 -15 26 -15 20 0 -4 9 -3 15 1 12 4 -2 14 -1 21 4 9 5 1 10 -25 13 -59 8 -84 7 -84 -4z"></path><path id="pjR8mIbuc" d="M3073 4001 c6 -23 -20 -36 -65 -32 -14 1 -29 -3 -33 -9 -4 -6 -16 -8 -28 -4 l-22 6 23 -21 c12 -12 22 -31 22 -41 0 -19 -1 -19 -19 -3 -11 9 -18 20 -15 24 7 12 -29 28 -52 24 -10 -2 -21 -4 -23 -4 -3 -1 3 -7 13 -14 16 -12 16 -14 2 -26 -11 -9 -16 -10 -17 -2 -3 20 -4 26 -12 38 -4 6 -4 13 0 16 5 2 2 2 -5 0 -8 -1 -32 -3 -55 -3 -31 0 -38 -3 -27 -10 8 -5 10 -10 4 -10 -6 0 -14 3 -18 7 -3 4 -12 8 -19 9 -7 2 -22 5 -34 8 -13 3 -25 1 -28 -4 -3 -5 -29 -6 -59 -3 -43 4 -54 2 -59 -11 -4 -9 -2 -16 3 -16 6 0 10 -5 10 -11 0 -6 -7 -9 -15 -5 -8 3 -19 -2 -24 -12 -9 -15 -10 -14 -11 6 0 12 5 22 10 22 16 0 11 17 -7 24 -10 4 -22 1 -28 -7 -14 -19 -45 -30 -39 -13 3 7 -2 18 -9 25 -12 9 -16 8 -20 -3 -4 -9 -2 -18 2 -21 5 -3 7 -14 4 -25 -4 -14 -14 -20 -34 -20 -22 0 -32 -6 -39 -26 -13 -33 -13 -34 5 -34 8 0 17 11 21 25 6 25 15 31 27 18 4 -3 0 -11 -8 -17 -8 -6 -16 -20 -18 -31 -2 -11 -7 -28 -11 -37 -5 -10 -6 -23 -3 -30 3 -7 6 -3 6 10 1 13 5 21 10 18 14 -9 1 -44 -18 -49 -9 -3 2 -5 24 -6 29 0 36 2 25 9 -8 5 -10 10 -5 10 6 -1 19 -7 29 -15 18 -13 5 -15 -119 -15 -135 0 -181 6 -78 11 38 2 50 6 46 16 -3 8 2 13 13 13 18 1 18 1 2 11 -27 15 -74 5 -70 -15 2 -13 -4 -15 -37 -12 -36 3 -40 2 -31 -14 15 -28 -14 -33 -46 -7 -16 12 -25 16 -20 9 5 -9 -12 -12 -76 -10 -46 0 -68 3 -50 5 17 2 32 8 32 12 0 5 -12 6 -26 3 -26 -5 -26 -3 -20 29 3 19 7 39 8 45 1 7 16 10 39 8 33 -3 38 -1 33 14 -3 9 1 6 9 -7 12 -20 15 -21 20 -6 10 24 -3 65 -19 65 -8 0 -14 7 -14 15 0 8 -7 15 -15 15 -20 0 -19 -27 2 -38 15 -9 15 -11 1 -26 -22 -21 -27 -20 -21 4 3 11 -1 27 -8 36 -11 13 -10 17 4 25 23 13 22 32 -2 24 -11 -3 -22 -1 -26 5 -10 17 -21 11 -22 -12 -1 -13 -7 -24 -13 -26 -5 -2 -8 -8 -4 -13 9 -15 -3 -10 -17 8 -10 11 -10 14 -1 9 7 -4 12 -1 12 9 0 20 -28 31 -43 16 -6 -6 -20 -11 -32 -11 -16 0 -17 2 -5 9 8 6 18 7 24 4 5 -3 6 -1 2 5 -4 7 -17 10 -29 8 -12 -3 -25 -5 -29 -5 -5 -1 -8 -18 -9 -38 -1 -33 -2 -35 -8 -13 l-7 25 -6 -27 c-5 -29 17 -47 36 -28 17 17 55 11 66 -10 6 -11 10 -46 8 -77 -3 -57 -3 -57 -38 -64 -30 -6 -32 -6 -17 5 24 19 21 27 -8 20 -19 -5 -25 -2 -26 10 -3 29 -4 34 -12 42 -4 5 -11 3 -15 -3 -5 -8 -12 -9 -22 -2 -13 8 -13 10 0 19 12 8 11 10 -7 10 -12 0 -24 -4 -28 -10 -3 -5 -12 -7 -20 -3 -8 3 -15 0 -15 -6 0 -7 7 -14 16 -18 13 -5 13 -7 2 -14 -14 -9 -14 -10 -18 -61 -2 -32 -2 -32 -10 -8 -6 20 -8 16 -9 -23 -1 -33 2 -46 10 -41 7 4 10 1 7 -7 -5 -16 -125 -26 -139 -12 -5 5 9 7 31 5 25 -3 40 0 40 7 0 6 -16 11 -35 11 -27 0 -33 3 -28 16 4 11 8 12 13 4 5 -7 16 -9 30 -5 29 9 16 19 -32 24 -4 1 -5 7 -2 15 3 8 13 13 22 10 9 -3 7 1 -6 7 -13 7 -21 20 -20 29 2 9 -4 25 -12 35 -14 17 -13 18 3 12 15 -6 16 -4 6 15 -10 19 -12 20 -21 4 -6 -11 -14 -14 -25 -7 -11 6 -21 4 -31 -5 -20 -20 -37 -6 -18 15 9 10 12 22 7 30 -7 11 -10 11 -17 0 -16 -26 -14 -46 6 -64 17 -15 20 -31 20 -94 0 -42 -4 -80 -8 -86 -10 -14 -48 -12 -44 3 3 16 -10 15 -27 0 -10 -9 -12 -9 -7 -1 3 6 2 14 -4 18 -5 3 -10 1 -10 -4 0 -6 -17 -10 -37 -10 -37 1 -37 2 -8 8 l30 7 -27 6 c-28 5 -54 -12 -40 -27 4 -4 -2 -5 -14 -1 -14 4 -26 1 -35 -11 -12 -15 -12 -16 1 -8 9 5 12 5 7 -1 -5 -5 -13 -9 -19 -9 -6 0 -16 -9 -22 -20 -6 -11 -15 -23 -21 -27 -19 -14 -5 -145 14 -133 5 3 7 -4 4 -14 -3 -13 2 -21 15 -25 11 -4 26 -14 34 -24 12 -16 11 -16 -7 -3 -19 14 -19 14 -4 -2 8 -10 26 -19 38 -22 13 -2 30 -12 38 -22 8 -10 11 -12 7 -4 -5 11 -1 13 17 8 13 -3 41 -2 62 2 26 6 37 5 38 -3 0 -6 5 0 11 14 6 14 12 20 15 13 3 -9 12 -9 30 -2 20 7 24 7 20 -5 -4 -10 0 -12 14 -9 26 7 32 20 19 40 -10 16 -11 15 -7 -4 7 -30 -7 -29 -27 2 -9 14 -12 25 -7 25 5 0 11 10 13 22 3 23 38 35 38 12 0 -21 27 -17 44 8 15 21 16 21 22 2 4 -10 12 -22 17 -25 5 -4 11 -35 13 -70 1 -35 7 -65 13 -67 6 -2 8 -9 5 -14 -4 -7 -2 -8 4 -4 6 4 9 13 5 21 -3 10 2 15 16 15 14 0 21 6 21 20 0 11 -4 20 -10 20 -5 0 -10 9 -10 20 0 11 5 20 10 20 6 0 10 18 10 41 0 37 1 39 16 25 8 -9 21 -13 27 -9 8 5 6 9 -5 11 -10 2 -18 8 -18 13 0 6 6 7 13 3 10 -6 10 -4 0 7 -7 7 -13 22 -14 33 0 21 0 21 -9 1 -8 -19 -9 -19 -9 2 -1 12 4 23 9 25 6 2 11 22 13 45 1 24 6 43 10 43 5 0 7 -26 5 -57 -3 -55 -2 -58 25 -67 31 -11 50 4 40 31 -5 12 -7 12 -14 1 -7 -10 -9 -9 -9 5 0 9 5 17 10 17 6 0 10 7 10 15 0 8 5 15 11 15 6 0 10 12 9 28 -3 42 -1 45 15 32 12 -10 16 -31 14 -85 -1 -40 1 -77 5 -83 10 -16 -25 -24 -43 -9 -9 8 -26 17 -38 19 -17 5 -21 1 -20 -13 1 -13 7 -17 18 -14 9 3 21 -1 28 -8 6 -8 27 -13 46 -12 32 1 34 0 20 -15 -19 -21 -19 -34 0 -26 8 3 15 1 15 -4 0 -16 13 -11 45 16 17 15 24 23 17 19 -14 -7 -45 13 -38 24 3 4 1 13 -5 21 -6 10 -9 11 -9 3 0 -7 -4 -13 -10 -13 -5 0 -10 7 -10 15 0 8 9 15 20 15 11 0 21 -7 21 -15 3 -28 4 -33 11 -39 5 -3 6 -3 3 1 -3 3 0 12 6 20 6 7 8 13 3 13 -5 0 -7 34 -6 76 4 94 -4 144 -23 144 -10 0 -15 10 -15 30 l0 30 80 0 c66 0 78 -2 74 -15 -5 -11 1 -15 20 -15 20 0 27 -7 35 -32 l9 -33 1 43 c1 35 4 42 21 42 11 0 20 -6 20 -14 0 -9 11 -12 38 -10 20 2 32 1 26 -2 -7 -3 -10 -14 -7 -24 6 -24 53 -28 53 -5 0 8 5 15 11 15 5 0 7 5 3 11 -5 8 -1 8 14 0 27 -14 35 -14 26 1 -4 7 -3 8 5 4 8 -5 11 -26 8 -62 -3 -43 -9 -59 -31 -79 -15 -14 -24 -30 -21 -35 3 -6 1 -10 -4 -10 -6 0 -11 17 -11 38 -1 31 -2 34 -11 18 -7 -11 -9 -38 -5 -67 4 -31 3 -49 -4 -49 -5 0 -10 7 -10 15 0 8 -4 15 -10 15 -5 0 -10 -21 -10 -46 0 -27 -4 -43 -10 -39 -9 6 -16 -58 -12 -108 5 -50 -60 -71 -146 -48 -1 1 2 10 8 21 9 17 8 20 -8 20 -15 0 -19 -7 -17 -27 3 -44 4 -45 34 -38 17 3 32 2 36 -4 3 -6 1 -11 -5 -11 -6 0 -9 -4 -6 -8 3 -5 -9 -6 -26 -4 -24 4 -30 1 -26 -10 6 -14 -8 -23 -74 -47 -25 -9 -27 -8 -26 20 1 18 -7 39 -19 50 -18 18 -21 19 -49 4 -16 -8 -35 -15 -41 -15 -20 0 -16 -80 4 -102 10 -12 12 -18 4 -18 -7 0 -10 -4 -6 -9 5 -9 -23 -23 -37 -18 -4 1 -15 -8 -24 -21 -9 -13 -22 -21 -30 -18 -8 3 -14 2 -14 -3 0 -5 -17 -21 -37 -37 -20 -15 -33 -23 -30 -17 4 6 1 17 -6 25 -8 7 -12 18 -10 25 8 22 -17 24 -26 1 l-8 -23 -7 23 c-4 12 -15 22 -23 22 -9 0 -14 -3 -10 -6 3 -3 -5 -26 -18 -52 -13 -25 -20 -52 -17 -60 4 -11 1 -13 -8 -7 -9 6 -11 4 -5 -5 4 -7 2 -16 -6 -21 -11 -6 -11 -11 -2 -20 10 -10 15 -6 23 15 8 22 14 26 31 21 14 -5 19 -3 15 3 -12 19 5 42 30 40 13 -1 24 -3 24 -5 0 -1 -26 -28 -58 -60 -95 -96 -131 -142 -138 -178 -4 -23 -10 -32 -20 -28 -19 7 -18 -12 2 -31 12 -12 12 -16 2 -16 -7 -1 -2 -8 12 -16 17 -10 18 -13 5 -9 -51 18 -56 18 -62 -4 -3 -11 -9 -18 -14 -15 -5 3 -8 2 -7 -3 1 -4 -12 -45 -30 -91 -18 -45 -38 -105 -44 -133 -6 -27 -15 -44 -18 -38 -4 6 -11 -4 -15 -23 -4 -18 -9 -36 -10 -40 -1 -5 -3 -14 -4 -20 -1 -10 -3 -10 -10 1 -5 8 -11 9 -15 3 -3 -5 0 -12 8 -15 12 -5 22 -117 17 -207 -7 -134 3 -202 23 -157 3 6 3 -3 0 -22 -4 -24 -3 -31 5 -26 8 5 10 -1 5 -21 -5 -18 -3 -25 3 -21 12 8 27 -39 18 -53 -4 -6 -1 -10 5 -10 6 0 8 -4 5 -10 -3 -5 -1 -10 5 -10 7 0 9 -8 5 -21 -5 -16 -4 -19 5 -14 8 5 11 4 7 -2 -4 -6 -1 -29 7 -50 8 -22 10 -46 6 -53 -4 -7 -4 -25 0 -41 5 -15 6 -30 2 -33 -3 -3 2 -6 11 -6 9 0 17 -5 17 -11 0 -5 5 -7 11 -4 6 4 8 13 5 21 -6 17 20 19 30 2 4 -7 3 -8 -4 -4 -8 5 -10 2 -6 -8 3 -9 11 -13 18 -9 6 3 8 3 4 -1 -4 -5 -3 -19 2 -32 7 -17 5 -27 -5 -37 -18 -19 -8 -28 21 -21 19 5 24 2 24 -14 0 -11 7 -23 16 -26 26 -10 29 2 8 26 -18 21 -18 22 0 8 10 -8 22 -25 27 -38 7 -19 11 -21 23 -10 12 11 12 13 -1 16 -9 3 -13 11 -10 23 3 10 2 17 -3 14 -4 -3 -10 5 -13 17 -6 21 9 41 24 32 4 -2 5 5 2 16 -3 11 -1 20 5 20 5 0 12 -14 16 -31 3 -19 10 -28 17 -23 8 4 9 -1 4 -16 -5 -17 -4 -21 6 -15 9 6 11 2 7 -13 -4 -12 -2 -20 2 -17 8 5 33 -48 34 -73 1 -8 9 -19 18 -26 10 -7 15 -16 11 -19 -3 -4 -1 -7 6 -7 7 0 9 -5 5 -12 -4 -6 -3 -8 3 -5 5 4 23 -8 39 -26 l29 -32 -30 25 -30 25 24 -27 c13 -15 26 -26 30 -25 7 2 81 -43 81 -49 0 -3 -5 -2 -12 2 -7 4 -8 3 -4 -5 4 -6 11 -9 16 -6 12 7 41 -6 34 -16 -3 -5 2 -6 10 -3 11 4 16 0 16 -12 0 -13 3 -15 8 -7 4 7 17 10 30 6 12 -3 19 -9 16 -15 -3 -5 6 -6 22 -2 18 5 25 3 20 -4 -4 -6 2 -8 14 -5 45 12 11 43 -47 43 -13 0 -23 4 -23 10 0 5 -15 12 -34 16 -19 3 -37 12 -40 20 -3 8 -12 14 -21 14 -8 0 -15 5 -15 10 0 6 -9 10 -20 10 -11 0 -20 6 -20 14 0 8 -13 25 -29 39 -16 13 -37 39 -46 57 -9 18 -25 35 -36 37 -11 3 -19 14 -19 27 0 11 -9 47 -20 80 -28 84 -35 171 -20 281 7 53 10 98 7 101 -3 4 -12 -16 -21 -42 -9 -32 -15 -41 -15 -25 -1 29 -10 23 -16 -9 -5 -28 -15 -39 -15 -17 0 10 -4 17 -8 17 -4 0 -13 15 -20 33 -15 41 -15 57 -1 37 9 -12 10 -12 5 3 -3 10 -6 23 -6 28 0 5 -6 9 -14 9 -23 0 -38 -96 -34 -225 3 -110 2 -114 -14 -92 -10 12 -41 74 -69 137 -29 63 -55 117 -59 120 -4 3 -10 28 -14 55 -3 28 -11 73 -16 100 -5 28 -9 91 -10 140 0 97 29 345 42 345 4 0 10 23 14 50 4 28 10 50 15 50 5 0 9 14 9 30 0 23 4 30 20 30 13 0 20 7 20 20 0 17 3 19 19 10 27 -14 167 -40 218 -40 36 0 41 -2 36 -20 -7 -25 4 -26 30 -2 13 10 17 11 12 3 -6 -11 -4 -13 8 -8 14 5 15 3 5 -18 -13 -30 6 -59 34 -52 10 3 18 2 19 -1 0 -4 2 -17 5 -29 2 -12 -4 -30 -14 -40 -9 -10 -12 -12 -7 -3 8 13 8 13 -6 3 -9 -7 -20 -9 -24 -5 -5 4 -5 1 -1 -6 10 -16 -22 -54 -38 -45 -6 3 -8 3 -4 -2 4 -4 3 -14 -3 -22 -9 -10 -6 -13 14 -13 23 0 24 -2 14 -25 -7 -14 -15 -25 -19 -25 -5 0 -8 -7 -8 -15 0 -18 -30 -55 -46 -55 -12 0 -34 -42 -34 -64 0 -8 -9 -16 -20 -19 -16 -4 -20 -14 -20 -43 l0 -38 22 24 c13 14 22 28 20 33 -3 10 87 140 129 187 25 28 28 29 15 8 -10 -17 -14 -38 -10 -57 5 -25 3 -31 -10 -31 -10 0 -14 -4 -11 -10 10 -16 35 -12 35 5 0 9 13 24 30 33 33 19 47 57 29 78 -9 11 -9 14 0 14 7 0 9 5 6 10 -3 5 -1 10 4 10 6 0 11 4 11 10 0 16 -27 0 -37 -22 -5 -12 -12 -17 -16 -12 -3 6 15 31 40 55 25 24 44 40 41 34 -3 -5 3 -18 14 -27 17 -17 18 -17 20 0 0 9 1 22 1 29 0 6 6 9 13 6 7 -3 13 -8 12 -11 -3 -29 4 -40 22 -35 18 5 25 21 21 46 0 4 3 7 9 7 5 0 15 10 21 23 11 20 11 21 -5 8 -12 -10 -20 -11 -24 -4 -5 8 -12 8 -24 -1 -10 -7 -14 -17 -10 -22 4 -4 0 -3 -9 4 -9 6 -20 8 -24 4 -5 -4 -5 -1 -1 6 4 7 10 11 14 9 4 -1 21 10 37 27 30 29 30 29 5 22 -14 -4 -39 -11 -56 -15 -16 -5 -43 -16 -59 -27 l-29 -19 7 25 c4 14 7 28 7 32 0 4 7 4 17 1 11 -4 14 -3 9 6 -4 6 -2 18 4 26 7 8 9 15 4 15 -5 0 -2 5 6 10 12 8 11 10 -7 10 -19 0 -21 3 -13 29 4 16 6 32 2 35 -10 11 -74 7 -67 -4 3 -5 1 -10 -5 -10 -7 0 -19 -8 -28 -18 -10 -10 -13 -12 -7 -4 7 11 2 13 -25 12 -58 -3 -81 0 -75 9 3 6 -13 8 -40 5 -25 -3 -45 -1 -45 4 0 5 -12 8 -27 6 -24 -4 -24 -2 6 9 30 12 32 14 16 21 -16 6 -17 9 -5 16 12 8 11 10 -5 11 -11 0 -15 2 -10 5 6 2 10 22 9 44 -1 37 1 39 30 39 17 0 47 4 66 10 27 7 31 7 18 -2 -15 -10 -10 -15 35 -37 54 -26 87 -28 87 -4 0 8 5 14 11 14 6 0 1 15 -10 34 -27 43 -27 43 10 61 25 14 33 14 47 3 25 -19 31 -30 25 -44 -2 -7 5 -15 16 -19 24 -7 61 2 61 15 0 13 54 40 80 40 11 0 28 4 38 9 9 4 32 13 50 19 26 8 32 8 32 -4 0 -8 5 -14 10 -14 6 0 10 -7 10 -16 0 -11 5 -10 23 8 12 13 29 25 37 27 33 10 98 4 132 -12 36 -17 112 -15 132 3 5 5 15 6 23 3 8 -3 18 -1 22 5 11 18 48 -12 53 -43 3 -14 2 -25 -2 -25 -4 0 -7 -7 -6 -17 1 -19 -51 -38 -57 -20 -3 7 -8 0 -12 -15 -4 -16 -11 -25 -16 -22 -5 3 -5 -5 0 -18 4 -13 11 -22 14 -21 4 1 18 -9 33 -22 15 -14 30 -22 34 -20 5 3 11 -1 14 -7 3 -10 9 -8 19 5 8 9 19 17 26 17 6 0 16 11 21 25 5 14 15 25 21 25 7 0 9 -9 5 -25 -9 -34 5 -31 44 8 41 41 60 79 54 104 -3 11 1 27 10 36 9 8 16 20 16 25 0 25 30 17 59 -15 17 -19 31 -31 31 -26 1 4 17 -10 36 -32 20 -22 33 -33 28 -25 -5 10 0 9 14 -4 12 -11 22 -16 22 -11 0 13 48 -62 52 -82 2 -10 8 -18 15 -18 6 0 15 -4 20 -9 5 -5 3 -6 -4 -2 -7 4 -13 4 -13 -1 1 -13 37 -53 49 -53 6 0 8 -6 5 -13 -2 -7 6 -25 20 -40 13 -14 21 -28 18 -31 -3 -3 0 -6 7 -6 7 0 10 -4 6 -9 -3 -5 2 -16 11 -25 8 -9 12 -21 8 -27 -4 -8 -3 -9 4 -5 7 4 12 2 12 -5 0 -7 7 -20 16 -30 17 -19 21 -44 10 -78 -6 -16 -5 -21 3 -17 7 4 9 1 5 -8 -3 -8 4 -24 15 -35 21 -21 29 -61 12 -61 -5 0 -7 -21 -5 -47 3 -37 2 -42 -5 -23 -9 24 -9 24 -10 -7 -1 -47 -19 -84 -41 -90 -11 -3 -20 -9 -20 -14 0 -5 6 -6 13 -3 25 9 39 -24 40 -99 2 -58 -2 -77 -15 -91 -10 -10 -18 -25 -18 -34 0 -14 -2 -14 -9 -3 -7 11 -10 9 -16 -8 -3 -12 -11 -18 -17 -15 -6 4 -8 2 -4 -4 7 -12 -13 -62 -25 -62 -5 0 -14 -10 -20 -22 -11 -20 -10 -21 3 -11 20 17 30 5 17 -18 -8 -16 -13 -17 -32 -7 -31 17 -67 21 -81 9 -7 -6 -27 -11 -44 -13 -26 -2 -32 -7 -32 -26 0 -13 -4 -20 -10 -17 -5 3 -10 -1 -10 -10 0 -9 6 -15 13 -14 27 3 46 -2 61 -17 9 -8 16 -11 16 -5 0 6 3 11 8 10 18 -3 51 14 45 24 -3 5 -1 7 5 3 6 -3 13 3 17 14 3 11 11 20 16 20 6 0 4 -8 -3 -18 -7 -9 -30 -41 -51 -70 -35 -47 -168 -162 -152 -130 3 7 -1 4 -9 -6 -9 -11 -28 -27 -43 -37 -21 -14 -30 -16 -42 -6 -12 10 -14 9 -7 -8 6 -18 5 -17 -17 3 -21 20 -24 31 -22 74 2 27 8 55 14 61 8 8 11 8 11 -2 0 -7 5 -9 10 -6 6 4 9 1 8 -7 -2 -7 5 -12 14 -12 10 1 16 -3 15 -10 -1 -6 10 -10 26 -9 15 1 27 -2 27 -8 0 -6 5 -7 10 -4 6 4 7 11 4 17 -4 7 -2 8 4 4 6 -4 9 -14 6 -24 -2 -9 2 -5 9 11 7 15 17 24 22 20 5 -5 4 -1 -3 8 -6 9 -8 19 -4 23 4 5 -2 6 -13 4 -14 -2 -19 2 -17 15 2 9 -2 17 -8 17 -5 0 -10 -6 -10 -12 -1 -7 -7 -2 -14 11 -10 18 -15 20 -19 10 -4 -9 -8 -10 -14 -4 -12 15 -33 12 -46 -6 -7 -9 -31 -26 -54 -38 -23 -11 -50 -30 -60 -40 -10 -11 -30 -22 -46 -26 -15 -4 -29 -11 -32 -15 -3 -5 -14 -6 -25 -3 -11 3 -17 9 -14 14 3 5 -2 6 -10 3 -9 -3 -16 -10 -16 -15 0 -5 -7 -9 -15 -9 -9 0 -12 6 -9 15 4 9 0 15 -7 16 -8 0 -31 1 -51 3 -20 2 -37 0 -36 -3 3 -34 -37 -50 -52 -21 -7 13 -7 21 0 25 6 3 13 -1 16 -10 5 -13 9 -14 15 -4 5 8 -1 17 -18 26 -28 15 -47 16 -108 8 -41 -5 -43 -3 -112 55 -7 6 -10 17 -6 26 3 9 0 20 -7 24 -7 4 -9 13 -5 20 6 9 9 9 16 -1 7 -11 9 -11 9 -1 0 7 6 10 13 7 6 -4 0 5 -15 18 -15 14 -24 28 -21 31 3 3 12 -2 20 -12 12 -15 13 -14 7 13 -4 17 -11 34 -15 39 -5 6 -9 17 -9 25 0 11 9 6 26 -14 14 -16 22 -23 19 -15 -4 8 3 4 14 -10 l21 -25 0 26 c0 15 -16 60 -35 100 -33 71 -77 213 -90 292 -8 48 -30 49 -29 2 1 -20 4 -38 8 -42 10 -10 7 -45 -4 -38 -5 3 -7 11 -4 18 2 7 -5 12 -21 12 -20 0 -24 -4 -19 -20 4 -14 3 -16 -4 -7 -5 8 -20 12 -33 10 -21 -3 -24 -8 -22 -38 2 -30 1 -32 -7 -12 -11 26 -25 29 -34 6 -5 -14 -4 -15 8 -5 7 6 0 -15 -17 -48 -18 -33 -33 -58 -35 -56 -2 2 6 22 18 45 18 35 19 42 6 37 -12 -5 -16 0 -16 18 0 26 -15 34 -23 13 -3 -8 -6 -6 -6 4 -1 12 -6 15 -17 11 -14 -5 -16 -2 -9 23 4 16 9 36 10 44 4 35 17 60 27 54 7 -5 9 -1 5 9 -3 9 -1 17 5 19 11 4 20 48 10 48 -2 0 -31 -18 -63 -39 -33 -22 -59 -35 -59 -30 0 5 9 14 20 21 11 7 20 16 20 20 0 15 -33 8 -47 -9 -14 -17 -14 -17 -9 0 3 11 0 17 -10 17 -9 0 -12 5 -8 12 4 7 3 8 -5 4 -6 -4 -14 0 -17 9 -4 10 -13 13 -25 10 -12 -4 -19 -2 -19 7 0 10 -3 9 -9 -2 -6 -8 -7 -18 -5 -22 3 -4 1 -8 -3 -8 -5 0 -9 -16 -10 -35 -1 -25 5 -38 22 -49 21 -14 22 -20 15 -47 -8 -28 -8 -30 8 -18 15 12 15 12 -1 -7 -21 -26 -22 -34 0 -34 9 0 45 30 80 68 34 37 63 61 63 55 0 -7 -4 -13 -9 -13 -12 0 -56 -123 -71 -200 -9 -47 -10 -78 -2 -110 l10 -45 1 46 c1 34 5 46 16 46 10 0 13 -6 9 -19 -8 -26 7 -22 33 8 33 39 43 23 26 -46 -17 -64 -11 -130 11 -130 8 0 16 17 19 43 8 56 45 170 62 193 14 18 14 18 15 -3 0 -13 6 -23 14 -23 13 0 26 30 25 60 0 10 -3 8 -9 -5 -6 -15 -9 -16 -9 -4 -1 24 9 29 33 17 11 -7 28 -11 36 -10 27 3 48 -22 43 -51 -5 -23 -8 -26 -21 -15 -13 11 -15 11 -8 -2 4 -9 1 -8 -7 3 -21 25 -27 21 -17 -14 5 -16 7 -36 4 -44 -3 -7 -1 -22 5 -33 7 -14 7 -24 -3 -37 -12 -17 -14 -16 -20 9 -4 15 -4 31 -1 36 4 6 1 10 -4 10 -6 0 -11 7 -11 15 0 8 -4 15 -10 15 -20 0 -10 -69 19 -145 5 -11 14 -42 20 -70 15 -64 80 -212 121 -275 25 -39 38 -50 58 -50 25 0 25 0 6 22 -10 12 -13 18 -5 13 11 -6 13 -4 7 11 -4 10 -4 15 -1 12 4 -4 17 -3 29 2 20 7 27 2 54 -41 18 -26 52 -62 75 -78 38 -26 59 -61 36 -61 -4 0 -6 -10 -4 -21 4 -20 3 -21 -14 -5 -15 13 -20 14 -23 4 -4 -10 -8 -11 -20 -1 -8 7 -37 16 -64 19 -43 5 -47 4 -32 -9 10 -8 15 -17 11 -21 -4 -4 1 -4 11 0 13 5 17 4 13 -3 -4 -6 0 -14 9 -17 22 -8 26 -8 19 4 -3 6 1 7 9 4 9 -3 13 -11 10 -16 -4 -6 2 -7 16 -3 16 5 20 4 15 -5 -5 -9 -2 -10 14 -5 11 3 21 2 21 -3 0 -12 90 4 104 18 15 15 39 13 30 -2 -5 -7 7 0 25 15 36 29 49 29 36 0 -9 -20 -12 -29 -14 -42 0 -5 -10 -13 -21 -16 -11 -3 -20 -13 -20 -21 0 -11 11 -14 45 -12 34 2 47 -1 58 -16 13 -17 32 -20 95 -14 21 2 25 11 25 70 0 12 6 15 21 11 41 -10 71 -9 101 2 17 7 38 11 48 9 10 -1 14 2 11 8 -5 7 2 9 18 5 23 -6 84 14 77 24 -2 2 0 15 4 29 3 14 5 25 4 26 -1 0 6 8 16 18 9 10 17 26 17 37 0 21 -2 20 86 23 51 2 68 7 94 29 17 15 36 25 41 21 5 -3 9 1 9 10 0 8 4 16 8 18 20 8 51 66 45 86 -3 14 -1 22 8 22 10 0 10 3 2 11 -8 8 -9 19 -2 37 6 16 6 29 0 35 -9 9 11 63 28 77 8 6 35 71 65 155 12 33 24 65 28 70 3 6 12 43 19 84 12 62 15 70 20 45 l7 -29 1 32 c0 17 6 33 13 35 6 2 12 23 14 45 1 32 -1 40 -12 36 -12 -4 -14 15 -12 108 1 63 3 90 5 62 2 -29 9 -53 14 -53 6 0 7 5 3 12 -5 7 -3 8 7 2 33 -20 41 -14 34 29 -4 23 -14 62 -23 86 l-16 45 -11 -28 -11 -27 -12 26 c-6 14 -8 25 -4 25 4 0 13 9 20 21 8 12 9 18 4 15 -10 -6 -9 27 2 118 3 21 2 36 0 33 -8 -7 -54 42 -54 57 0 7 -9 22 -20 34 -12 13 -20 35 -20 57 0 19 -4 35 -10 35 -5 0 -10 11 -10 25 0 22 -2 24 -26 15 -22 -9 -27 -7 -31 10 -3 11 -10 20 -17 20 -6 0 -6 4 2 9 11 6 8 14 -14 34 -20 19 -30 23 -36 14 -5 -8 -8 -7 -8 6 0 9 -5 17 -12 17 -6 0 -1 8 10 19 12 10 18 22 14 26 -4 4 3 2 15 -4 13 -6 22 -17 20 -23 -3 -14 51 -30 59 -17 3 5 0 8 -8 7 -7 -2 -12 3 -11 10 2 6 -1 12 -6 12 -5 0 -8 8 -7 18 2 9 -8 34 -21 54 -14 20 -22 41 -19 47 8 13 -34 42 -48 33 -6 -3 -20 -8 -31 -9 -11 -2 -21 -8 -23 -13 -5 -15 -42 -12 -42 4 0 7 -7 19 -15 26 -8 7 -15 23 -15 36 0 27 -9 30 -30 11 -12 -10 -12 -9 -2 4 10 13 9 19 -2 28 -11 10 -21 6 -49 -18 l-34 -31 -27 25 c-15 14 -31 25 -37 25 -5 0 -9 5 -9 10 0 6 -11 10 -25 10 -14 0 -25 3 -25 8 0 4 -14 13 -31 21 -17 7 -35 24 -41 37 -10 20 -17 23 -52 20 -51 -4 -81 17 -65 45 5 11 7 19 4 19 -3 0 3 10 15 22 11 12 18 29 15 38 -5 14 3 17 49 16 30 0 52 -4 50 -8 -3 -4 2 -8 11 -8 9 0 13 -4 10 -10 -12 -20 14 -10 42 16 15 14 21 22 13 18 -13 -7 -13 -5 -1 9 7 9 19 17 27 17 7 0 18 9 24 20 7 13 19 19 36 18 33 -3 52 -24 36 -40 -7 -7 -12 -23 -12 -37 -1 -29 -23 -64 -34 -53 -4 4 -5 -5 -1 -21 5 -19 3 -27 -6 -27 -10 0 -10 -3 -1 -12 10 -10 15 -10 22 2 5 8 6 18 4 22 -3 5 -2 8 3 7 25 -4 42 3 48 21 3 11 13 20 21 20 8 0 12 5 9 10 -3 6 0 10 7 10 10 0 10 2 -1 9 -18 11 0 68 20 63 8 -2 11 0 7 3 -11 11 11 47 24 39 8 -5 9 -1 5 11 -6 14 -3 16 11 13 11 -3 23 2 29 11 8 12 25 16 74 15 55 -1 65 -3 68 -20 1 -10 10 -27 19 -37 32 -36 152 -2 152 44 0 11 5 17 10 14 6 -3 10 -1 10 4 0 6 3 10 8 10 22 -4 31 5 46 42 9 23 23 47 30 55 11 10 11 22 3 53 -6 22 -13 39 -16 38 -8 -3 -51 41 -51 52 0 5 8 23 17 40 12 20 15 33 8 40 -13 13 -161 35 -181 27 -8 -3 -19 4 -25 17 -6 12 -18 30 -27 39 -14 16 -16 16 -44 -4 -23 -16 -27 -23 -16 -29 9 -6 7 -9 -8 -9 -12 0 -27 -7 -34 -15 -14 -17 -30 -20 -30 -5 0 6 7 10 16 10 28 0 11 35 -19 38 -15 2 -27 7 -27 11 0 6 -40 7 -47 1 -3 -2 -16 -6 -30 -9 -3 0 2 -11 13 -23 10 -12 14 -18 7 -15 -6 4 -13 1 -16 -5 -4 -10 -7 -10 -17 -1 -16 15 -22 84 -9 99 5 6 5 23 0 40 -4 16 -6 35 -3 43 3 8 -1 12 -9 9 -8 -3 -15 -10 -15 -16 -1 -7 -2 -17 -3 -24 0 -6 -4 -8 -7 -5 -9 9 -11 77 -2 77 4 0 12 9 18 20 8 16 6 21 -11 31 -20 10 -21 9 -16 -10z m-73 -69 c0 -13 -12 -22 -22 -16 -10 6 -1 24 13 24 5 0 9 -4 9 -8z m-316 -53 c-6 -11 -44 -18 -44 -8 0 5 4 9 9 9 5 0 7 10 4 23 l-6 22 20 -20 c11 -11 19 -23 17 -26z m44 0 c1 -21 -2 -40 -7 -43 -4 -3 -6 5 -4 18 3 13 0 33 -6 43 -7 15 -7 20 3 20 8 0 13 -15 14 -38z m68 26 c-6 -39 -46 -43 -46 -4 0 13 7 19 24 19 16 0 23 -5 22 -15z m224 -15 c-12 -16 -27 -30 -33 -29 -9 0 -9 2 0 5 7 3 10 11 7 17 -3 10 15 24 44 36 2 0 -6 -12 -18 -29z m-560 -11 c-7 -11 -14 -19 -16 -16 -7 7 7 37 17 37 6 0 5 -9 -1 -21z m443 10 c-13 -13 -5 -51 11 -46 6 2 11 9 11 15 0 5 3 14 8 18 4 4 7 0 7 -8 0 -26 -27 -43 -45 -28 -8 7 -15 18 -15 24 0 12 19 36 29 36 3 0 0 -5 -6 -11z m-59 -5 c20 -8 21 -24 2 -24 -8 0 -17 -6 -19 -12 -3 -7 -6 -1 -6 15 -1 29 0 30 23 21z m-275 -25 c-7 -15 -6 -17 5 -13 12 5 13 0 3 -31 -9 -30 -12 -33 -18 -19 -3 11 -5 22 -3 25 2 4 -8 10 -21 13 -29 7 -24 26 6 26 11 0 18 4 15 8 -3 5 1 9 9 9 10 0 11 -5 4 -18z m465 -11 c-3 -13 -11 -24 -15 -26 -5 -2 -2 -10 6 -19 8 -8 15 -25 15 -39 0 -19 -5 -24 -27 -25 -16 0 -38 -2 -51 -3 -15 -2 -21 2 -18 10 3 7 0 16 -6 20 -7 4 -6 9 2 14 14 8 5 30 -11 30 -6 0 -8 -4 -5 -9 3 -5 -1 -11 -9 -15 -24 -9 -17 5 20 41 33 32 39 31 36 -7 -1 -8 11 0 26 17 33 38 47 42 37 11z m-249 2 c3 -6 -1 -7 -9 -4 -11 4 -16 0 -16 -15 0 -13 -6 -21 -17 -21 -11 0 -14 3 -7 8 6 4 13 15 17 25 7 19 22 22 32 7z m-343 -32 c-12 -12 -32 -2 -31 15 0 9 2 9 6 0 7 -19 23 -16 24 5 0 11 2 13 6 4 3 -8 1 -18 -5 -24z m98 -3 c0 -10 -41 -11 -49 -1 -8 10 -3 11 19 8 17 -2 30 -5 30 -7z m308 -2 c-10 -2 -28 -2 -40 0 -13 2 -5 4 17 4 22 1 32 -1 23 -4z m-416 -31 c-6 -2 -10 -7 -7 -12 6 -10 -15 -8 -32 3 -23 14 8 37 32 24 13 -7 16 -12 7 -15z m-642 -59 c0 -7 -5 -13 -11 -13 -6 0 -8 -9 -4 -20 4 -11 2 -20 -4 -20 -6 0 -10 -3 -10 -7 3 -20 -2 -33 -12 -33 -8 0 -8 5 1 15 7 9 8 15 2 15 -16 0 -25 51 -11 64 9 8 10 7 6 -6 -4 -10 -2 -18 3 -18 6 0 10 8 10 18 0 10 7 19 15 19 8 0 15 -6 15 -14z m1544 -28 c9 -11 16 -15 16 -8 0 6 9 11 20 10 18 -1 18 -3 -5 -33 -14 -18 -25 -37 -25 -43 0 -6 -4 -11 -10 -11 -15 0 -12 -38 4 -47 7 -4 17 -23 21 -40 6 -31 5 -33 -19 -33 -14 0 -26 3 -27 8 -1 6 -4 87 -8 176 -1 28 -1 29 -21 11 -19 -18 -20 -17 -20 3 0 35 50 40 74 7z m-773 -39 c-7 -8 -10 -21 -6 -28 4 -7 0 -5 -9 6 -12 14 -12 22 -3 37 7 11 15 15 21 9 6 -6 4 -15 -3 -24z m-691 -49 c0 -15 -3 -16 -20 -7 -19 10 -27 40 -13 53 8 9 32 -24 33 -46z m17 -114 c-2 -32 -3 -6 -3 57 0 63 1 89 3 58 2 -32 2 -84 0 -115z m851 139 c13 -20 13 -25 1 -33 -12 -8 -12 -10 1 -18 13 -9 13 -10 0 -15 -33 -10 -90 -14 -95 -6 -3 4 -19 6 -35 4 -17 -3 -30 -1 -30 5 0 10 14 15 33 12 5 -1 6 3 3 7 -10 17 32 45 59 40 14 -3 28 -1 31 4 3 4 2 8 -3 7 -4 -1 -17 -1 -28 1 -20 1 -20 2 0 9 32 13 46 9 63 -17z m-961 -134 c-2 -29 -3 -8 -3 47 0 55 1 79 3 53 2 -26 2 -71 0 -100z m-290 35 c-2 -21 -4 -6 -4 32 0 39 2 55 4 38 2 -18 2 -50 0 -70z m1103 86 c0 -5 4 -7 10 -4 6 4 7 -1 3 -11 -4 -11 -8 -13 -11 -6 -2 7 -8 10 -13 6 -5 -3 -9 2 -9 10 0 9 5 16 10 16 6 0 10 -5 10 -11z m-902 -36 c-10 -2 -26 -2 -35 0 -10 3 -2 5 17 5 19 0 27 -2 18 -5z m-58 -19 c0 -11 6 -15 19 -11 18 4 18 2 7 -47 -7 -29 -11 -57 -9 -62 7 -21 -42 -7 -53 15 -14 28 -27 12 -19 -22 5 -17 2 -26 -9 -30 -9 -4 -16 -2 -16 3 0 6 6 10 13 10 8 0 9 2 1 8 -6 4 -13 33 -16 64 -4 52 -3 57 16 61 12 2 4 5 -16 6 -63 2 -43 21 22 21 49 0 60 -3 60 -16z m-249 -29 c5 4 7 10 4 15 -3 4 6 3 20 -3 14 -7 25 -19 25 -27 1 -12 3 -11 11 3 5 9 15 17 22 17 7 0 6 -4 -3 -10 -11 -7 -12 -12 -3 -18 16 -10 20 -97 4 -116 -7 -9 -11 -22 -8 -31 4 -8 -3 -21 -16 -30 -28 -19 -41 -19 -33 1 3 8 2 12 -4 9 -6 -3 -10 -13 -10 -21 0 -8 -9 -14 -22 -13 -22 0 -22 1 -3 9 17 7 16 9 -10 11 -16 1 -40 1 -53 2 -42 0 -103 119 -68 133 9 3 16 12 16 20 0 8 4 14 8 14 5 0 15 12 23 26 19 37 48 45 71 22 10 -10 23 -16 29 -13z m1084 -5 c11 9 15 9 15 1 0 -7 5 -9 10 -6 6 3 10 1 10 -5 0 -6 5 -8 10 -5 6 4 10 -5 10 -20 0 -16 4 -24 11 -19 6 3 4 -8 -5 -24 -11 -21 -12 -33 -5 -37 7 -5 6 -12 -3 -23 -9 -11 -12 -30 -9 -52 l6 -35 27 30 c15 16 25 32 22 37 -3 4 2 5 11 1 13 -5 14 -7 3 -14 -9 -6 -5 -9 14 -9 15 0 30 5 33 10 3 6 16 -2 29 -17 34 -42 48 -71 36 -78 -5 -3 -10 -14 -10 -24 0 -10 -9 -30 -20 -43 -10 -14 -16 -28 -13 -32 4 -4 8 -13 9 -22 2 -11 -5 -14 -28 -12 -22 2 -35 11 -47 33 -31 58 -31 58 -52 39 -15 -13 -39 -17 -116 -18 -54 -1 -107 3 -118 7 -19 8 -19 9 -1 22 18 13 17 14 -8 21 -29 7 -35 23 -8 25 9 1 1 5 -18 9 -31 7 -32 7 -7 9 24 1 41 21 17 21 -13 0 -13 37 0 42 6 2 12 17 13 33 1 17 6 28 11 25 5 -3 12 5 17 17 6 16 13 20 30 16 17 -5 21 -3 16 9 -4 12 -1 14 14 11 21 -6 36 -23 21 -23 -6 0 -8 -9 -5 -20 6 -24 25 -27 21 -4 -2 10 3 19 10 21 6 3 12 0 12 -7 0 -6 5 -8 10 -5 6 4 18 1 27 -7 14 -11 16 -10 11 7 -3 11 1 26 9 33 19 18 16 41 -4 38 -10 -2 -20 -14 -23 -27 -6 -29 -20 -31 -44 -7 -16 17 -16 18 8 29 23 11 26 39 4 39 -5 0 -6 -5 -2 -12 4 -7 3 -8 -4 -4 -7 4 -12 17 -12 28 0 20 1 21 20 3 16 -15 22 -15 35 -5z m685 -213 c0 -7 -12 -14 -27 -15 -26 -2 -26 -1 -7 13 24 18 34 19 34 2z m-30 -106 c0 -4 -9 -7 -19 -8 -13 -1 -18 3 -15 12 5 13 34 10 34 -4z m-585 -106 c115 -16 257 -58 276 -81 8 -10 13 -39 13 -70 -2 -76 -55 -181 -128 -254 l-56 -54 0 49 c0 66 -26 114 -73 138 -83 43 -300 30 -489 -28 -43 -13 -78 -22 -78 -20 0 1 9 22 20 46 11 24 20 59 20 77 0 30 -2 32 -32 32 -26 0 -51 -15 -113 -66 -104 -85 -209 -141 -305 -163 l-39 -9 32 40 c65 81 220 199 344 262 119 60 331 113 458 115 28 0 95 -6 150 -14z m423 -208 c2 -15 15 -36 29 -47 14 -11 21 -20 16 -20 -10 0 -22 -38 -28 -83 -1 -10 5 -22 14 -27 9 -5 11 -10 5 -10 -13 0 -41 30 -36 38 5 7 -51 41 -59 36 -4 -2 -11 1 -15 7 -5 8 -2 10 7 5 8 -4 4 1 -7 11 -32 27 -36 54 -14 88 11 17 20 27 20 23 0 -4 10 -3 23 2 31 12 42 7 45 -23z m212 -107 c228 -226 356 -544 336 -840 -27 -425 -304 -804 -708 -971 -81 -33 -85 -34 -68 -14 6 8 64 42 128 76 142 75 197 113 285 198 211 204 317 460 317 765 0 195 -37 350 -123 522 -55 109 -187 265 -289 341 -27 19 -48 41 -48 49 0 23 81 -37 170 -126z m-10 -107 c0 -7 5 -13 12 -13 6 0 9 -3 6 -6 -10 -9 -48 20 -48 36 0 9 -6 22 -12 30 -7 8 -1 4 15 -9 15 -14 27 -30 27 -38z m-110 7 c27 -21 45 -26 35 -10 -12 19 4 10 30 -17 14 -16 25 -23 23 -16 -2 6 2 11 7 11 6 0 9 -4 8 -9 -2 -4 4 -6 12 -3 8 4 15 1 15 -5 0 -6 6 -11 13 -11 21 0 58 -45 54 -66 -4 -26 -26 -63 -27 -45 0 11 -4 9 -14 -5 -11 -14 -11 -21 -3 -27 8 -5 4 -7 -8 -5 -13 3 -19 10 -17 22 2 11 -1 15 -7 11 -6 -3 -11 -2 -11 4 0 5 -15 27 -34 47 -19 21 -33 41 -30 45 2 4 -9 22 -26 40 -16 19 -30 30 -30 25 0 -5 -7 -3 -15 4 -16 13 -20 30 -7 30 4 0 18 -9 32 -20z m190 -252 c13 -21 16 -34 9 -39 -8 -5 -8 -9 0 -13 6 -4 8 -12 5 -18 -4 -6 -14 4 -25 23 -9 19 -15 37 -12 41 2 5 0 8 -5 8 -6 0 -12 7 -16 15 -11 29 24 15 44 -17z m76 -140 c6 22 34 32 34 11 0 -5 4 -8 9 -4 17 10 26 -19 34 -100 1 -11 -3 -19 -10 -18 -7 2 -10 -4 -7 -12 4 -10 0 -13 -15 -10 -16 3 -22 -2 -27 -23 -12 -56 -23 -67 -17 -18 5 38 3 47 -6 41 -10 -5 -11 -2 -6 14 4 13 2 21 -5 21 -7 0 -9 8 -5 20 3 11 3 20 -2 20 -4 0 -9 19 -10 43 -2 41 -2 41 12 17 l15 -25 6 23z m-1546 -45 c-8 -3 -18 -11 -22 -17 -5 -7 -8 -4 -8 7 0 11 7 17 23 16 15 0 17 -2 7 -6z m1573 -400 c18 -11 37 -12 37 -2 0 5 5 9 10 9 25 0 -4 -143 -36 -181 -8 -8 -14 -21 -14 -27 0 -7 -4 -12 -9 -12 -5 0 -8 18 -6 40 4 47 -4 50 -28 13 l-18 -28 7 35 c3 19 8 57 10 84 1 27 8 52 14 56 7 4 9 22 6 46 -6 38 -6 38 4 7 6 -18 16 -35 23 -40z m-1332 -6 c-1 -4 -1 -14 -1 -24 0 -23 -13 -7 -15 17 -1 12 2 19 7 18 5 -2 9 -7 9 -11z m78 -64 c1 -17 -11 -16 -35 2 -19 15 -19 15 1 30 18 14 20 14 27 -2 3 -10 7 -24 7 -30z m-279 -46 c0 -5 -4 -5 -10 -2 -6 3 -10 -4 -10 -16 0 -12 -3 -20 -6 -16 -3 3 -3 20 1 38 5 23 10 28 16 18 5 -8 9 -18 9 -22z m287 -82 c0 -8 -6 -16 -13 -19 -7 -3 -10 2 -7 15 6 22 20 26 20 4z m-520 -92 c-3 -10 -5 -2 -5 17 0 19 2 27 5 18 2 -10 2 -26 0 -35z m1637 -7 c-9 -14 -12 -26 -6 -26 6 0 9 -8 7 -17 -2 -10 -4 -21 -4 -25 -1 -5 -5 -8 -9 -8 -5 0 -8 12 -8 28 1 32 28 101 34 84 2 -6 -4 -22 -14 -36z m-1144 -30 c0 -14 -20 -45 -20 -31 0 6 -3 20 -6 33 -5 18 -3 21 10 16 9 -3 16 -11 16 -18z m-493 -98 c-2 -13 -4 -5 -4 17 -1 22 1 32 4 23 2 -10 2 -28 0 -40z m1563 -14 c-13 -33 -14 -32 17 -28 41 4 48 -6 19 -31 -14 -12 -23 -24 -21 -27 3 -2 -7 -15 -22 -29 -15 -13 -22 -17 -15 -7 8 10 9 18 3 22 -6 4 -9 12 -7 19 1 7 1 9 -1 5 -3 -5 -11 -8 -19 -8 -23 0 -10 61 17 83 13 11 23 24 21 29 -1 5 2 7 7 3 7 -4 7 -15 1 -31z m-1600 -44 c0 -5 -7 -10 -15 -10 -8 0 -15 5 -15 10 0 6 7 10 15 10 8 0 15 -4 15 -10z m1773 -109 c-10 -22 -24 -41 -31 -41 -8 0 -10 -5 -6 -12 4 -7 3 -10 -1 -5 -5 4 -17 0 -27 -10 -23 -21 -24 0 0 26 9 10 30 35 47 55 16 19 31 34 33 32 1 -2 -5 -22 -15 -45z m-319 14 c-13 -20 -14 -26 -3 -30 31 -11 65 -12 79 -1 8 6 6 0 -5 -13 -19 -22 -62 -46 -77 -43 -5 1 -8 -6 -8 -15 0 -10 -4 -14 -8 -8 -11 16 -42 17 -42 2 0 -8 -18 -19 -40 -26 -22 -6 -39 -15 -39 -19 4 -22 -3 -30 -21 -25 -11 3 -20 0 -20 -6 0 -6 -12 -11 -26 -11 -14 0 -23 4 -19 10 4 6 11 8 16 5 5 -4 4 5 -2 18 -9 21 -8 28 10 46 12 12 28 21 37 21 9 0 12 5 8 12 -4 7 -3 8 4 4 15 -9 113 55 105 68 -4 6 -3 8 2 4 4 -4 19 2 33 12 33 26 36 25 16 -5z m-250 -62 c6 3 12 -3 12 -14 0 -10 -2 -16 -5 -14 -7 7 -31 -16 -26 -25 3 -4 -3 -14 -12 -21 -9 -8 -14 -9 -10 -3 4 7 -2 14 -13 17 -28 7 -25 36 8 70 26 28 27 28 30 7 2 -12 9 -19 16 -17z m-308 -18 c38 -3 90 -2 116 3 60 12 54 0 -12 -24 -46 -17 -50 -21 -50 -50 0 -28 4 -33 28 -36 26 -3 26 -4 -11 -16 -37 -14 -37 -14 -95 36 -31 28 -65 64 -75 81 l-18 31 24 -9 c14 -5 55 -12 93 -16z m220 -101 c-5 -13 -1 -15 17 -10 15 3 31 -2 50 -18 l27 -23 -32 -25 c-18 -13 -41 -27 -50 -31 -10 -3 -18 -14 -18 -24 0 -14 -3 -14 -16 5 -9 13 -13 29 -10 37 3 8 -1 21 -8 28 -12 12 -10 19 11 45 27 35 39 41 29 16z m-86 -114 c0 -3 -13 -6 -30 -7 -22 -2 -28 1 -23 13 3 8 12 13 19 10 8 -3 14 0 14 7 0 11 20 -11 20 -23z m28 16 c-7 -8 -16 -12 -21 -9 -11 7 2 23 19 23 12 0 12 -2 2 -14z"></path><path id="pKP0enZBq" d="M2340 3385 c-7 -9 -9 -15 -4 -14 20 3 26 -2 16 -13 -7 -9 -6 -17 4 -26 12 -11 14 -9 14 8 0 13 4 19 11 14 7 -4 10 -2 8 5 -3 7 -9 12 -14 11 -5 -1 -12 6 -15 15 -6 16 -7 16 -20 0z"></path><path id="plj0a82h3" d="M2935 1221 c-7 -12 2 -31 15 -31 9 0 8 26 -2 35 -3 4 -9 2 -13 -4z"></path><path id="pJOf0qMKz" d="M2990 1208 c0 -10 2 -18 5 -18 2 0 9 8 14 18 8 14 6 19 -5 19 -7 0 -14 -9 -14 -19z"></path><path id="pMRnZxcGp" d="M2173 3888 c1 -36 7 -63 13 -65 7 -2 10 -13 7 -23 -4 -15 0 -20 13 -20 15 0 16 2 5 9 -7 5 -10 14 -6 20 5 9 10 9 21 0 7 -6 11 -15 8 -20 -3 -5 2 -6 10 -3 9 3 16 10 16 16 0 5 -4 6 -10 3 -5 -3 -10 -1 -10 4 0 6 5 11 10 11 6 0 10 18 10 40 l0 41 50 -7 c34 -5 50 -3 50 5 0 6 -11 11 -24 11 -13 0 -26 5 -28 11 -2 6 -19 11 -38 12 l-34 2 2 -55 c1 -36 -1 -48 -7 -35 -4 10 -7 30 -5 42 1 13 -2 23 -7 23 -6 0 -8 4 -5 9 3 4 -5 13 -18 19 -24 11 -24 10 -23 -50z"></path><path id="pWVGZVaB7" d="M2075 3930 c-3 -5 -2 -10 3 -10 5 0 8 -22 7 -50 -2 -27 1 -50 6 -50 5 0 9 18 9 41 0 33 3 40 18 37 12 -2 18 -14 20 -41 4 -50 22 -48 22 3 0 27 -7 47 -20 60 -21 21 -55 26 -65 10z"></path><path id="p1Hr3Df3fD" d="M2386 3912 c-3 -6 -1 -14 5 -17 15 -10 25 3 12 16 -7 7 -13 7 -17 1z"></path><path id="pnV5WSUe2" d="M1853 3849 c9 -5 18 -20 18 -32 1 -18 2 -18 6 -4 5 20 -13 47 -31 47 -6 0 -3 -5 7 -11z"></path><path id="pokDiaFK5" d="M2120 3846 c0 -8 -2 -21 -5 -29 -3 -7 0 -14 8 -14 9 0 12 10 9 29 -4 29 -12 38 -12 14z"></path><path id="pViZaxHYI" d="M1354 3825 c-23 -18 -29 -30 -27 -57 2 -30 1 -31 -6 -8 -9 24 -9 23 -10 -8 -1 -18 3 -31 8 -28 5 4 12 0 14 -6 3 -7 6 -3 6 8 1 15 9 24 26 28 14 4 23 11 20 16 -3 6 1 10 9 10 20 0 22 56 3 63 -8 3 -27 -5 -43 -18z"></path><path id="pUc1nHKXy" d="M1712 3839 c2 -7 10 -15 17 -17 8 -3 12 1 9 9 -2 7 -10 15 -17 17 -8 3 -12 -1 -9 -9z"></path><path id="p85yoOHGj" d="M1577 3763 c-10 -9 -9 -33 1 -33 4 0 8 9 9 20 2 21 0 24 -10 13z"></path><path id="pNCbQBk84" d="M3723 3739 c-5 -5 -19 -10 -31 -12 -62 -9 -50 -43 30 -85 l62 -32 12 22 c22 42 -43 137 -73 107z"></path><path id="p1BBxHoXjN" d="M1960 3670 c0 -5 9 -10 19 -10 17 0 19 -7 15 -71 -3 -51 -1 -68 8 -63 8 5 9 0 5 -15 -3 -13 -3 -20 0 -17 3 3 12 -2 20 -12 13 -15 14 -11 9 32 -3 27 -6 75 -6 107 l0 59 -35 0 c-19 0 -35 -4 -35 -10z"></path><path id="prkxs7JYV" d="M2163 3535 c0 -22 2 -30 4 -17 2 12 2 30 0 40 -3 9 -5 -1 -4 -23z"></path><path id="p11YXXz3ju" d="M2120 3536 c0 -7 -7 -19 -15 -26 -12 -10 -13 -16 -4 -29 6 -9 -1 -3 -16 13 l-27 29 3 -39 c4 -57 21 -85 72 -117 24 -15 27 -16 27 -2 0 9 4 14 9 11 18 -11 3 48 -15 61 -16 12 -16 13 -1 13 9 0 17 5 17 10 0 6 -4 10 -10 10 -5 0 -10 18 -10 40 0 29 -4 40 -15 40 -8 0 -15 -6 -15 -14z"></path><path id="p1EjLvpag" d="M3773 3391 c-12 -10 -25 -30 -28 -44 -6 -23 -4 -24 23 -22 17 1 41 13 54 27 24 25 33 47 21 49 -5 0 -17 2 -28 4 -11 2 -30 -4 -42 -14z"></path><path id="p19FDCBeyA" d="M1782 3378 c-17 -17 -15 -41 3 -35 8 4 17 2 20 -3 7 -11 45 9 45 23 0 4 -4 6 -9 3 -5 -3 -14 1 -21 9 -15 18 -22 19 -38 3z"></path><path id="p8PhVTiuZ" d="M1968 3332 c-4 -13 -2 -20 4 -16 6 4 5 -3 -1 -15 -10 -17 -9 -21 3 -21 18 0 27 13 31 46 2 18 -1 22 -10 14 -9 -8 -14 -7 -17 2 -3 7 -7 3 -10 -10z"></path><path id="phHHjx5Db" d="M3701 3302 c-27 -4 -70 -49 -71 -74 0 -41 78 -38 81 4 2 22 3 27 14 51 9 22 7 24 -24 19z"></path><path id="p1G3X7meH4" d="M2013 3274 c9 -3 15 -10 12 -15 -4 -5 -1 -9 5 -9 19 0 5 25 -16 27 -16 2 -16 1 -1 -3z"></path><path id="p1B6lyvvIS" d="M1700 3214 c0 -14 3 -14 15 -4 8 7 15 14 15 16 0 2 -7 4 -15 4 -8 0 -15 -7 -15 -16z"></path><path id="pPmt0V1Se" d="M1723 3025 c-15 -16 -17 -29 -4 -21 5 3 12 -1 15 -9 5 -13 8 -13 24 2 17 16 18 19 4 31 -20 15 -24 15 -39 -3z"></path><path id="pPNwcDolj" d="M1460 2861 c-14 -4 -31 -20 -39 -35 -12 -25 -11 -30 3 -38 9 -5 16 -17 17 -26 1 -10 4 -7 8 8 4 14 3 28 -1 31 -5 3 5 17 21 30 45 35 42 44 -9 30z"></path><path id="plfLNfqol" d="M1479 2806 c-10 -20 -9 -28 5 -41 9 -9 17 -13 17 -8 10 69 -2 94 -22 49z"></path><path id="pVUHKmZ1" d="M2188 2706 c-2 -19 0 -32 4 -30 4 3 8 13 8 23 0 9 5 22 12 29 9 9 8 12 -4 12 -11 0 -17 -11 -20 -34z"></path><path id="pvdULmCYC" d="M3529 2688 c-5 -17 -4 -50 3 -54 4 -3 8 0 8 5 0 6 7 11 15 11 16 0 16 20 0 32 -10 8 -24 10 -26 6z"></path><path id="pu7VMTuOO" d="M2216 2639 c13 -14 13 -21 3 -38 -15 -23 -13 -26 18 -35 15 -5 27 0 43 16 12 13 16 24 10 26 -6 2 -15 15 -20 28 -8 19 -16 24 -39 22 -28 -2 -29 -4 -15 -19z"></path><path id="p18lucNo2i" d="M2875 2596 c-8 -53 -2 -66 31 -66 22 0 24 3 18 23 -4 12 -11 25 -16 28 -4 3 -7 16 -6 29 6 45 -20 32 -27 -14z"></path><path id="p14FGhu1Wz" d="M2140 2504 c0 -10 -5 -14 -16 -10 -8 3 -13 2 -10 -3 9 -14 -37 -22 -47 -8 -6 8 -7 5 -3 -7 5 -15 2 -17 -14 -13 -11 3 -18 1 -15 -3 3 -5 -4 -11 -15 -15 -11 -4 -20 -15 -20 -27 0 -16 3 -18 13 -9 8 6 16 8 19 5 10 -9 88 38 81 49 -4 6 0 8 10 4 14 -5 32 17 29 35 -1 4 6 5 16 2 14 -5 15 -4 2 5 -21 15 -30 14 -30 -5z"></path><path id="pHpNT0FrW" d="M2218 2501 c-7 -12 -16 -21 -21 -21 -4 0 -5 5 -1 12 4 6 3 9 -2 6 -5 -3 -18 -8 -29 -12 -15 -6 -16 -9 -6 -15 11 -7 9 -10 -7 -16 -17 -5 -19 -9 -10 -19 9 -10 16 -8 30 6 10 10 23 16 28 13 5 -3 12 5 16 17 4 13 12 26 18 30 6 4 7 10 4 13 -4 4 -13 -2 -20 -14z"></path><path id="pit1R4kXX" d="M2470 2494 c0 -14 4 -23 9 -20 5 3 7 15 4 26 -7 28 -13 25 -13 -6z"></path><path id="pp0DZbOZX" d="M2507 2513 c-7 -16 -2 -36 12 -41 10 -3 11 2 6 19 -3 13 -3 19 2 13 4 -6 18 -13 30 -16 20 -5 21 -4 12 13 -9 18 -54 27 -62 12z"></path><path id="p1AJhb9ZHK" d="M2430 2450 c10 -20 21 -24 48 -21 8 1 20 -3 28 -10 12 -10 13 -9 8 5 -3 9 -14 16 -24 16 -10 0 -25 6 -32 13 -24 21 -40 20 -28 -3z"></path><path id="p6In8QgVn" d="M2465 2410 c-3 -5 -22 -7 -42 -4 -24 4 -33 2 -28 -5 3 -6 -1 -11 -10 -11 -9 0 -13 4 -10 10 3 6 -1 7 -9 4 -9 -3 -13 -10 -10 -15 3 -5 -1 -9 -8 -9 -7 0 -36 -11 -64 -24 -48 -22 -53 -23 -69 -8 -16 16 -17 16 -5 -7 7 -13 7 -21 2 -17 -15 9 -42 -4 -42 -19 0 -8 -5 -17 -12 -21 -7 -5 -9 -2 -4 7 4 8 -1 3 -13 -11 l-20 -25 23 -3 c30 -4 115 48 116 70 0 12 11 19 38 23 20 3 58 11 84 17 65 14 116 -3 130 -44 l11 -31 12 29 c7 17 8 32 3 35 -5 3 -10 13 -12 21 -5 36 -46 62 -61 38z"></path><path id="p164H80GM1" d="M2530 2404 c0 -14 3 -14 15 -4 8 7 15 14 15 16 0 2 -7 4 -15 4 -8 0 -15 -7 -15 -16z"></path><path id="p12CR3F53k" d="M2583 2318 c0 -21 5 -34 9 -30 4 4 3 21 -2 37 -9 30 -9 30 -7 -7z"></path><path id="p11XWBbATQ" d="M2521 2239 c-1 -21 5 -42 14 -49 8 -7 15 -19 15 -27 0 -8 5 -11 10 -8 6 4 19 1 28 -7 15 -12 16 -11 3 4 -7 10 -11 27 -8 37 3 12 -3 27 -16 38 -11 10 -17 12 -12 4 6 -10 4 -12 -4 -7 -7 5 -16 18 -21 30 -7 18 -9 15 -9 -15z"></path><path id="pnli24zW" d="M1549 2253 c-3 -31 -10 -48 -19 -51 -7 -3 -28 -18 -48 -36 l-36 -31 26 47 c20 37 23 46 10 39 -50 -27 -70 -70 -96 -201 -25 -127 -28 -191 -12 -235 l15 -40 1 48 c0 26 5 47 11 47 5 0 8 -4 4 -9 -3 -5 0 -13 6 -16 5 -4 8 -13 5 -21 -3 -8 -1 -14 4 -14 5 0 10 6 13 13 2 6 2 0 0 -15 -3 -19 0 -28 9 -28 13 0 58 108 58 138 0 15 121 225 132 230 5 2 8 16 8 30 -1 27 -1 27 -37 -13 -21 -23 -30 -30 -23 -16 17 34 0 49 -40 34 -36 -14 -37 -7 -7 34 22 30 24 31 35 12 14 -23 32 -25 32 -4 0 8 5 15 11 15 5 0 7 5 4 11 -5 7 -14 4 -26 -7 -20 -18 -24 -12 -20 29 1 9 -3 17 -8 17 -6 0 -11 -3 -12 -7z m-93 -262 c12 10 16 9 21 -9 3 -12 9 -20 13 -17 5 3 3 -8 -3 -25 -6 -16 -14 -25 -18 -19 -3 6 -12 -3 -19 -20 -7 -17 -16 -28 -21 -25 -5 3 -7 9 -4 14 3 4 -2 10 -9 13 -11 4 -16 -3 -19 -26 -4 -31 -4 -31 -5 6 -1 20 3 37 9 37 6 0 8 8 4 20 -3 10 -3 36 1 56 l7 37 14 -27 c12 -23 17 -25 29 -15z"></path><path id="p4HVfc9cP" d="M3739 2243 c-1 -5 -1 -11 -1 -14 1 -3 -10 -5 -23 -3 -20 2 -25 -2 -25 -21 0 -12 6 -25 14 -28 19 -8 45 23 43 51 -1 22 -6 29 -8 15z"></path><path id="pegPkTuFu" d="M990 2175 c0 -16 6 -25 15 -25 8 0 15 9 15 19 0 14 8 21 28 24 19 3 14 4 -15 6 -40 1 -43 -1 -43 -24z"></path><path id="p17zHzLswd" d="M2070 2105 c0 -50 4 -85 10 -85 6 0 10 35 10 85 0 50 -4 85 -10 85 -6 0 -10 -35 -10 -85z"></path><path id="pIL0SMOtd" d="M2552 2130 c5 -16 56 -35 65 -26 10 10 -9 24 -41 32 -22 5 -28 4 -24 -6z"></path><path id="pppdESJv1" d="M1706 2084 c-3 -8 -2 -13 3 -9 5 3 11 -1 14 -7 2 -7 8 -10 12 -6 4 4 1 14 -8 22 -13 14 -16 14 -21 0z"></path><path id="p10ujFEZIx" d="M2650 2016 c0 -9 6 -16 14 -16 32 0 31 -50 -2 -120 -22 -44 -20 -196 2 -257 10 -28 13 -62 10 -100 -5 -53 -4 -56 10 -39 8 10 19 15 25 11 6 -3 11 -1 11 4 0 6 7 11 15 11 19 0 38 46 30 71 -4 11 -13 16 -25 14 -11 -2 -20 1 -20 6 0 6 -5 7 -12 3 -8 -5 -9 -2 -5 9 3 10 2 17 -3 17 -6 0 -10 5 -10 11 0 8 5 7 16 -2 24 -20 42 -19 47 2 3 12 0 19 -9 19 -8 0 -14 7 -14 15 0 8 3 15 8 15 4 0 8 37 10 83 3 98 9 137 24 154 6 7 7 13 2 13 -5 0 -1 7 10 15 11 8 16 21 13 30 -10 23 -29 18 -25 -7 2 -15 -3 -24 -14 -26 -21 -4 -24 18 -6 36 9 9 9 12 0 12 -16 0 -29 -53 -14 -58 17 -5 15 -52 -2 -52 -7 0 -19 -7 -26 -15 -15 -19 -23 -14 -14 9 3 9 11 13 17 9 6 -4 8 0 4 11 -4 9 -3 15 1 12 16 -9 7 79 -8 90 -29 22 -60 27 -60 10z m29 -209 c-5 -21 -7 -42 -4 -47 3 -6 1 -10 -4 -10 -6 0 -11 6 -11 13 0 19 21 89 25 85 3 -2 0 -21 -6 -41z m77 -239 c4 -6 2 -14 -4 -16 -7 -2 -10 -7 -7 -12 3 -4 -2 -11 -11 -14 -8 -3 -12 -2 -9 4 3 6 1 10 -4 10 -15 0 -14 27 2 33 20 9 25 8 33 -5z"></path><path id="p12TCkIRbK" d="M3661 1988 c-5 -14 -4 -32 2 -45 11 -25 16 -27 35 -15 23 15 21 46 -4 65 -24 18 -24 18 -33 -5z"></path><path id="pDb2LUTHt" d="M1207 1914 c-7 -8 13 -64 23 -64 5 0 4 15 -2 33 -13 39 -13 39 -21 31z"></path><path id="pGVl7yqWP" d="M1181 1863 c-1 -17 4 -35 9 -38 11 -7 11 9 0 45 -8 24 -8 24 -9 -7z"></path><path id="p11AXPumrD" d="M2875 1840 c-3 -11 -11 -20 -16 -20 -5 0 -9 -7 -9 -16 0 -8 5 -12 10 -9 6 3 10 -1 10 -9 0 -9 4 -16 8 -16 5 0 9 20 11 45 2 48 -4 58 -14 25z"></path><path id="pvyJEmp69" d="M981 1697 c-17 -18 -27 -37 -24 -48 6 -21 32 -46 53 -49 25 -4 80 12 74 21 -3 5 0 9 6 9 7 0 -2 14 -20 30 -29 27 -27 37 4 31 5 -1 4 4 -3 12 -23 29 -60 27 -90 -6z"></path><path id="paqVyxMOB" d="M2879 1713 c-1 -4 -2 -19 -3 -33 -1 -18 -7 -26 -23 -28 -17 -3 -23 -10 -23 -28 0 -14 4 -23 9 -19 6 3 8 -3 6 -15 -5 -24 6 -32 25 -19 8 5 11 9 5 9 -5 0 -5 4 2 8 6 4 13 14 15 22 2 8 9 21 16 28 7 8 10 23 6 35 -7 24 -33 53 -35 40z"></path><path id="pAHgsXZou" d="M1370 1665 c0 -33 2 -35 35 -35 33 0 35 2 35 35 0 19 -4 35 -10 35 -5 0 -10 -8 -10 -17 0 -10 -5 -25 -11 -33 -9 -13 -10 -13 -8 0 3 34 -2 50 -16 50 -10 0 -15 -11 -15 -35z"></path><path id="pDsBlQnFM" d="M3562 1678 c-7 -7 -12 -25 -12 -42 l0 -29 20 23 20 23 0 -31 c0 -18 5 -32 11 -32 14 0 3 70 -15 88 -9 9 -14 10 -24 0z"></path><path id="pPh7haSN2" d="M3773 1657 c-12 -19 -11 -56 1 -60 15 -6 42 15 40 31 -1 6 -2 16 -3 21 -2 15 -30 21 -38 8z"></path><path id="pQTQN3dNE" d="M1740 1535 c0 -44 3 -55 16 -55 11 0 14 5 10 16 -3 9 -6 33 -6 55 0 21 -4 39 -10 39 -5 0 -10 -25 -10 -55z"></path><path id="p8uUOjHJM" d="M1773 1533 c-1 -19 1 -22 8 -12 11 17 12 39 2 39 -5 0 -9 -12 -10 -27z"></path><path id="pzevTUG4i" d="M3466 1496 c-43 -44 -44 -71 -3 -70 15 0 27 -3 27 -7 0 -4 13 -2 29 4 35 13 58 52 35 61 -8 3 -14 1 -14 -4 0 -6 -5 -10 -11 -10 -5 0 -8 3 -5 8 2 4 -2 18 -9 32 l-13 24 -36 -38z"></path><path id="p1CwgHSq8L" d="M2300 1450 c14 -11 29 -20 33 -20 5 0 6 -4 3 -9 -3 -5 5 -8 19 -7 31 1 36 36 5 36 -11 0 -20 5 -20 10 0 6 -15 10 -32 10 l-33 0 25 -20z"></path><path id="payQPB3JL" d="M2440 1406 c0 -20 26 -23 83 -12 67 14 58 26 -18 26 -50 0 -65 -3 -65 -14z"></path><path id="p103Aa7RTA" d="M1867 1310 c-3 -11 -1 -18 4 -14 5 3 9 -1 9 -9 0 -8 13 -41 30 -73 36 -71 37 -78 6 -39 -13 17 -30 30 -37 30 -7 0 -14 6 -17 14 -3 9 0 11 8 6 9 -5 11 -4 6 4 -4 6 -11 9 -16 6 -5 -3 -13 3 -19 12 -9 16 -10 14 -11 -10 0 -35 15 -61 65 -114 32 -36 45 -43 75 -42 19 0 29 3 22 6 -7 2 -17 14 -24 26 -11 22 -11 22 11 3 21 -19 21 -19 21 7 0 15 -10 37 -22 49 -54 53 -78 91 -78 124 0 38 -24 48 -33 14z"></path><path id="pFT1hC2da" d="M3481 1300 c-11 -6 -9 -14 10 -38 22 -28 68 -44 70 -24 0 4 3 20 5 35 3 19 1 26 -6 22 -5 -3 -10 -2 -10 3 0 5 -7 9 -15 9 -8 0 -15 -5 -15 -10 0 -5 -5 -5 -13 1 -7 6 -18 7 -26 2z"></path><path id="pPZJJw2Q6" d="M2020 1185 c0 -41 40 -127 78 -167 15 -16 36 -28 51 -28 l25 0 -30 32 c-16 18 -20 25 -8 15 11 -9 29 -17 39 -17 15 0 16 2 4 18 -13 16 -13 16 7 0 26 -23 34 -23 34 0 0 10 -21 38 -46 62 -25 25 -55 62 -66 83 -18 31 -27 37 -55 37 -31 0 -33 -2 -33 -35z"></path><path id="p1D0wFKrWu" d="M2260 1074 c0 -34 28 -64 62 -64 24 0 28 3 19 13 -8 10 -7 17 1 25 7 7 9 13 5 13 -4 1 -13 2 -19 3 -7 1 -12 7 -11 12 1 6 -5 11 -13 11 -12 0 -11 -4 2 -26 16 -25 15 -25 -15 3 -28 26 -31 28 -31 10z"></path><path id="p10Dsau8QD" d="M3377 1011 c-15 -10 -35 -27 -42 -39 -13 -17 -13 -21 1 -26 18 -7 54 10 54 25 0 6 6 7 13 3 6 -4 9 -4 5 0 -4 5 -3 19 2 32 11 29 4 30 -33 5z"></path><path id="p1BVROmox" d="M3173 991 c-3 -11 -8 -21 -12 -21 -11 0 -8 -44 3 -52 25 -17 112 4 100 23 -3 5 1 9 8 9 9 0 9 3 -2 10 -8 5 -11 10 -7 10 20 0 -25 31 -53 36 -26 6 -32 3 -37 -15z"></path><path id="pz3byRL7F" d="M2123 973 c-89 -5 -78 -23 15 -25 l77 -1 -65 -7 -65 -7 62 -1 c34 -1 65 3 68 8 7 11 -12 42 -24 38 -3 -1 -34 -3 -68 -5z"></path><path id="piB6SC4yJ" d="M2836 744 c-19 -19 -13 -34 12 -29 9 2 18 4 20 5 2 2 13 6 30 9 8 2 -28 31 -39 31 -4 0 -15 -7 -23 -16z"></path></g></g><g id="l2YCiopq0Th5MoDp2zPBUjz" fill="rgb(182,45,80)" style="transform: none;"><g><path id="pNCVA64gj" d="M2490 3846 c0 -19 6 -25 30 -28 39 -6 49 8 13 16 -27 7 -22 21 12 29 11 3 4 5 -17 6 -34 1 -38 -2 -38 -23z"></path><path id="pPFdwKoFt" d="M2527 3740 c-26 -16 -52 -30 -57 -30 -6 0 -10 -4 -10 -10 0 -5 -7 -10 -15 -10 -21 0 -19 -27 3 -32 13 -4 18 -16 19 -47 2 -51 10 -64 30 -53 10 6 16 26 17 56 3 64 36 97 104 104 39 3 59 0 90 -18 48 -27 65 -55 60 -100 -5 -50 -43 -73 -120 -75 -121 -2 -119 -28 8 -166 53 -57 99 -105 103 -107 5 -1 14 4 21 13 15 18 21 8 -83 126 l-67 77 47 7 c72 10 110 30 133 67 63 104 -34 227 -181 228 -44 0 -64 -6 -102 -30z"></path><path id="p1HeZZVnmb" d="M3015 3710 c-11 -4 -38 -6 -60 -3 -34 4 -44 1 -65 -22 -22 -24 -25 -36 -27 -113 -2 -65 -6 -88 -18 -94 -19 -11 -20 -34 -1 -45 13 -7 17 -33 25 -145 1 -5 12 -8 26 -8 24 0 25 2 25 75 0 74 0 75 26 75 21 0 25 4 22 23 -2 14 -11 23 -26 25 -22 3 -23 6 -20 90 l3 87 31 0 c30 1 32 -1 37 -47 3 -26 3 -63 0 -83 -12 -72 53 -123 115 -91 42 22 55 61 50 157 -3 74 -6 83 -31 105 -29 25 -73 30 -112 14z m94 -108 c10 -42 10 -55 -3 -87 -12 -29 -20 -36 -38 -33 -21 3 -23 9 -26 75 -2 40 2 82 8 93 17 32 44 10 59 -48z"></path><path id="pgV18WlgW" d="M3436 3710 c-51 -9 -71 -50 -71 -145 0 -74 3 -86 24 -109 31 -33 56 -41 90 -26 35 14 51 47 51 105 0 51 -16 65 -74 65 -29 0 -36 4 -36 19 0 31 22 40 105 43 74 3 80 5 83 26 2 13 -2 22 -10 22 -7 1 -40 2 -73 3 -33 2 -73 0 -89 -3z m44 -187 c-1 -50 -53 -59 -58 -10 -3 24 0 27 27 27 23 0 31 -5 31 -17z"></path><path id="p13TqyL7yL" d="M3200 3605 c0 -148 16 -175 100 -175 29 0 42 5 50 19 15 29 14 30 -36 33 -46 3 -47 4 -61 48 -9 29 -12 69 -9 113 5 66 4 67 -20 67 -24 0 -24 0 -24 -105z"></path><path id="pw1qUraKG" d="M3017 3383 c-4 -3 -7 -17 -7 -31 0 -22 3 -24 32 -20 18 3 41 0 50 -6 27 -16 54 14 39 43 -13 23 -37 28 -44 9 -3 -10 -9 -10 -26 0 -23 14 -35 15 -44 5z"></path><path id="pFgdUAPYM" d="M3402 3378 c-28 -28 2 -68 36 -47 16 10 23 10 36 0 13 -11 19 -11 31 -1 19 16 19 34 0 50 -13 10 -19 10 -34 -4 -16 -15 -19 -15 -31 -1 -15 18 -22 19 -38 3z"></path><path id="p7UK7WEBb" d="M2220 3134 c-210 -33 -403 -123 -570 -266 -58 -50 -170 -176 -170 -192 0 -3 22 -6 48 -6 110 0 257 62 377 159 113 91 109 90 90 45 -19 -46 -70 -128 -91 -144 -34 -29 -6 -24 129 20 404 136 617 91 565 -120 -8 -33 -12 -60 -8 -60 4 0 27 13 52 30 70 47 146 133 181 207 27 59 32 79 32 149 0 54 -5 86 -14 97 -19 24 -160 66 -276 82 -122 18 -232 17 -345 -1z m432 -58 c129 -33 155 -47 164 -91 9 -52 -13 -128 -59 -197 l-41 -63 -7 61 c-12 124 -62 156 -254 161 -123 4 -221 -9 -322 -42 -22 -7 -23 -5 -23 51 0 33 -3 69 -6 81 -8 28 17 39 136 58 119 20 290 12 412 -19z"></path><path id="p14lvQaxCT" d="M2955 2963 c4 -21 9 -49 11 -63 1 -14 17 -36 36 -50 365 -275 516 -748 374 -1167 -55 -160 -140 -295 -263 -414 -87 -84 -142 -123 -278 -194 -83 -44 -127 -76 -180 -128 l-70 -69 40 8 c133 24 335 115 454 205 266 201 433 501 457 820 6 80 5 87 -12 92 -17 4 -17 5 -1 6 21 1 23 49 6 168 -32 231 -153 469 -328 643 -70 70 -219 180 -243 180 -6 0 -8 -14 -3 -37z"></path><path id="pK3spTfnn" d="M2725 1330 c-44 -46 -122 -87 -187 -99 -81 -15 -148 -2 -280 54 -31 12 -21 -18 31 -96 49 -75 147 -169 175 -169 32 0 123 41 156 71 l35 30 -36 -4 c-19 -3 -50 -2 -68 2 l-33 6 50 18 c62 23 120 71 162 136 41 65 38 96 -5 51z"></path></g></g><g id="l6kKCPYsa9VTVWxvBNoUF4Y" fill="rgb(243,59,105)" style="transform: none;"><g><path id="pFiCD3xYr" d="M2535 3735 c-22 -13 -52 -25 -67 -25 -23 0 -28 -4 -28 -25 0 -16 6 -25 15 -25 11 0 15 -11 15 -37 0 -21 4 -44 9 -52 16 -24 30 -2 28 45 -2 40 2 49 30 74 39 35 92 46 143 31 77 -23 115 -76 98 -138 -12 -44 -51 -63 -132 -63 -55 0 -67 -3 -76 -20 -13 -24 -6 -33 117 -164 54 -57 77 -76 85 -68 8 8 -9 35 -62 97 -40 47 -76 88 -81 91 -21 13 -6 24 34 24 92 1 157 56 157 133 0 114 -176 189 -285 122z"></path><path id="pyOWGvzCk" d="M2920 3697 c-37 -19 -50 -54 -50 -140 0 -60 -3 -79 -15 -83 -8 -4 -15 -12 -15 -19 0 -7 7 -15 15 -19 12 -4 15 -23 15 -81 0 -67 2 -76 18 -73 14 3 18 16 20 75 2 61 6 73 22 78 11 4 24 4 29 1 5 -3 7 3 4 14 -3 13 -14 20 -29 20 -23 0 -24 2 -24 89 0 98 9 115 57 109 l27 -3 1 -93 c0 -90 1 -95 28 -118 31 -27 48 -29 80 -12 40 21 46 40 47 131 0 80 -2 90 -25 112 -21 22 -33 25 -102 25 -43 0 -89 -6 -103 -13z m188 -115 c3 -88 -5 -112 -39 -112 -27 0 -39 31 -39 100 0 77 12 102 48 98 27 -3 27 -4 30 -86z"></path><path id="p1BMajb6DP" d="M3442 3702 c-47 -5 -64 -38 -70 -131 -4 -72 -3 -79 23 -109 31 -37 61 -41 99 -11 23 18 26 28 26 80 l0 59 -55 0 c-49 0 -55 2 -55 21 0 50 15 59 101 59 70 0 80 2 77 17 -2 13 -15 17 -58 17 -30 1 -70 0 -88 -2z m44 -165 c3 -8 0 -26 -5 -40 -11 -29 -39 -35 -59 -15 -13 13 -16 50 -5 61 12 12 63 7 69 -6z"></path><path id="p7fttGL6y" d="M3210 3596 c0 -89 3 -107 21 -130 16 -21 29 -26 64 -26 29 0 45 5 49 15 4 12 -4 15 -38 15 -31 0 -46 5 -50 16 -3 9 -6 60 -6 115 0 92 -1 99 -20 99 -19 0 -20 -7 -20 -104z"></path><path id="p1XIRhVNL" d="M3027 3360 c-3 -13 0 -20 9 -20 8 0 14 9 14 20 0 11 -4 20 -9 20 -5 0 -11 -9 -14 -20z"></path><path id="pXrGW044L" d="M3091 3366 c-8 -10 -8 -16 2 -24 17 -15 39 0 31 21 -8 21 -18 22 -33 3z"></path><path id="p18eGfJhVs" d="M3401 3366 c-9 -10 -8 -16 4 -26 19 -16 41 1 32 24 -8 20 -21 20 -36 2z"></path><path id="pm6g2MQQp" d="M3470 3365 c-7 -8 -11 -15 -9 -16 45 -10 60 -1 35 20 -10 9 -16 8 -26 -4z"></path><path id="p1C8GAa0fi" d="M2215 3125 c-142 -22 -258 -64 -389 -139 -49 -28 -64 -41 -54 -47 24 -13 138 19 216 61 l73 40 9 -26 c6 -14 10 -30 10 -35 0 -5 7 -9 15 -9 10 0 15 10 15 28 0 19 11 37 33 56 28 26 44 31 130 39 84 9 97 13 97 29 0 22 -34 23 -155 3z"></path><path id="puaposmlo" d="M2460 3122 c0 -16 10 -20 63 -26 114 -13 232 -48 255 -76 7 -8 17 -25 22 -37 13 -32 50 -31 50 1 0 51 -17 73 -72 94 -61 23 -177 48 -260 57 -53 6 -58 5 -58 -13z"></path><path id="pNZiuZaEP" d="M2961 2967 c5 -17 16 -36 25 -42 237 -146 435 -445 479 -723 14 -87 15 -129 7 -267 -9 -144 -15 -175 -45 -267 -76 -227 -232 -433 -429 -566 -63 -43 -190 -106 -258 -128 -59 -19 -96 -41 -105 -63 -12 -30 140 17 275 84 271 136 489 392 573 675 31 105 35 122 47 239 12 119 -3 283 -36 400 -51 180 -186 407 -307 517 -58 52 -180 146 -214 163 -21 10 -21 10 -12 -22z"></path><path id="pXRH42IN" d="M2299 2949 c-36 -5 -94 -17 -127 -28 -61 -19 -62 -19 -62 0 0 37 -28 19 -39 -25 -18 -75 -17 -75 56 -40 130 63 373 84 466 39 82 -39 104 -126 57 -233 -12 -29 -20 -55 -17 -59 4 -3 40 27 80 68 80 81 123 155 133 232 6 42 5 47 -13 47 -28 0 -43 -20 -43 -57 0 -34 -4 -41 -52 -94 l-28 -30 0 32 c0 39 -28 99 -46 99 -8 0 -14 5 -14 10 0 6 -9 10 -19 10 -11 0 -21 5 -23 12 -8 23 -183 33 -309 17z"></path><path id="pxLgtzuRZ" d="M2660 1240 c-77 -43 -195 -64 -284 -50 -32 5 -46 3 -46 -5 0 -18 55 -97 91 -132 l34 -32 53 18 c30 10 60 25 69 33 13 13 5 16 -61 21 -80 6 -140 26 -80 27 83 0 226 69 254 120 13 24 14 24 -30 0z"></path></g></g><g id="l1aoNODZyhxFm62uc25gwDG" fill="rgb(255,55,101)" style="transform: none;"><g><path id="pBYkZf6hH" d="M2242 3125 c-79 -9 -106 -17 -118 -31 -9 -11 -13 -13 -9 -6 7 14 -4 16 -25 2 -12 -8 -12 -10 -1 -10 11 0 11 -3 1 -15 -7 -9 -13 -52 -14 -107 -1 -51 -6 -101 -11 -111 -7 -16 -1 -15 45 8 89 45 192 67 321 68 108 0 118 -1 167 -28 64 -34 85 -75 80 -150 -3 -46 -1 -52 13 -45 9 5 21 16 29 24 7 9 19 16 26 16 8 0 13 3 12 8 -2 4 6 17 17 29 40 44 46 54 49 89 2 19 8 40 15 47 23 23 11 78 -29 132 -24 33 -117 62 -277 85 -88 12 -157 11 -291 -5z"></path><path id="p11y5CrVFA" d="M1950 3045 l-25 -15 29 6 c23 6 27 4 21 -7 -5 -8 -4 -10 0 -6 11 9 16 37 7 37 -4 -1 -18 -7 -32 -15z"></path><path id="pYgu7DijY" d="M1922 3013 c-6 -2 -10 -9 -7 -13 7 -11 35 -2 35 11 0 10 -8 10 -28 2z"></path><path id="pG2CSLA6n" d="M3097 2878 c-2 -7 1 -19 8 -25 10 -9 14 -9 19 2 2 7 -1 18 -8 25 -10 8 -15 7 -19 -2z"></path><path id="pDeXtnQep" d="M3190 2776 c0 -19 27 -39 41 -30 8 5 10 2 7 -8 -4 -8 -2 -21 4 -29 8 -11 9 -10 4 5 -5 13 -2 17 9 12 21 -8 19 8 -4 28 -11 10 -25 15 -32 10 -9 -5 -10 -2 -6 9 4 11 1 17 -8 17 -8 0 -15 -6 -15 -14z"></path><path id="pVOYsl11B" d="M3317 2628 c-4 -12 -3 -25 1 -28 4 -3 26 -42 49 -87 23 -46 45 -78 49 -72 4 6 1 15 -6 19 -7 4 -9 16 -6 27 9 27 -2 53 -23 53 -11 0 -12 3 -4 8 8 5 4 21 -18 55 -16 26 -31 47 -33 47 -2 0 -6 -10 -9 -22z"></path><path id="pF1vW4zaO" d="M3487 2062 c-2 -20 -1 -41 2 -47 4 -5 6 -36 5 -68 -1 -32 1 -55 5 -52 3 4 7 11 7 16 3 22 5 23 14 9 7 -10 9 17 8 85 -1 78 -3 90 -8 55 -6 -40 -15 -31 -11 12 4 35 -17 26 -22 -10z"></path><path id="pSxzIFzIt" d="M2340 1183 c0 -18 76 -70 88 -59 3 3 1 6 -5 6 -5 0 -10 7 -10 14 0 11 5 12 18 5 14 -7 21 -5 29 11 10 19 8 20 -39 20 -27 0 -56 3 -65 6 -9 3 -16 2 -16 -3z"></path><path id="pueUmfV3M" d="M3070 1149 c-39 -29 -42 -33 -25 -40 11 -4 14 -8 8 -8 -7 -1 -13 -6 -13 -12 0 -12 54 18 77 43 10 11 12 22 6 33 -8 14 -15 11 -53 -16z"></path><path id="pAkOd6ksu" d="M2859 1014 c-10 -13 -10 -17 2 -24 9 -6 15 -5 18 3 2 7 8 18 14 25 15 19 -18 15 -34 -4z"></path></g></g><g id="lHrlFQQA427inaqkQjtiie" fill="rgb(176,178,181)" style="transform: none;"><g><path id="pDnjpmD9Z" d="M1800 3896 c0 -21 5 -25 37 -28 33 -3 39 -7 52 -41 10 -28 12 -48 5 -75 -8 -30 -14 -37 -43 -43 -59 -12 -66 -28 -66 -142 0 -56 -2 -109 -5 -117 -3 -9 3 -16 18 -18 12 -2 22 0 22 5 3 84 11 207 16 214 3 5 16 9 29 9 31 0 40 -42 32 -151 -5 -78 -5 -79 19 -79 23 0 23 2 26 113 l3 112 28 3 c27 3 27 3 27 -58 0 -83 17 -116 89 -179 58 -50 63 -53 79 -38 15 15 14 18 -8 42 -19 20 -20 25 -7 25 14 0 17 15 19 103 l3 102 30 3 30 3 -3 -191 -3 -190 26 0 c24 0 25 3 25 57 0 57 0 57 61 114 58 54 61 58 58 100 -1 24 -2 59 -1 77 2 29 5 32 36 32 22 0 36 6 40 16 4 9 5 18 4 20 -2 1 -73 3 -158 3 -85 1 -164 2 -175 2 -11 0 -42 0 -70 -1 -27 0 -69 2 -91 5 l-42 6 -4 80 c-3 74 -6 83 -31 105 -19 17 -40 24 -68 24 -35 0 -39 -3 -39 -24z m320 -272 c12 -35 8 -139 -4 -152 -11 -10 -45 31 -62 73 -21 57 -6 115 31 115 18 0 26 -8 35 -36z m228 -30 c3 -54 0 -65 -23 -93 -15 -17 -31 -31 -36 -31 -10 0 -13 149 -3 175 4 10 16 15 33 13 25 -3 26 -6 29 -64z"></path><path id="pJ7ejrkRD" d="M1962 3870 c0 -57 13 -73 29 -36 9 19 8 31 -2 55 -20 44 -27 39 -27 -19z"></path><path id="px3c13y4Z" d="M2042 3900 c-8 -18 -11 -20 -11 -7 -1 20 -31 23 -31 2 0 -7 6 -18 13 -22 7 -4 18 -21 25 -37 19 -43 32 -20 23 39 -7 47 -9 49 -19 25z"></path><path id="p18hm4Auou" d="M2083 3905 c-11 -19 -4 -85 8 -85 5 0 9 18 9 41 0 33 3 40 18 37 12 -2 18 -14 20 -41 4 -52 22 -47 22 7 0 31 -5 46 -16 50 -27 10 -53 7 -61 -9z"></path><path id="pXZdPDkfa" d="M2184 3905 c18 -14 18 -16 3 -33 -32 -35 -10 -62 44 -54 26 4 29 8 29 44 0 35 2 39 23 36 18 -2 22 -9 21 -40 0 -36 1 -38 33 -38 26 0 34 5 39 25 3 14 10 25 15 25 5 0 15 -11 21 -25 16 -36 25 -31 31 18 7 48 -8 73 -21 37 l-9 -24 -7 25 c-6 22 -7 23 -20 7 -8 -11 -16 -14 -22 -8 -5 5 -35 12 -67 16 l-57 7 0 -47 c0 -33 -4 -46 -14 -46 -23 0 -30 20 -11 34 14 10 15 16 6 34 -7 13 -21 22 -34 22 -21 -1 -21 -1 -3 -15z"></path><path id="ppbUm2Osb" d="M2498 3914 c-5 -4 -8 -26 -8 -50 0 -39 2 -42 30 -46 17 -3 33 -1 36 3 2 4 -6 9 -18 11 -28 4 -27 22 2 26 25 4 17 22 -10 22 -11 0 -20 8 -22 21 -2 11 -6 17 -10 13z"></path><path id="p9cYROFZ4" d="M2560 3910 c0 -6 4 -18 10 -28 5 -9 14 -30 20 -45 6 -17 15 -25 21 -21 13 8 39 67 39 89 0 13 -3 13 -20 3 -16 -10 -24 -10 -40 0 -24 15 -30 15 -30 2z m60 -45 c0 -8 -4 -15 -10 -15 -5 0 -10 7 -10 15 0 8 5 15 10 15 6 0 10 -7 10 -15z"></path><path id="pp1WjP1Kz" d="M2670 3905 c0 -8 5 -15 12 -15 6 0 3 -9 -8 -21 -14 -15 -16 -24 -7 -37 5 -9 15 -17 22 -16 6 1 22 2 35 3 14 0 26 9 29 21 3 11 10 20 17 20 7 0 14 -9 17 -20 4 -15 14 -20 38 -20 18 0 36 6 39 13 3 8 8 7 16 -5 16 -25 37 -22 65 8 l25 27 0 -29 1 -29 28 33 c33 38 40 40 38 8 -1 -14 3 -25 8 -26 13 -1 19 80 7 92 -6 6 -18 -2 -31 -21 -27 -37 -40 -40 -34 -7 3 13 0 27 -6 30 -7 5 -11 -2 -11 -15 l0 -22 -23 21 c-27 26 -50 28 -68 6 -11 -13 -13 -13 -21 0 -9 17 -63 15 -63 -2 0 -17 -22 -35 -34 -28 -6 4 -11 16 -11 27 0 10 -4 19 -10 19 -5 0 -10 -18 -10 -39 0 -44 -8 -55 -30 -40 -13 8 -12 11 3 23 15 12 16 18 7 35 -12 24 -40 28 -40 6z m264 -28 c16 -25 -16 -56 -38 -37 -19 15 -20 32 -4 48 15 15 28 11 42 -11z"></path><path id="pR7ByPy1g" d="M1705 3755 c-24 -23 -28 -39 -29 -120 -1 -24 -6 -31 -34 -39 -20 -6 -47 -6 -69 0 l-37 9 2 65 c3 71 -3 86 -33 92 -18 3 -20 -2 -17 -72 7 -195 -2 -293 -30 -332 -10 -15 -36 -33 -58 -39 -75 -23 -155 43 -155 127 0 59 36 97 94 97 26 0 42 5 45 14 11 27 -6 35 -62 31 -48 -4 -60 -10 -88 -40 -44 -48 -53 -109 -26 -170 47 -108 168 -145 260 -79 43 30 65 84 70 173 l4 76 64 4 64 3 2 -135 c1 -74 1 -145 0 -157 0 -16 5 -23 18 -23 21 0 28 57 35 315 5 149 6 161 27 176 13 10 19 22 15 33 -9 23 -34 20 -62 -9z"></path><path id="p16vNohAtn" d="M1782 3378 c-16 -16 -15 -33 3 -48 13 -10 19 -9 35 5 19 17 19 19 4 37 -20 21 -26 22 -42 6z"></path><path id="p1AbAK1LKE" d="M1892 3370 c-11 -17 -10 -23 3 -37 14 -14 18 -14 36 2 18 17 18 19 3 37 -22 23 -26 23 -42 -2z"></path><path id="pKVB25QL7" d="M2870 2773 c0 -24 13 -40 71 -87 169 -139 282 -341 320 -571 22 -127 10 -240 -42 -400 -58 -181 -214 -376 -379 -474 -83 -49 -166 -130 -120 -117 42 13 181 96 247 148 151 119 271 307 324 508 34 129 33 320 -4 453 -60 219 -200 418 -384 546 l-33 22 0 -28z"></path><path id="p17POFHp2S" d="M1367 2489 c-60 -126 -107 -315 -107 -425 0 -37 3 -44 20 -44 17 0 20 7 20 53 0 65 22 167 57 272 l26 80 14 -33 c12 -30 11 -41 -11 -105 -39 -116 -49 -207 -43 -394 3 -92 9 -181 12 -198 5 -29 5 -29 -6 -5 -17 40 -49 200 -49 253 0 41 -3 47 -21 47 -21 0 -22 -3 -15 -86 12 -148 55 -288 132 -434 42 -78 143 -224 151 -216 2 1 -6 29 -18 62 -33 92 -38 300 -10 417 71 299 287 569 583 728 43 23 77 44 75 46 -8 7 -215 -89 -301 -141 -236 -141 -386 -341 -437 -581 -12 -55 -24 -111 -27 -125 -11 -54 -23 66 -18 190 5 147 31 248 90 354 42 76 152 196 230 254 l51 37 -94 8 c-80 7 -163 25 -248 52 -19 6 -26 -1 -56 -66z m73 -956 c0 -53 0 -53 -29 5 l-21 42 25 0 c23 0 25 -3 25 -47z"></path><path id="pzwxCYXvz" d="M2350 2381 c-136 -43 -280 -147 -280 -202 0 -22 5 -29 20 -29 17 0 20 7 20 40 0 38 2 40 30 40 16 0 33 6 37 13 13 20 186 104 232 112 49 8 91 -13 91 -45 0 -29 27 -24 34 6 13 50 -33 85 -108 83 -11 0 -46 -8 -76 -18z"></path><path id="pM5I79JLA" d="M2500 2237 c0 -19 3 -37 7 -41 4 -4 6 -24 4 -46 -2 -37 0 -40 31 -48 27 -7 34 -14 39 -43 7 -47 14 -56 48 -64 52 -11 56 -27 27 -100 -34 -85 -35 -180 -4 -270 22 -63 22 -63 3 -103 -15 -30 -31 -45 -69 -62 -90 -41 -156 -37 -238 16 -21 13 -49 24 -63 24 -21 0 -25 5 -25 30 0 16 -6 33 -13 37 -45 29 -137 320 -137 437 0 29 -4 36 -20 36 -25 0 -25 -21 -5 -146 31 -191 82 -312 170 -401 54 -53 71 -64 134 -83 131 -40 258 -2 307 92 19 37 18 74 -6 143 -24 70 -25 85 -5 85 8 0 15 5 15 10 0 6 -10 10 -21 10 -19 0 -20 4 -14 36 3 20 18 62 31 93 27 60 29 119 4 132 -8 4 -28 14 -45 21 -24 11 -31 21 -35 52 -4 34 -10 41 -40 52 -28 9 -32 13 -17 19 25 10 21 42 -8 67 -14 12 -25 28 -25 35 0 7 -7 13 -15 13 -10 0 -15 -10 -15 -33z"></path><path id="p18WpVkdtX" d="M1835 1999 c-33 -22 -71 -50 -84 -62 -42 -39 -108 -141 -135 -209 -29 -74 -51 -204 -41 -249 11 -50 31 -34 43 36 6 36 23 91 38 123 l28 57 7 -140 c3 -77 11 -154 16 -170 19 -58 62 -133 98 -170 19 -21 35 -41 35 -44 0 -11 95 -101 105 -101 6 0 16 -9 23 -20 17 -27 92 -29 93 -2 0 13 2 12 9 -6 7 -16 18 -22 41 -22 l31 0 -26 35 c-28 37 -71 124 -64 131 2 2 20 -20 39 -49 67 -100 275 -224 363 -215 l31 3 -40 22 c-64 35 -170 128 -221 196 -89 117 -171 321 -229 570 -32 134 -35 135 -84 28 -97 -210 -73 -469 56 -612 63 -70 18 -41 -54 34 -53 56 -77 91 -101 148 -80 193 -60 414 59 652 22 42 36 77 32 77 -5 0 -35 -19 -68 -41z m168 -703 c20 -35 25 -51 16 -56 -7 -5 -10 -24 -7 -49 2 -22 2 -41 0 -41 -2 0 -14 24 -27 53 -33 71 -56 165 -48 195 6 24 7 24 21 -14 9 -21 29 -61 45 -88z"></path><path id="p4l0Rp6N6" d="M1580 1414 c0 -14 11 -59 25 -101 60 -178 181 -291 365 -342 95 -27 140 -28 140 -3 0 14 -13 20 -68 28 -64 10 -193 59 -200 76 -2 4 -7 8 -12 8 -11 0 -85 75 -119 120 -14 19 -28 37 -31 40 -9 9 -33 75 -49 137 -12 47 -20 63 -33 63 -13 0 -18 -8 -18 -26z"></path><path id="pa4e1YmWd" d="M2150 981 c0 -29 3 -31 36 -31 39 0 38 9 -6 40 l-30 21 0 -30z"></path></g></g><g id="l4Hs0uUiO0mlcEJHfPwCDS0" fill="rgb(246,255,255)" style="transform: none;"><g><path id="pDiy7kwQd" d="M2185 3910 c-3 -5 1 -10 9 -10 20 0 20 -9 0 -31 -19 -21 -12 -49 13 -49 15 0 15 2 -3 15 -18 14 -18 16 -1 26 21 12 22 32 3 48 -10 8 -16 9 -21 1z"></path><path id="pjql6CHbQ" d="M1802 3893 c2 -13 16 -20 43 -23 l40 -5 3 -77 c3 -72 1 -78 -17 -78 -34 0 -69 -21 -81 -49 -6 -16 -10 -69 -8 -126 3 -86 5 -100 21 -103 15 -3 17 7 17 107 0 101 2 111 21 121 42 23 48 8 51 -112 3 -98 5 -113 21 -116 15 -3 17 7 17 102 0 114 9 136 56 136 23 0 24 -2 24 -82 l0 -83 66 -62 c63 -61 94 -77 94 -50 0 8 -9 22 -20 32 -19 17 -18 41 1 30 5 -4 9 32 9 88 0 107 11 127 71 127 23 0 30 -3 21 -9 -11 -6 -14 -50 -15 -192 0 -175 1 -184 19 -184 17 0 19 8 19 59 1 46 5 61 20 72 41 30 85 76 85 90 0 23 -26 16 -60 -16 -18 -16 -35 -28 -40 -25 -4 2 -7 43 -6 89 1 65 5 89 17 102 19 19 59 11 59 -12 0 -8 9 -14 20 -14 13 0 20 7 20 20 0 13 7 20 20 20 14 0 20 7 20 21 0 20 -4 20 -132 15 -155 -6 -145 -6 -268 -1 l-95 3 -5 87 c-6 101 -17 115 -88 115 -36 0 -43 -3 -40 -17z m307 -237 c8 -9 11 -47 9 -107 l-3 -94 -32 34 c-30 30 -33 39 -33 95 0 77 27 110 59 72z"></path><path id="pyeAdTY3O" d="M1970 3868 c0 -51 4 -58 18 -30 6 11 5 28 -4 47 l-13 30 -1 -47z"></path><path id="pvqeS3daE" d="M2084 3896 c-3 -8 -4 -29 -1 -48 3 -30 4 -29 5 9 2 39 4 42 35 46 l32 4 -33 1 c-20 1 -35 -3 -38 -12z"></path><path id="pWDqKvwPm" d="M2240 3902 c0 -5 14 -7 30 -4 17 2 30 6 30 8 0 2 -13 4 -30 4 -16 0 -30 -4 -30 -8z"></path><path id="pL67zuaZq" d="M2426 3872 c-4 -24 -5 -46 -2 -49 12 -12 17 6 14 48 l-3 44 -9 -43z"></path><path id="pxe0J8ZNV" d="M2501 3878 c-1 -21 -2 -41 -3 -45 -2 -5 13 -9 32 -9 26 -1 28 -1 8 3 -34 5 -38 33 -5 34 20 0 20 1 3 8 -11 4 -23 16 -27 27 -6 14 -8 9 -8 -18z"></path><path id="pHrBxPacD" d="M2570 3907 c0 -16 33 -87 40 -87 4 0 13 12 18 28 5 15 14 36 18 47 7 18 6 18 -9 6 -9 -7 -17 -22 -17 -33 0 -11 -5 -18 -12 -15 -7 2 -13 11 -13 20 0 9 -6 22 -13 29 -6 6 -12 9 -12 5z"></path><path id="p14ceHeR7M" d="M2879 3893 c-11 -15 -11 -16 1 -5 20 17 47 15 59 -5 6 -10 11 -13 11 -7 1 32 -50 45 -71 17z"></path><path id="pK4Vc6oqL" d="M3003 3873 c-33 -35 -41 -53 -24 -53 6 0 18 14 28 30 22 38 31 38 36 -2 3 -25 4 -22 5 15 1 26 -1 46 -5 46 -5 -1 -23 -17 -40 -36z"></path><path id="pV04oSZTN" d="M2040 3863 c0 -17 5 -35 10 -38 13 -8 13 35 0 55 -7 11 -10 7 -10 -17z"></path><path id="pRclk9j4h" d="M2143 3855 c0 -22 2 -30 4 -17 2 12 2 30 0 40 -3 9 -5 -1 -4 -23z"></path><path id="p20iTIwp9" d="M2687 3872 c-21 -23 -21 -38 -1 -46 15 -6 15 -4 3 10 -11 14 -11 18 6 30 10 8 16 16 13 19 -2 3 -12 -3 -21 -13z"></path><path id="p1grazkgl" d="M2734 3867 c-3 -16 -4 -31 0 -34 3 -4 6 1 6 10 0 12 9 17 28 18 21 1 22 2 7 6 -11 3 -23 10 -27 16 -4 6 -10 -1 -14 -16z"></path><path id="pPh8Wl87i" d="M2356 3854 c-9 -22 3 -32 14 -14 12 19 12 30 1 30 -5 0 -12 -7 -15 -16z"></path><path id="p63DKzyNx" d="M2879 3843 c13 -25 40 -30 59 -11 20 20 13 32 -8 13 -19 -17 -21 -17 -41 1 -22 19 -22 19 -10 -3z"></path><path id="pfS5ZWeDw" d="M1709 3751 c-35 -35 -40 -81 -9 -81 13 0 20 7 20 20 0 11 9 28 20 37 21 19 27 53 9 53 -6 0 -24 -13 -40 -29z"></path><path id="pYdT3FvRP" d="M1488 3570 l-3 -192 -37 -34 c-45 -40 -94 -45 -145 -14 -55 33 -81 118 -53 171 14 26 66 51 98 47 37 -4 43 27 7 36 -42 11 -101 -11 -126 -46 -34 -47 -37 -131 -7 -183 59 -102 203 -112 274 -19 26 34 29 46 32 131 l4 93 74 0 c59 0 74 -3 74 -15 0 -20 16 -19 24 1 12 32 7 84 -9 84 -8 0 -15 -7 -15 -15 0 -12 -15 -15 -75 -15 l-74 0 -3 77 c-2 64 -6 78 -20 81 -15 3 -17 -15 -20 -188z"></path><path id="pUOS8cAYM" d="M1781 3367 c-9 -11 -8 -17 3 -26 18 -15 48 -3 44 18 -4 21 -32 26 -47 8z"></path><path id="pfdSyGmnz" d="M1891 3367 c-9 -11 -8 -17 3 -26 18 -15 48 -3 44 18 -4 21 -32 26 -47 8z"></path><path id="pUqZrXmet" d="M1680 3260 c0 -13 7 -20 20 -20 13 0 20 7 20 20 0 13 -7 20 -20 20 -13 0 -20 -7 -20 -20z"></path><path id="pGV4E8DfR" d="M2878 2768 c3 -13 45 -61 94 -107 163 -154 249 -309 289 -519 12 -62 7 -275 -7 -334 -5 -24 -3 -28 14 -28 30 0 46 110 39 265 -6 140 -34 250 -96 373 -45 90 -133 212 -139 194 -8 -24 -32 -12 -32 16 0 29 -34 67 -116 130 -50 38 -54 39 -46 10z"></path><path id="pegxLOvxn" d="M1362 2468 c-25 -58 -68 -191 -77 -241 -7 -33 -5 -37 14 -37 17 0 21 6 21 30 0 20 5 30 15 30 8 0 15 9 15 20 0 11 5 20 10 20 6 0 10 9 10 20 0 12 9 22 24 26 36 9 42 73 11 133 l-23 46 -20 -47z"></path><path id="pJrjl3zIe" d="M2335 2372 c-67 -23 -171 -83 -217 -124 -29 -25 -39 -43 -44 -75 -6 -39 -5 -43 15 -43 15 0 21 6 21 23 0 14 9 26 23 32 13 6 23 21 25 38 2 19 9 27 22 27 10 0 25 6 32 14 8 7 30 17 49 21 19 4 53 18 77 31 23 13 56 24 72 24 25 0 30 4 30 25 0 21 -5 25 -27 25 -16 -1 -50 -8 -78 -18z"></path><path id="pNIcuONNr" d="M2470 2360 c0 -16 5 -30 10 -30 6 0 10 -28 10 -65 l0 -65 35 0 c36 0 47 13 20 24 -11 4 -15 22 -15 70 0 56 -3 67 -22 80 -32 22 -38 20 -38 -14z"></path><path id="pcaYUW9rM" d="M1350 2155 c0 -33 4 -45 15 -45 8 0 15 3 15 8 0 4 4 24 9 45 8 35 8 37 -15 37 -22 0 -24 -4 -24 -45z"></path><path id="pFVU5QRjn" d="M2522 2133 c2 -31 7 -39 26 -41 17 -3 22 -10 22 -34 0 -21 6 -31 20 -35 11 -3 20 -11 20 -18 0 -7 16 -16 35 -19 32 -6 35 -10 35 -41 0 -48 27 -47 36 0 8 42 -12 70 -57 80 -33 7 -53 37 -44 64 7 22 -9 36 -50 45 -29 7 -29 8 -11 22 19 13 19 14 -8 14 -25 0 -27 -3 -24 -37z"></path><path id="p1FDtgPEwY" d="M1572 2088 c-16 -24 -39 -63 -51 -86 -18 -36 -19 -43 -7 -40 13 3 103 168 91 168 -2 0 -17 -19 -33 -42z"></path><path id="p10Mr3xSpN" d="M1266 2058 c-14 -54 -2 -128 20 -128 11 0 14 18 14 75 0 57 -3 75 -14 75 -7 0 -16 -10 -20 -22z"></path><path id="pq5LrNMDo" d="M2070 2048 c0 -39 12 -68 26 -68 10 0 14 13 14 45 0 38 -3 45 -20 45 -14 0 -20 -7 -20 -22z"></path><path id="pw6VobTOw" d="M2084 1923 c20 -115 28 -143 42 -143 17 0 18 31 2 116 -9 53 -15 64 -31 64 -17 0 -18 -5 -13 -37z"></path><path id="p03zrhq4x" d="M1330 1870 c0 -33 3 -40 20 -40 17 0 20 7 20 40 0 33 -3 40 -20 40 -17 0 -20 -7 -20 -40z"></path><path id="p110JpHdiA" d="M2650 1876 c0 -13 -5 -26 -12 -28 -8 -3 -11 -32 -11 -89 1 -105 11 -172 29 -182 8 -4 14 -17 14 -27 0 -23 25 -27 33 -5 7 15 -16 114 -34 146 -7 15 -7 24 2 35 8 10 8 14 0 14 -17 0 -13 54 9 110 l20 50 -25 0 c-20 0 -25 -5 -25 -24z"></path><path id="pcMqSZjS1" d="M1270 1882 c0 -24 24 -136 42 -199 23 -79 48 -99 48 -38 0 19 -4 35 -8 35 -4 0 -17 47 -27 105 -16 87 -23 105 -37 105 -10 0 -18 -4 -18 -8z"></path><path id="pSiV2vOnP" d="M1456 1841 c-11 -17 -36 -152 -36 -192 0 -21 -4 -39 -10 -39 -5 0 -10 7 -10 15 0 8 -4 15 -10 15 -5 0 -10 -15 -10 -34 0 -19 -6 -36 -12 -39 -9 -3 -2 -26 23 -78 35 -70 137 -224 144 -217 2 2 -10 43 -25 91 -16 48 -32 108 -36 132 -4 28 -12 45 -23 48 -15 4 -15 5 1 6 14 1 16 15 17 99 1 53 6 115 11 137 5 22 10 46 10 53 0 14 -26 17 -34 3z"></path><path id="pLuCAZmkK" d="M2120 1755 c0 -25 28 -85 39 -85 12 0 14 42 5 78 -7 25 -44 31 -44 7z"></path><path id="p9RJyQwbJ" d="M3206 1662 c-24 -63 -92 -174 -150 -247 -16 -20 -21 -36 -17 -49 12 -31 112 99 171 219 62 127 67 145 42 145 -14 0 -26 -17 -46 -68z"></path><path id="p1HuM8t2FH" d="M1602 1611 c-16 -52 -15 -61 7 -61 20 0 31 25 31 73 0 41 -25 33 -38 -12z"></path><path id="p14NW1TJaS" d="M2167 1623 c10 -27 51 -90 63 -98 6 -4 10 12 10 44 0 39 -4 51 -15 51 -8 0 -15 5 -15 10 0 6 -11 10 -25 10 -19 0 -23 -4 -18 -17z"></path><path id="p16L98i8QB" d="M1921 1520 c-9 -28 -8 -30 13 -30 19 0 22 4 18 25 -7 37 -19 39 -31 5z"></path><path id="pEXcrvHtq" d="M1587 1533 c-4 -3 -7 -19 -7 -35 0 -23 4 -28 25 -28 22 0 25 4 25 35 0 27 -4 35 -18 35 -10 0 -22 -3 -25 -7z"></path><path id="p14Uyjp776" d="M2270 1479 c41 -35 102 -66 148 -75 28 -6 32 -4 32 15 0 17 -6 21 -30 21 -16 0 -30 5 -30 10 0 6 -11 10 -25 10 -16 0 -25 6 -25 15 0 8 -7 15 -15 15 -8 0 -15 5 -15 10 0 6 -17 10 -37 10 l-38 -1 35 -30z"></path><path id="pED3CJfxr" d="M2610 1465 c0 -41 8 -43 44 -10 35 33 33 45 -9 45 -33 0 -35 -2 -35 -35z"></path><path id="pR57I8yQy" d="M1580 1443 c0 -10 7 -45 15 -78 50 -214 206 -362 420 -400 76 -14 195 -20 195 -11 0 3 -24 28 -53 55 -54 51 -99 121 -111 174 -9 39 -1 34 37 -26 35 -55 105 -122 162 -156 31 -18 34 -18 41 -3 6 14 8 13 13 -8 5 -19 20 -29 75 -48 105 -36 112 -22 16 31 -103 58 -202 139 -255 206 -23 28 -46 48 -53 46 -8 -3 -27 -5 -43 -5 -23 0 -29 -5 -30 -22 -1 -21 -2 -21 -6 -3 -3 11 -11 24 -19 28 -8 4 -14 15 -14 22 0 8 -4 15 -10 15 -5 0 -10 14 -10 30 0 24 -4 30 -21 30 -18 0 -21 -4 -16 -28 12 -57 50 -144 83 -187 34 -45 33 -63 -1 -25 -10 11 -22 20 -27 20 -14 0 -9 -22 10 -43 17 -19 16 -20 -13 -13 -16 4 -52 11 -80 16 -27 5 -51 14 -53 20 -2 5 -18 10 -37 10 -30 0 -33 2 -38 41 -3 23 -9 45 -14 48 -4 3 -16 23 -25 44 -10 21 -25 40 -33 43 -11 4 -15 21 -15 55 0 41 -3 49 -19 49 -19 0 -31 25 -31 68 0 15 -6 22 -20 22 -12 0 -20 -7 -20 -17z"></path><path id="pIlGG9VDS" d="M2520 1430 c0 -33 5 -35 44 -20 16 6 26 17 26 30 0 16 -7 20 -35 20 -32 0 -35 -2 -35 -30z"></path><path id="pNsW6x3OX" d="M2934 1304 c-32 -26 -83 -60 -111 -76 -29 -17 -53 -34 -53 -39 0 -15 60 -10 66 6 4 8 14 15 24 15 22 0 138 84 147 106 14 37 -16 32 -73 -12z"></path><path id="pyr9de8cX" d="M2719 1144 l-24 -26 28 13 c15 7 27 18 27 26 0 18 -3 17 -31 -13z"></path></g></g><g id="l1v0iR1IkFLDixsz4tnQRXe" fill="rgb(254,255,254)" style="transform: none;"><g><path id="potgxB3am" d="M1696 3741 c-5 -8 -11 -47 -14 -87 -2 -41 -9 -71 -13 -68 -5 3 -9 1 -9 -5 0 -5 5 -13 10 -16 6 -4 10 -70 10 -166 0 -147 1 -160 18 -157 15 3 17 25 22 245 3 132 2 239 -2 237 -3 -2 -8 4 -10 13 -3 15 -5 15 -12 4z"></path><path id="p10FKfYq6V" d="M1875 3701 c-11 -3 -21 -12 -23 -20 -3 -12 -1 -12 14 0 10 8 15 9 11 2 -4 -6 -2 -13 5 -15 8 -3 12 -20 11 -44 -1 -21 1 -31 4 -21 2 10 11 16 18 13 8 -3 15 6 19 25 4 24 10 29 34 29 19 0 29 5 29 15 0 8 -6 15 -14 15 -7 0 -13 -4 -13 -10 0 -14 -16 -12 -32 3 -14 15 -31 17 -63 8z"></path><path id="pJ1x2NUmf" d="M2396 3703 c-4 -4 -53 -6 -109 -5 -56 2 -114 -1 -128 -7 -18 -6 -30 -6 -37 1 -5 5 -20 8 -33 5 -22 -4 -22 -4 4 -6 15 0 27 -5 27 -11 0 -5 -8 -6 -17 -3 -12 5 -11 1 5 -15 19 -19 29 -58 22 -87 -3 -12 -6 -48 -8 -89 -2 -21 -6 -27 -18 -22 -10 4 -13 2 -8 -6 5 -8 0 -9 -17 -5 -20 5 -19 2 11 -21 19 -15 39 -27 45 -27 5 0 16 -4 23 -8 6 -5 12 -4 12 2 0 14 -35 32 -45 23 -4 -4 -3 3 3 14 6 12 8 24 4 28 -3 4 1 4 11 0 15 -5 17 3 17 86 0 98 10 130 37 125 10 -2 23 -4 30 -4 8 -1 12 -42 12 -138 1 -75 4 -139 6 -142 3 -2 5 19 5 47 0 39 4 52 15 52 12 0 14 11 8 60 -7 75 9 120 43 120 49 0 58 -112 14 -172 -12 -16 -19 -32 -16 -35 3 -4 6 -1 6 6 0 7 5 9 10 6 6 -4 7 -12 4 -18 -4 -7 9 3 27 21 33 32 34 35 34 112 l-1 79 41 3 c29 2 41 8 43 21 3 14 -4 17 -36 17 -21 0 -42 -3 -46 -7z"></path><path id="pBwgJn9QT" d="M2017 3683 c-4 -3 -7 -15 -7 -27 0 -20 0 -20 15 0 15 19 20 8 9 -20 -3 -9 -10 -13 -15 -10 -5 3 -9 -4 -9 -15 0 -39 27 -23 34 20 8 50 -5 75 -27 52z"></path><path id="pKMkw4gO7" d="M2261 3431 c2 -20 0 -41 -3 -46 -3 -6 -2 -19 3 -30 6 -17 8 -15 8 11 1 16 7 36 14 43 10 11 10 13 0 7 -8 -4 -13 -1 -13 8 0 8 7 19 16 24 14 8 13 10 -5 15 -20 5 -21 2 -20 -32z"></path><path id="pxTOEfkvq" d="M2881 2770 c0 -8 4 -22 9 -30 7 -11 10 -11 10 -2 0 7 5 10 10 7 6 -3 10 -2 10 4 0 15 -20 24 -21 9 0 -7 -4 -4 -9 7 -6 13 -9 15 -9 5z"></path><path id="pG9e3X6OU" d="M2971 2696 c-7 -9 -8 -17 -2 -20 5 -3 12 0 14 6 3 7 6 3 6 -9 1 -13 25 -47 57 -80 31 -32 53 -52 50 -45 -4 6 -3 12 1 12 5 0 15 -6 22 -12 7 -7 4 3 -8 22 -11 19 -44 59 -74 88 -45 45 -56 51 -66 38z"></path><path id="p1DduKXKzp" d="M1390 2431 c0 -10 -7 -24 -15 -31 -8 -7 -15 -19 -15 -26 0 -8 -10 -14 -22 -15 -13 0 -17 -3 -10 -6 6 -2 12 -12 12 -20 0 -10 -6 -13 -17 -9 -10 4 -14 4 -10 0 4 -4 2 -12 -3 -19 -21 -25 -41 -164 -42 -285 -1 -170 29 -321 92 -469 22 -49 48 -73 35 -30 -5 15 -4 19 4 15 6 -4 11 -16 11 -28 0 -16 3 -18 14 -9 11 9 15 7 19 -9 3 -11 10 -20 17 -20 7 0 10 22 9 67 -4 105 -49 199 -49 101 0 -76 -18 -27 -36 97 -28 202 -18 381 32 521 28 81 31 98 22 130 -14 53 -48 85 -48 45z"></path><path id="pWATYXwAp" d="M2410 2381 c0 -5 -9 -7 -20 -4 -11 3 -31 -2 -45 -11 -14 -9 -25 -13 -25 -10 0 4 -10 -1 -22 -12 -12 -10 -18 -13 -14 -6 10 18 -7 15 -35 -6 -13 -10 -41 -26 -61 -37 -20 -10 -54 -33 -75 -51 l-38 -32 1 -123 c2 -167 39 -352 94 -471 7 -16 20 -28 27 -28 8 0 11 -5 8 -10 -11 -18 34 -77 85 -114 68 -49 136 -69 213 -64 65 4 144 35 140 55 -2 7 3 10 10 7 29 -11 58 79 44 136 -14 55 -21 77 -30 88 -18 23 -10 115 16 174 39 87 42 113 18 137 -12 12 -29 21 -39 21 -28 0 -65 44 -57 69 4 14 0 23 -13 30 -11 6 -22 8 -24 5 -3 -2 -11 2 -18 11 -10 12 -9 16 4 21 25 10 20 53 -7 65 -22 10 -24 17 -23 75 1 35 -3 63 -8 63 -5 0 -13 6 -18 15 -10 17 -88 23 -88 7z"></path><path id="p3WpZsDY3" d="M3220 2377 c0 -5 5 -17 10 -28 8 -14 7 -19 -3 -19 -12 0 -12 -8 1 -47 9 -27 19 -50 24 -51 4 -2 6 -7 4 -10 -2 -4 7 -18 20 -32 l24 -25 -20 74 c-19 66 -58 159 -60 138z"></path><path id="pohFFXsWC" d="M1492 1943 c-21 -51 -36 -100 -47 -148 l-6 -30 19 28 c10 15 22 24 25 20 4 -3 7 3 7 14 0 17 22 90 45 146 5 11 2 17 -8 17 -8 0 -23 -21 -35 -47z"></path><path id="pm7LVkMx5" d="M3276 1824 c-4 -9 -10 -14 -13 -10 -4 4 -15 -23 -25 -60 -10 -37 -17 -68 -16 -70 2 -1 13 5 25 14 22 17 60 142 43 142 -4 0 -11 -7 -14 -16z"></path><path id="pQRzP3v7a" d="M1694 1765 c-24 -25 -52 -62 -62 -82 -23 -46 -52 -157 -52 -202 0 -51 30 -185 44 -196 7 -5 11 -15 9 -22 -2 -6 5 -17 16 -23 11 -6 25 -20 31 -33 10 -20 9 -19 -10 3 l-21 25 16 -33 c9 -18 20 -30 25 -27 6 4 10 -3 10 -13 0 -29 96 -112 172 -149 66 -33 191 -62 220 -51 9 4 20 20 26 38 8 23 8 29 0 24 -8 -5 -9 -2 -5 9 3 10 3 17 -1 17 -4 0 -18 20 -31 44 -17 33 -28 43 -40 39 -13 -5 -14 -3 -4 7 7 7 9 25 6 41 -8 40 2 36 33 -12 18 -28 29 -38 34 -30 4 7 11 13 16 14 13 3 9 11 -40 86 -70 107 -152 282 -138 295 3 3 0 6 -7 6 -28 0 -50 -158 -31 -231 25 -98 62 -179 93 -205 28 -23 45 -54 30 -54 -14 0 -136 116 -185 177 -105 129 -134 216 -125 382 3 58 12 127 20 154 19 60 7 61 -49 2z m400 -710 c3 -8 1 -25 -4 -37 -9 -24 -10 -22 -16 25 -3 29 10 37 20 12z"></path><path id="pvgddg6PA" d="M2991 1350 c-46 -44 -89 -80 -97 -80 -8 0 -14 -4 -14 -8 0 -4 -24 -20 -53 -35 -52 -26 -116 -82 -105 -92 7 -7 131 57 174 90 18 14 39 37 46 52 7 15 20 29 28 31 11 4 10 -1 -4 -17 -32 -36 -8 -23 40 21 47 43 99 108 74 93 -10 -6 -12 -4 -7 8 3 10 5 17 4 17 -1 -1 -40 -37 -86 -80z"></path><path id="pBp8A28w4" d="M2137 1121 c-17 -6 -17 -8 2 -25 12 -11 21 -14 21 -8 0 7 -5 12 -11 12 -8 0 -8 5 1 15 14 17 13 17 -13 6z"></path><path id="p1HWf0kuPL" d="M2190 1048 c8 -9 39 -32 69 -52 82 -55 126 -44 59 15 -24 22 -39 28 -64 25 -19 -3 -42 2 -56 11 -20 14 -21 14 -8 1z"></path></g></g></svg>