<svg class="img-fluid" id="outputsvg" xmlns="http://www.w3.org/2000/svg" style="transform-origin: 0% 0%;" width="869" height="814" viewBox="0 0 8690 8140"><g id="l6AJaetaYtKLErlw0C3garB" fill="rgb(25,62,47)" style="transform: none;"><g><path id="pzpZMBp9V" d="M1720 7960 l0 -110 70 0 c56 0 70 3 70 15 0 12 -13 15 -55 15 -54 0 -55 0 -55 30 0 29 2 30 45 30 33 0 45 4 45 15 0 11 -12 15 -45 15 l-45 0 0 50 c0 38 -4 50 -15 50 -12 0 -15 -19 -15 -110z"></path><path id="pe0D0VU9Y" d="M2092 8057 c-46 -26 -66 -78 -51 -132 19 -67 91 -95 142 -55 59 47 56 143 -7 181 -36 22 -52 23 -84 6z m78 -37 c25 -25 27 -95 3 -122 -23 -25 -68 -23 -87 4 -19 27 -21 88 -3 110 25 32 60 35 87 8z"></path><path id="p15MNmnJ2G" d="M2475 8061 c-35 -15 -57 -49 -62 -95 -5 -42 -3 -48 30 -81 69 -69 157 -24 157 79 0 63 -72 119 -125 97z m72 -47 c22 -22 25 -32 20 -67 -9 -69 -67 -90 -107 -40 -27 34 -22 89 11 116 29 23 45 22 76 -9z"></path><path id="pu4xSvvU9" d="M2840 7975 l0 -95 -35 0 c-24 0 -35 -5 -35 -15 0 -12 16 -15 85 -15 69 0 85 3 85 15 0 10 -11 15 -35 15 l-35 0 0 95 c0 78 -3 95 -15 95 -12 0 -15 -17 -15 -95z"></path><path id="pmKep5iME" d="M3130 7960 l0 -110 64 0 c39 0 67 5 73 13 19 24 21 45 8 70 -11 22 -11 28 1 38 8 6 14 24 14 40 0 40 -32 59 -102 59 l-58 0 0 -110z m114 74 c9 -3 16 -16 16 -29 0 -26 -17 -35 -66 -35 -32 0 -34 2 -34 35 0 33 2 35 34 35 19 0 41 -3 50 -6z m4 -121 c-3 -25 -7 -28 -45 -31 -42 -3 -43 -2 -43 27 0 30 1 31 46 31 44 0 45 -1 42 -27z"></path><path id="p11lgKXD6l" d="M3476 8048 c27 -86 74 -193 85 -196 9 -1 26 32 52 100 42 116 42 118 23 118 -8 0 -19 -13 -25 -30 -9 -26 -15 -30 -49 -30 -35 0 -41 4 -52 30 -15 36 -45 43 -34 8z m113 -80 c0 -7 -6 -29 -14 -48 l-13 -35 -16 37 c-22 51 -20 58 14 58 18 0 30 -5 29 -12z"></path><path id="p13BYV3kad" d="M3850 7960 c0 -91 3 -110 15 -110 12 0 15 17 15 95 l0 95 55 0 c42 0 55 3 55 15 0 12 -14 15 -70 15 l-70 0 0 -110z"></path><path id="pycJW4Ryw" d="M4180 7960 c0 -91 3 -110 15 -110 12 0 15 17 15 95 l0 95 55 0 c42 0 55 3 55 15 0 12 -14 15 -70 15 l-70 0 0 -110z"></path><path id="peQPGHp16" d="M4706 8048 c27 -86 74 -193 85 -196 9 -1 26 32 52 100 42 116 42 118 23 118 -8 0 -19 -13 -25 -30 -9 -26 -15 -30 -49 -30 -35 0 -41 4 -52 30 -15 36 -45 43 -34 8z m113 -80 c0 -7 -6 -29 -14 -48 l-13 -35 -16 37 c-22 51 -20 58 14 58 18 0 30 -5 29 -12z"></path><path id="pxiJRkjvN" d="M5118 8053 c-40 -25 -62 -86 -48 -129 22 -67 93 -94 141 -55 18 14 21 23 13 31 -8 8 -14 7 -24 -5 -7 -8 -25 -15 -41 -15 -62 0 -81 103 -26 144 27 20 29 20 59 3 45 -26 61 -5 17 22 -41 25 -56 26 -91 4z"></path><path id="paM6Y2rdd" d="M5416 8048 c27 -86 74 -193 85 -196 9 -1 26 32 52 100 42 116 42 118 23 118 -8 0 -19 -13 -25 -30 -9 -26 -15 -30 -49 -30 -35 0 -41 4 -52 30 -15 36 -45 43 -34 8z m113 -80 c0 -7 -6 -29 -14 -48 l-13 -35 -16 37 c-22 51 -20 58 14 58 18 0 30 -5 29 -12z"></path><path id="p1BXqWKYv1" d="M5790 7961 l0 -111 55 0 c46 0 60 4 80 24 29 29 39 65 31 109 -10 52 -46 80 -111 85 l-55 4 0 -111z m107 64 c28 -19 39 -75 22 -106 -16 -32 -28 -39 -66 -39 l-33 0 0 80 0 80 28 0 c15 0 37 -7 49 -15z"></path><path id="plyZLpCBq" d="M6160 7960 l0 -110 65 0 c51 0 65 3 65 15 0 11 -12 15 -50 15 -49 0 -50 1 -50 30 0 29 2 30 45 30 33 0 45 4 45 15 0 11 -12 15 -45 15 -45 0 -45 0 -45 35 l0 35 55 0 c42 0 55 3 55 15 0 12 -14 15 -70 15 l-70 0 0 -110z"></path><path id="pIyT3E70u" d="M6490 7960 c0 -104 1 -110 20 -110 16 0 28 16 51 68 l31 67 34 -67 c25 -50 40 -68 54 -68 19 0 20 7 20 110 0 91 -3 110 -15 110 -12 0 -15 -15 -15 -75 0 -41 -4 -75 -8 -75 -4 0 -20 25 -35 56 -15 30 -31 53 -35 50 -4 -3 -19 -27 -32 -55 -13 -28 -27 -51 -32 -51 -4 0 -8 34 -8 75 0 60 -3 75 -15 75 -12 0 -15 -19 -15 -110z"></path><path id="pM5WSEkja" d="M6960 8030 c0 -26 -12 -63 -32 -103 -18 -34 -34 -65 -36 -69 -2 -5 3 -8 12 -8 9 0 28 24 45 57 l29 58 28 -58 c15 -31 34 -57 41 -57 19 0 17 8 -22 80 -22 41 -35 78 -35 102 0 27 -4 38 -15 38 -11 0 -15 -11 -15 -40z"></path><path id="p19Nrtqjtf" d="M1740 7610 l0 -140 25 0 25 0 0 140 0 140 -25 0 -25 0 0 -140z"></path><path id="pIckptxAn" d="M2050 7610 c0 -133 1 -140 20 -140 13 0 39 26 77 80 32 44 61 80 66 80 4 0 7 -36 7 -80 0 -79 0 -80 25 -80 l25 0 0 140 c0 131 -1 140 -19 140 -12 0 -40 -28 -78 -80 -32 -43 -61 -79 -65 -80 -5 0 -8 36 -8 80 0 79 0 80 -25 80 l-25 0 0 -140z"></path><path id="pIVeMsYSq" d="M2590 7635 l0 -115 -40 0 c-36 0 -40 -2 -40 -25 l0 -25 105 0 105 0 0 25 c0 23 -4 25 -40 25 l-40 0 0 115 0 115 -25 0 -25 0 0 -115z"></path><path id="p8mQkTHaM" d="M2960 7610 l0 -140 85 0 c84 0 85 0 85 25 0 24 -3 25 -60 25 l-60 0 0 30 c0 30 1 30 55 30 52 0 55 1 55 25 0 24 -3 25 -55 25 l-55 0 0 35 0 35 65 0 c63 0 65 1 65 25 0 25 -1 25 -90 25 l-90 0 0 -140z"></path><path id="p1DohS4647" d="M3380 7610 l0 -140 70 0 c62 0 74 3 95 25 33 32 35 103 5 130 -20 18 -20 18 10 72 l30 53 -27 0 c-23 0 -34 -9 -55 -45 -21 -34 -34 -45 -53 -45 -23 0 -25 4 -25 45 0 41 -2 45 -25 45 l-25 0 0 -140z m135 -45 c0 -40 0 -40 -42 -43 l-43 -3 0 46 0 46 43 -3 c42 -3 42 -3 42 -43z"></path><path id="pr4EKAYXa" d="M3840 7610 c0 -133 1 -140 20 -140 13 0 39 26 77 80 32 44 61 80 66 80 4 0 7 -36 7 -80 0 -79 0 -80 25 -80 l25 0 0 140 c0 131 -1 140 -19 140 -12 0 -40 -28 -78 -80 -32 -43 -61 -79 -65 -80 -5 0 -8 36 -8 80 0 79 0 80 -25 80 l-25 0 0 -140z"></path><path id="pv50wltUn" d="M4300 7743 c0 -5 21 -68 47 -140 40 -114 50 -133 68 -133 18 0 28 19 68 133 26 73 47 136 47 140 0 4 -11 7 -24 7 -18 0 -27 -8 -35 -30 -9 -27 -14 -30 -56 -30 -42 0 -47 3 -56 30 -8 22 -17 30 -35 30 -13 0 -24 -3 -24 -7z m147 -107 c-3 -8 -11 -34 -18 -58 l-12 -43 -12 30 c-7 17 -15 42 -19 58 -6 26 -5 27 30 27 27 0 35 -4 31 -14z"></path><path id="p2bGghcKf" d="M4800 7635 l0 -115 -40 0 c-36 0 -40 -2 -40 -25 l0 -25 105 0 105 0 0 25 c0 23 -4 25 -40 25 l-40 0 0 115 0 115 -25 0 -25 0 0 -115z"></path><path id="ptQn3IEZw" d="M5170 7610 l0 -140 25 0 25 0 0 140 0 140 -25 0 -25 0 0 -140z"></path><path id="pegalSEbs" d="M5553 7735 c-86 -37 -102 -165 -29 -232 81 -74 190 -12 190 108 0 54 -21 91 -67 119 -38 23 -51 24 -94 5z m87 -55 c14 -14 20 -33 20 -68 0 -63 -21 -92 -65 -92 -43 0 -65 29 -65 86 0 78 63 121 110 74z"></path><path id="pSopIMpgA" d="M5960 7610 c0 -133 1 -140 20 -140 13 0 39 26 77 80 32 44 61 80 66 80 4 0 7 -36 7 -80 0 -79 0 -80 25 -80 l25 0 0 140 c0 131 -1 140 -19 140 -12 0 -40 -28 -78 -80 -32 -43 -61 -79 -65 -80 -5 0 -8 36 -8 80 0 79 0 80 -25 80 l-25 0 0 -140z"></path><path id="pfm95XRmY" d="M6420 7743 c0 -5 21 -68 47 -140 40 -114 50 -133 68 -133 18 0 28 19 68 133 26 73 47 136 47 140 0 4 -11 7 -24 7 -18 0 -27 -8 -35 -30 -9 -27 -14 -30 -56 -30 -42 0 -47 3 -56 30 -8 22 -17 30 -35 30 -13 0 -24 -3 -24 -7z m147 -107 c-3 -8 -11 -34 -18 -58 l-12 -43 -12 30 c-7 17 -15 42 -19 58 -6 26 -5 27 30 27 27 0 35 -4 31 -14z"></path><path id="p1HOi8AQkx" d="M6890 7610 l0 -140 25 0 25 0 0 115 0 115 65 0 c63 0 65 1 65 25 0 25 -1 25 -90 25 l-90 0 0 -140z"></path><path id="pSueKOzw8" d="M1820 7282 l-85 -3 0 -699 0 -700 93 -2 c50 -1 113 -2 138 -3 l45 0 -1 281 c0 166 4 292 9 308 12 30 39 35 47 9 3 -10 9 -27 14 -38 4 -11 15 -60 24 -110 10 -49 24 -112 33 -140 8 -27 23 -90 34 -139 10 -48 23 -105 29 -126 l10 -37 137 -6 c75 -3 139 -4 143 -2 4 3 -4 46 -17 97 -14 51 -28 111 -33 133 -5 22 -20 83 -35 135 -64 238 -70 274 -56 347 6 38 14 82 16 100 2 18 6 37 10 43 4 6 14 41 22 78 22 104 63 302 73 357 5 27 15 63 21 78 10 23 9 31 0 37 -10 6 -290 2 -298 -4 -3 -2 -30 -136 -43 -211 -5 -33 -17 -96 -26 -140 -9 -44 -21 -109 -27 -145 l-12 -65 -38 -3 -38 -3 1 288 2 288 -54 0 c-29 0 -91 -1 -138 -3z"></path><path id="pmXNORzWp" d="M3196 7282 c-4 -3 13 -87 26 -134 6 -20 11 -51 12 -67 1 -17 4 -31 8 -31 4 0 8 -10 7 -22 0 -33 19 -177 26 -187 3 -5 12 -47 20 -93 20 -111 25 -136 36 -185 5 -24 9 -46 8 -50 -1 -5 0 -10 1 -13 1 -3 3 -18 4 -35 3 -29 41 -241 71 -390 8 -38 17 -96 21 -128 3 -31 11 -60 16 -63 10 -6 127 -9 244 -6 l61 2 12 78 c23 153 46 287 52 297 4 6 14 62 24 125 9 63 24 147 32 185 7 39 16 88 18 109 3 22 7 46 10 55 2 9 7 39 10 66 3 28 9 59 14 70 8 18 34 152 46 235 3 19 11 68 18 108 7 39 13 72 13 72 -1 0 -63 2 -138 3 -124 3 -138 2 -138 -13 0 -9 -3 -20 -7 -24 -4 -3 -7 -19 -8 -34 -1 -15 -5 -42 -9 -59 l-8 -33 -104 0 -104 0 -2 38 c-3 84 -6 114 -12 119 -6 6 -275 11 -280 5z m466 -417 c-6 -89 -10 -121 -15 -135 -3 -8 -8 -44 -10 -80 -5 -71 -25 -201 -32 -209 -11 -10 -18 11 -17 46 1 20 -3 42 -8 48 -6 7 -9 21 -8 31 3 28 -13 177 -22 194 -4 8 -10 41 -14 72 -7 64 -3 67 84 64 43 -1 45 -2 42 -31z"></path><path id="pgsLs6xit" d="M4803 7283 c-5 -2 -7 -317 -6 -700 l3 -698 46 -8 c75 -13 216 -5 224 13 8 16 40 141 69 275 31 135 55 215 66 215 7 0 9 -79 8 -239 -2 -132 -1 -246 2 -253 4 -10 33 -13 118 -11 61 1 127 2 145 2 l32 1 0 700 0 700 -140 0 c-77 0 -143 1 -147 3 -5 1 -18 -36 -30 -83 -11 -47 -33 -130 -48 -185 -14 -55 -28 -107 -30 -116 -2 -9 -8 -34 -14 -55 -6 -21 -9 -40 -6 -42 2 -2 -3 -11 -11 -19 -8 -9 -18 -12 -21 -9 -4 4 -9 120 -11 259 l-3 252 -120 0 c-65 0 -122 -1 -126 -2z"></path><path id="p15UvTUlAr" d="M6437 7272 c-34 -9 -51 -22 -73 -54 l-29 -41 -5 -646 c-3 -355 -4 -648 -3 -650 3 -5 273 -4 278 1 3 3 5 258 6 567 0 309 3 569 6 577 4 10 24 14 73 14 38 0 71 -4 74 -9 3 -4 6 -265 6 -580 l1 -571 27 -1 c25 0 237 0 255 1 4 0 6 291 5 648 l-3 647 -30 42 c-20 29 -41 46 -65 52 -57 16 -470 18 -523 3z"></path><path id="pTzpcHiS3" d="M4335 5678 c-11 -6 -40 -28 -65 -48 -25 -20 -70 -53 -100 -73 -30 -20 -67 -48 -82 -62 -15 -14 -31 -25 -36 -25 -5 0 -19 -11 -32 -25 -13 -14 -29 -25 -37 -25 -7 0 -13 -4 -13 -9 0 -4 -19 -21 -42 -37 -24 -16 -55 -38 -69 -49 -14 -11 -38 -29 -53 -40 -16 -11 -46 -35 -69 -53 -22 -18 -49 -38 -61 -44 -12 -6 -30 -19 -41 -29 -11 -10 -34 -29 -52 -41 -17 -13 -58 -42 -90 -64 -32 -23 -67 -51 -77 -63 -11 -11 -25 -21 -32 -21 -7 0 -14 -4 -16 -8 -3 -8 -200 -157 -278 -210 -19 -14 -37 -27 -40 -31 -11 -15 -109 -80 -160 -107 -77 -40 -148 -87 -198 -131 -24 -21 -51 -42 -60 -47 -22 -11 -76 -67 -127 -131 -22 -28 -42 -52 -45 -55 -19 -18 -110 -167 -110 -181 0 -10 -16 -21 -42 -30 -159 -51 -315 -169 -455 -344 -35 -44 -71 -88 -79 -98 -8 -9 -14 -20 -14 -22 0 -3 -25 -47 -55 -97 -31 -51 -58 -101 -61 -113 -5 -19 -63 -65 -83 -65 -5 0 -16 -6 -23 -13 -7 -7 -38 -28 -68 -46 -30 -19 -71 -48 -90 -65 -20 -17 -51 -42 -70 -56 -29 -22 -107 -99 -175 -174 -35 -39 -141 -199 -170 -255 -15 -30 -42 -93 -60 -139 -27 -69 -40 -91 -71 -114 -22 -15 -48 -35 -59 -43 -11 -9 -33 -26 -48 -38 -35 -26 -203 -194 -235 -233 -13 -16 -41 -54 -63 -84 -22 -30 -46 -63 -54 -72 -7 -9 -22 -29 -32 -45 -9 -15 -20 -30 -24 -33 -5 -4 -88 -143 -126 -213 -31 -56 -113 -233 -113 -243 0 -7 -3 -14 -7 -16 -10 -4 -55 -129 -49 -135 2 -3 37 10 78 27 104 46 122 53 228 95 82 33 260 108 355 150 17 7 65 27 107 44 42 17 96 39 120 49 24 11 75 32 113 47 39 16 94 39 123 52 29 12 55 23 58 23 3 0 57 23 119 50 62 28 118 50 124 50 6 0 44 15 84 34 126 59 164 75 193 82 16 4 34 10 39 15 6 4 62 28 125 54 63 26 134 56 157 66 23 10 45 19 48 19 3 0 25 8 48 18 23 10 62 26 87 36 25 10 52 22 61 26 42 21 172 70 187 70 16 0 17 -62 14 -877 -1 -483 0 -887 3 -899 3 -15 18 -24 52 -32 27 -7 73 -19 103 -27 56 -16 152 -33 225 -41 22 -3 51 -9 65 -14 14 -6 43 -12 65 -15 60 -7 183 -24 245 -34 30 -4 60 -6 67 -4 6 3 20 0 30 -6 11 -5 84 -13 164 -16 79 -3 158 -8 174 -12 17 -3 59 -7 95 -8 113 -3 147 -13 161 -49 14 -33 107 -133 149 -159 51 -32 176 -70 239 -73 113 -5 287 53 329 109 8 10 29 32 47 49 19 16 43 50 54 74 17 36 26 44 49 44 15 1 56 3 92 5 108 9 183 14 230 18 25 3 82 7 126 11 45 3 113 11 150 17 38 6 80 12 94 14 14 1 41 5 60 8 19 4 53 9 75 12 22 2 58 9 80 15 22 5 60 10 85 10 25 0 72 8 105 16 33 9 94 21 135 29 41 7 94 19 117 26 37 12 42 17 46 49 2 19 4 423 3 897 l-1 863 31 0 c16 0 34 -4 40 -8 5 -5 52 -26 104 -47 142 -57 160 -64 228 -96 34 -16 67 -29 72 -29 6 0 38 -13 72 -29 114 -52 235 -101 250 -101 9 0 20 -6 27 -13 6 -8 42 -24 81 -37 38 -13 70 -27 70 -32 0 -4 10 -8 23 -8 13 0 27 -4 33 -8 5 -5 36 -19 69 -31 33 -12 74 -29 90 -36 17 -8 57 -25 90 -38 58 -23 229 -95 290 -122 17 -8 66 -28 110 -45 105 -41 161 -65 257 -112 10 -4 22 -8 28 -8 5 0 39 -14 75 -30 36 -17 71 -30 78 -30 7 0 18 -5 24 -11 6 -6 17 -12 24 -13 24 -5 111 -41 139 -57 16 -10 17 -10 109 -45 35 -14 65 -23 67 -22 1 2 -3 17 -11 33 -7 17 -30 70 -50 119 -56 132 -153 319 -220 421 -128 195 -309 405 -445 515 -23 19 -49 41 -56 48 -7 6 -17 12 -22 12 -19 0 -61 46 -68 74 -4 16 -13 41 -20 55 -8 14 -14 30 -14 36 0 11 -97 202 -111 219 -5 6 -23 29 -39 51 -17 22 -38 50 -48 63 -28 36 -170 178 -207 206 -18 14 -39 31 -47 38 -24 23 -126 92 -189 128 -57 32 -66 42 -107 120 -48 91 -126 213 -174 270 -31 37 -189 200 -195 200 -3 0 -33 24 -57 45 -14 13 -193 101 -222 109 -11 4 -30 27 -43 54 -40 82 -123 192 -211 278 -84 83 -221 194 -239 194 -5 0 -11 3 -13 8 -1 4 -30 20 -63 36 -64 32 -247 163 -310 224 -8 6 -17 12 -22 12 -8 0 -47 29 -85 64 -10 9 -22 16 -28 16 -5 0 -10 4 -10 9 0 5 -8 12 -17 15 -16 6 -55 35 -105 80 -10 9 -20 16 -23 16 -6 0 -104 71 -126 92 -8 7 -22 18 -31 23 -34 22 -133 99 -136 107 -2 4 -8 8 -13 8 -13 0 -109 72 -109 82 0 4 -6 8 -13 8 -8 0 -46 27 -85 60 -40 33 -76 60 -82 60 -5 0 -10 4 -10 8 0 4 -14 16 -32 27 -42 25 -191 136 -200 149 -5 7 -8 7 -8 1 0 -5 -4 -5 -8 2 -5 8 -13 9 -27 1z m63 -286 c14 -9 22 -24 22 -43 0 -19 5 -29 15 -29 8 0 15 -4 15 -10 0 -5 18 -10 40 -10 38 0 40 -2 40 -30 0 -20 5 -30 15 -30 8 0 15 -4 15 -10 0 -5 14 -10 30 -10 20 0 30 -5 30 -15 0 -8 9 -15 21 -15 32 0 113 -67 119 -98 5 -24 11 -28 51 -32 26 -3 55 -12 65 -20 60 -48 84 -75 84 -97 0 -14 6 -23 15 -23 8 0 15 -4 15 -10 0 -5 11 -10 25 -10 18 0 25 -5 25 -20 0 -16 7 -20 30 -20 19 0 30 -5 30 -14 0 -9 12 -16 33 -18 28 -3 32 -7 35 -36 3 -32 5 -33 40 -31 31 2 44 -4 77 -34 22 -20 45 -37 51 -37 20 0 54 -41 54 -65 0 -22 4 -25 36 -25 46 0 104 -43 104 -76 0 -21 5 -24 35 -24 24 0 45 -9 68 -30 19 -16 38 -30 42 -30 17 0 65 -57 65 -77 0 -20 5 -23 40 -23 38 0 40 -2 40 -30 0 -23 4 -30 20 -30 11 0 20 -4 20 -10 0 -5 11 -10 24 -10 42 0 56 -11 56 -41 0 -26 3 -29 35 -29 l35 0 0 -1755 0 -1755 -59 0 c-54 0 -60 -2 -63 -23 -3 -21 -7 -22 -75 -19 -59 2 -73 0 -73 -12 0 -9 -18 -18 -50 -25 -67 -15 -80 -14 -80 4 0 11 -11 15 -40 15 -35 0 -40 -3 -40 -23 0 -22 -5 -24 -107 -36 -151 -18 -222 -19 -228 -3 -3 7 -24 12 -55 12 -47 0 -50 -2 -50 -25 0 -23 -4 -25 -42 -25 -24 0 -60 -3 -80 -6 -31 -5 -38 -4 -38 10 0 25 -100 23 -101 -1 -1 -17 -2 -17 -6 0 -3 12 -15 17 -39 17 -28 0 -34 -4 -35 -22 l-2 -23 -4 22 c-3 13 -13 23 -26 25 -18 2 -23 11 -25 46 -2 27 -8 42 -17 42 -7 0 -15 10 -17 22 -2 15 -11 24 -25 26 -14 2 -23 10 -23 21 0 23 -57 31 -229 31 -107 0 -133 -3 -193 -25 -38 -14 -82 -25 -99 -25 -24 0 -29 -4 -29 -26 0 -42 -18 -64 -50 -64 -23 0 -31 -5 -36 -25 -6 -24 -9 -25 -95 -25 -78 0 -89 -2 -90 -17 -1 -17 -2 -17 -6 0 -3 13 -15 17 -49 17 -24 0 -44 -4 -44 -10 0 -5 -13 -10 -29 -10 -19 0 -30 6 -33 18 -8 31 -189 40 -208 11 -3 -4 -35 -5 -73 -2 -62 5 -67 7 -67 29 0 21 -5 24 -35 24 -27 0 -35 -4 -35 -18 0 -17 -5 -17 -92 -4 -119 18 -118 18 -118 42 0 17 -6 20 -50 20 -27 0 -50 5 -50 10 0 6 -16 10 -35 10 -24 0 -35 -5 -35 -15 0 -8 -4 -15 -10 -15 -5 0 -10 11 -10 25 0 22 -4 25 -35 25 -24 0 -35 -5 -35 -15 0 -19 -5 -19 -30 2 -20 17 -20 26 -20 1758 0 1378 3 1745 13 1765 8 17 22 26 42 28 55 5 75 12 75 27 0 8 9 15 20 15 15 0 20 7 20 25 0 21 5 25 30 25 26 0 30 4 30 26 0 23 20 54 35 54 3 0 21 11 39 25 19 14 46 25 64 25 22 0 32 5 32 15 0 9 9 15 25 15 16 0 25 6 25 15 0 8 9 15 19 15 14 0 21 8 23 28 2 21 9 28 31 30 15 2 27 7 27 11 0 5 14 11 30 15 24 4 30 11 30 31 0 26 43 74 67 75 6 0 14 8 18 19 5 18 43 31 91 31 17 0 23 6 26 28 2 22 8 28 36 30 20 2 32 9 32 18 0 8 9 14 20 14 11 0 20 7 20 15 0 9 9 15 25 15 21 0 25 5 25 29 0 21 6 32 20 36 11 3 20 10 20 14 0 4 16 16 35 27 19 10 35 22 35 26 0 5 18 8 40 8 37 0 40 2 40 28 0 37 46 72 95 72 19 0 35 4 35 9 0 5 11 12 25 15 19 5 25 13 25 35 0 36 18 51 70 58 22 3 40 10 40 14 0 5 7 9 15 9 10 0 15 10 15 30 0 24 7 33 34 47 18 10 57 37 85 60 53 43 62 45 109 15z m-1938 -1646 c0 -89 -1 -94 -22 -99 -105 -22 -363 -94 -391 -109 -11 -5 -21 -8 -23 -5 -6 5 92 97 104 97 8 0 23 11 69 50 7 5 15 10 19 10 3 0 23 14 44 30 21 17 43 30 49 30 6 0 11 4 11 8 0 4 12 13 28 20 15 6 45 23 67 36 22 14 41 25 43 26 1 0 2 -42 2 -94z m3805 74 c3 -5 22 -10 41 -10 24 0 34 -5 34 -15 0 -9 8 -19 18 -22 9 -4 33 -19 52 -34 19 -15 49 -36 67 -46 64 -37 181 -129 186 -145 4 -14 1 -16 -11 -9 -19 10 -182 55 -282 78 -36 8 -73 19 -82 24 -10 5 -25 9 -33 9 -12 0 -15 16 -15 90 0 82 8 107 25 80z m148 -420 c11 0 33 -6 50 -14 18 -8 69 -27 114 -41 46 -15 88 -34 94 -41 6 -8 18 -14 25 -14 8 0 22 -4 32 -9 9 -5 28 -13 42 -19 73 -29 210 -99 241 -124 20 -15 40 -28 43 -28 10 0 130 -82 134 -92 2 -4 9 -8 16 -8 7 0 22 -10 33 -22 11 -13 42 -40 69 -61 27 -21 67 -60 89 -87 22 -27 46 -49 53 -50 6 0 12 -9 12 -20 0 -10 6 -23 14 -27 7 -4 25 -27 40 -51 21 -33 23 -41 9 -33 -26 13 -81 37 -133 56 -25 10 -68 28 -96 41 -28 13 -66 27 -85 31 -19 3 -47 15 -64 25 -16 10 -40 18 -52 18 -12 0 -24 4 -27 9 -3 5 -32 18 -63 31 -32 12 -69 28 -83 35 -14 7 -40 16 -59 20 -50 11 -105 53 -215 164 -54 56 -100 101 -102 101 -2 0 -39 35 -83 78 -43 42 -90 87 -103 99 -12 11 -34 33 -47 48 l-24 26 54 -20 c30 -12 62 -21 72 -21z m-4045 5 c-16 -13 -28 -29 -28 -35 0 -6 -6 -13 -14 -16 -19 -7 -302 -290 -309 -309 -4 -8 -13 -15 -20 -15 -8 0 -27 -15 -43 -33 -35 -40 -115 -87 -149 -87 -14 0 -25 -4 -25 -10 0 -5 -11 -10 -25 -10 -14 0 -25 -4 -25 -10 0 -5 -7 -10 -16 -10 -8 0 -39 -11 -67 -24 -29 -13 -77 -32 -107 -41 -30 -9 -73 -26 -94 -36 -22 -10 -44 -19 -48 -19 -5 0 -28 -9 -50 -20 -23 -11 -50 -20 -60 -20 -10 0 -18 -4 -18 -10 0 -5 -9 -10 -19 -10 -11 0 -22 -4 -25 -9 -3 -5 -19 -14 -36 -19 -35 -13 -40 0 -10 25 11 10 20 21 20 25 0 5 20 33 45 64 25 30 45 58 45 62 0 4 11 14 24 22 13 8 56 45 96 83 39 37 73 67 76 67 8 0 129 84 132 92 2 5 11 8 19 8 8 0 35 14 60 30 24 17 48 30 54 30 5 0 9 5 9 10 0 6 9 10 20 10 11 0 20 5 20 10 0 6 6 10 14 10 17 0 100 42 104 53 2 4 12 7 23 7 11 0 28 5 39 10 11 6 29 15 40 20 11 6 29 10 40 10 11 0 20 5 20 10 0 6 7 10 15 10 8 0 15 5 15 10 0 6 15 10 34 10 19 0 38 5 41 10 3 6 17 10 31 10 13 0 24 4 24 9 0 4 21 14 48 20 26 7 54 16 62 21 33 19 45 9 18 -15z m3987 -550 c89 -18 171 -41 197 -56 10 -5 27 -9 38 -9 11 0 28 -4 38 -9 9 -4 64 -23 122 -42 58 -18 109 -36 114 -41 6 -4 18 -8 27 -8 9 0 37 -10 61 -21 23 -12 54 -26 68 -32 14 -5 33 -13 42 -18 10 -5 23 -9 30 -9 7 0 42 -14 78 -31 36 -17 74 -35 85 -39 43 -16 121 -55 147 -72 14 -10 32 -18 38 -18 7 0 39 -18 71 -40 32 -22 65 -40 72 -40 8 0 22 -9 32 -20 10 -11 24 -20 30 -20 7 0 18 -7 25 -15 7 -9 28 -22 46 -31 18 -9 49 -31 69 -50 20 -19 64 -54 98 -79 34 -24 73 -58 86 -75 13 -16 29 -30 37 -30 8 0 14 -4 14 -8 0 -5 25 -35 55 -67 30 -33 55 -61 55 -63 0 -6 85 -107 93 -110 4 -2 7 -10 7 -17 0 -8 6 -18 13 -22 16 -10 77 -133 66 -133 -5 0 -23 9 -41 20 -18 11 -41 20 -50 20 -10 0 -32 9 -50 20 -18 11 -41 20 -50 20 -9 0 -41 14 -71 30 -30 17 -62 30 -71 30 -9 0 -16 5 -16 10 0 6 -11 10 -24 10 -19 0 -74 23 -168 71 -10 5 -24 9 -32 9 -8 0 -27 6 -43 14 -15 8 -44 21 -63 30 -19 8 -60 26 -90 40 -30 13 -80 32 -110 42 -30 10 -70 26 -88 36 -18 10 -41 18 -52 18 -10 0 -22 5 -25 10 -3 6 -17 10 -30 10 -14 0 -29 9 -35 20 -6 11 -21 20 -34 20 -13 0 -44 10 -68 21 -23 12 -54 26 -68 32 -14 5 -33 13 -42 18 -10 5 -23 9 -30 9 -7 0 -40 14 -73 30 -33 16 -68 30 -77 30 -9 0 -20 5 -23 10 -3 6 -15 10 -26 10 -18 0 -30 5 -81 32 -77 41 -135 67 -148 68 -9 0 -42 13 -75 30 -33 16 -68 30 -78 30 -9 0 -25 4 -35 9 -21 11 -62 27 -84 35 -16 5 -18 24 -18 211 0 192 1 205 18 196 9 -6 53 -17 97 -26z m-3897 -177 l-3 -203 -27 -3 c-16 -2 -28 -8 -28 -13 0 -5 -11 -9 -25 -9 -14 0 -25 -4 -25 -10 0 -5 -19 -14 -42 -21 -23 -6 -63 -20 -88 -31 -25 -11 -54 -23 -65 -28 -29 -11 -65 -26 -107 -44 -20 -9 -39 -16 -42 -16 -3 0 -29 -11 -58 -25 -28 -14 -58 -25 -65 -25 -7 0 -21 -4 -31 -9 -9 -5 -38 -18 -65 -30 -26 -12 -66 -30 -90 -41 -23 -11 -50 -20 -59 -20 -9 0 -20 -4 -23 -10 -3 -5 -15 -10 -26 -10 -10 0 -19 -4 -19 -10 0 -5 -9 -10 -19 -10 -11 0 -23 -4 -26 -10 -3 -5 -15 -10 -26 -10 -10 0 -19 -4 -19 -10 0 -5 -11 -10 -25 -10 -14 0 -25 -4 -25 -10 0 -5 -11 -10 -25 -10 -14 0 -25 -4 -25 -8 0 -4 -17 -14 -37 -21 -44 -14 -57 -20 -155 -60 -13 -5 -40 -15 -60 -22 -21 -7 -38 -17 -38 -21 0 -4 -7 -8 -15 -8 -8 0 -23 -4 -33 -9 -31 -17 -106 -47 -149 -61 -24 -7 -43 -17 -43 -22 0 -4 -9 -8 -20 -8 -11 0 -20 -4 -20 -10 0 -5 -11 -10 -25 -10 -14 0 -33 -4 -43 -10 -40 -22 -107 -50 -120 -50 -8 0 -31 -9 -51 -19 -20 -10 -61 -29 -91 -41 -30 -12 -61 -24 -67 -27 -23 -9 -13 31 20 81 17 27 41 65 52 83 26 43 70 97 120 149 22 23 51 54 65 70 14 16 42 43 63 59 22 17 61 51 89 78 27 26 53 47 58 47 4 0 31 18 59 40 28 22 52 40 55 40 11 0 106 64 106 71 0 5 7 9 15 9 8 0 15 5 15 10 0 6 7 10 15 10 8 0 15 5 15 10 0 6 9 10 20 10 11 0 20 3 20 8 0 4 27 18 60 30 33 13 60 28 60 33 0 5 7 9 16 9 9 0 33 9 53 19 83 44 249 121 260 121 6 0 19 4 29 10 42 23 107 50 122 50 9 0 35 9 58 20 22 11 47 20 54 20 7 0 47 12 88 26 41 14 107 34 145 44 39 10 90 25 115 34 25 9 61 16 81 16 19 0 39 4 45 9 9 9 36 17 62 20 10 1 12 -43 10 -201z"></path><path id="pvzuBnmPY" d="M4370 5185 c0 -33 2 -35 35 -35 33 0 35 2 35 35 0 33 -2 35 -35 35 -33 0 -35 -2 -35 -35z"></path><path id="pa5tNTN7U" d="M4050 5045 l0 -35 65 0 65 0 0 35 0 35 -65 0 -65 0 0 -35z"></path><path id="p9QV4B952" d="M4552 4948 c3 -42 4 -43 41 -46 l37 -3 0 45 0 46 -41 0 -40 0 3 -42z"></path><path id="p4dZQb3dh" d="M3680 4719 c-52 -39 -111 -83 -130 -99 -19 -16 -82 -63 -140 -106 -58 -42 -106 -81 -108 -86 -2 -4 -8 -8 -14 -8 -5 0 -16 -6 -23 -12 -8 -7 -106 -80 -219 -163 l-205 -150 -1 -1007 c0 -950 1 -1007 18 -1012 155 -46 769 -136 924 -136 l58 0 0 140 c0 77 3 140 8 140 4 0 41 -12 81 -25 122 -42 240 -58 411 -58 176 0 289 16 428 63 49 16 93 30 96 30 3 0 6 -65 6 -145 l0 -145 43 0 c161 0 716 80 910 131 l37 10 0 1007 0 1007 -82 60 c-173 127 -377 279 -478 355 -348 263 -359 270 -395 270 l-35 0 0 -79 0 -78 -97 33 c-156 52 -274 67 -481 61 -178 -5 -314 -28 -417 -71 l-35 -15 0 80 0 79 -32 0 c-25 -1 -57 -19 -128 -71z m763 -195 l38 -7 -3 -115 -3 -115 -54 -18 c-67 -23 -240 -109 -304 -150 l-48 -32 -52 18 c-35 12 -93 20 -174 23 l-123 4 0 29 c0 26 -3 29 -35 29 -35 0 -35 0 -35 -45 0 -25 -4 -45 -8 -45 -5 0 -21 -18 -38 -41 -16 -22 -34 -46 -40 -53 -25 -27 -76 -128 -105 -207 -31 -86 -55 -119 -85 -119 -10 0 -37 -11 -61 -25 l-43 -26 0 23 c0 37 35 138 83 241 91 194 272 387 364 387 20 0 33 5 33 13 0 17 138 111 232 159 68 34 128 52 238 71 40 7 182 7 223 1z m138 -351 c77 -38 176 -100 265 -164 51 -38 51 -38 63 -114 12 -83 15 -237 5 -298 -6 -36 -13 -42 -113 -101 -58 -35 -143 -82 -187 -105 l-82 -42 -51 31 c-29 16 -65 30 -81 30 -28 0 -30 -3 -30 -35 0 -33 5 -39 59 -73 l59 -37 6 -80 c3 -44 7 -132 8 -195 l3 -115 -70 -47 c-107 -72 -270 -148 -317 -148 -27 0 -154 61 -228 108 -93 60 -146 117 -160 169 -14 60 -25 265 -16 325 l7 45 97 53 c53 29 107 58 119 64 13 6 23 17 23 24 0 6 11 12 25 12 13 0 39 9 57 20 l32 19 42 -24 c24 -14 58 -25 78 -25 34 0 36 2 36 33 0 28 -7 36 -55 67 l-55 35 0 199 0 198 27 22 c51 41 187 116 260 142 40 15 73 31 73 35 0 17 27 9 101 -28z m659 -141 c-15 -5 -12 -70 4 -79 22 -13 120 -182 149 -259 26 -67 27 -75 18 -155 -22 -185 -19 -176 -70 -207 -54 -33 -97 -52 -115 -52 -7 0 -35 33 -62 72 -27 40 -76 101 -109 137 l-60 64 -1 171 c0 94 -4 188 -8 209 l-8 37 83 38 c67 31 93 38 127 34 31 -3 42 -1 42 9 0 11 3 11 10 -1 6 -10 6 -16 0 -18z m-1796 -445 c7 -29 93 -146 151 -207 l43 -45 5 -200 c2 -110 7 -207 11 -215 4 -11 -14 -28 -69 -62 -83 -53 -95 -56 -112 -29 -7 11 -25 21 -39 23 -23 2 -34 16 -69 84 -40 80 -84 203 -104 293 -9 41 -2 162 15 246 8 37 36 69 94 106 55 35 66 36 74 6z m2193 -74 c-3 -10 -5 -2 -5 17 0 19 2 27 5 18 2 -10 2 -26 0 -35z m-2590 -140 c-2 -32 -3 -6 -3 57 0 63 1 89 3 58 2 -32 2 -84 0 -115z m913 138 c0 -9 -24 -21 -41 -21 -5 0 -9 5 -9 11 0 5 5 7 10 4 6 -3 10 -1 10 4 0 6 7 11 15 11 8 0 15 -4 15 -9z m1677 -208 c-3 -10 -5 -2 -5 17 0 19 2 27 5 18 2 -10 2 -26 0 -35z m-231 -78 c9 -36 -13 -116 -60 -225 -53 -120 -122 -225 -209 -316 -72 -76 -120 -105 -140 -85 -6 6 -26 11 -44 11 -27 0 -33 -4 -33 -21 0 -24 -28 -52 -112 -110 -76 -52 -164 -92 -272 -123 -94 -28 -136 -32 -136 -16 0 6 -18 10 -40 10 -22 0 -40 4 -40 8 0 5 -33 23 -74 41 -80 35 -80 35 -92 133 l-6 56 53 17 c70 23 192 84 289 145 43 27 80 47 83 44 15 -15 126 -36 227 -42 l115 -7 5 -30 c4 -26 10 -30 43 -33 l37 -3 0 44 c0 35 7 51 34 83 67 79 148 222 180 319 16 49 19 52 94 87 42 20 80 37 84 37 4 1 10 -10 14 -24z"></path><path id="pOcA6m0ii" d="M2914 1913 c4 -38 27 -302 51 -587 24 -285 46 -520 48 -522 2 -2 66 -7 142 -11 l138 -6 -6 149 -6 149 50 -152 50 -153 139 0 140 0 0 39 c0 21 -18 90 -41 152 -22 63 -56 160 -76 217 l-35 102 46 233 c25 129 46 251 46 273 l0 39 -123 23 c-67 12 -138 22 -158 22 l-36 0 -18 -141 c-10 -77 -21 -142 -25 -144 -3 -2 -12 69 -18 157 -6 89 -13 163 -15 164 -13 13 -215 64 -253 64 l-47 0 7 -67z"></path><path id="ptcatxb54" d="M5676 1940 c-32 -10 -76 -22 -97 -25 -37 -6 -37 -7 -54 -75 -17 -71 -18 -72 -81 -85 -29 -6 -32 -4 -38 26 -3 17 -6 43 -6 57 0 23 -2 24 -47 19 -87 -9 -238 -38 -247 -48 -6 -5 6 -110 32 -276 23 -148 51 -338 63 -423 11 -85 26 -193 33 -240 l11 -85 95 -3 c52 -1 119 1 149 5 l54 8 39 150 c21 83 58 224 83 315 90 336 165 638 165 669 0 30 -1 31 -47 30 -27 0 -75 -9 -107 -19z m-226 -444 c0 -14 -4 -28 -10 -31 -6 -4 -10 7 -10 24 0 17 5 31 10 31 6 0 10 -11 10 -24z"></path><path id="pChNtczIx" d="M3840 1724 c0 -84 28 -757 36 -871 l6 -83 140 0 141 0 -6 208 c-4 114 -10 338 -13 498 l-7 292 -36 5 c-20 4 -87 9 -148 13 l-113 7 0 -69z"></path><path id="p1G7Wit8ol" d="M4470 1761 l-65 -6 -3 -492 -2 -493 245 0 244 0 11 43 c6 23 15 55 20 71 6 16 10 51 10 77 l0 49 -115 0 -115 0 0 80 0 80 95 0 95 0 0 116 0 117 -93 -6 -93 -5 4 189 4 189 -88 -2 c-49 -1 -118 -4 -154 -7z"></path></g></g><g id="lUFCLD1dS8fkuh6mrqdibs" fill="rgb(254,253,254)" style="transform: none;"><g><path id="pCSHd4hr0" d="M4286 5425 c-15 -14 -31 -25 -37 -25 -5 0 -9 -7 -9 -15 0 -8 -4 -15 -9 -15 -5 0 -11 -9 -14 -20 -3 -14 -14 -20 -31 -20 -14 0 -26 -4 -26 -9 0 -5 -10 -11 -22 -13 -17 -2 -24 -11 -26 -32 -2 -19 -6 -25 -11 -17 -6 9 -17 4 -39 -18 -17 -17 -38 -31 -46 -31 -9 0 -16 -4 -16 -8 0 -4 -14 -13 -31 -19 -21 -8 -30 -17 -27 -30 3 -18 -30 -43 -58 -43 -8 0 -14 -4 -14 -10 0 -5 -6 -10 -13 -10 -6 0 -18 -13 -25 -30 -10 -21 -21 -30 -38 -30 -17 0 -24 -6 -24 -20 0 -15 -7 -20 -29 -20 -20 0 -32 -6 -36 -19 -3 -10 -21 -29 -40 -42 -19 -13 -35 -28 -35 -32 0 -5 -4 -6 -8 -3 -5 3 -21 -6 -37 -20 -15 -13 -37 -24 -47 -24 -27 0 -100 -49 -105 -71 -3 -11 -16 -22 -28 -25 -12 -3 -28 -17 -36 -30 -7 -14 -25 -28 -41 -31 -15 -3 -28 -9 -28 -14 0 -5 -7 -9 -15 -9 -13 0 -19 -15 -17 -40 0 -3 -14 -5 -31 -5 -23 0 -35 -6 -42 -22 -5 -13 -20 -23 -35 -25 -14 -2 -26 -10 -28 -21 -7 -36 -87 -105 -136 -118 -25 -6 -46 -15 -46 -19 0 -4 -15 -22 -33 -41 -22 -23 -40 -33 -56 -31 -28 4 -58 -22 -66 -58 -5 -21 -11 -26 -28 -24 -17 3 -30 -8 -57 -49 l-35 -52 -3 -1756 -2 -1756 39 -11 c21 -7 45 -12 53 -12 9 0 21 -6 27 -14 14 -17 162 -40 202 -31 21 5 31 2 35 -9 5 -13 19 -16 66 -14 41 2 62 -2 68 -11 5 -10 21 -12 54 -9 28 4 63 0 89 -9 29 -10 60 -13 101 -8 39 4 61 3 66 -5 10 -16 213 -35 218 -21 6 18 82 14 82 -4 0 -12 19 -15 115 -15 96 0 115 3 115 15 0 8 5 15 11 15 6 0 9 10 7 23 -4 20 -1 23 18 19 19 -3 24 1 29 24 12 53 25 74 52 85 47 19 93 28 93 18 0 -11 74 18 78 31 4 12 132 13 132 2 0 -8 88 -52 104 -52 5 0 5 7 2 16 -4 10 -1 14 6 11 7 -2 12 -14 10 -25 -2 -12 2 -22 8 -22 13 0 77 -46 101 -73 9 -10 20 -33 23 -52 l7 -35 83 0 c63 0 85 3 89 14 6 16 97 18 97 3 0 -5 42 -5 93 -1 89 7 124 21 89 37 -10 4 -4 5 13 1 54 -11 195 -16 195 -8 0 5 34 10 76 10 42 1 79 5 83 10 3 5 37 10 76 11 38 1 71 7 73 12 2 6 30 11 63 11 43 0 59 4 59 14 0 9 8 12 25 8 14 -2 54 -1 89 3 52 5 65 10 69 26 4 13 14 19 35 19 25 0 30 5 36 31 3 17 6 802 6 1743 -1 1884 1 1818 -58 1824 -24 2 -32 8 -32 23 0 14 -7 19 -30 19 -16 0 -30 5 -30 10 0 6 -6 10 -13 10 -20 0 -67 49 -67 71 0 11 -8 23 -17 26 -9 4 -25 15 -35 25 -10 10 -29 18 -43 18 -45 0 -74 20 -77 54 -3 27 -7 31 -33 31 -24 0 -31 5 -35 25 -4 20 -12 26 -38 28 -24 3 -33 9 -38 28 -8 30 -40 54 -73 54 -13 0 -31 8 -40 18 -9 9 -28 23 -43 31 -16 8 -28 18 -28 23 0 4 -9 8 -20 8 -11 0 -20 5 -20 10 0 6 -8 10 -19 10 -23 0 -37 16 -46 52 -5 19 -14 28 -33 30 -19 2 -26 8 -24 21 2 12 -4 17 -23 17 -14 0 -28 0 -32 1 -18 2 -33 23 -33 45 0 19 -7 26 -30 31 -16 3 -30 11 -30 18 0 18 -34 45 -57 45 -32 0 -53 10 -53 26 0 8 -4 14 -9 14 -5 0 -11 9 -14 19 -4 18 -44 41 -94 56 -13 4 -23 14 -23 25 0 20 -19 30 -55 30 -12 0 -25 6 -28 13 -2 7 -25 23 -51 36 -37 20 -46 29 -46 51 0 20 -9 31 -39 48 -21 12 -49 22 -61 22 -14 0 -39 16 -61 40 -45 47 -74 51 -113 15z m114 -316 c0 -21 -3 -22 -49 -13 -20 4 -31 13 -31 23 0 13 8 16 40 13 31 -3 40 -8 40 -23z m-250 -99 c0 -15 -7 -20 -25 -20 -14 0 -25 -4 -25 -10 0 -25 -28 -7 -32 20 -4 29 -4 30 39 30 36 0 43 -3 43 -20z m470 0 c0 -15 -7 -20 -25 -20 -21 0 -25 -5 -26 -32 0 -18 -3 -26 -6 -18 -3 8 -12 20 -20 27 -20 16 -9 43 17 43 11 0 20 5 20 10 0 6 9 10 20 10 13 0 20 -7 20 -20z m-810 -304 l0 -55 -57 -26 c-252 -115 -493 -360 -619 -630 -114 -244 -151 -526 -105 -797 21 -120 76 -293 118 -368 55 -99 78 -137 107 -176 17 -23 39 -53 49 -66 74 -103 296 -282 429 -346 l78 -37 0 -117 0 -118 -28 0 c-128 0 -757 96 -894 136 -17 5 -18 60 -18 982 l1 977 205 150 c113 83 211 156 219 163 7 6 18 12 23 12 6 0 12 4 14 8 2 5 50 44 108 86 58 43 121 90 140 106 37 30 223 169 228 170 1 0 2 -24 2 -54z m1227 -51 c71 -53 175 -131 233 -175 101 -76 305 -228 478 -355 l82 -60 0 -977 0 -977 -37 -10 c-173 -45 -746 -131 -880 -131 -10 0 -13 31 -13 123 l0 123 63 31 c214 106 445 337 559 558 69 134 115 277 139 427 17 111 6 388 -20 500 -60 257 -197 492 -398 678 -77 71 -233 180 -305 213 -37 16 -38 18 -38 72 0 30 2 55 5 55 3 0 62 -43 132 -95z m-491 20 c115 -20 209 -48 301 -91 41 -19 77 -34 79 -34 3 0 51 -30 107 -67 115 -75 279 -231 343 -328 93 -139 165 -302 200 -454 55 -236 28 -537 -69 -761 -37 -86 -113 -220 -149 -262 -13 -15 -34 -42 -48 -60 -80 -104 -266 -251 -415 -326 -275 -138 -646 -164 -940 -66 -195 64 -357 165 -506 314 -116 116 -165 181 -232 316 -93 183 -137 366 -137 570 0 345 124 646 370 894 186 187 415 306 685 355 98 18 305 18 411 0z m-1474 -2755 c56 -17 103 -32 104 -33 4 -4 34 -371 34 -409 0 -18 7 -29 21 -33 11 -4 22 -5 24 -3 2 1 16 93 31 203 15 110 28 202 30 204 7 8 254 -45 254 -55 0 -6 -11 -67 -25 -135 -14 -68 -36 -182 -49 -253 l-24 -128 53 -152 c29 -83 64 -184 79 -225 14 -41 26 -78 26 -83 0 -4 -49 -8 -110 -8 l-109 0 -71 220 c-60 187 -74 220 -91 220 -10 0 -19 -3 -19 -7 0 -5 7 -84 15 -178 8 -93 15 -187 15 -209 l0 -39 -107 7 c-60 4 -109 9 -111 10 -1 2 -23 239 -47 527 -24 288 -47 539 -49 557 -6 40 -3 40 126 2z m2724 -7 c-3 -10 -30 -117 -61 -238 -31 -121 -76 -294 -100 -385 -25 -91 -62 -232 -83 -315 l-39 -150 -54 -8 c-30 -4 -83 -6 -119 -5 l-65 3 -11 85 c-51 371 -69 491 -97 673 -19 114 -31 210 -28 212 3 2 49 10 101 19 52 9 102 19 111 22 13 4 18 -7 23 -57 l7 -61 37 7 c93 17 132 27 128 34 -3 4 2 35 11 68 15 60 16 62 53 68 20 3 64 15 96 25 77 25 97 25 90 3z m-1735 -169 l46 -5 7 -302 c3 -166 9 -377 13 -469 l6 -168 -111 0 -110 0 -6 83 c-7 91 -36 779 -36 841 l0 38 73 -6 c39 -4 93 -9 118 -12z m616 -195 l-7 -192 95 7 95 7 0 -85 0 -86 -95 0 -95 0 -1 -67 c-1 -38 -2 -88 -3 -112 l-1 -44 118 2 c101 2 117 0 117 -13 0 -16 -37 -156 -43 -162 -3 -3 -222 -6 -365 -4 l-63 0 3 463 3 462 65 6 c36 3 92 6 124 7 l59 2 -6 -191z m-739 -1046 c-21 -2 -57 -2 -80 0 -24 2 -7 4 37 4 44 0 63 -2 43 -4z"></path><path id="p4f1tnIzp" d="M3773 4373 c-29 -21 -53 -43 -53 -50 0 -6 -9 -9 -20 -6 -47 12 -183 -99 -278 -226 -93 -125 -184 -344 -186 -446 -2 -88 4 -90 79 -39 37 24 72 44 78 44 7 0 -11 -14 -38 -30 -101 -59 -112 -83 -130 -290 -12 -142 59 -361 172 -526 78 -116 113 -154 139 -154 31 0 30 6 -11 69 -40 60 -41 63 -20 55 8 -4 47 14 87 39 115 72 108 60 92 147 -7 43 -13 146 -14 241 l0 165 -36 35 c-53 50 -151 185 -164 225 -7 20 -18 34 -28 34 -14 0 -14 1 1 13 9 6 30 50 46 96 29 79 80 180 105 207 6 7 24 31 40 53 17 23 33 41 38 41 4 0 8 10 9 23 0 12 2 18 5 12 2 -6 42 -9 100 -7 100 4 154 -5 240 -39 l51 -20 69 47 c38 26 115 69 172 96 95 45 124 68 86 68 -9 0 -28 8 -42 19 -15 10 -65 33 -112 51 -47 18 -94 37 -105 41 -36 16 -169 40 -245 45 -74 5 -76 4 -127 -33z"></path><path id="p1FKzakwjM" d="M4430 4244 c0 -8 5 -12 10 -9 6 3 10 2 10 -3 0 -5 -33 -21 -73 -36 -73 -26 -209 -101 -260 -142 l-27 -22 0 -228 0 -229 54 -35 c30 -19 53 -36 51 -38 -2 -3 -27 10 -56 28 -53 32 -83 34 -111 7 -7 -7 -26 -18 -43 -24 -16 -6 -50 -22 -75 -37 -25 -14 -84 -46 -132 -72 -87 -45 -87 -46 -94 -91 -9 -64 1 -328 16 -385 14 -53 67 -109 160 -170 74 -48 200 -108 242 -114 56 -9 230 64 363 154 l70 47 -2 145 c-1 80 -5 181 -8 225 l-6 80 -51 30 c-27 17 -55 36 -61 43 -6 8 17 -3 50 -22 34 -20 67 -36 73 -36 18 0 176 82 301 156 116 69 116 69 111 147 -5 64 -127 262 -230 373 -26 27 -64 69 -84 91 -20 23 -57 56 -82 74 -36 25 -46 39 -46 61 0 20 -5 28 -17 29 -15 0 -15 2 2 9 16 7 13 9 -17 9 -28 1 -38 -3 -38 -15z"></path><path id="pafwDIrhR" d="M5324 3905 c-3 -14 -12 -25 -20 -25 -9 0 -14 -12 -14 -35 0 -32 2 -35 30 -35 23 0 30 -4 30 -20 0 -15 7 -20 25 -20 14 0 25 6 25 13 0 8 4 7 11 -3 16 -23 1 25 -28 93 -27 61 -49 73 -59 32z"></path><path id="p7lBRLrIx" d="M4955 3574 c-4 -22 -2 -41 4 -47 8 -8 11 3 11 36 0 56 -5 60 -15 11z"></path><path id="p10Mn6rGfI" d="M5300 3015 c0 -33 2 -35 35 -35 33 0 35 2 35 35 0 33 -2 35 -35 35 -33 0 -35 -2 -35 -35z"></path><path id="p2UGFLef8" d="M4480 2794 c-81 -55 -238 -136 -309 -159 l-54 -18 6 -86 c9 -126 9 -125 93 -162 41 -18 72 -34 70 -36 -2 -2 -16 1 -32 8 -16 6 -38 15 -49 19 -11 4 -33 13 -48 19 -15 6 -55 11 -87 11 -57 0 -60 -1 -60 -24 0 -20 7 -26 48 -35 108 -26 164 -32 287 -32 111 0 144 4 219 26 49 14 114 37 145 51 65 30 171 96 171 107 0 4 11 24 24 45 13 20 29 54 36 75 7 21 18 41 26 44 17 6 20 113 3 113 -7 0 -9 -10 -4 -27 4 -19 3 -25 -3 -18 -6 6 -12 21 -14 35 -3 25 -5 25 -113 31 -106 6 -151 14 -243 45 -23 8 -44 14 -45 13 -1 -1 -31 -21 -67 -45z"></path><path id="pGWSXkGNi" d="M3900 2398 c0 -7 20 -21 45 -30 l45 -17 0 24 c0 21 -5 25 -29 25 -16 0 -36 3 -45 6 -10 4 -16 1 -16 -8z"></path><path id="p1HKyimrZJ" d="M5418 1553 c-20 -5 -22 -25 -12 -146 6 -66 10 -77 25 -77 11 0 21 9 24 23 29 126 35 156 35 180 0 23 -4 27 -27 26 -16 -1 -36 -3 -45 -6z"></path></g></g><g id="l1KyO7GyTK9kT9ulFse9kBJ" fill="rgb(48,141,70)" style="transform: none;"><g><path id="pYiIR5RLB" d="M4315 5454 c-17 -13 -51 -42 -77 -64 -26 -22 -51 -40 -57 -40 -6 0 -40 -25 -76 -55 -35 -30 -68 -55 -73 -55 -4 0 -21 -13 -37 -30 -16 -16 -37 -30 -46 -30 -10 0 -19 -3 -21 -7 -1 -5 -28 -27 -58 -50 -30 -23 -65 -51 -77 -62 -12 -12 -27 -21 -32 -21 -6 0 -14 -6 -18 -13 -4 -7 -21 -21 -38 -32 -16 -10 -35 -23 -42 -29 -6 -6 -37 -29 -67 -50 -31 -22 -56 -43 -56 -48 0 -4 -5 -8 -10 -8 -6 0 -20 -8 -31 -18 -10 -11 -32 -25 -47 -33 -15 -8 -34 -22 -43 -31 -9 -10 -23 -18 -32 -18 -9 0 -19 -9 -22 -20 -3 -11 -10 -20 -15 -20 -5 0 -55 -36 -112 -80 -56 -44 -108 -80 -115 -80 -7 0 -13 -4 -13 -9 0 -5 -15 -18 -32 -30 -57 -36 -70 -45 -102 -73 -17 -16 -35 -28 -40 -28 -5 0 -19 -11 -32 -25 -13 -14 -27 -25 -32 -25 -5 0 -19 -11 -32 -25 -13 -14 -27 -25 -32 -25 -4 0 -16 -7 -25 -16 -10 -8 -39 -31 -66 -50 -26 -20 -45 -39 -42 -45 4 -5 3 -9 -2 -9 -4 0 -7 -797 -5 -1772 2 -1691 3 -1772 20 -1788 18 -17 37 -22 139 -39 29 -5 66 -16 84 -25 17 -9 35 -13 39 -11 5 3 53 -2 107 -10 113 -18 305 -41 411 -49 41 -3 77 -8 80 -10 9 -5 120 -14 293 -22 l146 -7 6 -67 c6 -75 49 -169 95 -207 84 -70 211 -107 327 -93 89 10 119 17 123 30 2 5 9 10 16 10 25 0 117 97 146 154 23 45 30 71 30 116 l0 58 118 6 c64 4 160 11 212 17 52 5 115 12 140 15 42 4 92 5 108 2 4 -1 14 1 22 4 8 3 60 11 115 17 105 12 166 21 330 52 55 10 120 21 145 24 25 4 64 11 88 17 l42 10 0 1792 0 1792 -65 52 c-35 29 -67 52 -70 52 -3 0 -20 13 -38 30 -18 16 -36 30 -41 30 -11 0 -89 61 -99 77 -4 7 -12 13 -18 13 -5 0 -35 20 -67 45 -67 53 -58 47 -145 110 -38 28 -81 60 -95 72 -15 13 -32 23 -37 23 -6 0 -30 18 -53 40 -22 22 -44 40 -48 40 -4 0 -34 20 -65 45 -32 25 -62 45 -68 45 -6 0 -18 11 -27 25 -9 14 -21 25 -28 25 -10 0 -71 45 -126 94 -30 26 -116 86 -125 86 -3 0 -63 46 -133 102 -70 55 -140 108 -156 117 -16 9 -51 35 -79 59 -28 23 -55 42 -61 42 -5 0 -19 9 -31 20 -21 19 -21 19 -50 -6z m68 -89 c28 -31 36 -34 68 -29 30 5 36 3 36 -12 0 -11 -5 -22 -11 -26 -6 -5 5 -5 24 -1 31 6 34 5 22 -9 -11 -14 -10 -20 9 -37 13 -11 31 -23 41 -27 10 -3 16 -10 12 -15 -3 -5 -2 -9 3 -8 23 4 43 -2 43 -13 0 -17 54 -42 58 -28 6 16 22 1 22 -21 0 -10 5 -19 10 -19 6 0 10 -6 10 -14 0 -14 21 -26 47 -26 9 0 13 6 9 15 -9 24 10 17 28 -10 9 -14 14 -30 11 -35 -3 -6 1 -10 9 -10 9 0 16 -6 16 -14 0 -8 9 -18 20 -21 11 -4 18 -10 15 -15 -3 -5 4 -14 15 -20 18 -10 22 -8 27 9 7 28 31 5 25 -26 -4 -19 1 -24 25 -29 16 -3 33 -15 38 -27 7 -15 24 -25 53 -31 35 -8 42 -14 42 -33 0 -20 4 -22 26 -17 20 5 25 3 22 -7 -5 -16 40 -69 59 -69 7 0 13 -4 13 -10 0 -5 7 -10 15 -10 9 0 25 -9 37 -20 12 -11 28 -20 35 -20 8 0 11 -4 8 -10 -3 -5 0 -10 8 -10 8 0 18 -7 21 -16 5 -12 13 -14 32 -10 21 6 25 4 21 -8 -4 -10 -1 -16 9 -16 11 0 14 5 10 16 -5 14 -4 15 9 4 11 -9 12 -17 4 -31 -7 -15 -6 -19 6 -19 8 0 15 -4 15 -10 0 -5 16 -10 35 -10 31 0 35 -2 27 -17 -8 -13 -4 -21 13 -35 26 -20 45 -23 45 -7 0 5 5 7 10 4 6 -3 10 -17 10 -29 0 -27 51 -71 95 -82 24 -6 27 -4 22 10 -4 10 -3 15 3 11 14 -9 12 -35 -2 -35 -8 0 -6 -5 4 -11 9 -5 34 -25 54 -44 20 -19 40 -35 44 -35 4 0 17 -9 30 -20 14 -12 31 -18 42 -14 14 4 18 0 18 -20 0 -28 6 -31 42 -17 20 7 24 6 25 -10 1 -10 -4 -19 -10 -19 -7 0 -6 -4 3 -10 8 -5 11 -10 5 -10 -5 0 -3 -5 5 -10 13 -8 15 -210 18 -1702 2 -931 0 -1712 -3 -1735 -5 -38 -9 -43 -31 -43 -14 0 -35 -5 -47 -12 -21 -11 -21 -11 -2 -19 15 -6 10 -8 -20 -10 -22 -1 -53 -3 -70 -4 -16 -1 -45 -3 -63 -3 -18 -1 -31 -6 -28 -10 3 -5 -12 -9 -32 -9 -82 -1 -93 -3 -86 -15 5 -8 2 -9 -9 -5 -9 3 -19 2 -22 -3 -4 -6 -14 -10 -23 -9 -14 0 -13 2 3 10 14 6 1 7 -40 4 -33 -2 -64 -4 -70 -5 -5 0 -3 -5 5 -11 11 -8 3 -9 -30 -5 -34 5 -41 4 -30 -5 12 -8 9 -9 -10 -3 -34 11 -71 8 -79 -5 -5 -8 -39 -10 -106 -6 -54 3 -103 1 -109 -4 -17 -13 -110 -31 -116 -21 -9 15 -216 4 -250 -14 -28 -14 -31 -14 -19 0 10 12 10 17 1 23 -7 4 -13 19 -14 34 -1 15 -6 27 -11 27 -11 0 -87 79 -87 91 0 5 -5 9 -10 9 -6 0 -30 9 -52 20 -23 11 -48 20 -55 20 -7 0 -13 3 -13 8 0 4 -57 7 -126 7 -109 -1 -127 -3 -135 -18 -7 -12 -15 -15 -26 -8 -11 6 -27 1 -51 -15 -19 -13 -41 -24 -48 -24 -8 0 -21 -12 -31 -27 -10 -16 -22 -31 -28 -35 -6 -5 -5 -12 5 -18 11 -7 11 -10 2 -10 -7 0 -10 -5 -6 -12 4 -7 3 -8 -5 -4 -15 10 -43 -13 -37 -30 3 -7 -2 -15 -9 -18 -8 -3 -12 -12 -9 -21 5 -13 -6 -15 -70 -15 -47 0 -76 4 -76 11 0 5 -5 7 -10 4 -6 -3 -10 1 -10 9 0 13 -14 16 -82 16 -90 0 -131 -7 -122 -21 3 -5 -2 -9 -10 -9 -9 0 -16 4 -16 8 0 15 -119 44 -162 40 -24 -3 -63 2 -87 10 -25 8 -64 12 -88 9 -23 -2 -40 -1 -38 4 3 4 -16 11 -42 14 -27 4 -64 11 -83 16 -52 13 -113 12 -104 -3 4 -7 -6 -3 -22 8 -19 14 -43 20 -72 19 -25 -1 -47 4 -54 12 -6 7 -17 13 -26 13 -8 0 -32 5 -52 11 -36 11 -38 14 -36 48 0 20 5 42 10 50 6 10 5 12 -2 7 -9 -5 -11 416 -9 1676 l2 1683 35 52 c24 35 42 52 57 52 23 1 39 32 27 52 -4 7 -3 9 3 6 6 -4 16 0 23 8 7 8 22 14 34 13 25 -2 82 38 91 63 3 9 26 22 50 28 24 6 48 17 52 24 4 7 38 37 76 67 37 29 67 60 67 68 0 10 7 13 21 9 31 -8 47 1 54 34 4 16 13 29 21 29 8 0 14 5 14 11 0 6 8 9 18 7 15 -3 62 37 62 53 0 4 11 10 25 13 14 4 25 11 25 16 0 16 48 62 58 56 6 -3 12 1 16 9 3 8 14 15 25 15 26 0 169 98 176 121 4 12 16 19 32 19 16 0 27 7 30 20 3 11 12 20 21 20 20 0 52 29 52 47 0 8 5 11 10 8 6 -3 13 1 16 9 3 9 14 16 23 16 23 1 51 24 51 44 0 13 5 16 20 11 15 -5 23 0 32 19 6 14 18 26 25 26 8 0 28 13 44 29 16 16 29 26 29 21 0 -19 41 4 46 26 3 13 10 21 15 18 5 -3 9 2 9 10 0 11 9 16 26 16 17 0 28 6 31 20 3 11 12 20 20 20 10 0 13 6 9 16 -5 13 -4 14 7 6 11 -9 19 -6 37 13 13 14 25 25 27 25 2 0 18 -16 36 -35z m79 -4678 c6 -9 13 -8 30 2 21 13 22 13 10 -1 -11 -14 -8 -18 19 -32 18 -9 36 -16 41 -16 16 0 79 -74 98 -117 45 -96 4 -254 -78 -304 -20 -13 -44 -31 -53 -41 -9 -10 -27 -18 -41 -18 -13 0 -29 -5 -34 -10 -25 -25 -202 -11 -266 21 -79 40 -92 52 -128 121 -37 71 -50 166 -29 215 18 41 98 133 115 133 8 0 14 5 14 10 0 6 3 9 8 8 4 -1 20 4 35 10 16 7 33 12 38 12 6 0 8 4 4 9 -3 6 38 10 102 9 71 0 110 -4 115 -11z m703 -157 c7 -12 -2 -12 -30 0 -19 8 -19 9 2 9 12 1 25 -3 28 -9z"></path><path id="p1GeQjYZYe" d="M4260 5180 c0 -29 4 -40 15 -40 8 0 15 -4 15 -10 0 -5 -8 -10 -18 -10 -11 0 -27 -9 -38 -21 -25 -28 -8 -53 40 -57 34 -3 50 11 24 21 -7 3 -3 6 10 6 26 1 28 -7 6 -37 -15 -21 -15 -25 2 -43 21 -23 34 -25 34 -4 0 8 6 14 12 13 7 -2 17 12 22 30 9 29 36 46 36 22 0 -5 9 -10 20 -10 24 0 26 23 5 60 -7 14 -11 36 -8 50 3 17 -2 34 -15 50 l-19 24 -29 -23 c-16 -13 -30 -18 -32 -12 -2 6 -8 9 -13 6 -4 -3 -22 1 -39 10 l-30 16 0 -41z"></path><path id="piaWrmTj7" d="M4604 5076 c-13 -10 -23 -11 -31 -4 -7 5 -22 8 -34 6 -18 -2 -25 -13 -33 -48 -17 -69 -14 -85 13 -88 13 -2 25 -12 28 -22 6 -23 33 -34 47 -20 7 7 7 16 -2 30 -18 30 -16 31 38 29 60 -3 68 3 41 30 -14 14 -21 34 -21 61 0 43 -12 50 -46 26z"></path><path id="p2tfOX33O" d="M4051 5071 c-12 -8 -29 -44 -47 -102 -4 -12 3 -18 29 -23 23 -4 37 -13 40 -26 9 -33 43 -25 51 11 5 28 9 31 34 27 32 -5 54 12 42 33 -5 7 -6 17 -4 21 3 4 0 8 -5 8 -6 0 -11 11 -11 25 0 32 -24 42 -57 24 -21 -11 -27 -11 -30 -1 -5 14 -22 15 -42 3z"></path><path id="pHRRF8ZXc" d="M4237 2330 c3 -11 14 -20 24 -20 25 0 24 16 0 30 -27 14 -30 13 -24 -10z"></path><path id="pafR96J0R" d="M6210 3755 c0 -83 4 -135 10 -136 12 -2 20 -4 40 -11 8 -3 48 -13 88 -22 39 -9 84 -22 100 -28 15 -6 38 -13 52 -14 28 -3 212 -60 250 -78 14 -6 28 -15 32 -21 4 -5 10 -6 14 -3 13 13 -26 73 -66 102 -22 17 -40 35 -40 40 -1 11 -126 106 -183 139 -18 10 -48 31 -67 46 -19 15 -43 30 -52 34 -10 3 -18 13 -18 22 0 10 -10 15 -30 15 -16 0 -44 8 -62 18 -72 40 -68 46 -68 -103z"></path><path id="pS7orSt6E" d="M2425 3871 c-14 -13 -75 -49 -107 -63 -16 -7 -28 -16 -28 -20 0 -4 -5 -8 -11 -8 -6 0 -28 -13 -49 -30 -21 -16 -41 -30 -44 -30 -4 0 -12 -5 -19 -10 -47 -40 -61 -50 -70 -50 -12 0 -207 -190 -207 -202 0 -11 74 2 78 13 2 5 17 9 33 9 16 0 29 5 29 10 0 6 9 10 19 10 11 0 22 4 25 9 3 5 18 11 33 14 16 3 70 17 121 31 51 15 105 27 120 28 15 1 30 6 33 10 3 5 20 10 37 11 18 1 32 5 32 10 0 4 9 7 20 7 20 0 20 5 18 128 l-3 127 -25 3 c-14 2 -30 -1 -35 -7z"></path><path id="pezk8xCo7" d="M6210 3475 c0 -15 55 -79 118 -138 13 -12 60 -57 103 -99 44 -43 81 -78 83 -78 2 0 48 -45 102 -101 110 -111 165 -153 215 -164 19 -4 45 -13 59 -20 14 -7 51 -23 83 -35 31 -13 60 -26 63 -31 3 -5 15 -9 27 -9 12 0 36 -8 52 -18 17 -10 45 -22 64 -25 31 -7 59 -18 176 -73 22 -10 45 -19 51 -19 12 0 32 -9 102 -44 24 -11 48 -18 53 -15 6 3 16 0 24 -6 12 -10 15 -9 15 3 0 32 -69 154 -96 170 -8 4 -14 17 -14 27 0 11 -6 20 -12 20 -7 1 -31 23 -53 50 -22 27 -62 66 -89 87 -27 21 -58 48 -69 61 -11 12 -26 22 -33 22 -7 0 -14 4 -16 8 -4 10 -124 92 -134 92 -3 0 -23 13 -43 28 -31 25 -168 95 -241 124 -14 6 -33 14 -42 19 -10 5 -24 9 -32 9 -7 0 -19 6 -25 14 -6 7 -48 26 -94 41 -45 14 -96 33 -114 41 -17 8 -39 14 -48 14 -10 0 -47 11 -84 24 -36 13 -85 27 -108 31 -36 6 -43 4 -43 -10z"></path><path id="pP8XbgfSG" d="M2395 3470 c-3 -5 -17 -10 -31 -10 -13 0 -32 -4 -42 -9 -9 -5 -38 -15 -64 -22 -27 -6 -48 -16 -48 -20 0 -5 -11 -9 -24 -9 -14 0 -28 -4 -31 -10 -3 -5 -22 -10 -41 -10 -19 0 -34 -4 -34 -10 0 -5 -7 -10 -15 -10 -8 0 -15 -4 -15 -10 0 -5 -9 -10 -20 -10 -11 0 -29 -4 -40 -10 -11 -5 -29 -14 -40 -20 -11 -5 -28 -10 -39 -10 -11 0 -21 -3 -23 -7 -4 -11 -87 -53 -104 -53 -8 0 -14 -4 -14 -10 0 -5 -9 -10 -20 -10 -11 0 -20 -4 -20 -10 0 -5 -4 -10 -9 -10 -6 0 -30 -13 -54 -30 -25 -16 -52 -30 -60 -30 -8 0 -17 -3 -19 -8 -3 -8 -124 -92 -132 -92 -3 0 -37 -30 -76 -67 -40 -38 -83 -75 -96 -83 -13 -8 -24 -18 -24 -22 0 -4 -20 -32 -45 -62 -25 -31 -45 -60 -45 -65 0 -6 -6 -14 -14 -18 -17 -9 -66 -100 -66 -120 0 -11 8 -13 32 -8 18 4 39 11 48 16 41 21 108 49 118 49 7 0 12 5 12 10 0 6 8 10 18 10 10 0 37 9 60 20 22 11 45 20 50 20 4 0 26 9 48 19 21 10 64 27 94 36 30 9 78 28 107 41 28 13 59 24 67 24 9 0 16 5 16 10 0 6 11 10 25 10 14 0 25 5 25 10 0 6 13 10 28 10 16 0 32 3 36 8 4 4 11 7 14 7 15 1 69 41 96 72 16 18 35 33 43 33 7 0 16 7 20 15 7 19 290 302 309 309 8 3 14 12 14 20 0 8 4 16 10 18 20 7 110 100 104 109 -7 12 -81 11 -89 -1z"></path><path id="pUx1M4K9X" d="M6210 3123 c0 -61 1 -63 26 -63 14 0 48 -7 75 -16 27 -9 51 -15 54 -13 2 2 -32 38 -76 79 l-79 75 0 -62z"></path><path id="pEwrNimsb" d="M2458 3154 c-15 -8 -32 -23 -38 -34 -6 -11 -16 -20 -23 -20 -7 -1 -19 -17 -29 -36 -10 -22 -12 -34 -5 -31 7 2 36 10 66 18 60 15 64 20 59 77 l-3 40 -27 -14z"></path><path id="p2fAHCkoH" d="M2393 2906 c-18 -6 -35 -15 -39 -19 -4 -4 -23 -7 -43 -7 -20 0 -56 -7 -81 -16 -25 -9 -76 -24 -115 -34 -38 -10 -104 -30 -145 -44 -41 -14 -81 -26 -88 -26 -7 0 -32 -9 -54 -20 -23 -11 -49 -20 -58 -20 -15 0 -80 -27 -122 -50 -10 -6 -23 -10 -29 -10 -11 0 -177 -77 -260 -121 -20 -10 -42 -19 -49 -19 -6 0 -18 -7 -27 -15 -8 -8 -19 -13 -24 -10 -5 4 -9 2 -9 -3 0 -5 -18 -15 -40 -22 -22 -7 -40 -17 -40 -22 0 -4 -9 -8 -20 -8 -11 0 -20 -4 -20 -10 0 -5 -7 -10 -15 -10 -8 0 -15 -4 -15 -10 0 -5 -7 -10 -15 -10 -8 0 -15 -4 -15 -9 0 -7 -95 -71 -106 -71 -3 0 -27 -18 -55 -40 -28 -22 -55 -40 -59 -40 -5 0 -31 -21 -58 -47 -28 -27 -67 -61 -89 -78 -21 -16 -49 -43 -63 -59 -14 -16 -43 -47 -65 -70 -62 -64 -103 -117 -120 -153 -9 -17 -20 -35 -25 -38 -15 -9 -72 -114 -66 -123 3 -5 -4 -16 -15 -25 -11 -10 -17 -22 -14 -28 4 -5 2 -16 -5 -24 -17 -21 5 -27 42 -11 59 26 103 41 111 38 4 -1 7 2 7 6 0 5 19 15 43 22 23 8 56 22 72 32 17 10 37 18 46 18 14 0 79 27 121 50 10 6 29 10 43 10 14 0 25 5 25 10 0 6 9 10 20 10 11 0 20 4 20 8 0 5 19 15 43 22 43 14 118 44 149 61 10 5 25 9 33 9 8 0 15 4 15 8 0 4 17 14 38 21 20 7 47 17 60 22 98 40 111 46 155 60 20 7 37 17 37 21 0 4 11 8 25 8 14 0 25 5 25 10 0 6 11 10 25 10 14 0 25 5 25 10 0 6 9 10 19 10 11 0 23 5 26 10 3 6 15 10 26 10 10 0 19 5 19 10 0 6 9 10 19 10 11 0 23 5 26 10 3 6 16 10 28 10 12 0 31 7 41 15 10 8 23 12 27 9 5 -3 9 0 9 5 0 6 7 11 16 11 9 0 35 10 58 21 22 12 49 25 58 30 10 5 24 9 31 9 7 0 37 11 65 25 29 14 55 25 58 25 3 0 22 7 42 16 21 9 46 19 57 24 31 11 66 26 117 49 25 11 57 22 70 25 35 7 58 17 58 27 0 5 11 9 25 9 14 0 25 4 25 9 0 5 12 11 28 13 l27 3 0 235 0 235 -30 2 c-16 0 -44 -4 -62 -11z"></path><path id="pydHRdtuo" d="M6210 2685 c0 -216 1 -236 18 -241 22 -8 63 -24 84 -35 10 -5 26 -9 35 -9 10 0 45 -14 78 -30 33 -17 66 -30 75 -30 13 -1 71 -27 148 -68 51 -27 63 -32 81 -32 11 0 23 -4 26 -10 3 -5 14 -10 23 -10 9 0 44 -14 77 -30 33 -16 66 -30 73 -30 7 0 20 -4 30 -9 9 -5 28 -13 42 -18 14 -6 45 -20 68 -32 24 -11 55 -21 68 -21 13 0 28 -9 34 -20 6 -11 21 -20 35 -20 13 0 27 -4 30 -10 3 -5 14 -10 25 -10 10 0 44 -14 75 -30 32 -17 60 -29 62 -26 7 6 126 -44 145 -61 9 -8 21 -12 26 -9 5 3 21 -4 36 -15 14 -11 30 -18 34 -15 5 3 18 -1 28 -9 10 -8 27 -15 37 -15 9 0 25 -4 35 -9 93 -47 148 -71 167 -71 13 0 26 -7 29 -16 3 -9 12 -14 19 -11 6 2 36 -9 65 -24 29 -16 61 -29 70 -29 9 0 32 -9 50 -20 18 -11 40 -20 50 -20 9 0 32 -9 50 -20 18 -11 41 -20 50 -20 10 0 27 -7 38 -15 19 -14 54 -20 54 -9 0 19 -93 208 -107 217 -7 4 -13 14 -13 22 0 7 -3 15 -7 17 -8 3 -93 104 -93 110 0 2 -25 30 -55 63 -30 32 -55 62 -55 67 0 4 -6 8 -14 8 -8 0 -24 14 -37 30 -13 17 -52 51 -86 75 -34 25 -78 60 -98 79 -20 19 -51 41 -69 50 -18 9 -39 22 -46 31 -7 8 -18 15 -25 15 -6 0 -20 9 -30 20 -10 11 -24 20 -32 20 -7 0 -40 18 -72 40 -32 22 -64 40 -71 40 -6 0 -24 8 -38 18 -26 17 -104 56 -147 72 -11 4 -49 22 -85 39 -36 17 -71 31 -78 31 -7 0 -20 4 -30 9 -9 5 -28 13 -42 18 -14 6 -45 20 -68 32 -24 11 -52 21 -61 21 -9 0 -21 4 -27 8 -5 5 -56 23 -114 41 -58 19 -113 38 -122 42 -10 5 -27 9 -38 9 -11 0 -28 4 -38 9 -26 15 -108 38 -197 56 -44 9 -88 20 -97 26 -10 5 -31 9 -48 9 l-30 0 0 -235z"></path></g></g><g id="l26Xaq3BxRmO7jdSg8k0jw1" fill="rgb(232,234,233)" style="transform: none;"><g><path id="pkuVFljUl" d="M4334 5417 c-5 -7 -21 -19 -34 -28 -15 -10 -21 -20 -16 -28 6 -9 15 -6 36 14 l28 27 35 -37 c28 -30 39 -35 61 -29 26 6 25 7 -31 50 -64 48 -64 48 -79 31z"></path><path id="pKtXFF1KX" d="M4192 5312 c-35 -26 -90 -67 -123 -92 -33 -25 -77 -57 -97 -72 -20 -15 -41 -31 -47 -36 -5 -4 -26 -19 -45 -32 -19 -13 -39 -28 -45 -33 -5 -4 -24 -18 -41 -30 -17 -12 -78 -57 -135 -100 -57 -42 -114 -84 -126 -93 -13 -9 -20 -21 -16 -27 3 -5 10 -3 15 7 5 9 17 16 28 16 26 0 168 98 175 121 4 13 16 19 36 19 22 0 29 5 29 20 0 14 7 20 24 20 17 0 28 9 37 29 7 16 17 27 21 25 5 -3 11 2 14 10 3 9 14 16 23 16 23 1 51 24 51 44 0 13 5 16 20 11 15 -5 23 0 32 19 6 14 18 26 25 26 8 0 28 13 44 29 16 16 29 25 29 20 0 -22 32 -6 44 21 7 17 15 27 19 23 4 -3 7 1 7 10 0 12 8 17 26 17 17 0 28 6 31 20 3 11 12 20 19 20 8 0 14 5 14 10 0 20 -26 8 -88 -38z"></path><path id="pEL2ye49W" d="M4486 5315 c4 -8 1 -15 -7 -15 -7 0 -10 -2 -7 -5 3 -3 15 -2 26 2 21 8 21 9 2 21 -16 10 -18 9 -14 -3z"></path><path id="p19uLtlOrg" d="M4515 5280 c-7 -12 42 -60 62 -60 8 0 11 -5 8 -10 -4 -6 -3 -10 2 -9 24 4 43 -3 43 -15 0 -7 8 -16 18 -20 9 -3 23 -9 30 -12 7 -3 12 2 12 13 0 10 -18 30 -43 46 -23 16 -57 39 -76 53 -37 26 -47 29 -56 14z"></path><path id="p13oo4Nrfj" d="M4246 5208 c-14 -8 -15 -12 -4 -25 7 -9 12 -18 11 -20 -9 -11 0 -23 17 -23 11 0 20 -4 20 -10 0 -5 -8 -10 -18 -10 -18 0 -52 -29 -52 -44 0 -4 10 -20 22 -36 23 -31 55 -42 44 -15 -3 9 0 15 9 15 28 0 15 20 -17 27 l-31 6 27 22 c25 20 27 26 21 68 -8 49 -21 61 -49 45z"></path><path id="p13eNc9MdB" d="M4371 5199 c-13 -11 -27 -16 -30 -12 -6 7 -41 14 -41 8 0 -1 12 -10 26 -20 23 -15 27 -15 50 0 32 21 46 12 33 -22 -7 -20 -6 -30 7 -44 22 -24 38 -24 25 -1 -6 10 -7 28 -4 40 5 21 -20 72 -35 72 -4 -1 -18 -10 -31 -21z"></path><path id="p19MVbn29h" d="M4708 5144 c2 -13 8 -24 13 -24 5 0 9 -9 9 -20 0 -16 7 -20 30 -20 45 0 39 17 -21 62 l-36 27 5 -25z"></path><path id="pSgDovLn2" d="M4595 5150 c-4 -7 -1 -16 6 -21 17 -10 26 8 11 23 -6 6 -12 6 -17 -2z"></path><path id="po3r3ILU" d="M4040 5120 c19 -13 30 -13 30 0 0 6 -10 10 -22 10 -19 0 -20 -2 -8 -10z"></path><path id="pJYMEN5Dt" d="M4617 5081 c-20 -10 -40 -15 -43 -10 -7 12 -51 11 -59 -1 -7 -11 -13 -42 -19 -90 -2 -22 2 -33 15 -41 11 -5 19 -16 19 -23 0 -15 51 -29 63 -17 4 4 0 22 -9 39 -12 25 -22 32 -45 32 -34 0 -39 16 -8 25 18 6 20 12 14 41 -3 21 -2 34 5 34 5 0 10 -4 10 -9 0 -20 41 -23 62 -5 20 19 20 18 13 -18 -6 -31 -4 -38 17 -49 23 -13 23 -14 -12 -19 l-35 -6 32 -5 c47 -8 60 4 33 31 -17 17 -21 31 -18 66 2 24 3 44 3 44 -1 0 -17 -9 -38 -19z"></path><path id="pAfD1qUaa" d="M4818 5078 c8 -10 11 -22 7 -28 -3 -5 1 -10 9 -10 9 0 16 -6 16 -14 0 -8 9 -18 20 -21 11 -4 18 -10 15 -15 -7 -11 22 -33 35 -25 22 13 8 36 -52 82 -35 26 -57 40 -50 31z"></path><path id="pVnY3pIdd" d="M4051 5071 c-8 -5 -20 -26 -28 -47 -27 -73 -27 -74 -4 -74 13 0 25 -9 31 -24 10 -27 49 -58 62 -50 11 7 10 54 -2 54 -5 0 -10 9 -10 20 0 16 -7 20 -35 20 -19 0 -35 5 -35 10 0 6 6 10 14 10 24 0 39 26 27 49 -13 24 2 37 19 16 16 -20 29 -19 53 3 20 17 20 16 14 -15 -6 -28 -2 -35 24 -54 30 -21 31 -21 21 -2 -6 11 -8 23 -5 27 3 3 1 6 -5 6 -7 0 -12 11 -12 25 0 32 -24 42 -57 24 -21 -11 -27 -11 -30 -1 -5 14 -22 15 -42 3z"></path><path id="p1HnDTL7UR" d="M4419 5072 c-37 -3 -59 -30 -59 -70 1 -15 2 -15 15 2 8 11 15 28 15 38 0 10 5 18 11 18 18 0 39 -28 33 -43 -3 -8 2 -17 11 -21 21 -7 28 14 18 50 -7 26 -12 29 -44 26z"></path><path id="p1Co4Ti8a3" d="M4312 5029 c-11 -18 -11 -24 4 -40 33 -36 44 -18 21 34 -12 27 -12 28 -25 6z"></path><path id="p18h10ZnW7" d="M4800 4995 c12 -15 30 -12 30 6 0 5 -10 9 -21 9 -18 0 -19 -2 -9 -15z"></path><path id="p12OkMWSjT" d="M4130 4966 c0 -2 14 -6 30 -8 17 -3 30 -1 30 4 0 4 -13 8 -30 8 -16 0 -30 -2 -30 -4z"></path><path id="p11A5VFyUO" d="M4950 4945 c0 -21 5 -25 28 -25 19 0 30 -7 37 -22 7 -16 23 -26 53 -32 35 -8 42 -14 42 -33 0 -20 4 -23 27 -17 22 6 25 4 20 -10 -4 -9 -3 -16 2 -16 4 0 13 -11 19 -25 7 -15 20 -25 32 -25 12 0 18 -4 15 -10 -3 -5 3 -10 15 -10 11 0 30 -9 42 -20 12 -11 28 -20 35 -20 8 0 11 -4 8 -10 -3 -5 0 -10 8 -10 8 0 18 -7 21 -16 5 -12 13 -14 32 -10 21 6 25 4 21 -8 -4 -10 -1 -16 8 -16 28 0 15 17 -47 64 -35 26 -90 68 -123 92 -33 25 -96 72 -140 105 -44 32 -91 68 -105 79 -34 27 -50 25 -50 -5z"></path><path id="pwtoDpvdP" d="M3449 4755 c-19 -13 -50 -36 -69 -49 -19 -14 -71 -52 -115 -85 -44 -33 -100 -75 -125 -92 -173 -123 -271 -202 -259 -210 7 -4 20 -4 28 1 24 13 71 60 71 69 0 5 23 14 51 21 32 8 55 20 65 35 9 13 40 43 70 66 30 23 54 48 54 56 0 11 7 14 21 10 31 -8 47 1 54 34 4 16 13 29 21 29 8 0 14 5 14 11 0 6 8 9 18 7 15 -3 62 37 62 53 0 4 11 10 25 13 14 4 25 11 25 18 0 6 8 17 18 24 31 24 6 15 -29 -11z"></path><path id="p11YX9x7ZQ" d="M3715 4723 c-44 -29 -98 -84 -90 -91 5 -5 155 105 155 113 0 12 -29 3 -65 -22z"></path><path id="p15p5yVvcB" d="M4155 4690 c-16 -4 -49 -8 -72 -9 -24 0 -43 -5 -43 -11 0 -5 -10 -10 -22 -10 -13 0 -30 -5 -38 -10 -16 -11 15 -7 75 10 17 5 53 12 80 16 48 6 100 25 65 23 -8 -1 -28 -5 -45 -9z"></path><path id="p86R6uRrr" d="M4575 4670 c17 -4 39 -8 50 -8 l20 -1 -20 9 c-11 5 -33 8 -50 8 l-30 0 30 -8z"></path><path id="pArIjR5Nz" d="M3402 4638 c7 -19 35 -21 41 -3 5 11 0 15 -19 15 -16 0 -24 -5 -22 -12z"></path><path id="pOyn9Pnhi" d="M3719 4608 c-46 -24 -84 -49 -85 -56 -1 -7 0 -8 3 -2 2 5 9 8 13 5 13 -8 146 61 153 79 4 9 5 16 2 16 -2 0 -41 -19 -86 -42z"></path><path id="pb0EyJ4pY" d="M3841 4610 c-24 -11 -41 -23 -38 -26 3 -4 14 -3 24 1 10 5 23 9 28 11 6 1 26 9 45 18 31 14 32 15 10 15 -14 0 -45 -8 -69 -19z"></path><path id="p1WCQxZwZ" d="M4937 4607 c-2 -7 19 -25 47 -41 28 -16 53 -33 56 -37 3 -4 12 -4 20 1 8 5 12 11 10 13 -18 15 -98 65 -112 70 -9 3 -19 1 -21 -6z"></path><path id="pCBFswgcE" d="M5436 4595 c-3 -9 0 -15 8 -15 8 0 16 -5 18 -11 2 -6 17 -9 33 -7 l30 3 -36 23 c-43 26 -45 26 -53 7z"></path><path id="p6AgQbmYn" d="M3534 4573 c-25 -5 -64 -43 -45 -43 7 0 29 11 49 25 20 14 32 24 27 24 -6 -1 -20 -4 -31 -6z"></path><path id="ppK3mx6ri" d="M5141 4577 c2 -2 20 -14 39 -26 l35 -23 -30 26 c-16 14 -34 26 -39 26 -5 0 -7 -1 -5 -3z"></path><path id="p1BeXOAlpu" d="M4190 4553 c-110 -19 -170 -37 -238 -71 -98 -50 -229 -141 -235 -164 -4 -15 -2 -16 14 -7 10 5 19 16 19 24 0 8 6 12 13 9 7 -2 23 5 36 17 20 19 30 21 88 15 75 -8 198 -32 228 -45 11 -4 58 -23 105 -41 47 -18 97 -41 112 -51 29 -21 55 -24 92 -9 17 6 26 6 26 0 0 -5 -11 -12 -25 -16 -14 -3 -25 -9 -25 -11 0 -9 42 -43 53 -43 16 0 117 -80 151 -119 17 -20 52 -58 78 -86 26 -27 68 -78 93 -112 50 -68 135 -223 135 -248 0 -8 9 -15 20 -15 19 0 20 7 20 135 0 74 -5 168 -11 210 -12 76 -12 76 -63 114 -157 114 -318 201 -375 202 -32 0 -33 1 -13 9 21 9 22 14 22 125 l0 115 64 0 c35 0 100 -7 143 -15 97 -19 97 -19 46 5 -57 25 -172 56 -260 69 -69 11 -262 13 -313 4z"></path><path id="p17OwBxR1T" d="M4940 4546 c0 -3 24 -20 53 -36 28 -17 61 -37 73 -45 18 -14 21 -13 21 0 0 8 -7 15 -14 15 -23 0 -6 17 22 22 21 5 25 2 20 -13 -5 -15 -1 -19 15 -19 27 0 22 18 -14 44 -26 20 -28 20 -41 3 -16 -22 -51 -17 -100 13 -19 12 -35 19 -35 16z"></path><path id="puL3DFmio" d="M5516 4535 c-3 -8 -1 -15 5 -15 6 0 7 -4 4 -10 -3 -5 -3 -10 2 -10 4 0 18 -3 31 -6 30 -8 30 19 0 40 -28 20 -34 20 -42 1z"></path><path id="pfcUjvL6D" d="M3548 4502 c-26 -20 -46 -43 -45 -50 3 -21 22 -15 25 8 2 11 8 18 13 15 5 -4 9 1 9 10 0 9 5 13 11 10 11 -7 49 22 49 37 0 15 -14 8 -62 -30z"></path><path id="pn6txQIxC" d="M3700 4531 c-14 -4 -20 -10 -14 -14 6 -3 20 0 30 8 21 16 20 16 -16 6z"></path><path id="pbHwnGpPn" d="M3435 4510 c-3 -5 1 -10 9 -10 8 0 18 5 21 10 3 6 -1 10 -9 10 -8 0 -18 -4 -21 -10z"></path><path id="pJbrAqCyq" d="M5600 4473 c1 -21 10 -34 36 -50 20 -13 40 -23 45 -23 5 0 9 -4 9 -10 0 -14 27 -1 34 16 3 8 2 13 -3 10 -5 -3 -15 1 -22 10 -7 9 -32 29 -56 45 l-43 30 0 -28z"></path><path id="pZI2QUdNl" d="M3595 4466 c-42 -20 -74 -45 -56 -46 14 0 91 48 91 56 0 5 -1 5 -35 -10z"></path><path id="pOEngFejS" d="M3374 4455 c-10 -8 -14 -15 -8 -15 5 0 19 7 30 15 10 8 14 15 8 15 -5 0 -19 -7 -30 -15z"></path><path id="p15yCGQWwJ" d="M5155 4460 c-8 -12 18 -40 38 -40 25 0 27 12 3 31 -28 22 -32 23 -41 9z"></path><path id="pet6kVV2J" d="M3306 4405 c-11 -8 -27 -15 -35 -15 -9 0 -41 -24 -73 -52 -31 -29 -64 -58 -75 -65 -15 -10 -15 -12 -2 -12 13 -1 124 75 176 119 7 5 15 10 18 10 4 0 13 7 21 15 21 20 -4 20 -30 0z"></path><path id="poJNFEz8U" d="M5223 4404 c-9 -8 -6 -15 12 -24 35 -19 50 -8 23 16 -19 16 -27 18 -35 8z"></path><path id="pKY7L7Q2c" d="M3413 4385 c-3 -9 -3 -18 0 -21 9 -9 27 6 27 22 0 19 -19 18 -27 -1z"></path><path id="piHNY6lVx" d="M5723 4384 c-10 -10 -9 -14 7 -19 11 -4 20 -13 20 -21 0 -8 5 -14 10 -14 6 0 23 -11 38 -25 15 -14 33 -25 40 -25 7 0 10 -4 7 -10 -6 -10 13 -15 48 -12 12 1 17 -6 17 -24 0 -23 3 -25 29 -19 32 7 53 -11 30 -26 -11 -7 -11 -9 -1 -9 7 0 10 -4 7 -10 -3 -5 -2 -10 4 -10 5 0 12 -10 14 -22 2 -13 5 -3 6 22 l1 45 -108 80 c-59 44 -113 81 -119 83 -7 2 -13 7 -13 12 0 15 -25 18 -37 4z"></path><path id="pdtLhFxMn" d="M5012 4315 c43 -43 94 -103 114 -134 20 -31 46 -69 57 -86 15 -21 16 -26 4 -16 -21 17 -44 11 -158 -41 -85 -39 -90 -43 -85 -67 18 -89 27 -253 17 -340 l-10 -94 67 -71 c37 -40 94 -110 126 -157 l59 -86 61 26 c34 14 82 38 107 53 45 27 45 27 57 105 21 138 26 247 12 272 -6 13 -13 37 -15 55 -4 52 -27 116 -42 116 -11 0 -10 -5 3 -25 9 -14 12 -25 8 -25 -5 0 -14 10 -19 23 -7 15 -18 21 -35 20 -14 -1 -18 0 -7 3 24 7 22 19 -13 76 -17 27 -26 47 -20 43 5 -3 17 -19 25 -36 20 -37 49 -41 35 -4 -36 95 -176 274 -285 364 -122 102 -149 113 -63 26z"></path><path id="p10Liqk6hK" d="M3462 4355 c-13 -7 -22 -16 -21 -21 2 -8 -56 -42 -73 -44 -5 0 -8 10 -8 21 0 21 -1 21 -20 -4 -24 -30 -28 -56 -6 -38 16 14 23 5 21 -26 -2 -16 14 -5 67 49 37 39 67 72 66 73 -2 1 -13 -4 -26 -10z"></path><path id="p1mWOO6e7" d="M2985 4349 c-10 -15 3 -25 16 -12 7 7 7 13 1 17 -6 3 -14 1 -17 -5z"></path><path id="ptl74dE8e" d="M5282 4351 c-7 -4 -12 -14 -10 -22 2 -8 -4 -13 -14 -13 -23 2 -23 3 13 -32 29 -27 31 -27 24 -6 -6 21 -4 22 19 16 19 -4 26 -2 26 8 0 22 -43 58 -58 49z"></path><path id="p1A8DxHRpv" d="M2778 4259 l-78 -60 1 -47 c1 -30 3 -40 7 -27 15 47 67 114 89 115 14 0 24 8 29 23 3 12 13 30 22 40 23 26 13 20 -70 -44z"></path><path id="pjfCJS6bI" d="M3604 4276 c-55 -38 -169 -151 -141 -140 9 3 17 10 17 15 0 5 4 8 9 7 5 -2 33 18 63 44 29 25 67 58 83 71 46 39 25 40 -31 3z"></path><path id="p17Dc3OTJ8" d="M5353 4273 c-9 -3 -9 -10 3 -28 20 -31 1 -44 -29 -19 -13 11 -9 4 8 -16 16 -19 33 -39 36 -43 4 -5 4 3 2 17 -5 22 -2 26 18 26 14 0 19 -3 12 -8 -17 -11 12 -46 32 -39 8 4 15 2 15 -2 0 -5 -5 -11 -12 -13 -15 -5 21 -68 39 -68 19 0 16 14 -13 68 -33 61 -96 131 -111 125z"></path><path id="pT4s6ufGM" d="M3281 4236 c-7 -8 -8 -17 -3 -20 6 -3 13 1 16 10 9 23 2 28 -13 10z"></path><path id="pg0z5bJGY" d="M3250 4195 c-10 -12 -10 -15 4 -15 9 0 16 7 16 15 0 8 -2 15 -4 15 -2 0 -9 -7 -16 -15z"></path><path id="pf2NhzPFJ" d="M2995 4170 c-10 -11 -26 -20 -35 -20 -17 0 -87 -59 -72 -61 4 0 -4 -5 -17 -10 -13 -5 -21 -12 -18 -16 4 -3 17 2 29 10 113 80 159 117 146 117 -8 0 -23 -9 -33 -20z"></path><path id="p1FkI8KtY6" d="M3275 4154 c-9 -14 -15 -28 -12 -30 9 -9 35 8 45 32 16 34 -10 33 -33 -2z"></path><path id="p1EyjdHMQ" d="M4186 4121 c-8 -12 21 -34 34 -26 19 12 11 27 -11 20 -15 -5 -19 -4 -15 4 4 6 5 11 2 11 -3 0 -7 -4 -10 -9z"></path><path id="peCH7HlyT" d="M5754 4121 c3 -5 22 -18 42 -30 19 -12 33 -17 30 -12 -3 5 -22 18 -42 30 -19 12 -33 17 -30 12z"></path><path id="pQEdlwBz0" d="M3420 4091 c-16 -23 -18 -31 -7 -31 13 0 42 48 33 57 -2 2 -14 -10 -26 -26z"></path><path id="pzGgvNqtx" d="M3183 4085 c-3 -9 -3 -19 1 -22 3 -4 6 -1 6 6 0 7 5 9 10 6 6 -3 10 1 10 9 0 21 -19 21 -27 1z"></path><path id="pwiQYyHFy" d="M3220 4068 c-15 -24 -16 -34 -7 -40 9 -5 7 -8 -4 -8 -9 0 -21 -11 -27 -25 -15 -32 -15 -35 1 -35 6 0 29 32 49 70 26 51 32 70 22 70 -8 0 -23 -14 -34 -32z"></path><path id="pmKMpxM4a" d="M5493 4073 c-18 -7 -16 -23 2 -23 8 0 15 7 15 15 0 8 -1 15 -2 14 -2 0 -9 -3 -15 -6z"></path><path id="p1DTFoZX0w" d="M3613 4049 c-38 -24 -62 -79 -35 -78 9 0 32 22 50 50 35 54 33 59 -15 28z"></path><path id="pkt7juBnN" d="M2840 3855 c0 -167 2 -195 15 -195 13 0 15 28 15 195 0 167 -2 195 -15 195 -13 0 -15 -28 -15 -195z"></path><path id="pLKoSuUi8" d="M3383 4038 c-9 -11 -42 -79 -98 -203 -23 -52 -45 -128 -49 -175 -2 -25 -2 -36 1 -25 18 85 48 175 69 211 14 24 23 44 19 44 -4 0 2 15 13 33 10 17 25 48 32 67 8 19 18 38 24 42 6 4 8 10 5 13 -4 3 -11 0 -16 -7z"></path><path id="pjHETuBGx" d="M5513 4035 c-17 -19 -16 -25 2 -25 8 0 15 9 15 20 0 23 -1 24 -17 5z"></path><path id="p10RjNi5wt" d="M5533 3995 c-16 -18 0 -65 22 -65 18 0 19 15 2 52 -10 22 -14 24 -24 13z"></path><path id="pfWQnDq9w" d="M3112 3945 c-6 -14 -7 -25 -2 -25 9 0 25 39 18 46 -3 2 -10 -7 -16 -21z"></path><path id="p1Cfa25J6K" d="M3160 3941 c0 -17 18 -21 24 -6 3 9 0 15 -9 15 -8 0 -15 -4 -15 -9z"></path><path id="pomjajp9J" d="M3075 3848 c-9 -34 -20 -69 -23 -77 -3 -11 -2 -13 5 -6 12 13 48 133 41 140 -3 3 -13 -22 -23 -57z"></path><path id="pAJdNocRC" d="M3134 3889 c-3 -6 0 -15 7 -20 11 -7 10 -9 -3 -9 -10 0 -18 -4 -18 -10 0 -26 31 -3 43 33 7 19 -17 25 -29 6z"></path><path id="pDCxZDJUW" d="M5362 3878 c2 -6 10 -14 16 -16 7 -2 10 2 6 12 -7 18 -28 22 -22 4z"></path><path id="pieq5AonN" d="M5583 3873 c-19 -7 -16 -23 5 -24 10 0 12 -3 5 -6 -18 -7 -16 -23 2 -23 17 0 20 -17 4 -22 -18 -6 4 -72 25 -76 16 -4 18 1 12 33 -12 60 -40 122 -53 118z"></path><path id="p1D7rHWGpg" d="M3110 3820 c0 -5 7 -10 15 -10 8 0 15 5 15 10 0 6 -7 10 -15 10 -8 0 -15 -4 -15 -10z"></path><path id="p17DoyDrwS" d="M3480 3820 c0 -5 7 -10 15 -10 8 0 15 5 15 10 0 6 -7 10 -15 10 -8 0 -15 -4 -15 -10z"></path><path id="p96HGUYNE" d="M3446 3733 c-9 -26 -16 -48 -16 -50 0 -4 30 -4 30 0 0 1 7 23 15 50 12 39 12 47 0 47 -7 0 -20 -21 -29 -47z"></path><path id="pJSol4hRY" d="M3086 3744 c-10 -27 -7 -44 9 -44 8 0 15 6 15 14 0 8 3 21 6 30 4 10 1 16 -9 16 -8 0 -18 -7 -21 -16z"></path><path id="pWUDbvVqj" d="M3437 3653 c-13 -13 -7 -33 11 -33 14 0 15 -2 2 -10 -13 -8 -12 -10 3 -10 10 0 17 8 17 19 0 21 -23 45 -33 34z"></path><path id="pqqbrHRe" d="M5643 3645 c-17 -19 -16 -25 2 -25 8 0 15 9 15 20 0 23 -1 24 -17 5z"></path><path id="pttQWm2vi" d="M5834 3430 c0 -129 2 -182 3 -117 2 64 2 170 0 235 -1 64 -3 11 -3 -118z"></path><path id="p16DlvzpSt" d="M5598 3565 c2 -44 6 -82 8 -84 7 -8 2 114 -6 139 -4 14 -5 -11 -2 -55z"></path><path id="p415xdDDY" d="M5653 3575 c-17 -19 -16 -25 2 -25 8 0 15 9 15 20 0 23 -1 24 -17 5z"></path><path id="pUkGvrueL" d="M3482 3561 c-10 -6 -7 -10 12 -13 21 -4 24 -3 15 8 -13 16 -11 16 -27 5z"></path><path id="pPtIWBgsP" d="M4085 3550 c3 -4 -3 -11 -12 -15 -10 -3 -19 -2 -21 4 -4 11 -102 -36 -102 -48 0 -4 -9 -7 -19 -8 -11 -1 -37 -13 -58 -26 -21 -14 -67 -39 -101 -56 -35 -17 -60 -36 -57 -41 7 -12 45 6 45 21 0 6 5 7 10 4 6 -3 10 -1 10 5 0 7 6 8 19 0 16 -8 30 -4 68 16 135 74 155 81 213 75 31 -4 72 -17 91 -29 20 -12 41 -22 47 -22 6 0 23 -12 37 -26 20 -20 32 -24 52 -19 20 5 24 3 20 -9 -5 -11 0 -16 13 -16 10 0 22 -4 25 -10 10 -16 41 -12 56 7 8 9 9 14 3 11 -5 -4 -23 6 -38 23 -15 16 -32 29 -37 29 -5 0 -36 18 -69 41 -44 30 -68 40 -86 36 -16 -3 -28 1 -31 10 -3 7 -23 22 -44 32 -22 11 -37 16 -34 11z"></path><path id="p1CDaw2u5u" d="M4870 3508 c-41 -12 -44 -14 -36 -27 6 -9 76 23 76 35 0 2 -1 4 -2 3 -2 0 -19 -5 -38 -11z"></path><path id="p9zVsS1j2" d="M3532 3482 c-15 -10 11 -36 45 -45 l23 -5 -23 28 c-25 32 -27 33 -45 22z"></path><path id="poevWrW7q" d="M4770 3460 c-12 -8 -12 -10 3 -15 9 -4 23 0 32 9 15 15 15 16 -2 16 -10 0 -25 -4 -33 -10z"></path><path id="p18J6xB0DI" d="M4672 3404 c-20 -22 13 -24 44 -3 l29 19 -31 -2 c-17 -1 -36 -7 -42 -14z"></path><path id="pw9OzUUxF" d="M3232 3370 c0 -19 2 -27 5 -17 2 9 2 25 0 35 -3 9 -5 1 -5 -18z"></path><path id="pPZUdkF2I" d="M4429 3342 c-13 -15 -13 -20 -3 -30 7 -7 20 -12 29 -12 20 0 20 26 -1 34 -8 3 -12 10 -9 16 10 16 1 12 -16 -8z"></path><path id="poPUwOCzA" d="M5603 3325 c0 -22 2 -30 4 -17 2 12 2 30 0 40 -3 9 -5 -1 -4 -23z"></path><path id="pG3uF2tl7" d="M4550 3333 c-19 -8 -30 -17 -24 -19 11 -5 84 23 84 31 0 9 -25 4 -60 -12z"></path><path id="peoQod0CS" d="M3223 3280 c0 -30 2 -43 4 -27 2 15 2 39 0 55 -2 15 -4 2 -4 -28z"></path><path id="pG1AxuyaI" d="M5303 3256 c-101 -50 -103 -52 -119 -101 -34 -102 -112 -239 -187 -327 -35 -41 -39 -52 -34 -83 3 -21 2 -33 -4 -30 -5 4 -9 -3 -9 -13 0 -11 -6 -22 -14 -25 -8 -3 -19 -23 -26 -44 -7 -21 -23 -55 -36 -75 -13 -21 -24 -42 -24 -47 0 -5 -15 -26 -34 -45 -41 -44 -21 -48 37 -7 70 49 97 77 97 100 0 13 4 19 11 16 6 -4 8 -14 5 -22 -4 -10 -1 -13 12 -9 9 3 37 10 62 16 92 23 252 219 335 410 23 52 47 116 54 142 18 76 10 189 -14 193 -6 1 -56 -21 -112 -49z"></path><path id="pKc3NVD4k" d="M4485 3290 c-8 -14 3 -30 21 -30 8 0 14 9 14 20 0 21 -24 28 -35 10z"></path><path id="p19nlJe2l0" d="M5640 3285 c0 -8 7 -15 15 -15 8 0 15 7 15 15 0 8 -7 15 -15 15 -8 0 -15 -7 -15 -15z"></path><path id="pq2k8rqmq" d="M3073 3263 c-18 -7 -16 -33 2 -33 8 0 15 9 15 20 0 11 -1 20 -2 19 -2 0 -9 -3 -15 -6z"></path><path id="pt6lctdRj" d="M3681 3169 c1 -56 4 -126 8 -155 5 -34 4 -58 -3 -65 -8 -9 -8 -10 0 -6 8 4 14 -6 18 -27 7 -37 91 -123 149 -152 18 -9 35 -22 39 -28 5 -8 8 -7 8 2 0 7 -21 27 -47 45 -48 32 -132 110 -134 124 -1 5 -3 17 -5 28 -10 52 -14 119 -15 223 -1 61 -6 112 -10 112 -5 0 -9 -46 -8 -101z"></path><path id="piiRQuuiL" d="M4490 3205 c0 -8 6 -15 14 -15 8 0 16 7 20 15 4 10 -1 15 -14 15 -11 0 -20 -7 -20 -15z"></path><path id="p10L0lriBE" d="M5630 3204 c0 -9 5 -14 12 -12 18 6 21 28 4 28 -9 0 -16 -7 -16 -16z"></path><path id="pD1dk6MY9" d="M2840 2675 c0 -442 2 -505 15 -505 13 0 15 63 15 505 0 442 -2 505 -15 505 -13 0 -15 -63 -15 -505z"></path><path id="pqqK7nYu5" d="M5620 3159 c0 -24 23 -21 28 4 2 10 -3 17 -12 17 -10 0 -16 -9 -16 -21z"></path><path id="pB0pUgx6d" d="M5610 3114 c0 -9 5 -14 12 -12 18 6 21 28 4 28 -9 0 -16 -7 -16 -16z"></path><path id="pCBFkbYrN" d="M5600 3080 c0 -5 7 -10 15 -10 8 0 15 5 15 10 0 6 -7 10 -15 10 -8 0 -15 -4 -15 -10z"></path><path id="pkEjadGxi" d="M3113 3063 c-20 -7 -15 -23 7 -23 11 0 20 4 20 9 0 13 -12 19 -27 14z"></path><path id="pJIPJVjyd" d="M5598 3033 c-21 -5 -24 -23 -4 -23 8 0 16 7 20 15 3 8 4 14 3 14 -1 -1 -10 -3 -19 -6z"></path><path id="p17dG1z1jA" d="M5518 2965 c-14 -37 -20 -60 -12 -54 14 11 49 107 42 114 -2 3 -16 -25 -30 -60z"></path><path id="p15iy3nG3N" d="M3131 3003 c-17 -18 4 -73 28 -73 14 0 14 -2 1 -10 -13 -8 -12 -10 3 -10 9 0 17 -4 17 -10 0 -5 -4 -10 -10 -10 -6 0 -5 -10 2 -25 6 -14 18 -25 27 -25 14 0 14 -2 1 -10 -12 -8 -12 -10 5 -10 16 0 17 -2 6 -9 -12 -8 -12 -12 -2 -25 8 -9 21 -16 30 -16 14 0 14 -2 1 -10 -13 -8 -12 -10 3 -10 23 0 22 8 -9 66 -14 27 -40 83 -58 125 -26 65 -33 74 -45 62z"></path><path id="pjSPWJs3u" d="M5588 2993 c-21 -5 -24 -23 -4 -23 8 0 16 7 20 15 3 8 4 14 3 14 -1 -1 -10 -3 -19 -6z"></path><path id="p18nJ6VTzJ" d="M4530 2965 c0 -14 -4 -25 -10 -25 -16 0 -12 -57 5 -64 12 -4 15 5 15 54 0 33 -2 60 -5 60 -3 0 -5 -11 -5 -25z"></path><path id="pjYDWqdeR" d="M5560 2902 c0 -7 -6 -12 -13 -12 -8 0 -19 -12 -26 -26 -23 -50 9 -43 35 8 8 16 13 32 10 36 -3 3 -6 0 -6 -6z"></path><path id="pdiDpfOfR" d="M3340 2894 c1 -15 24 -40 43 -47 10 -4 16 -11 12 -17 -9 -14 13 -50 30 -50 20 0 19 10 -2 26 -10 7 -18 20 -18 29 0 10 -15 29 -32 42 -18 14 -33 22 -33 17z"></path><path id="pCHe773nJ" d="M5436 2800 c-27 -48 -62 -102 -78 -120 -15 -18 -25 -36 -22 -41 9 -15 94 97 94 124 0 8 11 26 25 41 23 25 43 72 34 80 -2 2 -26 -36 -53 -84z"></path><path id="pYQiI4k9v" d="M3629 2860 c-18 -14 -20 -19 -8 -20 22 0 54 25 42 33 -6 4 -22 -2 -34 -13z"></path><path id="p2fgCGEZd" d="M4530 2825 c-7 -9 -11 -17 -9 -19 9 -8 129 -15 129 -8 0 7 -32 21 -86 36 -13 4 -26 1 -34 -9z"></path><path id="ppnnL22gX" d="M3551 2810 c-43 -24 -60 -40 -42 -40 13 0 101 49 101 56 0 9 -27 2 -59 -16z"></path><path id="pO986baOs" d="M4475 2791 c-11 -19 -96 -60 -113 -55 -12 4 -13 3 -5 -3 9 -6 -1 -16 -33 -31 -37 -19 -44 -25 -34 -37 10 -12 17 -11 48 7 20 11 44 26 52 33 8 7 25 16 37 19 12 4 25 16 28 27 4 10 13 19 21 19 8 0 14 7 14 15 0 17 -6 19 -15 6z"></path><path id="p1FeGskYae" d="M4670 2792 c0 -17 38 -34 60 -27 10 3 21 2 24 -3 3 -5 22 -8 43 -6 52 3 53 3 53 13 0 4 -30 11 -67 15 -38 3 -78 9 -90 12 -14 4 -23 2 -23 -4z"></path><path id="pvceTJrr1" d="M4870 2766 c0 -10 9 -16 25 -16 14 0 25 -4 25 -10 0 -5 7 -10 16 -10 10 0 14 7 12 23 -2 18 -10 23 -40 25 -29 2 -38 0 -38 -12z"></path><path id="pgQcaZCc8" d="M5475 2750 c3 -5 -1 -10 -9 -10 -9 0 -16 -5 -16 -11 0 -6 8 -9 17 -7 20 4 31 38 13 38 -6 0 -8 -4 -5 -10z"></path><path id="p08lkszuQ" d="M3261 2733 c-16 -18 -9 -26 17 -21 17 2 19 6 9 19 -11 14 -14 14 -26 2z"></path><path id="pbOnj0ihu" d="M3483 2730 c-3 -11 -9 -17 -14 -14 -5 3 -6 -2 -3 -10 3 -9 10 -16 16 -16 5 0 6 5 3 10 -3 6 -1 10 4 10 6 0 11 -4 11 -10 0 -5 8 -10 18 -11 11 -1 9 -3 -7 -8 -22 -6 -19 -11 54 -79 43 -40 80 -70 83 -68 3 3 -11 25 -30 48 -19 24 -52 71 -73 106 -40 65 -54 75 -62 42z"></path><path id="pVNnGiSQu" d="M3956 2705 c10 -8 25 -15 33 -15 11 0 9 4 -5 15 -10 8 -25 15 -33 15 -11 0 -9 -4 5 -15z"></path><path id="pv9ATraOc" d="M5422 2690 c-16 -25 -15 -30 3 -30 12 0 35 28 35 44 0 14 -26 4 -38 -14z"></path><path id="pdSBqhLHa" d="M3293 2693 c-18 -7 -16 -23 2 -23 8 0 15 7 15 15 0 8 -1 15 -2 14 -2 0 -9 -3 -15 -6z"></path><path id="p17QbyWhWh" d="M4020 2671 c24 -14 66 -25 55 -13 -5 5 -23 12 -40 16 -20 4 -25 3 -15 -3z"></path><path id="pf8JmBJGx" d="M4255 2661 c3 -6 -3 -9 -12 -9 -10 1 -42 -7 -72 -16 l-53 -18 6 -91 c3 -49 8 -93 12 -96 3 -3 4 31 1 76 -2 45 -1 81 2 81 3 -1 19 4 34 10 16 7 35 12 43 12 8 0 14 9 14 21 0 11 4 18 9 15 13 -8 42 4 35 15 -3 5 -10 9 -15 9 -6 0 -8 -4 -4 -9z"></path><path id="puZKq9tdX" d="M3333 2631 c-2 -33 19 -56 42 -47 8 3 15 1 15 -4 0 -6 -4 -10 -10 -10 -5 0 -10 -7 -10 -16 0 -11 5 -14 18 -9 9 4 22 8 29 8 6 0 -9 24 -35 54 -25 29 -46 53 -46 53 -1 0 -2 -13 -3 -29z"></path><path id="pZwflow7" d="M5306 2614 c-9 -22 -8 -24 9 -18 8 4 15 12 15 20 0 19 -16 18 -24 -2z"></path><path id="p12BIfKPbM" d="M5373 2610 c-13 -5 -23 -14 -23 -20 0 -17 25 -11 38 10 7 11 11 20 10 19 -2 0 -13 -4 -25 -9z"></path><path id="pCkFOfd9L" d="M5223 2525 c-35 -33 -63 -67 -63 -75 1 -9 7 -4 15 10 8 14 14 21 15 17 0 -13 67 41 85 69 31 48 10 39 -52 -21z"></path><path id="pLzjXYpxi" d="M3365 2521 c27 -32 104 -105 118 -110 6 -2 -2 9 -16 25 -43 46 -29 64 16 22 65 -63 142 -112 163 -104 8 3 14 1 14 -4 0 -6 -6 -10 -12 -10 -19 -1 23 -30 43 -30 9 0 20 -7 23 -16 5 -13 15 -15 40 -11 30 5 35 2 40 -17 4 -18 15 -25 47 -30 25 -4 46 -3 53 4 7 7 6 10 -4 10 -52 0 -358 190 -421 262 -21 24 -53 14 -39 -12 18 -34 -4 -30 -44 7 -22 21 -32 27 -21 14z"></path><path id="p1ApSr2c6W" d="M5277 2512 c-28 -29 -33 -42 -18 -42 9 0 71 57 71 65 0 14 -30 1 -53 -23z"></path><path id="pa6DPLaHS" d="M5042 2380 c-57 -37 -99 -71 -93 -75 6 -3 11 -1 11 5 0 6 5 8 10 5 15 -9 98 33 111 56 5 10 15 19 22 19 15 0 49 38 45 50 -2 4 -49 -23 -106 -60z"></path><path id="p19MDMmqeZ" d="M3833 2415 c16 -9 46 -23 68 -30 37 -13 39 -13 30 4 -6 10 -25 21 -43 24 -18 4 -44 9 -58 12 -24 6 -24 5 3 -10z"></path><path id="pVtLNSc5M" d="M3530 2370 c19 -16 39 -30 44 -30 5 0 -8 14 -29 30 -49 39 -61 39 -15 0z"></path><path id="px7753hjY" d="M3950 2383 c0 -14 47 -38 91 -46 13 -2 18 -2 12 0 -7 3 -13 8 -13 13 0 14 89 16 113 3 28 -15 60 -17 55 -2 -6 19 -79 37 -170 42 -72 4 -88 2 -88 -10z"></path><path id="pJmujiAHB" d="M4648 2370 c-26 -9 -51 -20 -55 -23 -13 -14 29 -7 70 12 23 10 49 21 57 24 10 4 9 5 -5 5 -11 0 -41 -8 -67 -18z"></path><path id="p16x6pzZbx" d="M5128 2374 c-16 -8 -28 -17 -28 -19 0 -12 30 -3 51 15 28 23 15 25 -23 4z"></path><path id="pHgnHX4Yh" d="M4237 2330 c4 -14 -2 -19 -24 -23 -19 -3 -13 -4 19 -6 31 0 52 4 62 15 19 19 20 25 3 18 -8 -3 -25 0 -39 5 -23 8 -25 7 -21 -9z"></path><path id="pZqVm1nTV" d="M4914 2301 c-5 -5 -37 -20 -72 -33 -59 -24 -62 -26 -36 -32 31 -8 109 26 119 52 7 18 2 25 -11 13z"></path><path id="p1EmGEJgrj" d="M4970 2267 c-23 -7 -29 -12 -18 -14 9 -2 29 3 45 11 32 18 23 19 -27 3z"></path><path id="pBegtnGbH" d="M4885 2230 c-4 -6 -3 -10 2 -10 4 0 1 -5 -7 -10 -9 -6 -10 -10 -3 -10 6 0 14 -8 16 -17 3 -12 5 -8 6 9 0 14 6 28 13 30 8 3 6 7 -5 11 -9 3 -19 2 -22 -3z"></path><path id="p1Hsygp2OL" d="M4690 2214 c-25 -8 -62 -18 -82 -22 -28 -5 -35 -10 -29 -20 6 -11 17 -11 47 -3 21 6 58 15 82 21 25 7 42 17 42 25 0 18 -2 18 -60 -1z"></path><path id="p8bfiQGsy" d="M3970 2201 c-17 -11 -18 -11 69 -31 44 -10 55 -10 62 1 5 9 9 9 9 3 0 -18 22 -23 50 -11 22 8 17 11 -45 22 -38 8 -83 16 -100 19 -16 4 -37 2 -45 -3z"></path><path id="pD3QxGziR" d="M4488 2173 c-31 -5 -38 -23 -9 -23 34 0 81 12 81 21 0 9 -22 10 -72 2z"></path><path id="pVTlS0L9M" d="M4240 2160 c0 -5 6 -10 14 -10 8 0 18 5 21 10 3 6 -3 10 -14 10 -12 0 -21 -4 -21 -10z"></path><path id="pgWQea7iF" d="M4397 2154 c6 -17 44 -15 51 4 2 8 -7 12 -27 12 -23 0 -29 -4 -24 -16z"></path><path id="pHs6TywDo" d="M2870 2096 c0 -16 63 -41 85 -32 25 9 17 24 -17 31 -18 4 -41 9 -50 11 -12 4 -18 0 -18 -10z"></path><path id="pDwCI5aXQ" d="M5692 2080 c-46 -10 -86 -21 -90 -24 -14 -15 13 -18 70 -7 111 21 118 23 118 37 0 8 -3 14 -7 13 -5 -1 -46 -9 -91 -19z"></path><path id="pErXWGSlj" d="M2990 2072 c0 -18 25 -31 58 -30 31 1 49 28 18 28 -7 0 -28 3 -45 6 -18 4 -31 2 -31 -4z"></path><path id="pd8xnZQvu" d="M3090 2050 c0 -5 6 -10 14 -10 8 0 18 5 21 10 3 6 -3 10 -14 10 -12 0 -21 -4 -21 -10z"></path><path id="p11qrulUHz" d="M5543 2053 c-26 -3 -30 -7 -21 -17 13 -14 48 -10 48 6 0 5 5 6 10 3 6 -3 10 -1 10 4 0 6 -3 10 -7 9 -5 0 -23 -3 -40 -5z"></path><path id="p6EXxJ2MY" d="M3195 2027 c27 -24 38 -27 102 -27 39 0 74 4 77 8 3 5 -36 14 -87 21 -50 7 -98 16 -107 19 -8 3 -1 -7 15 -21z"></path><path id="pEXO5xdk9" d="M5428 2033 c-25 -3 -38 -9 -38 -19 0 -15 36 -17 79 -5 29 8 41 32 14 29 -10 -1 -35 -3 -55 -5z"></path><path id="p1DCBDvGy8" d="M5323 2013 c-7 -2 -13 -9 -13 -15 0 -14 43 -6 48 10 4 12 -12 15 -35 5z"></path><path id="p14oaePVYH" d="M3400 2001 c0 -5 7 -12 16 -15 21 -8 21 -8 28 9 4 11 -1 15 -19 15 -14 0 -25 -4 -25 -9z"></path><path id="pXxq7l2gL" d="M5267 1995 c6 -17 25 -15 31 3 2 7 -5 12 -17 12 -14 0 -19 -5 -14 -15z"></path><path id="ptW1g1tRF" d="M3490 1985 c0 -8 4 -15 9 -15 5 0 14 7 21 15 10 13 9 15 -9 15 -12 0 -21 -6 -21 -15z"></path><path id="psxhnFXZf" d="M5180 1984 c0 -12 6 -15 23 -10 12 3 28 6 35 6 6 0 12 5 12 10 0 6 -16 10 -35 10 -26 0 -35 -4 -35 -16z"></path><path id="p14vIfiaLd" d="M3570 1975 c0 -17 2 -18 24 -9 23 9 20 24 -4 24 -11 0 -20 -7 -20 -15z"></path><path id="p1EbMcoR0f" d="M5030 1980 c-66 -6 -64 -9 14 -25 23 -5 66 11 66 25 0 5 -3 9 -7 8 -5 -1 -37 -4 -73 -8z"></path><path id="p1DPtJLheH" d="M3670 1970 c0 -5 9 -10 19 -10 11 0 23 5 26 10 4 6 -5 10 -19 10 -14 0 -26 -4 -26 -10z"></path><path id="p12rIa7qQV" d="M2970 1960 c-25 -6 -25 -6 5 -12 34 -7 37 -6 27 8 -4 6 -18 8 -32 4z"></path><path id="p5VHErYsR" d="M3740 1961 c0 -16 19 -23 40 -16 30 10 24 25 -10 25 -16 0 -30 -4 -30 -9z"></path><path id="pcMAuFfM" d="M4890 1954 c0 -17 22 -14 28 4 2 7 -3 12 -12 12 -9 0 -16 -7 -16 -16z"></path><path id="pugZemPov" d="M5740 1930 c-13 -9 -13 -10 0 -9 8 0 24 4 35 9 l20 9 -20 0 c-11 0 -27 -4 -35 -9z"></path><path id="phxNAFC0B" d="M5635 1900 c-27 -7 -28 -8 -5 -8 14 0 34 3 45 8 25 11 2 11 -40 0z"></path><path id="pvpWR56SI" d="M5756 1754 c-21 -85 -36 -157 -33 -161 3 -3 10 15 16 38 6 24 18 67 26 94 18 62 39 174 33 180 -2 2 -21 -66 -42 -151z"></path><path id="prkvqv13A" d="M3295 1850 c-4 -7 3 -8 22 -4 38 9 42 14 10 14 -14 0 -29 -5 -32 -10z"></path><path id="p120rXKZlU" d="M5530 1824 c0 -9 5 -14 12 -12 18 6 21 28 4 28 -9 0 -16 -7 -16 -16z"></path><path id="pTPuxdhsE" d="M5372 1790 c0 -19 2 -27 5 -17 2 9 2 25 0 35 -3 9 -5 1 -5 -18z"></path><path id="p85d5wVOl" d="M2943 1795 c-17 -19 -16 -35 2 -35 9 0 15 9 15 25 0 29 -1 29 -17 10z"></path><path id="p3pzjUBQJ" d="M3280 1800 c0 -5 7 -10 15 -10 8 0 15 5 15 10 0 6 -7 10 -15 10 -8 0 -15 -4 -15 -10z"></path><path id="p16xa80NGz" d="M5140 1799 c-11 -7 3 -8 45 -3 33 3 62 8 64 10 10 9 -96 3 -109 -7z"></path><path id="pO2eQNLLI" d="M5520 1785 c0 -8 7 -15 15 -15 8 0 15 7 15 15 0 8 -7 15 -15 15 -8 0 -15 -7 -15 -15z"></path><path id="p1H2N6Fq8Q" d="M5100 1772 c0 -22 13 -42 27 -42 21 0 12 44 -9 48 -10 2 -18 -1 -18 -6z"></path><path id="p0EkgD00b" d="M5452 1737 c-45 -17 -55 -18 -63 -6 -7 11 -9 10 -9 -5 0 -16 5 -17 38 -11 97 18 132 27 126 36 -8 13 -32 10 -92 -14z"></path><path id="p0ImeKj81" d="M4417 1738 c-21 -13 -2 -16 63 -9 l65 7 -58 5 c-33 2 -64 1 -70 -3z"></path><path id="pAuRcnBzK" d="M2953 1685 c-17 -19 -16 -35 2 -35 9 0 15 9 15 25 0 29 -1 29 -17 10z"></path><path id="pACkCu9d8" d="M5133 1693 c-18 -7 -16 -23 2 -23 8 0 15 7 15 15 0 8 -1 15 -2 14 -2 0 -9 -3 -15 -6z"></path><path id="p10vQf9Uqk" d="M4113 1630 c0 -30 2 -43 4 -27 2 15 2 39 0 55 -2 15 -4 2 -4 -28z"></path><path id="p1679O9rAP" d="M3522 1544 c-13 -64 -21 -118 -19 -120 6 -6 50 212 46 225 -2 6 -14 -41 -27 -105z"></path><path id="psJNyqb6G" d="M5150 1635 c0 -8 -4 -15 -10 -15 -5 0 -10 -9 -10 -20 0 -11 7 -20 15 -20 10 0 15 11 15 35 0 19 -2 35 -5 35 -3 0 -5 -7 -5 -15z"></path><path id="p1CHj3CP1d" d="M2970 1575 c0 -8 -4 -15 -10 -15 -5 0 -10 -7 -10 -15 0 -8 7 -15 15 -15 10 0 15 10 15 30 0 17 -2 30 -5 30 -3 0 -5 -7 -5 -15z"></path><path id="pJ7JbqCN9" d="M3250 1580 c0 -5 7 -10 15 -10 8 0 15 5 15 10 0 6 -7 10 -15 10 -8 0 -15 -4 -15 -10z"></path><path id="p5DNvsu2z" d="M3870 1565 c0 -8 -4 -15 -10 -15 -5 0 -10 -25 -10 -55 0 -42 3 -55 15 -55 12 0 15 14 15 70 0 39 -2 70 -5 70 -3 0 -5 -7 -5 -15z"></path><path id="pR4QTxWbg" d="M5436 1545 c4 -8 11 -15 16 -15 6 0 7 -16 3 -40 -5 -32 -4 -40 8 -40 9 0 17 14 21 38 4 20 9 45 12 55 4 14 -1 17 -30 17 -27 0 -34 -3 -30 -15z"></path><path id="pji1gaYa0" d="M5689 1495 c-9 -36 -13 -62 -9 -60 8 5 35 114 29 119 -2 3 -11 -24 -20 -59z"></path><path id="pvQcrDrIp" d="M3240 1500 c0 -5 7 -10 15 -10 8 0 15 5 15 10 0 6 -7 10 -15 10 -8 0 -15 -4 -15 -10z"></path><path id="p1EAiF8oXS" d="M3211 1468 c-1 -10 3 -18 8 -18 5 0 16 -3 25 -6 11 -4 16 -1 16 11 0 12 -6 16 -20 12 -10 -3 -21 0 -24 7 -2 6 -5 3 -5 -6z"></path><path id="pBHM6NgMz" d="M2980 1456 c0 -8 -6 -17 -12 -19 -8 -3 -6 -6 5 -6 11 -1 17 6 17 19 0 11 -2 20 -5 20 -3 0 -5 -6 -5 -14z"></path><path id="p1CXNWpZHm" d="M4113 1435 c0 -22 2 -30 4 -17 2 12 2 30 0 40 -3 9 -5 -1 -4 -23z"></path><path id="pfmF3D6p0" d="M4672 1418 c-2 -46 1 -58 13 -58 8 0 15 5 15 10 0 6 -4 10 -9 10 -6 0 -12 21 -14 48 -3 46 -3 46 -5 -10z"></path><path id="pj9rK3JMC" d="M5440 1415 c0 -8 7 -15 15 -15 8 0 15 7 15 15 0 8 -7 15 -15 15 -8 0 -15 -7 -15 -15z"></path><path id="polboaJeF" d="M4745 1370 c-27 -7 -28 -8 -5 -8 14 -1 43 3 65 7 l40 9 -35 0 c-19 0 -48 -4 -65 -8z"></path><path id="pTiHiUiFY" d="M5422 1364 c-11 -12 -12 -31 -5 -87 l9 -72 12 65 c7 36 15 75 18 88 7 26 -13 30 -34 6z"></path><path id="pYHVLChcG" d="M2983 1335 c-18 -20 -17 -65 2 -65 11 0 15 11 15 40 0 45 0 45 -17 25z"></path><path id="pUUDWFnlC" d="M3880 1325 c0 -8 -4 -15 -10 -15 -5 0 -10 -7 -10 -15 0 -8 7 -15 15 -15 10 0 15 10 15 30 0 17 -2 30 -5 30 -3 0 -5 -7 -5 -15z"></path><path id="pkWbL3LOB" d="M5200 1316 c0 -8 -7 -16 -15 -20 -18 -6 -9 -36 11 -36 9 0 14 12 14 35 0 19 -2 35 -5 35 -3 0 -5 -6 -5 -14z"></path><path id="pbDCtx4jM" d="M3230 1246 c0 -30 3 -34 23 -30 12 2 16 2 10 -2 -20 -9 -15 -24 6 -24 19 0 19 2 4 45 -18 54 -43 61 -43 11z"></path><path id="p1EwWCj0Xq" d="M5203 1234 c-19 -20 -16 -54 5 -55 10 0 12 -3 5 -6 -18 -7 -16 -43 2 -43 16 0 18 22 7 81 -6 30 -9 34 -19 23z"></path><path id="p12AgbswRc" d="M3000 1225 c0 -8 -4 -15 -10 -15 -5 0 -10 -4 -10 -10 0 -5 7 -10 15 -10 9 0 15 9 15 25 0 14 -2 25 -5 25 -3 0 -5 -7 -5 -15z"></path><path id="p18oOYNKPN" d="M4670 1183 c0 -15 10 -18 63 -18 34 0 69 -2 77 -5 9 -3 16 3 18 18 3 21 1 22 -77 22 -70 0 -81 -2 -81 -17z"></path><path id="pxp1vA8fn" d="M3291 1158 c-1 -10 -5 -18 -11 -18 -5 0 -10 -4 -10 -10 0 -5 9 -10 20 -10 22 0 23 5 10 35 -7 17 -9 17 -9 3z"></path><path id="pxN5ombNi" d="M5596 1155 c-3 -9 -6 -26 -5 -38 1 -16 4 -12 10 12 10 34 6 55 -5 26z"></path><path id="pqrS1iLUu" d="M3302 1094 c-16 -17 -6 -54 14 -54 15 0 17 23 6 51 -6 15 -9 15 -20 3z"></path><path id="pLqRLMxUd" d="M3890 1095 c0 -8 -4 -15 -10 -15 -5 0 -10 -7 -10 -15 0 -8 7 -15 15 -15 10 0 15 10 15 30 0 17 -2 30 -5 30 -3 0 -5 -7 -5 -15z"></path><path id="pt7o01zfF" d="M5552 980 c-7 -29 -11 -55 -9 -57 7 -6 30 84 25 98 -2 6 -9 -12 -16 -41z"></path><path id="pA3lSUdWM" d="M3870 990 c0 -20 5 -30 15 -30 10 0 15 10 15 30 0 20 -5 30 -15 30 -10 0 -15 -10 -15 -30z"></path><path id="prZVl8Y2Q" d="M3013 985 c-19 -20 -17 -75 2 -75 11 0 15 12 15 45 0 50 0 50 -17 30z"></path><path id="pdtL0SPNH" d="M4825 990 c-4 -6 7 -10 27 -9 27 0 30 2 13 9 -27 12 -33 12 -40 0z"></path><path id="ptxzxRjOQ" d="M3343 963 c-19 -7 -16 -23 5 -24 10 0 12 -3 5 -6 -19 -7 -16 -23 5 -24 10 0 12 -3 5 -6 -19 -7 -16 -23 5 -23 13 0 14 -2 3 -9 -18 -11 -5 -51 17 -51 13 0 14 -2 4 -9 -11 -7 -11 -9 2 -14 9 -4 16 -2 16 3 0 9 -51 171 -54 169 0 0 -7 -3 -13 -6z"></path><path id="psE8Nr1iF" d="M4883 888 c-7 -26 -13 -57 -13 -70 1 -22 1 -22 16 5 9 16 14 46 12 70 l-3 42 -12 -47z"></path><path id="pO01CCQrg" d="M5526 879 c-8 -42 0 -50 9 -9 4 17 5 34 2 36 -2 3 -7 -10 -11 -27z"></path><path id="p1Fwunzu2Q" d="M3023 864 c-26 -27 -12 -54 35 -69 16 -4 27 -2 35 8 7 9 21 17 32 20 11 3 -3 5 -32 6 -47 1 -52 3 -55 25 -2 20 -5 22 -15 10z"></path><path id="pZ7HIv08M" d="M5253 873 c-19 -7 -16 -53 2 -53 10 0 15 10 15 30 0 17 -1 30 -2 29 -2 0 -9 -3 -15 -6z"></path><path id="pSmRTaTfl" d="M3260 842 c0 -19 -6 -22 -45 -22 -47 0 -60 -14 -24 -25 34 -11 68 3 75 31 4 14 4 28 0 31 -3 4 -6 -3 -6 -15z"></path><path id="pQKeoEh1z" d="M4400 830 c0 -5 7 -10 15 -10 8 0 15 5 15 10 0 6 -7 10 -15 10 -8 0 -15 -4 -15 -10z"></path><path id="pwlHKhQBN" d="M5450 804 c0 -10 7 -14 22 -12 32 5 35 28 4 28 -17 0 -26 -5 -26 -16z"></path><path id="p9ILkH7hk" d="M3450 800 c0 -5 7 -10 15 -10 8 0 15 5 15 10 0 6 -7 10 -15 10 -8 0 -15 -4 -15 -10z"></path><path id="p8j4IMjke" d="M5300 800 c0 -5 7 -10 15 -10 8 0 15 5 15 10 0 6 -7 10 -15 10 -8 0 -15 -4 -15 -10z"></path><path id="pRwld5G31" d="M4050 791 c0 -5 7 -12 16 -15 28 -11 54 -6 54 9 0 10 -11 15 -35 15 -19 0 -35 -4 -35 -9z"></path><path id="pJXeJTQrH" d="M4420 790 c-17 -11 2 -20 34 -16 15 1 50 -3 78 -11 41 -10 54 -10 60 0 21 32 9 38 -76 36 -46 -1 -90 -5 -96 -9z"></path><path id="pLmIXNMpi" d="M4690 790 c0 -12 45 -24 59 -15 22 13 10 25 -24 25 -19 0 -35 -4 -35 -10z"></path><path id="pozMPQAvO" d="M4228 753 c-10 -2 -18 -8 -18 -13 0 -5 12 -5 28 0 15 5 36 11 47 13 12 3 8 5 -10 5 -16 0 -38 -2 -47 -5z"></path><path id="psInvsri1" d="M4440 750 c0 -5 7 -10 15 -10 8 0 15 5 15 10 0 6 -7 10 -15 10 -8 0 -15 -4 -15 -10z"></path><path id="pQmcAMwu9" d="M4153 727 c-3 -5 -25 -18 -50 -29 -25 -11 -49 -30 -55 -44 -6 -13 -15 -24 -20 -24 -4 0 -8 -4 -8 -10 0 -19 25 -9 55 21 17 17 42 38 58 47 15 9 27 20 27 25 0 4 4 6 9 3 5 -3 13 0 19 7 8 10 6 13 -9 13 -11 0 -23 -4 -26 -9z"></path><path id="pjTSnuxTF" d="M4524 715 c26 -13 55 -30 62 -36 11 -9 14 -8 14 5 0 9 -5 16 -10 16 -6 0 -30 9 -52 20 -60 29 -72 25 -14 -5z"></path><path id="p1HOEz0tkn" d="M2805 709 c-10 -15 3 -25 16 -12 7 7 7 13 1 17 -6 3 -14 1 -17 -5z"></path><path id="p2UAWghCm" d="M5991 703 c-1 -18 -7 -23 -29 -23 -16 0 -37 -7 -48 -16 -18 -14 -16 -15 29 -11 58 6 60 7 54 44 -3 21 -4 23 -6 6z"></path><path id="pxWqPcabs" d="M4293 703 c9 -2 25 -2 35 0 9 3 1 5 -18 5 -19 0 -27 -2 -17 -5z"></path><path id="pOEfIC6ZM" d="M2700 671 c0 -11 18 -17 80 -26 56 -9 45 5 -18 22 -58 15 -62 15 -62 4z"></path><path id="pb8zSonrs" d="M2865 631 c11 -4 36 -11 55 -14 30 -6 32 -5 15 5 -11 7 -36 13 -55 15 -26 2 -30 0 -15 -6z"></path><path id="pfIEBvgME" d="M5757 630 c-20 -4 -40 -10 -44 -14 -4 -3 4 -4 18 -2 13 2 36 5 52 5 15 1 27 6 27 11 0 6 -3 9 -7 9 -5 -1 -25 -5 -46 -9z"></path><path id="p17UYEds2n" d="M2970 611 c15 -9 65 -16 175 -25 47 -4 53 -4 25 3 -117 30 -235 42 -200 22z"></path><path id="p15DjVxh1V" d="M4671 588 c12 -18 24 -35 26 -37 2 -3 2 8 1 22 -1 15 -8 27 -15 27 -7 0 -13 5 -13 10 0 6 -5 10 -11 10 -6 0 0 -15 12 -32z"></path><path id="poj3JXFHw" d="M5635 610 c-28 -7 -27 -8 13 -9 27 -1 41 3 37 9 -7 11 -7 11 -50 0z"></path><path id="p13zmXgAYg" d="M4002 584 c-13 -9 -21 -22 -18 -29 2 -7 -2 -16 -11 -20 -13 -4 -14 -8 -5 -17 15 -15 26 -4 47 45 18 42 17 43 -13 21z"></path><path id="pRiiC48Fz" d="M5470 589 c-14 -4 -18 -8 -10 -9 28 -4 83 2 104 10 26 11 -56 10 -94 -1z"></path><path id="p110gFMDQM" d="M3235 570 c17 -4 44 -8 60 -9 23 0 26 2 15 9 -8 5 -35 9 -60 9 -41 -1 -42 -2 -15 -9z"></path><path id="pFmJv3mbk" d="M5323 568 c-12 -4 -3 -7 22 -7 22 0 49 4 60 8 14 6 8 8 -22 7 -24 0 -51 -4 -60 -8z"></path><path id="p1ES6SMdwi" d="M3405 550 c46 -12 103 -12 85 0 -8 5 -37 9 -65 9 -44 -1 -46 -2 -20 -9z"></path><path id="p59Eduq2I" d="M5093 549 c-4 -4 -17 -9 -28 -12 -11 -3 0 -4 25 -2 25 2 64 4 88 4 23 1 42 6 42 11 0 12 -114 11 -127 -1z"></path><path id="pErFWhA6B" d="M3628 531 c21 -13 172 -14 172 -2 0 7 -34 11 -92 11 -55 0 -87 -4 -80 -9z"></path><path id="plZQAhnOL" d="M4700 530 c0 -14 35 -19 100 -16 30 2 83 4 118 5 34 0 62 5 62 10 0 11 -206 6 -234 -5 -13 -5 -21 -3 -24 4 -4 14 -22 16 -22 2z"></path></g></g></svg>