<svg xmlns="http://www.w3.org/2000/svg" width="870px" height="726px" viewBox="0 0 8700 7260" preserveAspectRatio="xMidYMid meet"><g fill="#000"><path d="M1735 7230 c-3 -4 -4 -320 -2 -701 l2 -694 138 -3 137 -3 0 301 0 300 30 0 c24 0 30 -4 30 -22 0 -13 7 -36 15 -52 8 -15 15 -37 15 -47 0 -25 17 -99 41 -179 11 -36 28 -111 39 -168 11 -57 24 -111 29 -120 8 -15 26 -17 149 -14 l139 3 -12 54 c-7 29 -16 58 -19 64 -4 6 -13 41 -21 78 -7 38 -27 120 -44 183 -69 257 -70 259 -36 415 2 11 12 58 21 105 9 47 20 94 24 105 13 29 44 177 42 200 0 10 3 24 8 30 8 9 24 83 32 150 3 19 -3 20 -144 20 -167 0 -163 2 -173 -87 -4 -29 -15 -89 -24 -133 -10 -44 -26 -125 -35 -180 -26 -153 -37 -181 -66 -177 -13 1 -27 8 -32 15 -4 6 -7 135 -7 287 l1 275 -136 1 c-75 1 -139 -2 -141 -6z"/><path d="M3749 7232 c-24 -3 -27 -8 -33 -63 -13 -108 -8 -104 -124 -101 l-100 3 0 27 c0 15 -2 45 -5 67 -3 22 -5 46 -6 53 -1 9 -37 12 -147 12 -86 0 -143 -4 -139 -9 3 -5 19 -87 35 -183 17 -95 37 -207 46 -248 8 -41 16 -88 18 -105 3 -16 14 -72 26 -124 11 -52 23 -122 26 -155 3 -33 8 -64 10 -68 6 -9 40 -199 54 -298 9 -60 40 -201 46 -209 1 -1 69 -4 150 -5 157 -1 153 -3 157 55 1 19 5 39 8 44 4 6 12 48 18 95 7 47 21 132 32 190 12 58 27 143 35 190 15 94 37 209 54 285 6 28 11 66 12 85 0 19 4 40 8 45 4 6 15 62 25 125 9 63 20 131 25 150 4 19 12 54 17 77 6 23 6 47 2 54 -7 12 -178 19 -250 11z m-92 -464 c-3 -46 -10 -114 -16 -153 -6 -38 -15 -97 -19 -130 -6 -47 -11 -61 -26 -63 -15 -3 -18 0 -13 19 3 13 2 43 -4 68 -11 47 -26 167 -35 265 -6 70 0 76 70 76 l49 0 -6 -82z"/><path d="M4800 7230 c-3 -69 2 -1395 5 -1398 5 -6 257 -3 263 3 2 2 10 30 18 62 7 32 27 112 44 178 17 66 35 136 40 155 15 62 22 80 31 80 8 0 16 -352 10 -419 -1 -14 0 -34 3 -45 5 -20 11 -21 128 -19 68 2 133 3 146 3 l22 0 0 700 0 700 -82 1 c-101 2 -212 -2 -217 -6 -1 -2 -5 -21 -8 -42 -3 -21 -8 -42 -13 -48 -4 -5 -10 -29 -14 -53 -3 -24 -10 -51 -16 -60 -8 -15 -48 -171 -54 -212 -7 -41 -30 -100 -40 -100 -8 0 -12 81 -13 263 l-2 262 -126 0 c-69 0 -125 -2 -125 -5z"/><path d="M6408 7217 c-16 -6 -28 -15 -28 -19 0 -5 -10 -23 -22 -39 l-23 -31 -3 -648 c-3 -617 -2 -648 15 -651 10 -2 74 -3 143 -1 l125 4 -3 536 c-2 295 0 556 3 580 l6 42 75 0 c52 0 74 -4 74 -12 1 -7 0 -252 0 -544 0 -292 2 -548 5 -570 l7 -39 139 3 139 3 0 632 0 632 -25 53 c-37 80 -46 82 -347 81 -156 -1 -264 -5 -280 -12z"/><path d="M4308 5610 c-12 -11 -41 -33 -63 -50 -22 -17 -53 -40 -69 -53 -16 -12 -54 -39 -85 -60 -30 -21 -58 -41 -61 -45 -7 -9 -77 -62 -122 -92 -21 -14 -38 -28 -38 -32 0 -5 -5 -8 -11 -8 -6 0 -25 -12 -43 -26 -17 -14 -44 -36 -61 -49 -35 -29 -334 -249 -385 -285 -19 -13 -37 -27 -40 -31 -7 -9 -177 -137 -235 -176 -71 -48 -111 -78 -128 -95 -9 -8 -30 -21 -49 -28 -18 -8 -44 -21 -58 -31 -14 -9 -42 -26 -62 -38 -59 -33 -188 -137 -251 -204 -52 -55 -121 -151 -196 -276 -15 -24 -35 -42 -50 -46 -14 -4 -48 -17 -74 -31 -27 -13 -57 -24 -68 -24 -10 0 -19 -6 -19 -13 0 -7 -16 -22 -35 -33 -54 -31 -186 -153 -235 -216 -24 -32 -48 -58 -52 -58 -4 0 -8 -6 -8 -13 0 -8 -13 -27 -30 -43 -16 -16 -30 -33 -30 -38 0 -4 -13 -28 -30 -53 -16 -24 -30 -48 -30 -53 0 -35 -96 -160 -123 -160 -4 0 -13 -5 -20 -10 -7 -6 -41 -29 -76 -53 -122 -80 -156 -106 -228 -176 -75 -73 -220 -258 -250 -320 -16 -31 -31 -58 -35 -61 -10 -8 -68 -168 -68 -188 0 -10 -30 -37 -68 -63 -99 -69 -220 -180 -307 -284 -22 -26 -47 -55 -56 -64 -8 -9 -26 -32 -39 -51 -14 -19 -28 -39 -33 -45 -39 -45 -172 -270 -238 -400 -68 -134 -129 -275 -129 -298 0 -9 98 27 157 57 29 14 57 26 64 26 6 0 27 7 47 16 21 9 46 20 57 24 11 5 41 18 66 29 25 12 53 21 62 21 9 0 19 5 22 10 3 5 15 10 25 10 10 0 20 4 22 8 2 5 41 23 88 42 47 18 90 36 95 40 6 4 37 17 70 29 33 13 83 33 110 46 78 35 162 70 255 106 47 18 112 44 145 59 33 15 87 38 120 50 33 12 80 31 105 42 25 11 54 23 65 28 11 4 49 21 85 38 36 16 82 35 102 41 21 7 40 17 43 22 4 5 15 9 25 9 11 0 34 8 52 18 18 10 56 27 83 37 28 10 74 29 103 42 29 12 55 23 57 23 6 0 92 37 117 51 10 5 25 9 33 9 8 0 15 5 15 10 0 6 6 10 14 10 7 0 46 14 86 30 40 17 75 28 77 26 3 -2 4 -407 4 -899 -1 -709 1 -896 11 -904 7 -6 33 -13 58 -17 25 -4 68 -13 95 -21 48 -13 133 -30 275 -55 61 -11 83 -14 155 -24 17 -2 41 -6 55 -10 14 -3 45 -8 70 -10 25 -3 78 -9 118 -15 41 -6 113 -13 160 -16 179 -12 209 -14 297 -19 139 -7 136 -6 163 -56 14 -24 31 -50 38 -58 8 -7 19 -21 26 -31 15 -20 121 -91 138 -91 5 0 10 -4 10 -10 0 -6 72 -10 195 -10 107 0 195 4 195 9 0 5 15 15 32 22 44 18 175 149 189 187 10 29 15 32 52 33 23 0 58 2 77 5 19 2 71 6 115 8 198 11 619 59 660 77 11 4 43 10 70 12 79 7 185 25 248 42 32 8 69 15 82 15 13 0 27 4 30 10 3 5 21 10 38 10 18 0 40 7 50 14 16 13 17 63 15 900 l-3 886 31 0 c28 0 112 -31 349 -130 55 -23 136 -57 180 -75 44 -18 106 -45 137 -59 31 -14 59 -26 63 -26 6 0 159 -63 344 -141 63 -27 120 -49 126 -49 7 0 18 -7 25 -15 7 -8 20 -15 29 -15 10 0 42 -12 72 -26 29 -14 65 -30 79 -36 14 -6 39 -16 55 -23 17 -8 41 -17 55 -21 14 -4 57 -22 96 -40 38 -18 83 -36 100 -40 16 -4 34 -10 39 -14 6 -3 46 -21 90 -39 44 -18 89 -37 100 -42 155 -67 211 -89 222 -89 7 0 13 -4 13 -8 0 -4 21 -14 48 -22 40 -11 116 -45 184 -81 40 -21 48 -3 24 53 -8 18 -23 53 -34 78 -11 25 -30 70 -43 100 -13 30 -40 86 -61 124 -21 38 -38 74 -38 81 0 6 -9 20 -20 30 -11 10 -20 22 -20 26 0 8 -41 74 -61 97 -6 7 -16 23 -23 35 -21 40 -49 82 -70 104 -12 12 -37 43 -56 68 -19 26 -53 65 -75 88 -22 23 -54 58 -71 78 -17 20 -38 40 -47 45 -8 5 -33 25 -54 44 -21 20 -68 58 -104 84 -54 40 -69 57 -79 90 -40 137 -161 343 -269 458 -91 97 -152 158 -159 158 -4 0 -21 13 -39 28 -59 51 -73 62 -81 62 -4 0 -20 11 -36 25 -16 14 -50 35 -75 48 -54 26 -89 61 -97 96 -4 14 -11 31 -18 36 -13 12 -86 130 -86 140 0 6 -53 80 -91 125 -50 60 -169 176 -223 218 -67 52 -217 132 -246 132 -13 0 -27 17 -45 53 -60 118 -222 308 -340 397 -22 16 -47 35 -55 42 -16 14 -118 75 -165 98 -17 8 -63 39 -104 70 -40 30 -92 69 -116 85 -83 59 -185 140 -185 147 0 5 -7 8 -15 8 -8 0 -15 5 -15 10 0 6 -6 10 -14 10 -7 0 -24 10 -38 23 -13 12 -43 35 -66 51 -23 16 -42 33 -42 37 0 5 -5 9 -11 9 -6 0 -16 6 -23 13 -8 6 -24 19 -36 27 -12 8 -28 21 -36 28 -7 6 -16 12 -21 12 -5 0 -15 9 -23 20 -8 11 -20 20 -27 20 -7 0 -13 5 -13 10 0 6 -5 10 -11 10 -12 0 -90 59 -102 78 -4 6 -14 12 -21 12 -7 0 -25 14 -41 30 -16 17 -34 30 -40 30 -7 0 -24 11 -39 25 -15 14 -30 25 -34 25 -4 0 -22 14 -40 30 -18 17 -36 30 -39 30 -3 0 -13 8 -22 18 -9 9 -27 23 -42 30 -14 7 -39 26 -57 43 -17 16 -35 29 -39 29 -4 0 -30 18 -58 40 -57 45 -74 48 -107 20z m174 -287 c77 -53 399 -299 441 -335 22 -18 46 -37 55 -42 10 -5 37 -26 62 -46 25 -20 97 -72 160 -116 63 -43 135 -93 160 -112 104 -77 174 -130 237 -180 99 -79 289 -221 368 -274 l69 -46 -4 -1359 c-2 -747 -4 -1551 -4 -1787 l-1 -429 -25 -8 c-47 -13 -215 -48 -265 -55 -27 -4 -61 -11 -74 -16 -37 -13 -274 -46 -391 -53 -58 -3 -148 -11 -200 -16 -52 -5 -149 -14 -215 -19 -66 -4 -123 -9 -127 -9 -4 -1 -10 -22 -13 -49 -10 -73 -24 -119 -39 -131 -12 -10 -12 -5 0 35 30 101 11 207 -48 267 -90 90 -171 121 -300 116 -72 -3 -94 -9 -151 -38 -71 -36 -133 -99 -154 -154 -24 -65 -7 -199 31 -244 44 -53 68 -74 112 -97 110 -58 269 -60 371 -5 32 17 65 36 74 43 8 6 -3 -7 -25 -28 -66 -63 -135 -89 -236 -89 -47 -1 -104 5 -127 11 -46 14 -152 104 -177 151 -37 68 -48 101 -53 158 l-6 61 -42 7 c-24 3 -110 8 -191 10 -225 6 -463 24 -524 40 -30 7 -102 18 -160 24 -58 6 -154 22 -215 37 -60 14 -123 28 -140 31 -16 3 -33 10 -36 16 -4 5 -7 219 -8 476 -1 256 -5 585 -9 731 -4 146 -6 409 -5 585 1 176 3 650 5 1054 l3 735 100 68 c55 38 118 80 140 95 22 14 61 42 87 62 25 20 66 50 89 66 24 17 70 53 103 81 34 27 100 77 148 110 48 33 116 86 150 118 35 31 110 90 167 129 110 76 161 112 236 165 25 17 58 39 73 46 15 8 43 29 62 45 19 17 38 31 41 31 4 0 22 13 40 30 19 16 37 30 40 30 3 0 20 13 37 28 17 16 57 46 89 68 32 21 64 44 71 51 14 13 39 1 144 -74z m-2002 -1636 c0 -78 -3 -109 -12 -111 -7 -2 -33 -9 -58 -15 -25 -6 -70 -18 -100 -26 -30 -8 -87 -22 -126 -30 -39 -8 -111 -28 -160 -45 l-89 -30 95 93 c102 99 226 188 354 256 60 31 82 38 88 29 4 -7 8 -62 8 -121z m3843 91 c45 -23 96 -51 112 -63 17 -11 41 -27 55 -33 66 -33 267 -196 302 -244 35 -50 40 -51 -242 50 -47 17 -134 43 -195 58 -60 15 -115 31 -120 35 -8 6 -12 181 -5 237 0 6 17 -1 93 -40z m-3913 -428 c-52 -58 -206 -204 -260 -246 -8 -6 -64 -59 -125 -117 -96 -92 -119 -109 -185 -135 -84 -33 -157 -66 -275 -122 -44 -21 -129 -55 -190 -75 -60 -19 -119 -40 -130 -45 -46 -21 -128 -50 -132 -47 -11 11 132 201 207 276 73 72 240 208 291 237 31 17 99 77 99 86 0 17 84 94 122 111 20 10 46 29 57 43 20 26 20 26 163 23 119 -1 150 1 183 16 46 20 191 63 218 64 13 1 1 -18 -43 -69z m4000 25 c93 -17 213 -64 455 -179 293 -140 345 -175 524 -356 125 -127 143 -150 175 -222 l25 -55 -82 30 c-45 16 -86 33 -92 38 -5 5 -15 9 -23 9 -7 0 -37 10 -65 23 -29 13 -79 34 -112 47 -33 12 -123 49 -200 81 -77 32 -160 63 -184 69 -34 9 -63 30 -133 98 -121 118 -418 414 -442 441 l-19 21 49 -16 c27 -9 83 -22 124 -29z m-3930 -740 l0 -215 -58 -29 c-32 -16 -84 -37 -116 -46 -31 -9 -87 -32 -124 -51 -37 -18 -72 -34 -78 -34 -11 0 -150 -59 -256 -109 -36 -17 -69 -31 -73 -31 -3 0 -25 -8 -48 -19 -68 -30 -316 -127 -387 -151 -36 -12 -87 -32 -115 -45 -82 -38 -140 -63 -275 -120 -36 -15 -83 -35 -105 -45 -23 -10 -79 -32 -125 -50 -135 -50 -212 -81 -255 -103 -40 -19 -115 -48 -115 -44 0 2 9 29 21 62 27 77 74 165 108 201 15 16 44 52 65 79 47 61 123 133 196 185 30 21 73 56 96 77 22 21 52 47 65 58 42 35 231 160 299 197 36 19 93 51 127 71 62 35 200 93 428 179 149 56 186 68 213 68 12 0 70 16 129 36 125 42 364 104 376 97 4 -2 7 -101 7 -218z m3960 172 c96 -26 222 -62 280 -82 58 -20 123 -41 145 -47 22 -6 65 -21 95 -34 30 -12 111 -44 180 -70 69 -26 142 -58 163 -71 20 -13 59 -32 85 -42 60 -24 208 -113 332 -201 52 -36 125 -87 161 -113 91 -64 242 -215 315 -317 70 -97 164 -260 164 -284 0 -14 -3 -14 -32 -1 -18 8 -78 31 -132 51 -55 20 -116 47 -135 60 -20 13 -76 38 -126 57 -49 19 -126 52 -170 72 -44 20 -125 54 -180 75 -55 21 -122 48 -150 60 -27 12 -99 41 -160 65 -256 99 -410 162 -540 221 -16 8 -84 36 -150 63 -66 27 -174 71 -240 99 l-120 50 -1 222 c0 218 0 222 20 217 12 -3 100 -25 196 -50z"/><path d="M3553 4537 c-127 -94 -324 -242 -438 -327 -114 -85 -218 -162 -231 -170 l-24 -15 0 -982 c0 -959 0 -983 19 -993 64 -34 751 -140 907 -140 l34 0 0 128 0 127 -61 28 c-164 77 -341 222 -462 379 -137 178 -222 369 -259 582 -34 200 -18 436 43 626 61 192 209 425 359 568 65 62 185 146 287 201 l88 48 3 56 c3 49 1 57 -15 57 -10 0 -122 -78 -250 -173z"/><path d="M4887 4703 c-3 -5 -2 -34 0 -65 l5 -58 72 -39 c280 -156 472 -367 594 -653 81 -191 107 -338 99 -562 -9 -249 -60 -423 -185 -631 -83 -138 -165 -231 -319 -359 -40 -34 -192 -129 -232 -146 l-31 -12 0 -134 0 -134 38 0 c120 0 616 73 825 121 l87 21 0 986 0 987 -88 65 c-48 35 -255 189 -459 342 -205 153 -379 278 -387 278 -8 0 -17 -3 -19 -7z"/><path d="M4170 4644 c-82 -15 -183 -39 -235 -55 -86 -27 -270 -121 -338 -172 -87 -66 -167 -140 -167 -154 0 -7 -5 -13 -10 -13 -31 0 -157 -177 -225 -315 -88 -180 -125 -347 -125 -560 0 -555 339 -1024 875 -1210 123 -43 259 -58 453 -52 247 7 409 55 607 177 303 186 513 489 585 842 25 121 27 354 5 484 -66 375 -333 732 -680 906 -64 33 -217 85 -303 104 -65 15 -389 28 -442 18z m410 -172 l75 -20 -77 -1 -78 -1 0 -115 c0 -101 -2 -116 -17 -122 -117 -41 -173 -66 -173 -80 0 -20 31 -15 130 22 l75 28 93 -46 c94 -47 208 -118 273 -170 34 -26 38 -35 48 -103 12 -82 14 -277 3 -337 -7 -36 -13 -42 -107 -96 -193 -111 -279 -153 -312 -152 -35 0 -46 -21 -18 -36 12 -7 17 -51 26 -216 11 -188 10 -209 -5 -225 -26 -30 -20 -45 15 -38 18 3 58 -2 102 -15 42 -12 119 -24 187 -27 l115 -7 9 -66 c5 -36 6 -87 2 -113 -7 -44 -12 -51 -74 -97 -84 -62 -201 -119 -315 -154 -84 -27 -94 -27 -245 -22 -155 5 -256 23 -342 59 -34 15 -31 15 60 10 52 -2 103 -9 112 -13 22 -12 41 -11 34 0 -4 5 0 12 6 15 8 4 9 8 3 11 -29 15 -36 26 -45 74 -13 72 -13 138 2 143 6 2 12 12 14 21 2 13 -5 17 -26 17 -64 0 -298 131 -373 208 -36 37 -40 46 -53 133 -14 96 -19 273 -8 326 6 29 31 48 147 107 35 19 53 44 22 32 -8 -3 -15 -1 -15 3 0 14 28 21 33 8 3 -8 37 4 101 36 53 26 103 47 112 47 12 0 15 6 10 23 -3 12 -6 124 -6 248 l0 225 -77 29 c-65 23 -99 29 -200 33 -121 4 -123 5 -123 28 0 15 -6 24 -15 24 -10 0 -15 -10 -15 -31 0 -22 -12 -46 -39 -78 -75 -90 -135 -198 -164 -299 -9 -29 -19 -58 -24 -65 -11 -17 -13 -37 -3 -37 4 0 11 -12 15 -27 10 -40 72 -130 141 -203 l61 -65 7 -200 c3 -110 7 -216 9 -235 2 -33 -2 -37 -77 -87 -62 -41 -83 -50 -97 -43 -47 26 -69 -6 -25 -36 14 -8 34 -30 44 -48 11 -18 27 -46 37 -62 33 -55 -95 91 -150 171 -66 97 -105 180 -141 300 -23 75 -27 107 -26 190 1 55 8 129 14 165 13 63 15 66 75 110 34 25 62 51 62 58 2 23 -41 12 -89 -23 l-47 -35 -6 36 c-14 84 86 330 193 473 94 126 219 227 267 215 16 -4 23 -2 23 7 0 16 163 127 248 169 49 24 120 43 232 64 60 11 297 -3 370 -22z m645 -402 c79 -99 170 -282 185 -375 5 -30 14 -64 21 -76 13 -24 8 -114 -13 -252 -8 -57 -17 -81 -30 -88 -28 -15 -23 -42 6 -37 20 4 25 0 30 -25 15 -77 1 -157 -50 -280 -49 -116 -151 -265 -237 -346 -55 -52 -78 -66 -123 -75 l-32 -7 -4 108 c-5 102 -4 110 19 138 84 108 158 238 203 358 l21 56 -68 98 c-37 54 -95 127 -129 161 l-61 64 9 86 c9 81 -2 305 -17 344 -4 10 26 29 109 69 64 30 116 59 116 65 0 5 -19 39 -43 75 -24 35 -47 71 -51 79 -9 16 107 -100 139 -140z"/><path d="M2935 1873 c3 -21 19 -202 35 -403 42 -505 59 -692 63 -696 1 -2 55 -6 120 -10 l117 -7 0 49 c0 27 -7 127 -15 223 -14 160 -14 207 0 170 2 -8 32 -99 65 -204 34 -104 66 -202 72 -217 l10 -28 119 0 c140 0 135 -8 88 126 -18 49 -53 150 -78 224 l-46 135 42 225 c24 124 44 243 46 264 l2 40 -110 22 c-60 13 -122 23 -136 24 l-25 0 -23 -172 c-27 -214 -33 -239 -47 -230 -7 4 -18 92 -28 222 -9 118 -18 216 -20 217 -8 8 -213 63 -234 63 -20 0 -22 -4 -17 -37z"/><path d="M5675 1867 c-60 -17 -111 -32 -113 -33 -2 -1 -10 -32 -19 -68 -16 -71 -16 -71 -120 -90 l-31 -5 -7 60 -7 61 -30 -6 c-17 -3 -74 -13 -127 -22 -53 -9 -97 -18 -99 -19 -1 -1 9 -72 22 -156 38 -229 116 -779 116 -811 l0 -28 78 1 c42 1 101 4 131 7 l54 7 52 200 c29 110 89 342 135 515 115 438 111 421 88 419 -7 -1 -62 -15 -123 -32z m-195 -382 c0 -28 -43 -220 -51 -230 -5 -5 -9 10 -9 36 0 26 -3 80 -6 122 -7 74 -6 75 17 80 44 8 49 7 49 -8z"/><path d="M3860 1678 c0 -57 29 -751 36 -855 l6 -83 119 0 119 0 -6 223 c-3 122 -9 337 -13 477 l-6 254 -32 7 c-17 3 -74 9 -127 13 l-96 7 0 -43z"/><path d="M4528 1691 c-47 -3 -89 -8 -91 -11 -3 -3 -8 -215 -12 -472 l-7 -468 225 0 225 0 21 91 c12 50 21 95 21 101 0 6 -41 8 -112 6 -62 -1 -114 0 -115 5 -2 4 -3 50 -3 102 l0 95 79 0 c114 0 111 -3 111 100 l0 88 -96 -5 -95 -6 7 191 7 192 -39 -2 c-21 -1 -78 -4 -126 -7z"/></g><g fill="#edf0ef"></g></svg>