<svg class="img-fluid" id="outputsvg" xmlns="http://www.w3.org/2000/svg" style="transform: matrix(0.856831, 0, 0, 0.856831, 0, 0); transform-origin: 50% 50%; cursor: move; max-height: 551.68px; transition: transform 200ms ease-in-out 0s;" width="228" height="255" viewBox="0 0 2280 2550"><g id="l02sDd9OxNhkYMFKSOhXHh" fill="rgb(12,70,63)" style="transform: none;"><g><path id="p16mAbkZsj" d="M1112 2527 c-27 -29 -182 -117 -205 -117 -10 0 -17 -4 -17 -9 0 -5 -8 -11 -17 -14 -10 -3 -49 -17 -88 -32 -162 -63 -325 -105 -550 -145 -112 -20 -122 -23 -158 -58 -20 -20 -43 -51 -49 -69 -7 -18 -16 -33 -20 -33 -4 0 -8 -34 -8 -76 0 -66 3 -80 25 -105 63 -75 69 -273 14 -446 -9 -29 -6 -38 43 -112 l53 -81 281 0 281 0 7 -47 c9 -69 25 -111 68 -177 21 -32 38 -60 38 -63 0 -6 22 -26 45 -40 91 -57 134 -76 200 -90 94 -21 184 -9 281 38 121 57 224 197 240 325 l6 54 282 0 281 0 39 61 c22 34 46 68 54 76 12 12 12 21 -1 71 -52 188 -41 376 23 432 31 27 28 139 -5 207 -40 85 -74 109 -179 128 -262 47 -343 67 -556 141 -111 38 -261 112 -296 145 -11 10 -25 19 -31 19 -5 0 -18 9 -28 20 -23 25 -27 25 -53 -3z m18 -362 c0 -20 -5 -25 -25 -25 -14 0 -25 4 -25 10 0 5 -18 13 -40 16 -62 10 -47 24 25 24 63 0 65 -1 65 -25z m-230 -120 l0 -35 55 0 c42 0 55 -3 55 -15 0 -10 10 -15 30 -15 28 0 30 -2 30 -40 0 -36 3 -40 25 -40 16 0 25 -6 25 -15 0 -8 -7 -15 -15 -15 -11 0 -15 -12 -15 -45 l0 -45 45 0 c45 0 45 0 45 35 0 24 5 35 15 35 11 0 15 11 15 40 0 34 -3 40 -21 40 -15 0 -19 4 -15 16 3 9 6 20 6 25 0 5 5 9 10 9 6 0 10 -9 10 -20 0 -16 7 -20 35 -20 33 0 35 2 35 35 l0 35 50 0 c43 0 50 3 50 20 0 13 7 20 20 20 17 0 20 -7 20 -45 0 -31 -4 -45 -13 -45 -8 0 -18 -10 -24 -22 -34 -76 -43 -102 -43 -133 0 -33 2 -35 34 -35 29 0 35 5 46 33 6 17 18 47 26 65 8 18 14 42 14 52 0 11 7 20 15 20 8 0 15 7 15 16 0 21 19 7 30 -22 8 -19 17 -24 45 -24 33 0 35 2 35 35 0 33 2 35 35 35 24 0 35 5 35 15 0 8 7 15 15 15 11 0 15 -11 15 -40 0 -22 -4 -40 -10 -40 -5 0 -10 -18 -10 -40 0 -39 1 -40 35 -40 32 0 35 2 35 30 0 17 5 30 10 30 6 0 10 16 10 35 0 19 5 35 10 35 6 0 10 -16 10 -35 0 -31 3 -35 28 -36 16 -1 20 -3 10 -6 -13 -3 -18 -15 -18 -39 0 -32 2 -34 35 -34 19 0 35 5 35 10 0 20 15 9 42 -30 l28 -40 -30 0 c-28 0 -30 -3 -30 -35 0 -31 3 -35 25 -35 20 0 25 -5 25 -25 0 -18 5 -25 20 -25 16 0 20 -7 20 -30 0 -25 4 -30 25 -30 22 0 25 -3 19 -25 -9 -36 4 -95 21 -95 10 0 15 -10 15 -30 0 -16 -4 -30 -10 -30 -5 0 -10 -16 -10 -35 0 -19 5 -35 10 -35 6 0 10 -11 10 -25 l0 -25 -220 0 -220 0 0 23 c-2 79 -74 221 -142 279 -24 21 -50 44 -59 51 -9 8 -28 17 -43 21 -21 5 -26 12 -26 36 0 28 -3 30 -35 30 -21 0 -35 -5 -35 -12 0 -10 -33 -13 -133 -13 -117 0 -139 -3 -192 -24 -33 -14 -67 -30 -75 -37 -8 -7 -30 -27 -49 -44 -19 -16 -38 -30 -42 -30 -5 0 -9 -5 -9 -12 0 -6 -6 -19 -14 -27 -29 -33 -54 -89 -72 -164 l-19 -79 -217 4 c-119 2 -219 6 -223 10 -4 3 -9 43 -12 88 -5 73 -4 83 15 100 12 11 26 20 32 20 5 0 10 22 10 50 0 35 5 55 18 68 10 10 21 26 25 35 3 9 13 17 21 17 11 0 17 17 22 60 5 49 10 60 25 60 25 0 67 45 75 78 16 76 40 101 104 109 27 3 50 10 50 14 0 5 14 9 30 9 27 0 30 3 30 30 0 20 5 30 15 30 8 0 15 -7 15 -15 0 -8 4 -15 9 -15 14 0 -23 -69 -36 -70 -8 0 -13 -15 -13 -39 0 -22 -7 -46 -15 -55 -8 -8 -15 -32 -15 -55 0 -40 1 -41 33 -41 37 0 57 27 57 78 0 16 8 34 20 42 11 8 20 19 20 25 0 5 7 18 15 29 13 17 15 16 31 -23 14 -37 20 -41 50 -41 32 0 34 2 34 35 0 43 -28 117 -49 130 -13 8 -10 11 14 16 17 4 33 7 38 8 4 0 7 -15 7 -34z m315 -426 c43 -11 107 -38 115 -48 3 -3 22 -19 43 -34 50 -38 108 -120 131 -185 15 -42 18 -72 14 -136 -5 -74 -10 -88 -49 -155 -85 -142 -252 -228 -382 -196 -143 35 -242 115 -307 249 -36 74 -33 179 7 266 37 81 80 130 163 184 94 62 176 79 265 55z"></path><path id="pmJC5Jnx1" d="M1560 1858 c0 -63 9 -78 46 -78 32 0 34 2 34 33 0 62 -9 77 -46 77 -32 0 -34 -2 -34 -32z"></path><path id="pPnrLkSDq" d="M860 1846 c0 -54 8 -66 46 -66 30 0 34 3 34 28 0 57 -10 72 -46 72 -32 0 -34 -2 -34 -34z"></path><path id="ptklJlj2g" d="M1720 1795 c0 -33 2 -35 35 -35 33 0 35 2 35 35 0 33 -2 35 -35 35 -33 0 -35 -2 -35 -35z"></path><path id="p19mkCKfgz" d="M372 1159 c3 -8 13 -39 23 -69 l18 -54 -43 -37 c-24 -21 -40 -42 -36 -48 4 -6 31 -11 61 -11 l53 0 24 -60 c12 -33 25 -60 28 -60 3 0 15 28 25 63 l20 62 63 3 c72 3 80 18 27 46 -61 33 -67 44 -50 100 8 27 15 53 15 58 0 17 -24 7 -65 -27 -42 -34 -43 -34 -66 -17 -51 39 -103 66 -97 51z"></path><path id="pgAdS9Ofi" d="M1680 1157 c0 -7 7 -37 16 -67 9 -31 12 -55 6 -59 -5 -3 -33 -22 -63 -41 l-54 -35 76 -3 76 -3 18 -64 c9 -36 20 -65 24 -65 3 0 17 27 29 60 l24 60 64 0 c35 0 64 3 64 7 0 4 -21 25 -47 48 l-46 41 21 64 c12 35 21 65 19 66 -2 2 -26 -12 -55 -31 -28 -19 -56 -35 -63 -35 -6 0 -28 13 -48 28 -52 41 -61 45 -61 29z"></path><path id="p17h7Bh7Z4" d="M729 849 c-9 -13 -19 -41 -23 -61 -7 -37 -8 -38 -54 -39 -26 -1 -58 -4 -71 -8 -24 -6 -22 -8 28 -45 52 -39 53 -40 47 -80 -4 -22 -11 -45 -17 -52 -5 -6 -7 -19 -3 -27 5 -14 11 -13 42 11 21 15 39 30 40 35 7 15 46 6 76 -16 17 -13 41 -29 53 -36 l22 -11 -25 67 c-13 38 -24 69 -24 70 0 1 20 16 45 34 62 45 59 59 -13 59 -62 0 -57 -5 -94 89 l-14 34 -15 -24z"></path><path id="pzEMXNV3o" d="M1519 833 c-6 -15 -14 -39 -18 -53 -7 -23 -13 -25 -69 -28 -74 -4 -79 -16 -22 -58 46 -33 48 -48 20 -122 -22 -57 -23 -57 47 -10 23 15 48 28 56 28 8 0 33 -14 56 -30 23 -17 46 -28 50 -25 5 3 3 26 -5 52 -20 66 -19 68 31 104 25 18 45 36 45 40 0 3 -29 10 -64 14 l-64 6 -14 52 c-17 59 -33 70 -49 30z"></path><path id="pCn0wLSzP" d="M1022 698 c3 -7 13 -37 22 -66 l18 -52 -24 -20 c-12 -10 -38 -27 -55 -37 -18 -10 -33 -21 -33 -25 0 -4 32 -8 72 -10 l72 -3 17 -55 c9 -30 21 -56 26 -57 11 -4 32 40 42 87 6 23 11 25 75 30 l70 5 -36 30 c-19 17 -43 35 -54 41 -19 11 -19 13 3 78 11 36 18 66 15 66 -4 0 -29 -16 -56 -35 -27 -19 -53 -35 -58 -35 -4 0 -30 16 -57 35 -51 37 -66 43 -59 23z"></path><path id="p3HvIzSgi" d="M1420 358 c-19 -5 -43 -17 -54 -26 -18 -16 -51 -81 -44 -87 2 -1 20 -5 41 -8 26 -4 37 -2 37 7 0 27 45 56 88 56 40 0 82 -25 82 -48 0 -19 -37 -40 -80 -47 -62 -10 -126 -39 -139 -63 -44 -83 49 -157 171 -137 49 9 108 60 108 94 0 18 -6 21 -40 21 -28 0 -40 -4 -40 -15 0 -33 -105 -50 -130 -20 -22 27 -3 43 71 59 121 28 149 51 149 121 0 79 -108 125 -220 93z"></path><path id="p1V7ftMUi" d="M710 185 l0 -175 135 0 135 0 0 35 0 35 -95 0 -95 0 0 30 0 30 85 0 85 0 0 35 0 35 -85 0 -85 0 0 75 0 75 -40 0 -40 0 0 -175z"></path></g></g><g id="l2wOwjtvDCWCcYjYK9NVOiU" fill="rgb(48,80,64)" style="transform: none;"><g><path id="paibZvGM4" d="M1190 2506 c0 -2 12 -12 28 -21 l27 -18 -19 21 c-17 20 -36 29 -36 18z"></path><path id="pORBj5fQ3" d="M1061 2261 c-8 -5 -12 -15 -9 -23 4 -10 -7 -14 -43 -15 -27 -1 -49 3 -49 8 0 5 18 9 40 9 22 0 40 4 40 8 0 9 -55 7 -87 -3 -12 -4 -25 -17 -29 -29 -7 -21 -7 -21 -14 -1 -5 13 -3 24 8 33 14 11 14 12 -1 12 -9 0 -17 -4 -17 -10 0 -5 -11 -10 -24 -10 -13 0 -27 -8 -31 -17 -6 -16 -8 -16 -18 -2 -16 21 -59 10 -72 -19 -5 -12 -15 -22 -21 -22 -14 0 -25 48 -13 52 5 2 4 10 -1 18 -8 13 -10 13 -10 -1 0 -9 -6 -19 -14 -22 -18 -7 -28 -62 -15 -93 5 -15 7 -30 3 -33 -4 -3 -9 0 -11 7 -3 6 -10 9 -15 5 -8 -4 -9 11 -5 48 3 33 2 46 -3 34 -5 -11 -9 -40 -9 -64 l-1 -44 -42 7 c-27 4 -38 3 -29 -3 11 -7 10 -13 -8 -32 l-22 -24 23 -6 c16 -4 8 -7 -30 -12 -50 -6 -82 -24 -82 -46 0 -5 -5 -13 -12 -17 -7 -4 -8 -3 -4 4 4 7 3 12 -3 12 -15 0 -19 -23 -9 -44 7 -13 6 -21 -3 -27 -7 -4 -11 -11 -7 -14 11 -11 -43 -55 -68 -55 -23 0 -25 -4 -23 -34 2 -19 -3 -41 -11 -51 -11 -13 -11 -18 -1 -24 9 -6 5 -10 -13 -15 -18 -4 -24 -11 -19 -22 5 -13 2 -15 -15 -9 -17 5 -22 2 -20 -12 3 -43 -3 -123 -9 -122 -5 1 -17 1 -28 0 -14 -1 -16 -4 -7 -9 9 -6 6 -12 -13 -22 -15 -8 -22 -17 -17 -24 13 -17 15 -106 3 -106 -19 0 -13 -58 6 -63 14 -4 12 -5 -4 -6 -18 -1 -23 4 -23 24 0 14 -5 25 -10 25 -12 0 -1 -53 12 -58 5 -2 4 -10 -1 -16 -8 -9 -7 -13 2 -13 6 0 51 -4 100 -8 85 -8 87 -7 87 14 0 17 -6 21 -35 21 l-35 0 0 65 c0 36 3 65 8 65 4 0 16 46 26 103 22 121 24 127 42 127 8 0 14 7 14 15 0 8 5 15 10 15 6 0 10 9 10 19 0 23 22 40 28 23 4 -14 72 -16 72 -2 0 6 7 10 15 10 10 0 15 11 15 35 0 34 -1 35 -40 35 -44 0 -50 9 -20 28 11 7 20 21 20 31 0 22 43 32 113 24 l47 -6 0 37 c0 34 2 36 33 36 18 0 27 -4 20 -8 -6 -4 -15 -21 -19 -37 -4 -17 -11 -33 -16 -36 -5 -3 -11 -29 -15 -57 l-6 -52 35 0 c33 0 37 3 58 53 50 115 61 136 76 130 8 -3 14 -14 14 -25 0 -21 39 -100 53 -106 4 -2 7 -15 7 -28 0 -21 5 -24 35 -24 35 0 35 0 35 45 0 25 -4 45 -8 45 -5 0 -14 17 -20 38 -6 21 -20 47 -31 59 -11 11 -23 41 -26 67 -7 45 -7 46 19 46 23 0 26 -4 26 -35 l0 -35 55 0 c42 0 55 -3 55 -15 0 -10 11 -15 35 -15 19 0 35 5 35 10 0 6 5 10 10 10 6 0 10 -10 10 -22 0 -21 0 -21 27 3 l27 24 -18 -28 -17 -28 32 3 c26 2 35 9 40 28 6 23 7 22 8 -7 1 -31 3 -33 37 -33 36 0 36 0 33 38 l-4 37 52 -3 c47 -3 52 -2 55 20 2 17 10 24 31 26 26 3 27 1 21 -25 -4 -15 -10 -30 -14 -33 -19 -13 -50 -93 -50 -127 1 -37 1 -37 17 -18 13 16 15 17 10 3 -5 -14 -1 -18 16 -18 16 0 28 12 45 48 12 26 22 55 22 64 0 9 7 18 15 22 8 3 15 0 15 -7 0 -6 17 -51 38 -99 36 -84 38 -88 70 -88 29 0 32 3 32 30 0 16 -11 59 -24 95 l-24 65 34 0 c27 0 34 4 34 20 0 11 5 20 10 20 6 0 8 -21 4 -57 -7 -54 -6 -56 14 -51 12 4 25 2 28 -3 3 -5 16 -9 30 -9 14 0 24 -6 24 -14 0 -8 6 -17 13 -19 6 -3 -5 -6 -25 -6 -37 -1 -38 -2 -38 -36 0 -33 2 -35 35 -35 32 0 35 2 35 30 0 26 3 30 29 30 34 0 43 -21 41 -97 -1 -50 0 -53 24 -53 15 0 30 -8 36 -20 6 -11 20 -20 30 -20 17 0 20 -7 20 -40 0 -22 5 -40 10 -40 6 0 10 -7 10 -15 0 -8 -9 -15 -20 -15 -16 0 -20 -7 -20 -35 0 -32 2 -35 30 -35 20 0 30 -5 30 -15 0 -8 5 -15 10 -15 6 0 10 -4 10 -10 0 -5 -9 -10 -20 -10 -16 0 -20 -7 -20 -35 0 -24 5 -35 15 -35 8 0 15 -9 15 -20 0 -15 -7 -20 -25 -20 -18 0 -25 -5 -25 -20 0 -18 7 -20 55 -20 42 0 55 4 55 15 0 10 9 14 30 11 17 -2 30 1 30 5 0 5 -12 9 -27 10 -24 0 -23 2 12 13 l39 11 -44 14 -44 13 24 15 c25 14 25 14 -10 9 -19 -2 -29 -2 -22 1 19 8 17 123 -3 123 -18 0 -20 16 -2 23 6 3 3 6 -8 7 -18 1 -18 2 4 11 18 7 21 12 12 23 -6 7 -8 16 -4 19 3 4 1 7 -5 7 -6 0 -9 7 -6 15 5 11 -2 15 -27 15 l-34 0 25 15 c14 8 33 18 43 21 30 11 19 27 -15 20 -18 -3 -46 -2 -63 3 -16 5 -23 10 -14 10 9 1 19 7 22 14 6 17 -2 80 -11 86 -5 4 -21 24 -37 46 -16 22 -41 51 -55 64 -14 14 -24 29 -22 33 1 4 -11 8 -28 8 -28 0 -30 2 -30 41 0 38 -2 40 -27 38 -16 -2 -38 2 -50 9 -12 7 -40 12 -63 12 -29 0 -40 4 -37 13 3 8 20 11 51 9 27 -2 46 1 46 7 0 6 -16 11 -36 11 -27 0 -35 4 -31 14 3 8 1 17 -6 20 -7 2 -4 5 6 5 14 1 17 10 17 51 0 38 -4 50 -15 50 -8 0 -15 -5 -15 -12 0 -9 -3 -9 -12 0 -17 17 -58 15 -64 -3 -6 -14 -8 -14 -18 1 -8 10 -23 14 -41 12 -27 -3 -30 -7 -30 -38 0 -31 3 -35 30 -38 18 -2 33 2 41 12 10 15 12 14 17 -3 4 -15 11 -18 28 -14 13 3 30 10 37 16 8 6 12 6 12 -1 0 -19 -12 -42 -22 -42 -5 0 -6 5 -2 11 4 8 1 8 -12 1 -21 -10 -45 -5 -56 12 -11 15 -10 -6 1 -22 4 -7 12 -12 17 -11 5 1 24 1 42 0 28 -1 32 -4 24 -18 -10 -16 -62 -26 -62 -11 0 4 -7 5 -15 2 -10 -4 -15 0 -16 12 0 18 -1 17 -9 -1 -5 -11 -9 -15 -9 -10 -1 6 -30 10 -71 10 -38 0 -70 3 -70 7 0 12 -28 9 -32 -3 -3 -9 -10 -9 -27 0 -16 9 -20 16 -13 23 15 15 -14 41 -38 35 -29 -7 -24 2 8 15 27 12 26 12 -18 16 l-45 3 40 19 40 19 -37 1 c-20 0 -38 -5 -41 -12 -2 -7 -7 -10 -11 -7 -11 10 5 39 22 39 21 0 12 6 -21 14 -17 4 -26 3 -23 -3 8 -12 -18 -21 -34 -11 -10 6 -9 9 1 14 8 3 -11 3 -41 0 -40 -4 -51 -2 -40 5 18 13 1 14 -19 2z m-91 -76 c0 -8 -4 -15 -10 -15 -5 0 -10 7 -10 15 0 8 5 15 10 15 6 0 10 -7 10 -15z m560 -7 c0 -16 -3 -19 -11 -11 -6 6 -8 16 -5 22 11 17 16 13 16 -11z m85 -8 c-5 -8 -11 -8 -17 -2 -6 6 -7 16 -3 22 5 8 11 8 17 2 6 -6 7 -16 3 -22z m-442 -89 c-1 -2 -10 5 -20 15 -13 12 -14 19 -5 22 6 2 13 20 14 40 1 29 3 24 7 -18 3 -30 5 -57 4 -59z m-403 59 c12 -8 11 -10 -7 -10 -12 0 -25 5 -28 10 -8 13 15 13 35 0z m282 -22 c-8 -31 -26 -48 -52 -48 -31 0 -19 24 13 28 19 2 27 9 27 23 0 10 4 19 9 19 5 0 6 -10 3 -22z m224 -2 c16 -1 20 -6 16 -21 -3 -11 -7 -14 -10 -7 -2 6 -9 12 -16 12 -7 0 -21 7 -32 16 -19 15 -19 16 1 8 11 -4 29 -8 41 -8z m-636 -61 c0 -9 -9 -15 -25 -15 -24 0 -32 10 -18 23 12 13 43 7 43 -8z m640 -6 c0 -5 -12 -9 -28 -9 -15 0 -37 -7 -48 -15 -19 -12 -24 -12 -40 0 -26 20 -83 19 -106 -2 -10 -9 -18 -11 -18 -5 0 33 81 54 120 30 15 -10 25 -9 52 3 32 16 68 15 68 -2z m58 3 c2 -7 -6 -12 -17 -12 -21 0 -27 11 -14 24 9 9 26 2 31 -12z m158 -10 c-22 -5 -30 3 -21 18 5 8 11 7 22 -2 15 -12 14 -13 -1 -16z m-768 3 c2 -1 -6 -20 -17 -41 l-21 -39 0 42 c0 23 -5 44 -12 47 -7 3 0 3 17 0 16 -3 31 -7 33 -9z m72 5 c0 -5 -6 -10 -14 -10 -8 0 -26 -24 -40 -52 -14 -29 -25 -46 -26 -37 0 8 7 24 15 35 8 10 15 25 15 32 0 28 50 59 50 32z m200 0 c0 -5 -16 -10 -36 -10 -21 0 -33 4 -29 10 3 6 19 10 36 10 16 0 29 -4 29 -10z m-157 -77 c24 -64 16 -63 -14 1 -13 30 -20 52 -14 50 6 -3 19 -25 28 -51z m614 22 c-7 -13 -14 -20 -15 -14 -5 14 6 39 17 39 5 0 4 -11 -2 -25z m77 8 c3 -10 10 -28 16 -40 16 -38 4 -26 -19 17 -11 22 -17 40 -12 40 5 0 11 -8 15 -17z m193 -45 c-2 -13 -4 -3 -4 22 0 25 2 35 4 23 2 -13 2 -33 0 -45z"></path><path id="p1HBs0BtN7" d="M1520 2262 c0 -4 9 -8 20 -9 11 -1 18 2 15 8 -7 11 -35 12 -35 1z"></path><path id="p18ix8goDF" d="M1360 2203 c0 -7 7 -13 15 -13 8 0 15 -4 15 -10 0 -10 -19 -14 -52 -11 -20 2 -22 -7 -9 -27 9 -15 17 -15 44 -1 13 7 17 6 17 -6 0 -8 9 -15 20 -15 11 0 20 4 20 9 0 5 9 11 20 14 15 4 20 14 20 41 0 47 -27 50 -33 4 l-4 -33 -1 32 c-2 30 -4 32 -37 31 -22 -1 -35 -6 -35 -15z"></path><path id="p6ErBKdVX" d="M75 2148 l-40 -43 43 40 c39 36 47 45 39 45 -2 0 -21 -19 -42 -42z"></path><path id="pEm5dOdkb" d="M1690 2180 c0 -5 10 -10 23 -10 18 0 19 2 7 10 -19 13 -30 13 -30 0z"></path><path id="piocyPPng" d="M0 2013 c0 -43 5 -41 13 5 4 18 2 32 -3 32 -6 0 -10 -16 -10 -37z"></path><path id="p34yARpIA" d="M1120 1889 c0 -40 23 -58 73 -59 35 0 37 1 37 33 0 38 -27 57 -80 57 -27 0 -30 -3 -30 -31z"></path><path id="phRZEhqK7" d="M530 1795 c0 -33 2 -35 35 -35 33 0 35 2 35 35 0 33 -2 35 -35 35 -33 0 -35 -2 -35 -35z"></path><path id="pfY6jKh2d" d="M1058 1713 c-24 -3 -38 -9 -38 -18 0 -7 -15 -17 -32 -20 -18 -4 -42 -14 -53 -21 -11 -8 -32 -14 -47 -14 -23 0 -28 -4 -28 -25 0 -20 -5 -25 -24 -25 -33 0 -56 -10 -56 -24 0 -6 -9 -18 -20 -26 -11 -8 -20 -20 -20 -27 0 -7 -3 -13 -8 -13 -8 0 -24 -35 -42 -92 -10 -34 -15 -38 -46 -38 -32 0 -34 -2 -34 -35 0 -33 2 -35 33 -36 23 -1 26 -3 10 -6 -29 -6 -30 -29 -2 -36 36 -9 43 1 63 80 18 75 43 131 72 164 8 8 14 21 14 27 0 7 4 12 9 12 4 0 23 14 42 30 19 17 41 37 49 44 8 7 42 23 75 37 51 21 77 24 175 24 102 0 119 -3 151 -22 20 -13 41 -23 48 -23 12 0 22 -8 92 -72 53 -49 112 -146 124 -203 11 -54 12 -57 13 -77 1 -10 9 -18 17 -18 11 0 15 11 15 43 0 56 -9 87 -26 87 -10 0 -14 13 -14 40 0 29 -4 40 -15 40 -9 0 -15 9 -15 25 0 16 -6 25 -16 25 -21 0 -44 25 -44 48 0 14 -9 21 -29 25 -21 4 -30 13 -33 29 -2 13 -11 24 -22 26 -11 3 -26 10 -34 18 -8 8 -34 14 -63 14 -42 0 -49 3 -49 20 0 18 -6 20 -77 18 -43 -1 -95 -3 -115 -5z"></path><path id="p14lWzTB8D" d="M1025 1647 c-51 -13 -160 -85 -204 -134 -19 -21 -48 -67 -65 -103 -27 -59 -30 -74 -30 -170 -1 -91 2 -111 24 -155 53 -110 122 -177 232 -227 238 -108 531 55 567 314 12 86 7 142 -17 213 -21 62 -80 145 -129 182 -21 15 -40 31 -43 34 -8 10 -72 37 -115 48 -50 13 -167 12 -220 -2z m135 -12 c0 -9 9 -15 25 -15 14 0 53 -11 87 -25 34 -14 70 -25 80 -25 11 0 18 -7 18 -19 0 -13 9 -20 30 -24 24 -5 30 -12 30 -32 0 -14 5 -25 10 -25 6 0 10 -7 10 -15 0 -8 5 -15 10 -15 6 0 10 -6 10 -14 0 -8 6 -21 13 -28 18 -18 41 -168 32 -209 -10 -53 -29 -103 -42 -117 -7 -7 -13 -17 -13 -22 0 -5 -16 -26 -35 -47 -19 -21 -35 -44 -35 -50 0 -7 -9 -13 -19 -13 -11 0 -26 -7 -35 -15 -8 -8 -19 -15 -25 -15 -6 0 -11 -3 -11 -8 0 -4 -29 -16 -65 -26 -82 -23 -153 -18 -223 18 -28 14 -60 26 -72 26 -11 0 -20 7 -20 15 0 9 -7 18 -16 22 -20 8 -64 51 -64 63 0 6 -4 10 -10 10 -5 0 -10 7 -10 15 0 9 -7 18 -15 21 -8 4 -15 14 -15 24 0 10 -7 35 -16 56 -13 31 -15 59 -11 128 3 49 10 92 15 95 5 3 17 20 26 38 9 18 34 52 56 75 22 24 40 46 40 51 0 4 6 7 13 7 7 0 23 9 35 20 12 11 25 20 29 20 5 0 26 9 48 20 22 11 52 20 67 20 18 0 28 5 28 15 0 8 9 15 20 15 11 0 20 -7 20 -15z"></path><path id="p9FGNdWG8" d="M370 1615 c0 -33 2 -35 35 -35 33 0 35 2 35 35 0 33 -2 35 -35 35 -33 0 -35 -2 -35 -35z"></path><path id="p1BLZ7CZJD" d="M1880 1585 c0 -33 2 -35 35 -35 33 0 35 2 35 35 0 33 -2 35 -35 35 -33 0 -35 -2 -35 -35z"></path><path id="p1Ej0CY6sj" d="M360 1455 c0 -33 2 -35 35 -35 33 0 35 2 35 35 0 33 -2 35 -35 35 -33 0 -35 -2 -35 -35z"></path><path id="p1BPMEOa1" d="M583 1163 c-13 -8 -23 -21 -23 -27 -1 -6 -20 -32 -44 -58 -32 -35 -46 -44 -55 -35 -6 6 -11 15 -11 20 0 4 -11 23 -25 41 -14 18 -22 35 -19 39 3 3 -4 11 -17 17 -19 11 -21 10 -15 -5 3 -9 9 -28 12 -41 3 -13 10 -24 15 -24 5 0 5 -7 2 -17 -4 -10 -2 -14 4 -10 13 8 46 -39 38 -53 -3 -6 -15 -10 -26 -10 -10 0 -19 -5 -19 -11 0 -6 -10 -9 -23 -7 -13 1 -36 -7 -51 -20 l-29 -22 76 0 c41 0 78 -5 80 -10 3 -6 4 -5 3 2 -1 7 -22 15 -45 18 l-42 5 45 16 46 16 6 -33 c3 -18 3 -37 -1 -43 -3 -6 -1 -11 5 -11 6 0 10 -6 9 -12 -3 -21 12 -68 22 -68 5 0 7 10 5 23 -3 12 -8 50 -11 85 l-6 63 28 -7 c15 -4 45 -13 67 -21 45 -15 96 -17 96 -3 0 12 -35 31 -43 23 -6 -5 -24 -1 -119 24 -16 4 -16 6 -2 28 10 15 22 22 32 18 14 -4 14 -3 3 5 -11 8 -10 15 8 41 12 17 26 31 31 31 4 0 10 11 12 25 3 14 5 25 4 24 0 0 -11 -7 -23 -16z"></path><path id="p9w34Ln84" d="M1680 1149 c0 -11 4 -18 8 -15 5 3 22 -16 38 -41 16 -26 35 -53 43 -60 7 -8 11 -16 9 -19 -9 -8 -120 -34 -137 -32 -9 2 -15 -3 -13 -11 2 -8 -3 -11 -12 -8 -9 4 -18 2 -21 -3 -4 -6 17 -10 49 -10 31 0 56 4 56 9 0 8 81 33 87 27 1 -1 0 -33 -4 -70 -4 -46 -9 -63 -15 -54 -7 9 -8 8 -4 -5 3 -10 6 -23 6 -28 0 -5 4 -9 9 -9 8 0 21 35 26 70 1 8 5 34 9 57 l8 43 28 -15 c16 -8 39 -16 52 -17 13 0 1 -4 -27 -8 -48 -7 -47 -7 24 -8 73 -2 74 -2 56 18 -10 11 -21 18 -25 15 -3 -2 -19 3 -34 11 -16 7 -34 14 -42 14 -24 0 -26 20 -4 53 19 30 20 30 15 6 -5 -18 -1 -30 12 -40 16 -13 17 -12 5 3 -13 17 -8 45 26 137 4 11 1 12 -13 4 -10 -6 -19 -17 -21 -25 -1 -7 -16 -35 -34 -61 l-32 -48 -34 38 c-33 38 -44 60 -22 47 7 -4 8 -3 4 5 -4 6 -11 9 -16 6 -5 -3 -14 3 -19 14 -16 28 -41 35 -41 10z"></path><path id="pg1GDqt5U" d="M395 1021 c-14 -19 -15 -22 -2 -13 9 8 21 11 27 7 12 -7 13 5 2 21 -5 8 -14 3 -27 -15z"></path><path id="pMczpgWrW" d="M726 846 c-18 -28 -23 -62 -5 -36 8 11 9 8 5 -15 -4 -16 -7 -49 -8 -72 -1 -39 -2 -41 -25 -32 -14 5 -34 14 -46 21 -12 6 -37 15 -57 19 l-35 8 35 -28 c19 -16 40 -27 46 -24 7 2 26 -3 43 -12 l31 -16 -22 -40 c-13 -22 -31 -45 -40 -50 -20 -11 -25 -53 -5 -47 6 3 17 13 22 24 6 11 23 36 39 57 l29 38 28 -27 c16 -15 26 -32 22 -37 -3 -6 -1 -7 6 -3 6 4 14 0 17 -9 4 -9 19 -22 34 -30 26 -14 28 -13 23 5 -3 11 -8 18 -12 17 -4 -1 -20 14 -37 33 -61 72 -60 67 -13 89 48 24 63 26 53 9 -4 -7 -3 -8 5 -4 6 4 9 12 6 17 -4 5 2 9 13 9 10 0 27 9 37 20 18 20 17 20 -53 20 -47 0 -72 4 -75 13 -4 9 -6 9 -6 0 -1 -19 20 -27 64 -25 l40 2 -59 -25 c-33 -14 -63 -25 -68 -25 -5 0 -8 38 -7 85 2 46 0 87 -3 90 -3 3 -13 -6 -22 -19z"></path><path id="p1Dzq60zLY" d="M1529 858 c-1 -7 0 -48 1 -90 1 -43 -2 -78 -7 -78 -5 0 -36 11 -69 25 l-59 24 47 1 c26 0 49 3 51 8 3 4 -29 6 -70 4 -72 -4 -74 -4 -58 -22 10 -11 42 -26 72 -35 29 -9 51 -20 48 -24 -3 -5 4 -7 15 -4 28 8 25 -4 -16 -54 -28 -34 -39 -42 -46 -31 -6 9 -7 5 -3 -11 5 -14 3 -21 -3 -17 -5 3 -12 -3 -15 -15 -5 -20 -5 -20 21 -3 15 9 31 23 35 31 5 7 13 10 19 7 6 -4 8 -3 5 3 -4 5 6 22 22 37 27 26 28 26 45 7 10 -11 16 -27 13 -35 -4 -9 -1 -18 5 -22 7 -4 8 -3 4 4 -4 7 -2 12 4 12 6 0 15 -11 19 -24 5 -13 17 -26 26 -30 14 -5 16 -2 11 16 -3 13 -6 27 -6 31 0 5 -4 6 -9 3 -5 -4 -21 14 -34 39 l-26 45 36 15 c19 8 38 13 42 11 9 -6 77 51 70 58 -3 3 -33 -8 -68 -24 -87 -41 -91 -40 -93 23 -3 112 -5 127 -18 127 -5 0 -10 -6 -11 -12z"></path><path id="p40aMGlQo" d="M1113 803 c15 -2 39 -2 55 0 15 2 2 4 -28 4 -30 0 -43 -2 -27 -4z"></path><path id="pkPjhbOVa" d="M618 743 c12 -2 30 -2 40 0 9 3 -1 5 -23 4 -22 0 -30 -2 -17 -4z"></path><path id="ph6arzDWx" d="M1026 688 c4 -13 11 -26 17 -29 5 -4 6 -12 2 -19 -5 -9 -4 -11 4 -6 6 4 14 0 18 -11 4 -10 17 -32 30 -49 l23 -31 -58 -14 c-53 -13 -66 -15 -99 -18 -7 -1 -13 -6 -13 -12 0 -12 53 -9 143 7 l39 7 -2 -64 c-3 -96 -2 -105 12 -91 8 8 11 38 10 83 l-3 71 46 -6 c116 -16 140 -18 135 -15 -3 2 -21 18 -40 34 -19 17 -27 20 -17 8 l18 -21 -60 15 c-34 9 -61 18 -61 22 0 16 42 71 50 66 6 -3 7 1 4 9 -3 9 -1 16 5 16 6 0 8 7 5 15 -4 8 -2 15 4 15 5 0 12 9 15 20 3 11 2 20 -2 20 -13 0 -46 -28 -46 -38 0 -15 -59 -112 -67 -112 -5 0 -8 6 -8 13 0 7 -16 31 -35 53 -19 21 -33 45 -30 52 3 7 1 11 -4 8 -5 -3 -11 1 -15 9 -9 25 -28 18 -20 -7z"></path><path id="p3Be8rPOe" d="M1171 463 c0 -6 -4 -20 -7 -30 -5 -14 -4 -15 5 -7 7 7 11 20 8 30 -3 11 -5 14 -6 7z"></path><path id="phtlORIHw" d="M1375 340 c-3 -5 5 -21 19 -35 17 -17 20 -25 11 -25 -8 0 -15 -4 -15 -10 0 -15 16 -12 31 7 11 13 11 17 1 21 -7 2 -19 11 -28 19 -13 13 -13 17 -2 24 9 6 9 9 1 9 -6 0 -15 -4 -18 -10z"></path><path id="pruhT7KI3" d="M1615 313 c15 -32 25 -42 25 -24 0 5 -9 19 -20 32 l-21 24 16 -32z"></path><path id="pDNaLnOv8" d="M1495 309 l-20 -9 20 2 c11 2 27 -2 35 -7 13 -8 13 -7 1 8 -7 9 -14 17 -15 16 0 0 -10 -5 -21 -10z"></path><path id="p73UqaHN3" d="M1560 272 c9 -20 9 -27 -4 -41 -15 -17 -15 -19 1 -32 11 -9 14 -10 9 -1 -4 6 -3 12 2 12 14 0 8 58 -7 73 -11 10 -11 8 -1 -11z"></path><path id="p11MrJAFVc" d="M1356 256 c3 -8 13 -17 21 -20 25 -10 23 -3 -3 17 -18 13 -22 14 -18 3z"></path><path id="p9dkkvWgY" d="M714 140 c0 -69 1 -101 3 -72 3 37 7 50 16 45 9 -5 9 -4 0 8 -7 8 -14 44 -16 79 -2 36 -3 9 -3 -60z"></path><path id="p1CjOprJR1" d="M1620 219 c0 -6 -7 -8 -16 -5 -13 5 -14 4 -6 -7 7 -8 8 -18 4 -22 -4 -5 -1 -5 5 -1 19 10 36 46 23 46 -5 0 -10 -5 -10 -11z"></path><path id="pTRCmcNpz" d="M1435 190 c-4 -6 1 -7 11 -3 13 5 15 3 9 -7 -5 -9 -4 -11 3 -6 7 4 12 11 12 17 0 12 -27 12 -35 -1z"></path><path id="pJZbZVOMg" d="M1489 186 c-1 -3 -2 -12 -3 -18 -1 -7 -10 -12 -21 -10 -17 2 -17 1 -5 -7 21 -15 23 -14 37 9 8 12 9 21 3 25 -6 3 -11 4 -11 1z"></path><path id="pG21pgWlZ" d="M785 150 c-4 -12 -5 -24 -2 -27 3 -2 8 5 12 17 4 12 5 24 2 27 -3 2 -8 -5 -12 -17z"></path><path id="p5IuQ1igh" d="M1403 91 c1 -11 8 -21 15 -21 12 0 12 3 1 18 -7 9 -14 19 -16 21 -1 2 -1 -6 0 -18z"></path><path id="pCQWAD0qn" d="M1616 85 c-3 -13 -23 -36 -43 -50 -21 -14 -32 -25 -24 -25 18 0 81 65 81 84 0 24 -7 19 -14 -9z"></path><path id="p8i7YuCL0" d="M968 45 c2 -19 6 -35 8 -35 2 0 4 16 4 35 0 19 -4 35 -8 35 -4 0 -6 -16 -4 -35z"></path><path id="p13nVBhqTb" d="M1391 46 c-24 -13 -24 -14 -3 -25 11 -6 27 -11 34 -10 7 0 2 5 -11 10 -23 9 -24 10 -5 24 24 18 17 18 -15 1z"></path></g></g><g id="l7gAOfrZxtZlqEL8EfqEpJ3" fill="rgb(19,112,82)" style="transform: none;"><g><path id="pqztAsxlB" d="M1054 2234 c-18 -14 -18 -15 4 -4 12 6 33 8 45 5 17 -5 19 -4 7 4 -21 15 -33 14 -56 -5z"></path><path id="pgExZsUM8" d="M805 2230 c-3 -5 -15 -10 -25 -10 -10 0 -22 -9 -25 -20 -4 -11 -15 -20 -26 -20 -11 0 -18 4 -15 8 2 4 0 14 -5 22 -8 13 -10 13 -19 0 -13 -20 -13 -83 1 -97 7 -7 4 -12 -10 -16 -13 -3 -25 1 -31 11 -7 13 -9 5 -10 -32 0 -40 -3 -47 -16 -42 -9 3 -19 6 -24 6 -5 0 -10 8 -12 18 -3 15 -6 14 -16 -5 -11 -20 -10 -23 5 -23 15 0 15 -2 -3 -15 -10 -8 -15 -15 -10 -15 21 0 -39 -40 -61 -40 -12 0 -23 -4 -23 -10 0 -5 8 -10 18 -10 14 0 15 -2 2 -10 -10 -6 -16 -6 -18 0 -8 22 -33 8 -39 -21 -3 -17 -16 -37 -28 -45 -15 -10 -21 -22 -18 -34 4 -14 1 -18 -14 -14 -29 7 -50 -12 -38 -33 14 -25 7 -63 -12 -63 -9 0 -13 -6 -9 -15 3 -8 1 -15 -4 -15 -5 0 -21 -11 -35 -24 -21 -19 -23 -26 -12 -33 20 -12 2 -93 -21 -94 -14 0 -13 -2 3 -9 11 -5 14 -9 7 -9 -7 -1 -10 -5 -7 -11 3 -5 1 -10 -4 -10 -15 0 -14 -27 2 -33 6 -3 2 -6 -10 -6 -20 -1 -23 -6 -23 -40 0 -22 5 -42 13 -44 6 -3 2 -6 -10 -6 -31 -1 -40 -21 -9 -21 14 0 26 -4 26 -10 0 -5 -10 -10 -22 -10 -19 0 -20 -2 -8 -10 11 -7 5 -10 -25 -11 l-40 -1 44 -9 c60 -12 63 -19 10 -21 -93 -3 145 -16 319 -17 l182 -1 1 25 c1 25 5 43 9 48 1 1 3 9 5 18 10 52 37 119 47 119 5 0 8 7 8 15 0 8 4 15 9 15 5 0 12 8 15 18 9 26 113 104 175 130 80 32 236 50 258 28 3 -3 14 -6 23 -6 41 0 135 -55 194 -114 77 -77 127 -177 138 -274 l3 -24 185 1 c102 1 213 4 248 8 60 6 62 7 62 34 0 19 -5 29 -15 29 -21 0 -19 20 3 21 9 0 1 7 -18 14 l-35 13 32 1 c25 1 31 5 30 21 -1 11 -6 20 -12 20 -6 0 -7 3 0 8 19 14 15 32 -8 33 l-22 0 23 11 c38 19 25 30 -30 24 -32 -3 -43 -2 -28 3 22 6 25 12 22 47 -2 21 -7 41 -10 44 -12 9 -14 50 -3 50 24 0 9 20 -20 27 -16 5 -30 12 -29 17 1 5 -3 12 -8 15 -6 3 -12 21 -14 40 -2 19 -15 46 -30 63 -16 17 -28 36 -28 43 0 8 -12 27 -26 44 -14 17 -23 34 -21 38 9 14 -48 12 -63 -3 -14 -12 -15 -10 -12 19 5 45 -12 84 -40 89 -37 7 -48 -1 -48 -35 0 -56 -23 -277 -29 -277 -3 0 -14 21 -24 48 -17 44 -79 189 -102 239 -14 32 -39 28 -58 -9 -11 -24 -16 -28 -16 -14 -1 11 5 27 13 35 8 9 16 25 18 36 3 18 -3 20 -63 21 -37 1 -72 5 -78 8 -6 4 -11 3 -11 -3 0 -5 5 -13 10 -16 18 -11 11 -35 -11 -35 -18 0 -20 4 -15 25 5 20 3 25 -13 25 -11 0 -26 6 -33 14 -8 8 -23 16 -34 18 -15 3 -19 12 -20 51 0 34 -6 51 -20 61 -10 8 -21 12 -24 10 -2 -3 0 -8 5 -12 6 -4 8 -32 4 -67 l-6 -60 -1 61 -2 61 -55 2 c-36 1 -55 -3 -55 -10 0 -8 -4 -8 -12 -1 -7 6 -37 10 -65 10 -53 1 -53 1 -53 -30 0 -40 -7 -33 -12 12 -4 29 -9 35 -29 37 l-24 2 25 -8 c24 -9 24 -9 -7 -12 -18 -1 -39 -2 -45 -3 -7 -1 -12 5 -10 12 3 15 -4 16 -13 2z m-5 -47 c0 -19 -3 -24 -10 -17 -6 6 -8 18 -4 27 9 24 14 21 14 -10z m173 -3 c3 -13 0 -20 -9 -20 -8 0 -14 9 -14 20 0 11 4 20 9 20 5 0 11 -9 14 -20z m-202 -48 c-9 -3 -9 -7 0 -18 15 -18 30 -8 22 14 -4 13 -3 14 6 6 6 -6 9 -18 5 -27 -7 -19 -45 -23 -41 -5 1 7 -8 17 -20 23 -27 12 -29 22 -5 27 20 5 51 -14 33 -20z m77 -20 c6 -18 -15 -14 -22 4 -4 10 -1 14 6 12 6 -2 14 -10 16 -16z m120 -17 c3 -3 -4 -5 -16 -5 -11 0 -23 4 -27 9 -6 10 33 6 43 -4z m186 -42 c32 -15 37 -15 58 -1 14 9 35 14 51 11 35 -7 35 -23 0 -23 -27 -1 -90 -29 -65 -30 18 0 15 -50 -3 -50 -10 0 -15 10 -15 29 0 24 -6 31 -32 40 -40 13 -63 10 -88 -12 -27 -23 -27 2 0 31 25 26 48 28 94 5z m-349 -1 c11 -7 76 -172 69 -172 -3 0 -20 34 -39 75 -18 41 -40 75 -47 75 -8 0 -26 -24 -41 -52 -17 -34 -27 -45 -27 -32 0 11 7 29 15 40 8 10 15 26 15 35 0 30 32 48 55 31z m195 -6 c0 -11 -10 -14 -35 -13 -47 3 -47 27 0 27 24 0 35 -5 35 -14z m-39 -172 c-6 -62 -15 -122 -19 -134 -7 -19 -9 -18 -25 14 -14 31 -15 36 -2 36 22 0 31 33 41 145 4 55 10 89 12 76 2 -13 -1 -75 -7 -137z m772 109 c-3 -21 -13 -45 -21 -53 -14 -13 -15 -13 -3 3 9 11 11 30 8 52 -4 26 -2 35 8 35 10 0 12 -10 8 -37z m-929 -20 c6 -19 3 -23 -13 -23 -11 0 -25 -8 -30 -17 -9 -15 -10 -15 -11 -2 0 8 7 24 15 35 8 10 15 28 15 39 0 16 2 17 9 5 5 -8 12 -25 15 -37z m331 -3 c-16 -16 -30 -28 -33 -26 -7 8 33 55 47 56 10 0 4 -11 -14 -30z m373 -13 c10 -3 5 -5 -10 -6 -21 -1 -28 4 -28 17 0 27 14 38 18 14 2 -12 11 -23 20 -25z m-109 -73 c-38 -75 -41 -77 -15 -9 13 34 48 96 53 92 1 -2 -16 -39 -38 -83z m-686 54 c2 -7 -6 -37 -19 -66 -21 -47 -21 -53 -7 -50 10 2 23 14 30 28 12 25 13 25 13 3 0 -13 -4 -23 -8 -23 -5 0 -19 -23 -32 -50 -13 -28 -27 -47 -30 -43 -11 12 -20 83 -11 83 5 0 12 8 15 18 3 9 13 28 21 42 8 14 13 35 10 48 -6 23 10 32 18 10z m467 -43 c0 -8 5 -15 12 -15 6 0 9 -3 6 -6 -7 -7 -48 18 -48 28 0 5 7 8 15 8 8 0 15 -7 15 -15z m-271 -74 c0 -14 -1 -14 -6 -1 -3 8 -10 24 -15 35 -9 20 -9 20 6 1 9 -11 16 -27 15 -35z m241 8 c0 -5 -7 -9 -15 -9 -8 0 -15 7 -15 15 0 9 6 12 15 9 8 -4 15 -10 15 -15z m239 -59 c-16 -32 -23 -40 -30 -29 -5 8 -9 24 -9 37 0 17 6 22 25 22 14 0 25 5 25 12 0 6 2 9 5 6 3 -2 -5 -24 -16 -48z"></path><path id="p11ofSrnvF" d="M1670 2175 c0 -19 -4 -35 -10 -35 -5 0 -10 -4 -10 -10 0 -5 7 -10 15 -10 11 0 15 12 15 45 0 25 -2 45 -5 45 -3 0 -5 -16 -5 -35z"></path><path id="pIWMLULWo" d="M1232 2148 c3 -23 48 -40 48 -19 0 6 -7 11 -15 11 -8 0 -15 7 -15 15 0 8 -5 15 -11 15 -6 0 -9 -10 -7 -22z"></path><path id="piDrlByWu" d="M1514 2034 c13 -22 35 -65 46 -97 12 -32 28 -71 36 -85 8 -15 14 -33 14 -39 0 -18 27 -16 33 2 4 8 9 59 13 115 l7 100 -34 1 c-19 1 -26 3 -16 6 28 7 20 19 -15 21 -18 1 -50 5 -71 8 l-39 6 26 -38z"></path><path id="p1BCiLNzLI" d="M1113 1653 c15 -2 39 -2 55 0 15 2 2 4 -28 4 -30 0 -43 -2 -27 -4z"></path><path id="pm4rimsrC" d="M970 1618 c-36 -18 -90 -58 -121 -88 -56 -55 -99 -120 -79 -120 5 0 10 7 10 15 0 8 5 15 10 15 6 0 10 6 10 14 0 15 21 26 51 26 12 0 19 7 19 20 0 13 7 20 20 20 15 0 20 7 20 25 0 22 4 25 35 25 30 0 35 3 35 23 0 19 9 26 53 39 36 11 44 17 27 17 -14 1 -55 -14 -90 -31z"></path><path id="poePcgfCO" d="M1225 1640 c73 -20 82 -21 50 -6 -16 9 -41 15 -55 15 -23 -1 -23 -2 5 -9z"></path><path id="pTURgfEn0" d="M1310 1610 c0 -5 6 -10 13 -10 6 0 26 -12 42 -26 100 -85 117 -108 123 -166 2 -26 8 -48 13 -48 5 0 9 -16 9 -35 0 -27 4 -35 18 -35 18 0 22 27 10 60 -4 8 -9 26 -12 40 -11 51 -83 147 -142 189 -59 42 -74 48 -74 31z"></path><path id="pxQAguFxO" d="M742 1365 c-6 -22 -13 -62 -16 -90 -5 -44 -3 -41 14 25 11 41 18 82 17 90 -2 8 -9 -3 -15 -25z"></path><path id="prelQHMkN" d="M1490 1225 c0 -19 4 -35 9 -35 5 0 12 -24 15 -52 10 -70 25 -45 33 52 l6 70 -32 0 c-29 0 -31 -2 -31 -35z"></path><path id="pdFHkM502" d="M1693 1153 c-15 -5 -18 -24 -4 -20 5 1 16 -7 24 -18 9 -11 18 -17 21 -14 3 3 -3 15 -14 26 -10 12 -16 24 -13 27 7 7 4 7 -14 -1z"></path><path id="pL3KhagGX" d="M470 948 c0 -13 5 -30 10 -38 7 -11 10 -5 10 23 0 20 -4 37 -10 37 -5 0 -10 -10 -10 -22z"></path><path id="pYVTlMUXd" d="M830 965 c0 -7 92 -75 101 -75 5 0 9 11 9 25 0 18 -5 25 -20 25 -11 0 -20 7 -20 15 0 10 -11 15 -35 15 -19 0 -35 -2 -35 -5z"></path><path id="p19wvD1Cl8" d="M1280 874 c0 -14 3 -24 8 -22 73 35 80 48 27 48 -31 0 -35 -3 -35 -26z"></path><path id="p128ymEKfO" d="M970 880 c0 -8 51 -40 65 -40 3 0 5 11 5 25 0 22 -4 25 -35 25 -19 0 -35 -4 -35 -10z"></path></g></g><g id="l2xSsAo4hlK0XnelUMfxHJR" fill="rgb(78,119,92)" style="transform: none;"><g><path id="p14f1sujwT" d="M690 2165 c0 -54 0 -55 30 -55 35 0 40 15 8 24 -18 4 -20 8 -10 18 9 9 19 9 48 -1 30 -11 38 -11 52 2 15 13 19 13 30 1 21 -23 51 -17 58 11 3 14 4 32 0 40 -7 20 -53 19 -64 -1 -8 -15 -10 -15 -15 0 -9 24 -64 21 -72 -4 -6 -18 -47 -30 -44 -12 3 18 -2 32 -11 32 -5 0 -10 -25 -10 -55z m110 18 c0 -20 -3 -24 -11 -16 -7 7 -9 19 -6 27 10 24 17 19 17 -11z m80 -5 c0 -12 -3 -18 -7 -14 -11 10 -12 36 -2 36 5 0 9 -10 9 -22z"></path><path id="pDgEFA0cA" d="M920 2180 c0 -37 22 -61 35 -40 11 18 25 10 25 -15 0 -16 6 -25 16 -25 11 0 15 6 11 19 -3 13 1 21 14 24 10 3 23 16 28 29 10 23 10 22 10 -5 1 -25 4 -28 29 -25 21 2 28 9 30 31 6 47 24 30 21 -20 -2 -30 1 -48 9 -51 8 -2 12 14 12 56 l0 59 -46 2 c-26 0 -52 -4 -59 -9 -9 -7 -15 -7 -19 -1 -4 5 -31 10 -61 10 l-55 0 0 -39z m60 0 c0 -11 -7 -20 -15 -20 -8 0 -15 9 -15 20 0 11 7 20 15 20 8 0 15 -9 15 -20z"></path><path id="p1HgyPC7IP" d="M1177 2213 c-2 -5 -2 -14 -1 -20 1 -7 2 -20 3 -28 2 -31 21 -14 21 20 0 31 -13 47 -23 28z"></path><path id="phOhSv4nx" d="M1229 2203 c-13 -15 -11 -16 19 -10 39 8 42 0 5 -14 -26 -10 -27 -12 -8 -19 11 -4 31 -3 44 2 19 7 27 5 33 -7 12 -20 54 -20 62 1 4 11 0 14 -17 12 -14 -2 -22 2 -22 12 0 10 8 14 24 12 16 -3 22 1 19 10 -7 20 -50 22 -64 4 -10 -15 -12 -15 -18 -1 -7 20 -60 19 -77 -2z"></path><path id="pPckYPe05" d="M1401 2168 c1 -45 2 -49 9 -23 11 44 11 75 0 75 -6 0 -9 -23 -9 -52z"></path><path id="pV7zuktOo" d="M1500 2180 c0 -36 3 -40 25 -40 18 0 26 7 31 25 7 29 -10 55 -37 55 -15 0 -19 -8 -19 -40z m30 0 c0 -11 -4 -20 -10 -20 -5 0 -10 9 -10 20 0 11 5 20 10 20 6 0 10 -9 10 -20z"></path><path id="pArIJPwKn" d="M1576 2189 c-3 -17 -3 -35 0 -40 9 -16 53 -10 63 9 9 14 10 13 11 -10 0 -18 5 -28 15 -28 11 0 15 12 15 50 0 38 -4 50 -15 50 -8 0 -15 -8 -15 -17 -1 -17 -1 -17 -11 0 -5 9 -20 17 -33 17 -18 0 -25 -7 -30 -31z m39 -19 c-5 -8 -11 -8 -17 -2 -6 6 -7 16 -3 22 5 8 11 8 17 2 6 -6 7 -16 3 -22z"></path><path id="p2yLSHs0i" d="M1273 2143 c-20 -7 -15 -23 6 -23 10 0 21 7 25 15 5 15 -7 18 -31 8z"></path><path id="pdqkbo7vU" d="M911 2090 c0 -8 4 -24 9 -35 5 -13 9 -14 9 -5 0 8 -4 24 -9 35 -5 13 -9 14 -9 5z"></path><path id="pzZ4eDnAJ" d="M1350 2041 c0 -10 -15 -11 -57 -7 -40 4 -65 2 -82 -7 -19 -12 -30 -11 -66 2 -37 13 -47 13 -68 2 -29 -16 -56 -64 -30 -54 13 5 15 -1 11 -35 -2 -30 1 -43 11 -47 11 -4 12 -8 3 -17 -19 -19 -14 -56 9 -79 14 -14 18 -24 10 -28 -15 -10 -7 -86 10 -86 9 0 13 13 12 38 0 27 4 40 16 44 43 13 59 27 63 55 4 22 -1 34 -20 49 -24 19 -24 20 -7 39 25 28 32 25 29 -12 -2 -18 -1 -25 2 -15 7 21 24 23 24 1 0 -20 35 -14 36 6 0 8 -6 30 -13 49 -15 39 -5 58 34 65 19 4 22 -1 25 -47 2 -29 -2 -74 -9 -102 -15 -61 -16 -75 -3 -75 6 0 10 7 10 15 0 21 20 19 21 -2 1 -10 1 -48 1 -85 0 -50 3 -68 13 -68 8 0 15 10 17 23 2 14 11 23 26 25 17 3 30 20 54 70 50 109 50 112 28 112 -11 0 -20 5 -20 10 0 6 4 10 9 10 5 0 12 10 14 23 4 19 4 18 6 -5 1 -32 9 -35 25 -12 10 14 15 10 30 -25 l19 -40 -44 -58 c-49 -65 -58 -77 -78 -99 -13 -14 -11 -15 10 -12 14 2 30 15 39 33 8 16 20 35 27 43 7 7 20 26 30 42 19 33 33 39 33 15 0 -11 12 -15 45 -15 l45 0 -1 58 c-2 69 -13 124 -22 102 -6 -15 -15 -85 -17 -125 0 -11 -17 16 -36 60 -41 93 -51 106 -64 85 -5 -8 -12 -12 -15 -9 -7 8 5 39 15 39 5 0 6 9 3 20 -12 47 -39 20 -95 -97 l-57 -118 0 47 c-1 26 -5 57 -10 70 -5 13 -5 47 0 78 5 29 6 56 4 59 -3 2 -5 -1 -5 -8z m-197 -48 c9 -9 -44 -64 -55 -57 -13 8 -9 31 8 48 16 17 36 21 47 9z m-5 -161 c2 -15 -2 -22 -12 -22 -11 0 -16 9 -16 26 0 31 23 28 28 -4z m232 -79 c0 -5 -5 -15 -10 -23 -8 -12 -10 -11 -10 8 0 12 5 22 10 22 6 0 10 -3 10 -7z"></path><path id="p16YI5tI3y" d="M2269 2018 c4 -28 6 -29 9 -9 2 13 0 27 -5 32 -6 6 -7 -3 -4 -23z"></path><path id="pVePmg2Rt" d="M594 2027 c-3 -8 -1 -25 5 -38 5 -14 7 -37 4 -52 -3 -14 -1 -39 4 -54 5 -15 6 -43 3 -62 l-5 -33 -27 27 c-16 15 -28 24 -28 18 0 -5 17 -25 38 -45 54 -51 65 -40 66 59 1 58 4 77 12 69 6 -6 13 -18 17 -26 4 -13 6 -12 6 1 1 9 -8 24 -18 33 -10 9 -22 37 -25 61 -4 25 -13 46 -22 49 -22 8 -24 8 -30 -7z"></path><path id="pr92RwjBQ" d="M934 2031 c-5 -3 -10 -30 -12 -58 -2 -48 0 -53 18 -53 18 0 20 -6 18 -52 -1 -44 -2 -46 -5 -15 -3 23 -9 37 -18 37 -8 0 -17 -15 -20 -37 -4 -21 -7 -41 -8 -45 -1 -4 -25 43 -52 105 -33 71 -57 113 -68 115 -10 2 -17 -3 -17 -12 0 -9 -7 -25 -17 -35 -9 -11 -26 -44 -39 -73 -18 -43 -20 -54 -8 -56 16 -4 20 -42 4 -42 -5 0 -10 -9 -10 -20 0 -11 -4 -20 -10 -20 -5 0 -12 -11 -16 -25 -3 -14 -10 -25 -15 -25 -5 0 -9 -7 -9 -15 0 -8 7 -15 16 -15 17 0 141 -127 137 -141 -2 -5 4 -6 12 -3 27 11 16 30 -50 93 l-65 61 23 47 24 46 54 -82 c30 -45 54 -87 54 -94 0 -11 8 -13 34 -8 4 0 6 12 4 26 -3 13 -9 23 -13 22 -5 -1 -34 32 -65 73 -40 53 -55 82 -52 98 3 15 -1 22 -10 22 -10 0 -13 6 -9 16 3 9 6 19 6 22 0 4 5 0 10 -8 9 -13 13 -12 28 8 l19 24 17 -47 c10 -25 24 -49 32 -52 8 -3 14 -16 14 -29 0 -21 5 -24 34 -24 30 0 35 4 39 28 4 25 4 25 6 -5 1 -36 26 -46 34 -15 4 16 5 16 6 0 0 -10 8 -18 15 -18 13 0 13 7 0 51 -10 32 -13 66 -9 90 6 35 5 39 -14 39 -18 0 -21 6 -20 38 1 20 3 29 6 20 7 -27 30 -22 37 8 4 15 6 28 4 29 -7 7 -66 12 -74 6z"></path><path id="pq7rDf7BE" d="M1663 2032 c-25 -2 -33 -8 -33 -23 0 -12 7 -19 20 -19 11 0 20 -4 20 -10 0 -22 28 -8 34 16 9 33 0 40 -41 36z"></path><path id="pLJLioZYM" d="M1660 1895 c0 -25 3 -45 8 -45 4 0 6 -19 4 -42 -3 -28 -1 -40 6 -33 5 6 13 45 16 88 6 73 6 77 -14 77 -17 0 -20 -6 -20 -45z"></path><path id="p1B9xU4irg" d="M1595 1721 c4 -7 -5 -21 -19 -32 -15 -11 -23 -25 -20 -31 4 -5 15 -1 28 11 12 12 28 21 35 21 19 0 8 34 -13 38 -12 3 -16 0 -11 -7z"></path><path id="p1AiInDqlI" d="M1640 1710 c0 -13 7 -20 20 -20 13 0 20 7 20 20 0 13 -7 20 -20 20 -13 0 -20 -7 -20 -20z"></path><path id="pC33CKMCF" d="M471 1712 c-1 -7 7 -16 17 -19 9 -4 19 -9 22 -13 9 -10 134 -105 172 -130 20 -13 35 -27 33 -31 -2 -3 3 -6 11 -6 25 0 11 30 -21 47 -17 8 -33 19 -36 23 -11 15 -164 117 -176 117 -6 0 -14 6 -16 13 -4 9 -6 9 -6 -1z"></path><path id="p2YpxizzN" d="M890 1715 c0 -2 10 -13 21 -24 13 -12 19 -26 16 -35 -4 -11 -1 -16 12 -16 10 0 21 9 24 20 3 11 1 17 -4 14 -6 -3 -7 5 -3 20 6 24 4 26 -30 26 -20 0 -36 -2 -36 -5z"></path><path id="pMcLW1JpJ" d="M1735 1669 c-75 -55 -210 -142 -227 -146 -16 -5 -14 -33 2 -33 7 0 140 94 180 127 8 7 37 28 65 48 27 19 43 35 35 34 -8 0 -33 -14 -55 -30z"></path><path id="p13lOuJogT" d="M1053 1650 c-61 -13 -159 -73 -217 -133 l-50 -52 47 -3 c44 -3 51 0 99 42 51 44 67 48 96 19 7 -7 19 -13 26 -13 12 0 12 -18 0 -97 -4 -24 -10 -33 -24 -33 -16 0 -20 -7 -20 -35 l0 -36 45 2 c25 2 51 -3 57 -9 7 -7 22 -12 34 -12 13 0 29 -7 38 -15 21 -22 69 -18 99 8 53 45 87 68 87 59 0 -5 15 -13 33 -18 32 -10 32 -10 38 -84 5 -76 15 -106 43 -130 9 -7 16 -23 16 -36 0 -19 -5 -24 -25 -24 -18 0 -25 -5 -25 -20 0 -11 -7 -20 -15 -20 -9 0 -15 -9 -15 -24 0 -19 -6 -25 -30 -28 -34 -5 -36 -1 -15 38 8 16 15 44 15 62 0 28 -3 32 -25 32 -16 0 -25 6 -25 15 0 8 -7 15 -15 15 -8 0 -15 4 -15 9 0 17 -88 24 -120 11 -17 -7 -30 -16 -30 -20 0 -4 -11 -11 -25 -14 -14 -4 -25 -11 -25 -16 0 -6 -6 -10 -14 -10 -17 0 -32 -76 -22 -115 5 -21 12 -25 41 -25 35 0 35 0 35 45 l0 45 59 0 c58 0 58 0 53 -27 -3 -16 -7 -22 -9 -15 -3 7 -21 12 -44 12 l-39 0 0 -60 0 -60 59 0 c37 0 61 -5 63 -12 7 -19 113 48 157 99 91 107 119 230 87 376 -17 76 -29 90 -54 65 -15 -15 -80 -12 -96 5 -7 7 -21 34 -31 60 -10 26 -22 50 -26 53 -12 7 -11 44 1 44 6 0 10 -4 10 -10 0 -5 9 -10 20 -10 11 0 20 -6 20 -12 0 -20 46 -58 69 -58 12 0 21 -4 21 -10 0 -5 5 -10 11 -10 5 0 2 14 -8 31 -25 45 -116 113 -181 138 -63 24 -177 34 -239 21z m156 -36 c36 -7 41 -31 9 -38 -53 -11 -108 -13 -108 -5 0 5 -11 11 -25 15 -25 6 -31 15 -18 27 8 9 100 9 142 1z"></path><path id="p1HavBFVsD" d="M1387 1634 c-8 -8 3 -34 14 -34 4 0 13 9 19 20 9 17 8 20 -8 20 -10 0 -21 -3 -25 -6z"></path><path id="p17PLr1IJz" d="M1487 1608 c-20 -19 -37 -39 -37 -45 0 -12 30 -27 38 -18 3 3 -1 5 -8 5 -8 0 0 15 19 34 45 46 35 66 -12 24z"></path><path id="pN2AVNkMR" d="M395 1592 c6 -5 62 -36 125 -68 63 -32 117 -62 118 -66 2 -5 8 -6 13 -2 5 3 23 -5 40 -17 24 -17 33 -19 42 -9 9 10 9 14 -1 17 -6 3 -9 10 -5 16 4 7 0 8 -12 4 -9 -4 -23 -3 -29 2 -6 5 -51 26 -101 46 -49 21 -102 43 -116 51 -40 20 -85 36 -74 26z"></path><path id="pP55JJd9f" d="M1835 1575 c-16 -7 -56 -25 -87 -39 -32 -14 -58 -30 -58 -35 0 -6 15 -4 33 4 87 37 173 85 152 85 -6 0 -23 -7 -40 -15z"></path><path id="pxSJiBU7s" d="M1635 1486 c-83 -35 -95 -41 -95 -52 0 -7 7 -15 16 -18 22 -9 31 -7 16 2 -8 6 7 17 48 35 33 14 60 30 60 36 0 13 -7 13 -45 -3z"></path><path id="p1DLJTjk6a" d="M320 1467 c0 -5 93 -35 264 -86 81 -25 76 -24 76 -7 0 10 -46 25 -152 51 -84 20 -161 38 -170 41 -10 3 -18 3 -18 1z"></path><path id="pHWmkd9mU" d="M1915 1455 c-5 -2 -66 -16 -135 -31 -69 -15 -129 -31 -134 -35 -25 -22 13 -20 101 6 135 38 211 64 193 63 -8 0 -19 -1 -25 -3z"></path><path id="p10xxPaNo4" d="M751 1392 c-17 -32 -32 -140 -26 -192 17 -149 101 -259 255 -335 85 -42 280 -49 280 -10 0 11 -12 15 -40 15 -29 0 -40 -4 -40 -15 0 -11 -11 -15 -40 -15 -29 0 -40 4 -40 15 0 8 -7 15 -15 15 -8 0 -15 7 -15 15 0 9 -9 15 -23 15 -26 0 -77 21 -77 33 0 4 -9 7 -20 7 -11 0 -20 4 -20 9 0 5 -16 15 -35 22 -33 12 -47 29 -25 29 6 0 10 11 10 25 0 16 7 28 18 31 76 25 72 19 72 109 0 114 -7 144 -36 151 -13 3 -24 10 -24 14 0 14 -60 32 -95 28 -33 -4 -35 -2 -35 24 0 32 -15 37 -29 10z m99 -172 c0 -27 -4 -50 -10 -50 -5 0 -10 23 -10 50 0 28 5 50 10 50 6 0 10 -22 10 -50z"></path><path id="p9JVqwzaS" d="M1577 1375 c-12 -9 -13 -14 -2 -28 12 -17 31 -24 21 -8 -3 5 3 11 14 14 11 3 20 11 20 19 0 16 -33 18 -53 3z"></path><path id="px0sFkSbv" d="M670 1365 c0 -11 7 -15 23 -13 12 2 22 8 22 13 0 6 -10 11 -22 13 -16 2 -23 -2 -23 -13z"></path><path id="pJu2x99Kd" d="M330 1309 c25 -4 59 -8 75 -8 26 0 27 2 10 9 -11 5 -45 8 -75 8 l-55 -1 45 -8z"></path><path id="pQGXzTrrQ" d="M552 1298 c5 -15 68 -24 68 -10 0 10 -32 22 -58 22 -8 0 -12 -6 -10 -12z"></path><path id="pov7y9rw9" d="M1583 1292 c-3 -7 -3 -16 1 -19 3 -3 86 3 183 15 l178 21 -179 -2 c-135 -2 -180 -5 -183 -15z"></path><path id="p10BYeuctL" d="M660 1285 c0 -8 9 -15 20 -15 11 0 20 7 20 15 0 8 -9 15 -20 15 -11 0 -20 -7 -20 -15z"></path><path id="pnoGEuuz4" d="M573 1154 c3 -3 -7 -20 -22 -37 -16 -18 -40 -45 -53 -61 l-25 -29 -28 39 c-42 57 -42 57 -49 39 -3 -9 -2 -14 2 -12 4 3 19 -15 34 -39 l28 -45 -28 -10 c-15 -6 -40 -17 -56 -24 -16 -8 -34 -12 -40 -9 -6 3 -2 -2 8 -10 13 -10 37 -15 65 -14 l46 1 -50 6 -50 6 44 13 c23 7 49 16 56 18 9 4 14 -12 19 -53 10 -90 28 -103 20 -14 l-7 74 24 -6 c13 -4 41 -10 62 -13 20 -4 40 -11 43 -15 7 -12 64 -11 64 0 0 6 -5 13 -12 17 -7 5 -8 3 -3 -6 6 -10 3 -12 -11 -7 -10 3 -47 14 -81 24 -34 10 -65 21 -68 25 -11 11 76 129 89 121 6 -4 5 1 -3 10 -7 9 -16 17 -19 17 -3 0 -3 -3 1 -6z"></path><path id="p11Zk2CFzB" d="M1693 1153 c-7 -2 -13 -9 -13 -14 0 -6 4 -8 8 -5 5 3 30 -24 55 -59 l46 -64 -42 -11 c-23 -6 -60 -17 -82 -25 -22 -7 -49 -16 -60 -18 -13 -3 -8 -5 12 -6 17 0 34 3 37 8 3 4 25 11 48 14 24 4 54 10 67 13 l23 7 -6 -74 c-9 -89 10 -77 20 14 4 31 7 57 9 57 10 0 102 -35 110 -41 5 -5 18 -9 30 -8 18 0 18 1 -3 10 -13 5 -21 12 -19 16 3 5 -5 9 -16 10 -12 0 -39 8 -59 17 l-37 16 27 44 c15 24 30 42 34 39 4 -2 5 3 2 11 -3 9 -1 16 6 16 6 0 8 5 5 10 -6 9 -66 -63 -79 -95 -3 -5 -29 17 -59 50 -30 33 -53 63 -50 68 5 8 4 8 -14 0z"></path><path id="p151Z3dzdj" d="M1848 943 c12 -2 30 -2 40 0 9 3 -1 5 -23 4 -22 0 -30 -2 -17 -4z"></path><path id="p18xVVVP6d" d="M1540 815 c-2 -5 -4 -37 -4 -70 -1 -51 -4 -60 -19 -57 -22 4 -22 -14 0 -22 14 -6 12 -11 -13 -39 -16 -18 -38 -43 -49 -56 l-20 -25 32 22 c18 13 42 35 54 50 l21 27 44 -49 c24 -27 40 -54 37 -59 -3 -6 -1 -7 5 -3 5 3 13 0 15 -6 3 -8 6 -6 6 5 1 9 -3 17 -8 17 -9 0 -71 94 -71 108 0 12 68 34 81 26 7 -4 9 -3 6 3 -4 6 0 13 8 17 8 3 15 10 15 16 0 5 -25 -2 -57 -15 -31 -14 -57 -24 -58 -23 -1 2 -7 35 -12 73 -6 39 -12 66 -13 60z"></path><path id="pJHnbnWBr" d="M726 748 c-4 -38 -9 -68 -12 -68 -2 0 -28 11 -59 24 -30 14 -55 21 -55 17 0 -5 25 -19 55 -32 30 -13 55 -29 55 -34 0 -16 -67 -105 -74 -98 -3 3 -6 -4 -6 -16 0 -13 5 -21 11 -19 6 2 11 8 11 13 0 6 16 30 36 55 20 25 37 47 39 49 7 9 62 -52 56 -62 -3 -6 -1 -7 6 -3 13 9 43 -18 33 -29 -4 -5 -2 -5 5 -2 6 4 13 2 15 -5 3 -7 7 -5 11 6 4 9 3 15 -2 12 -5 -3 -30 19 -56 49 l-46 55 57 25 c32 14 66 27 76 28 30 5 31 15 1 13 -15 -2 -52 -13 -81 -24 -29 -12 -55 -22 -58 -22 -3 0 -3 18 0 39 3 22 1 52 -3 68 -7 23 -9 17 -15 -39z"></path><path id="pzbRPy2n2" d="M779 768 c7 -19 16 -23 55 -24 l46 -1 -45 4 c-30 3 -45 9 -45 18 0 8 -4 17 -10 20 -6 4 -7 -2 -1 -17z"></path><path id="pbh6iI9cM" d="M1465 750 l-30 -8 27 -1 c15 0 30 4 33 9 3 6 5 9 3 9 -2 -1 -16 -5 -33 -9z"></path><path id="p17jBr9djd" d="M623 743 c15 -2 39 -2 55 0 15 2 2 4 -28 4 -30 0 -43 -2 -27 -4z"></path><path id="pODXDXtxP" d="M1593 743 c9 -2 25 -2 35 0 9 3 1 5 -18 5 -19 0 -27 -2 -17 -5z"></path><path id="p7Df0NaUT" d="M1376 718 c3 -5 10 -6 15 -2 5 3 15 1 22 -4 19 -14 77 -32 77 -23 0 10 -78 39 -102 38 -9 0 -15 -4 -12 -9z"></path><path id="p13AlqdCJy" d="M1225 692 c4 -8 -1 -22 -12 -35 -11 -12 -30 -39 -42 -59 -13 -21 -26 -38 -31 -38 -4 0 -22 22 -40 49 -39 62 -56 77 -66 59 -4 -7 -4 -10 1 -6 4 4 25 -21 45 -55 39 -63 38 -76 -5 -77 -11 -1 -33 -7 -50 -15 -30 -15 -29 -15 20 -9 28 3 58 7 67 10 15 4 17 -4 20 -57 2 -34 8 -64 13 -66 6 -2 9 22 7 63 -4 62 -2 66 15 60 20 -8 134 -19 118 -12 -5 3 -36 12 -68 21 l-58 17 20 31 c54 89 62 110 50 121 -9 8 -10 8 -4 -2z"></path><path id="pKi5794UG" d="M714 185 c0 -99 2 -138 3 -87 2 51 2 132 0 180 -1 48 -3 6 -3 -93z"></path></g></g><g id="l2b2w2UNUarsD0zvSEIvdpI" fill="rgb(92,140,113)" style="transform: none;"><g><path id="peBrunpAx" d="M878 2203 c7 -12 7 -24 1 -34 -7 -11 -10 -10 -15 9 -8 27 -24 29 -24 2 0 -27 32 -43 55 -27 22 17 16 61 -8 65 -16 3 -17 1 -9 -15z"></path><path id="p1Cr2i4oIJ" d="M924 2195 c-3 -14 -4 -32 0 -40 6 -17 32 -20 41 -5 3 6 1 10 -4 10 -6 0 -11 9 -11 20 0 11 5 20 11 20 5 0 7 5 4 10 -11 19 -35 10 -41 -15z"></path><path id="pqRjbb96i" d="M980 2165 c0 -30 5 -55 10 -55 6 0 10 9 10 20 0 14 6 20 17 18 9 -2 22 7 28 19 11 20 14 21 31 8 19 -14 19 -14 -1 -15 -18 -1 -18 -2 -3 -10 28 -17 48 -1 48 36 0 31 -3 34 -29 34 -16 0 -31 -6 -34 -12 -4 -10 -7 -10 -18 0 -7 6 -23 12 -36 12 -21 0 -23 -4 -23 -55z m44 14 c-10 -16 -24 -9 -24 12 0 18 2 19 15 9 8 -7 12 -16 9 -21z"></path><path id="p2iyQr2A3" d="M807 2178 c-5 -18 -8 -19 -22 -8 -21 18 -33 4 -13 -16 20 -20 58 -3 58 26 0 27 -16 25 -23 -2z"></path><path id="pPrMKkrG5" d="M1143 2155 c0 -22 2 -30 4 -17 2 12 2 30 0 40 -3 9 -5 -1 -4 -23z"></path><path id="pDhwZdr99" d="M690 2130 c0 -16 7 -20 30 -20 17 0 30 5 30 10 0 6 -9 10 -20 10 -11 0 -20 5 -20 10 0 6 -4 10 -10 10 -5 0 -10 -9 -10 -20z"></path><path id="pkSWp3JhW" d="M0 2020 c0 -16 2 -30 4 -30 2 0 6 14 8 30 3 17 1 30 -4 30 -4 0 -8 -13 -8 -30z"></path><path id="pMgOn9ry7" d="M1228 2033 c-13 -3 -18 -15 -18 -39 0 -19 5 -34 11 -34 5 0 8 4 4 10 -3 5 9 17 27 26 44 22 45 24 28 34 -16 10 -24 11 -52 3z"></path><path id="puxGujmvF" d="M766 2014 c-9 -23 -8 -24 20 -24 20 0 25 4 20 16 -3 9 -6 18 -6 20 0 12 -29 2 -34 -12z"></path><path id="p1B2WhjtNA" d="M970 2010 c0 -11 6 -20 14 -20 7 0 16 9 19 20 4 15 0 20 -14 20 -12 0 -19 -7 -19 -20z"></path><path id="peu85Q3V4" d="M1304 1961 c3 -39 2 -80 -3 -93 -5 -13 -17 -50 -27 -83 -9 -33 -23 -67 -31 -76 -11 -14 -11 -18 1 -29 25 -20 39 -6 42 41 3 46 21 106 29 97 3 -3 7 -42 8 -88 2 -53 8 -85 15 -88 7 -2 12 7 12 22 0 21 5 26 23 26 21 0 32 16 79 117 l55 118 18 -48 18 -47 -26 -38 c-15 -20 -38 -49 -52 -64 -14 -16 -23 -28 -19 -28 4 0 -3 -8 -14 -19 -12 -10 -22 -23 -22 -29 0 -5 -7 -13 -16 -16 -14 -5 -14 -9 -3 -22 12 -14 14 -14 25 0 6 9 17 16 23 16 7 0 10 4 7 9 -3 5 16 42 43 82 26 41 50 81 53 89 3 8 16 -10 32 -45 25 -55 26 -60 10 -72 -9 -7 -43 -38 -76 -69 -47 -45 -56 -59 -47 -70 6 -8 17 -14 23 -14 8 0 7 3 -1 8 -8 5 10 29 53 74 54 55 71 67 102 70 30 2 38 7 40 27 3 20 0 23 -20 19 -21 -4 -27 2 -42 39 -10 24 -22 43 -27 43 -5 0 -9 11 -9 24 0 14 -6 31 -14 38 -8 8 -15 23 -18 34 -2 14 -13 20 -42 22 -44 4 -56 -7 -56 -55 0 -21 -5 -33 -13 -33 -7 0 -26 -27 -42 -60 -16 -33 -30 -58 -32 -56 -3 2 -6 42 -9 87 -4 79 -9 151 -13 192 0 10 -9 17 -22 17 -21 0 -22 -3 -15 -69z"></path><path id="pNU4WddvQ" d="M1670 2010 c0 -11 6 -20 14 -20 7 0 16 9 19 20 4 15 0 20 -14 20 -12 0 -19 -7 -19 -20z"></path><path id="prs6chQe9" d="M1040 1989 c-15 -27 -6 -63 22 -88 17 -17 19 -23 9 -35 -10 -12 -10 -23 -2 -49 7 -19 13 -55 14 -81 1 -33 6 -46 17 -46 11 0 15 11 15 37 0 32 4 38 29 44 l28 8 -5 -45 c-4 -40 -3 -44 17 -44 20 0 21 4 18 80 -3 72 -6 82 -28 96 -29 20 -30 28 -4 54 27 27 30 25 23 -14 -3 -21 -1 -36 7 -41 9 -5 11 -4 6 4 -6 8 0 10 18 5 22 -5 26 -3 26 15 0 12 -4 21 -10 21 -5 0 -10 9 -10 20 0 15 -9 22 -30 27 -18 3 -30 12 -30 22 -1 11 -10 5 -30 -18 -21 -25 -26 -37 -18 -42 7 -5 10 -11 6 -14 -13 -13 -58 46 -58 75 0 35 -14 39 -30 9z m110 -144 c10 -12 10 -18 0 -31 -11 -13 -15 -13 -27 -1 -13 13 -8 47 7 47 4 0 13 -7 20 -15z"></path><path id="p1EoFufU9p" d="M606 1974 c-8 -32 2 -84 16 -84 6 0 6 -6 -2 -15 -8 -9 -10 -28 -6 -50 5 -23 3 -35 -4 -35 -6 0 -8 -5 -4 -12 4 -7 10 -28 14 -48 4 -30 10 -35 35 -38 21 -3 48 -22 92 -69 35 -36 60 -70 56 -77 -3 -6 3 -3 13 7 18 17 17 19 -51 82 l-69 64 23 46 c12 25 25 45 29 45 10 -1 111 -162 112 -178 0 -4 6 -7 13 -7 6 0 13 14 15 30 2 21 0 26 -7 16 -7 -11 -10 -10 -15 5 -3 11 -18 33 -33 49 -16 17 -40 48 -54 70 l-26 40 25 54 24 53 50 -116 c32 -74 56 -116 65 -116 11 0 14 -7 11 -25 -6 -31 16 -34 33 -4 8 15 8 19 0 15 -6 -4 -11 -3 -11 3 0 5 5 11 11 13 6 2 14 26 17 53 5 47 6 48 14 20 4 -16 5 -38 2 -47 -3 -10 0 -18 7 -18 8 0 8 -4 1 -13 -8 -10 -6 -13 8 -14 10 -1 25 6 32 15 9 11 10 14 1 8 -8 -4 -13 -2 -13 6 0 7 -10 43 -21 80 -20 63 -41 85 -52 56 -3 -7 -6 -3 -6 10 -2 40 -30 25 -37 -19 l-7 -42 -15 37 c-8 20 -20 36 -28 36 -9 0 -14 12 -14 35 0 32 -3 35 -27 35 -55 0 -71 -11 -92 -60 -12 -27 -21 -56 -21 -64 0 -9 -4 -16 -10 -16 -5 0 -10 12 -10 28 l-1 27 -13 -24 c-13 -23 -13 -23 -19 15 -4 22 -7 57 -7 79 0 54 -10 85 -25 85 -7 0 -16 -12 -19 -26z m340 -190 c-3 -9 -6 -25 -6 -37 -1 -21 -1 -21 -14 2 -10 18 -11 28 -2 37 16 18 29 17 22 -2z m-256 -29 c0 -15 -6 -25 -14 -25 -7 0 -16 11 -18 25 -4 19 -1 25 13 25 14 0 19 -7 19 -25z"></path><path id="pK7ju7Hz1" d="M927 1958 c-11 -38 -8 -48 13 -48 13 0 20 -7 20 -20 0 -27 26 -25 34 3 10 37 7 77 -6 77 -7 0 -23 3 -34 6 -16 4 -23 0 -27 -18z"></path><path id="p15oFQfge1" d="M1626 1948 c-3 -13 -6 -40 -6 -60 0 -29 3 -36 15 -32 12 5 15 -4 15 -45 0 -37 4 -51 14 -51 17 0 26 22 26 66 0 24 -5 34 -15 34 -8 0 -15 5 -15 10 0 6 6 10 14 10 14 0 26 29 26 68 0 18 -5 22 -34 22 -26 0 -35 -5 -40 -22z"></path><path id="pxegIAc0p" d="M707 1886 c-4 -10 -5 -21 -2 -24 9 -9 17 6 13 25 -3 17 -4 17 -11 -1z"></path><path id="pKCXLM1z8" d="M582 1628 c29 -23 55 -44 58 -48 3 -3 22 -16 43 -29 22 -13 34 -27 30 -34 -3 -7 -2 -9 2 -4 5 4 19 0 31 -8 29 -19 41 -3 20 27 -9 12 -16 17 -16 11 0 -6 -33 11 -72 38 -104 72 -132 89 -141 89 -5 0 15 -19 45 -42z"></path><path id="plo2ltmf5" d="M1620 1589 c-41 -28 -88 -57 -103 -64 -23 -9 -26 -14 -14 -23 11 -9 29 0 88 43 141 104 160 132 29 44z"></path><path id="p1AnUDuMs8" d="M1000 1571 c0 -40 1 -41 35 -41 30 0 35 -3 35 -22 0 -13 3 -33 6 -45 5 -17 2 -23 -10 -23 -11 0 -16 -9 -16 -30 0 -25 -4 -30 -25 -30 -14 0 -25 -4 -25 -10 0 -5 -7 -10 -15 -10 -8 0 -20 -8 -26 -19 -24 -37 -89 4 -89 56 0 31 -2 33 -35 33 -32 0 -35 -3 -35 -28 0 -16 -9 -39 -20 -52 -11 -13 -20 -30 -20 -38 0 -8 -8 -20 -17 -27 -11 -8 -16 -25 -15 -51 2 -59 13 -115 21 -109 5 2 14 -8 22 -23 8 -15 18 -30 24 -34 6 -5 4 -12 -5 -18 -12 -7 -12 -12 -2 -22 7 -7 12 -8 12 -1 0 6 23 13 52 15 30 3 56 12 63 21 9 13 14 13 35 1 14 -7 40 -13 58 -14 30 0 32 2 32 33 0 25 -6 36 -30 49 -25 14 -30 23 -30 55 0 21 -3 48 -6 61 -5 17 -2 22 14 22 29 0 82 32 83 50 0 11 2 11 6 2 6 -14 75 -52 97 -52 18 0 26 -22 26 -75 0 -41 -3 -45 -40 -66 -22 -13 -40 -26 -40 -31 0 -4 -7 -8 -15 -8 -8 0 -15 -4 -15 -10 0 -5 -7 -10 -15 -10 -17 0 -20 -43 -6 -101 8 -33 6 -38 -16 -48 -17 -8 -34 -8 -63 1 -22 7 -40 16 -40 20 0 5 -9 8 -20 8 -11 0 -20 7 -20 15 0 11 -11 15 -40 15 -49 0 -51 -15 -5 -37 19 -9 35 -20 35 -25 0 -4 9 -8 21 -8 11 0 17 -4 14 -10 -3 -5 1 -10 10 -10 8 0 33 -11 55 -25 22 -14 59 -27 83 -29 23 -2 31 -1 17 1 -22 5 -19 7 20 19 60 18 100 18 100 -1 0 -16 12 -18 48 -9 12 4 22 13 22 20 0 14 1 15 35 19 32 3 73 27 56 33 -7 2 -17 -2 -22 -9 -12 -20 -12 6 0 29 6 9 17 38 27 65 9 26 22 47 29 47 6 0 21 10 32 23 23 25 61 57 68 57 3 0 6 -10 6 -22 1 -18 2 -19 6 -5 2 9 -7 31 -21 48 -14 17 -26 38 -27 47 -1 9 -2 24 -3 32 -2 8 -4 38 -6 65 -3 40 -4 43 -7 18 -2 -18 -9 -33 -15 -33 -6 0 -9 -20 -6 -50 1 -28 0 -50 -4 -50 -4 0 -22 -14 -40 -31 -28 -25 -38 -29 -67 -24 -47 9 -59 25 -61 81 -3 70 -3 70 25 82 16 8 25 20 25 35 0 23 3 24 50 19 31 -3 50 -1 50 6 0 6 -6 13 -12 15 -10 4 -10 6 0 6 18 1 15 41 -4 41 -22 0 -44 25 -44 49 0 12 -6 21 -15 21 -10 0 -15 10 -15 30 0 17 -4 30 -10 30 -5 0 -10 9 -10 20 0 16 -7 20 -35 20 -28 0 -35 -4 -35 -20 0 -24 4 -25 26 -3 13 13 16 14 12 3 -2 -8 10 -44 29 -80 18 -36 33 -72 33 -82 0 -20 -63 -75 -68 -59 -2 6 -15 11 -29 11 -19 0 -24 4 -19 16 4 12 2 15 -9 10 -8 -3 -15 -2 -15 3 0 5 -18 11 -40 15 -22 3 -40 11 -40 16 0 5 -7 7 -15 4 -20 -8 -20 34 -1 80 11 26 21 35 50 40 23 5 36 12 36 23 0 13 -9 15 -54 9 -51 -6 -55 -5 -58 16 -2 19 -10 24 -40 26 l-38 3 0 -40z m107 -201 c1 -16 -1 -17 -12 -7 -7 6 -11 15 -8 20 8 13 19 7 20 -13z m99 -53 c-2 -7 -5 -4 -5 6 -1 9 -6 17 -12 17 -5 0 -7 5 -3 11 9 15 28 -16 20 -34z m-50 18 c10 -8 15 -14 9 -14 -5 0 -19 6 -29 14 -11 8 -15 15 -10 15 6 0 19 -7 30 -15z m-312 -11 c9 -3 16 -11 16 -17 0 -7 -4 -7 -12 1 -15 15 -31 16 -22 0 4 -7 3 -8 -5 -4 -6 4 -9 12 -6 17 7 11 9 11 29 3z m86 -53 c-1 -15 -20 -35 -27 -27 -4 5 -2 11 5 13 10 4 10 8 1 19 -10 12 -9 13 5 8 9 -3 16 -9 16 -13z m-137 -10 c2 -10 1 -24 -3 -30 -4 -7 -7 1 -8 18 -1 35 3 40 11 12z m1 -85 c-3 -15 -8 -25 -11 -23 -2 3 -1 17 3 31 3 15 8 25 11 23 2 -3 1 -17 -3 -31z m146 -35 c0 -22 -6 -32 -22 -37 -42 -14 -54 -14 -34 2 11 8 24 14 29 14 5 0 6 7 3 16 -3 8 -2 12 4 9 6 -3 10 1 10 9 0 9 2 16 5 16 3 0 5 -13 5 -29z m-89 -35 c-9 -11 -9 -15 1 -19 9 -4 7 -6 -4 -6 -9 -1 -20 4 -23 9 -3 6 -2 10 4 10 5 0 13 10 17 23 4 13 9 17 12 9 2 -7 -1 -19 -7 -26z m389 -4 c-8 -3 -23 -15 -33 -26 -18 -21 -18 -21 -5 4 16 31 29 41 42 33 6 -4 4 -9 -4 -11z m40 -7 c0 -9 6 -12 18 -9 14 5 15 4 2 -5 -21 -15 -27 -14 -33 9 -3 11 -1 20 4 20 5 0 9 -7 9 -15z m31 -99 c-6 -8 -8 -22 -5 -32 5 -15 4 -16 -5 -8 -10 9 -10 21 1 55 10 34 14 39 16 21 2 -13 -1 -29 -7 -36z m-23 -72 c-4 -3 -26 -7 -50 -10 l-43 -4 43 11 c28 7 40 14 36 22 -5 9 -3 8 6 0 8 -7 11 -15 8 -19z"></path><path id="pucMauDAk" d="M1350 1571 c0 -28 3 -31 33 -31 18 0 38 -5 45 -12 7 -7 12 -27 12 -45 0 -30 3 -33 31 -33 l30 0 -19 28 c-25 35 -69 79 -104 104 l-28 19 0 -30z"></path><path id="pwCVtLKe9" d="M898 1530 c-25 -21 -48 -37 -51 -34 -9 10 -45 -6 -51 -22 -3 -8 -2 -12 3 -9 5 3 12 1 16 -5 3 -5 21 -10 40 -10 29 0 34 4 37 28 2 21 9 28 31 30 23 3 27 8 27 33 0 16 -2 29 -4 29 -2 0 -23 -18 -48 -40z"></path><path id="p17RztBTJN" d="M1727 1525 c-43 -19 -87 -37 -99 -41 -11 -3 -36 -15 -55 -26 -27 -16 -31 -23 -22 -34 6 -8 17 -14 23 -14 6 0 4 4 -4 10 -11 7 -8 11 15 20 29 11 226 109 234 116 13 11 -23 0 -92 -31z"></path><path id="p9UROsvga" d="M534 1522 c3 -5 28 -20 56 -33 27 -13 50 -27 50 -31 0 -4 8 -4 17 -1 13 5 15 2 10 -11 -6 -14 -3 -17 9 -12 9 4 23 1 30 -5 14 -11 34 -5 34 12 0 5 -8 9 -17 9 -16 0 -16 2 -3 11 13 9 12 10 -3 5 -10 -3 -25 -1 -35 4 -28 16 -134 60 -144 60 -5 0 -7 -4 -4 -8z"></path><path id="p17bmT0Ajo" d="M1780 1424 c-30 -8 -75 -18 -100 -23 -25 -5 -54 -13 -64 -17 -15 -6 -17 -4 -11 7 4 8 -2 5 -14 -7 -21 -19 -21 -54 0 -54 4 0 6 6 3 13 -2 7 3 13 13 14 10 1 63 15 118 33 55 17 105 32 112 34 19 3 28 16 12 15 -8 -1 -39 -8 -69 -15z"></path><path id="p17JpYTPrf" d="M476 1422 c-3 -5 16 -14 42 -20 26 -6 74 -20 107 -31 56 -20 85 -21 85 -4 0 4 -46 19 -103 32 -56 13 -107 26 -113 28 -7 2 -15 0 -18 -5z"></path><path id="pQq5bTVus" d="M1490 1380 c0 -5 -7 -10 -15 -10 -8 0 -15 -4 -15 -10 0 -15 12 -12 40 10 20 16 22 20 8 20 -10 0 -18 -4 -18 -10z"></path><path id="p11v2EfaYQ" d="M535 1290 c137 -19 178 -19 159 0 -5 5 -75 12 -154 14 l-145 5 140 -19z"></path><path id="pVpwoygIb" d="M1586 1294 c-3 -9 -4 -19 -1 -22 3 -3 71 3 153 14 162 21 149 30 -23 16 -70 -6 -112 -6 -116 0 -3 5 -9 2 -13 -8z"></path><path id="pPp8QuULR" d="M1536 1248 c-7 -26 -8 -73 -2 -67 6 6 18 89 13 89 -3 0 -7 -10 -11 -22z"></path><path id="pse2Teo2B" d="M524 1083 c-20 -27 -41 -52 -44 -56 -4 -5 -18 8 -30 28 -29 46 -39 38 -12 -9 l21 -36 -50 -21 c-56 -24 -60 -35 -8 -18 70 22 110 58 163 147 16 27 -4 9 -40 -35z"></path><path id="p15NnFtEy8" d="M1842 1073 c-29 -43 -34 -53 -24 -53 4 0 18 18 31 40 26 46 22 53 -7 13z"></path><path id="p1ANNXVTBn" d="M1685 980 l-20 -9 20 0 c11 0 29 4 40 9 l20 9 -20 0 c-11 0 -29 -4 -40 -9z"></path><path id="p1E5f9H2iQ" d="M1870 981 c0 -8 41 -23 47 -17 2 1 -8 8 -22 14 -14 6 -25 8 -25 3z"></path><path id="p9izZvn3Y" d="M1410 955 c-21 -25 -1 -31 23 -7 17 18 18 22 5 22 -8 0 -21 -7 -28 -15z"></path><path id="poTJOrZ3C" d="M478 925 c2 -19 6 -35 8 -35 2 0 4 16 4 35 0 19 -4 35 -8 35 -4 0 -6 -16 -4 -35z"></path><path id="pxG0EUAVW" d="M1790 925 c0 -19 2 -35 4 -35 2 0 6 16 8 35 2 19 0 35 -4 35 -4 0 -8 -16 -8 -35z"></path><path id="p7Cz6Gu16" d="M810 946 c0 -11 30 -39 36 -34 2 3 -5 13 -16 23 -11 10 -20 15 -20 11z"></path><path id="ppbgTHLGB" d="M1163 833 c9 -2 25 -2 35 0 9 3 1 5 -18 5 -19 0 -27 -2 -17 -5z"></path><path id="p17uJeReGF" d="M732 770 c0 -19 2 -27 5 -17 2 9 2 25 0 35 -3 9 -5 1 -5 -18z"></path><path id="p9Cq3sk07" d="M1542 770 c0 -19 2 -27 5 -17 2 9 2 25 0 35 -3 9 -5 1 -5 -18z"></path><path id="p72l2ekwU" d="M1541 708 c-1 -16 -6 -28 -12 -28 -6 0 -9 -6 -6 -12 2 -7 -16 -38 -41 -68 l-45 -55 57 57 c33 33 74 63 101 74 25 9 45 21 45 25 0 5 -16 2 -37 -6 -41 -17 -39 -18 -52 15 l-10 25 0 -27z"></path><path id="p12f3GwUOL" d="M731 688 c0 -21 4 -38 9 -38 6 0 10 4 10 9 0 5 11 12 25 15 14 4 25 11 25 16 0 6 -9 6 -26 0 -33 -13 -32 -13 -37 13 -3 13 -5 8 -6 -15z"></path><path id="pUgYDOHDk" d="M1430 715 c0 -5 56 -35 65 -35 3 0 4 4 1 9 -6 10 -66 33 -66 26z"></path><path id="pxgifGvy4" d="M634 701 c9 -14 66 -32 66 -20 0 5 -9 9 -19 9 -11 0 -23 5 -26 10 -3 6 -11 10 -16 10 -6 0 -8 -4 -5 -9z"></path><path id="p1EVub2ySj" d="M1060 656 c0 -11 50 -95 61 -102 18 -11 8 12 -26 60 -19 27 -35 46 -35 42z"></path><path id="pZHBDqj8v" d="M1175 600 c-15 -22 -25 -43 -22 -46 3 -3 18 13 33 35 35 54 25 64 -11 11z"></path><path id="pzKzyxKfP" d="M683 603 c-27 -38 -35 -53 -30 -53 9 0 59 71 54 76 -3 3 -14 -7 -24 -23z"></path><path id="pUD0C31GX" d="M790 595 c43 -45 49 -45 13 0 -15 19 -32 35 -37 35 -6 0 5 -16 24 -35z"></path><path id="psAdsTGwq" d="M1592 591 c13 -15 24 -27 26 -26 6 6 -30 55 -40 55 -5 0 1 -13 14 -29z"></path><path id="pStd4KPMz" d="M1180 519 c0 -6 8 -9 19 -6 10 2 27 0 37 -6 14 -7 16 -7 8 2 -15 16 -64 24 -64 10z"></path><path id="p16br0w48u" d="M1136 464 c-4 -14 -5 -28 -3 -31 3 -2 8 8 11 23 4 14 5 28 3 31 -3 2 -8 -8 -11 -23z"></path></g></g><g id="l3oPN1y9LittSSrWnoSBZNl" fill="rgb(143,155,115)" style="transform: none;"><g><path id="pVTYN5Z6w" d="M692 2168 c3 -44 6 -52 26 -54 12 -2 22 1 22 6 0 6 -7 10 -15 10 -8 0 -15 7 -15 15 0 8 7 15 15 15 8 0 15 5 15 10 0 6 -7 10 -15 10 -8 0 -15 9 -15 20 0 11 -5 20 -11 20 -6 0 -9 -20 -7 -52z"></path><path id="p1Fd74bD53" d="M764 2206 c-11 -28 1 -51 27 -54 29 -3 44 18 34 49 -8 23 -53 26 -61 5z m42 -32 c-5 -13 -10 -14 -18 -6 -6 6 -8 18 -4 28 5 13 10 14 18 6 6 -6 8 -18 4 -28z"></path><path id="pG8h2LcSb" d="M844 2206 c-10 -27 1 -51 25 -54 31 -5 45 11 37 42 -5 19 -13 26 -32 26 -13 0 -27 -6 -30 -14z m39 -33 c-4 -10 -9 -11 -16 -4 -5 5 -7 18 -3 28 6 14 9 15 16 4 4 -8 6 -21 3 -28z"></path><path id="pePTSI9Iy" d="M929 2195 c-1 -14 -2 -31 -3 -37 -1 -7 5 -13 13 -13 8 0 14 14 16 38 1 25 -2 37 -12 37 -7 0 -14 -11 -14 -25z"></path><path id="p17pY0I2bL" d="M980 2160 c0 -33 4 -60 10 -60 6 0 10 11 10 25 0 18 5 25 19 25 24 0 37 36 21 55 -7 8 -23 15 -36 15 -23 0 -24 -3 -24 -60z m45 30 c0 -7 -6 -15 -12 -17 -8 -3 -13 4 -13 17 0 13 5 20 13 18 6 -3 12 -11 12 -18z"></path><path id="pNYRrHJg9" d="M1060 2200 c0 -11 5 -20 10 -20 6 0 10 5 10 10 0 6 4 10 10 10 11 0 1 -32 -14 -43 -6 -4 0 -7 14 -5 20 2 26 9 28 36 3 30 1 32 -27 32 -24 0 -31 -4 -31 -20z"></path><path id="pGV8acfTX" d="M1141 2178 c0 -24 4 -52 8 -63 5 -12 8 4 8 43 0 34 -4 62 -9 62 -4 0 -8 -19 -7 -42z"></path><path id="peOFXbqde" d="M1180 2200 c0 -11 5 -20 10 -20 6 0 10 9 10 20 0 11 -4 20 -10 20 -5 0 -10 -9 -10 -20z"></path><path id="pYb8Ndm5z" d="M1237 2214 c-15 -15 -6 -24 18 -18 33 8 32 -4 -1 -16 -19 -7 -25 -16 -22 -33 4 -28 48 -36 69 -11 13 16 11 17 -16 11 -28 -7 -29 -6 -11 8 11 8 24 15 29 15 4 0 7 10 5 23 -2 16 -11 23 -33 25 -17 2 -34 0 -38 -4z"></path><path id="pp1Gt2sRI" d="M1324 2206 c-3 -8 -4 -25 -2 -38 4 -29 39 -36 59 -12 13 16 12 17 -13 10 -24 -5 -28 -3 -28 14 0 17 4 19 25 14 20 -5 24 -3 19 10 -8 20 -53 21 -60 2z"></path><path id="p19rSyS5YY" d="M1400 2170 c0 -27 5 -50 10 -50 6 0 10 4 10 9 0 5 10 11 23 13 18 2 23 10 25 41 2 28 0 37 -12 37 -11 0 -16 -10 -16 -31 0 -17 -4 -28 -10 -24 -5 3 -10 17 -10 31 0 13 -4 24 -10 24 -5 0 -10 -22 -10 -50z"></path><path id="pn5ydf0s0" d="M1490 2205 c-26 -32 13 -81 48 -59 34 22 22 74 -18 74 -10 0 -23 -7 -30 -15z m45 -25 c0 -7 -6 -15 -12 -17 -8 -3 -13 4 -13 17 0 13 5 20 13 18 6 -3 12 -11 12 -18z"></path><path id="p13hdyjY9G" d="M1574 2206 c-3 -8 -4 -25 -2 -38 2 -18 9 -23 33 -23 28 0 30 3 30 35 0 31 -3 35 -28 38 -17 2 -29 -2 -33 -12z m46 -26 c0 -21 -15 -27 -25 -10 -7 12 2 30 16 30 5 0 9 -9 9 -20z"></path><path id="pKWqhcuV9" d="M1663 2170 c0 -30 2 -43 4 -27 2 15 2 39 0 55 -2 15 -4 2 -4 -28z"></path><path id="pNkjgz3MX" d="M1180 2120 c0 -11 5 -20 10 -20 6 0 10 9 10 20 0 11 -4 20 -10 20 -5 0 -10 -9 -10 -20z"></path><path id="pHTFncVkD" d="M1215 2024 c-22 -11 -35 -13 -53 -5 -36 17 -87 13 -105 -7 -24 -26 -22 -89 3 -104 16 -10 18 -20 14 -49 -10 -58 8 -79 65 -79 35 0 51 4 55 16 11 28 6 44 -19 66 -30 26 -31 39 -7 61 26 24 32 21 32 -13 0 -25 4 -30 25 -30 30 0 33 25 10 70 -15 28 -14 30 12 47 16 9 30 19 33 21 4 3 -20 22 -30 22 -3 0 -18 -7 -35 -16z m-55 -31 c0 -15 -52 -73 -61 -68 -13 9 -11 49 3 63 13 13 58 17 58 5z m-6 -150 c6 -15 -9 -43 -24 -43 -12 0 -19 26 -13 48 6 23 28 20 37 -5z"></path><path id="pq0mwEhpi" d="M600 2003 c1 -62 28 -285 36 -293 5 -4 19 -11 32 -15 21 -6 27 3 78 111 30 64 56 115 58 113 2 -2 25 -51 51 -109 26 -57 55 -110 64 -116 42 -31 63 34 76 239 l7 97 -36 0 c-33 0 -36 -3 -36 -27 0 -16 -3 -51 -6 -80 -6 -44 -4 -52 12 -56 16 -4 16 -5 2 -6 -11 -1 -19 -13 -24 -38 l-7 -38 -15 35 c-42 104 -97 210 -106 207 -6 -1 -36 -54 -66 -116 -30 -62 -58 -109 -63 -105 -4 4 -7 26 -7 48 0 23 -3 71 -7 109 -5 56 -9 67 -24 67 -14 0 -19 -7 -19 -27z"></path><path id="p16E9YQZVz" d="M1304 1984 c3 -26 6 -55 6 -65 0 -12 7 -19 20 -19 22 0 24 10 14 84 -6 37 -11 46 -27 46 -18 0 -19 -5 -13 -46z"></path><path id="pDekhXjpQ" d="M1420 1908 c-46 -96 -60 -116 -60 -93 0 46 -11 75 -26 75 -10 0 -14 -15 -14 -57 0 -32 3 -68 6 -80 8 -28 34 -30 34 -3 0 11 4 20 9 20 4 0 6 -11 3 -25 -3 -16 -11 -25 -23 -25 -21 0 -23 -8 -10 -29 6 -9 11 -10 15 -2 4 6 15 11 25 11 13 0 32 31 70 110 29 61 57 108 62 105 5 -4 9 -11 9 -17 0 -5 18 -49 40 -96 22 -47 39 -91 36 -98 -3 -7 2 -10 14 -7 12 3 20 16 23 37 l4 31 1 -32 c1 -21 7 -33 16 -33 22 0 24 7 31 113 6 87 4 97 -10 97 -13 0 -16 6 -12 23 20 82 20 97 -1 97 -12 0 -23 -3 -25 -7 -3 -5 -8 -53 -11 -108 -4 -55 -11 -103 -15 -108 -4 -4 -29 43 -57 105 -27 61 -55 113 -62 116 -8 2 -34 -41 -72 -120z"></path><path id="plXOmAzcf" d="M1095 1655 c-5 -2 -26 -6 -46 -9 -28 -5 -56 -25 -117 -85 -47 -46 -84 -75 -90 -69 -33 33 -102 -94 -110 -202 -6 -83 11 -95 42 -30 11 22 26 48 35 59 15 19 17 19 73 -12 47 -25 58 -36 58 -56 0 -41 11 -71 26 -71 9 0 14 11 14 29 0 23 9 37 38 58 20 15 39 31 40 36 6 13 33 7 54 -13 12 -11 29 -20 39 -20 9 0 21 -6 27 -12 14 -18 20 -108 7 -108 -5 0 -29 -13 -53 -29 l-42 -29 -48 26 c-26 14 -51 32 -55 39 -4 7 -14 13 -22 13 -20 0 -24 -32 -6 -53 13 -16 13 -17 -2 -11 -10 3 -40 -3 -68 -15 l-50 -22 -19 23 c-10 13 -29 44 -42 70 -23 48 -48 63 -48 30 0 -71 93 -242 131 -242 10 0 19 -4 19 -8 0 -5 19 -17 42 -28 22 -10 60 -32 82 -49 39 -28 46 -30 131 -30 109 0 151 12 233 66 67 44 147 143 158 196 5 25 1 34 -21 51 -24 19 -27 30 -33 111 l-8 89 28 17 c36 21 35 41 -2 97 -56 84 -122 136 -211 167 -52 18 -163 34 -184 26z m104 -41 c44 -9 33 -27 -21 -37 -37 -7 -51 -5 -72 8 -14 10 -23 21 -20 26 6 10 67 12 113 3z m-143 -55 c4 -8 1 -8 -14 0 -12 6 -24 16 -28 22 -4 8 -1 8 14 0 12 -6 24 -16 28 -22z m265 -106 c20 -40 31 -73 25 -73 -6 -1 -36 -23 -66 -50 -30 -27 -57 -45 -60 -41 -3 4 -16 11 -30 14 -14 3 -44 19 -68 34 -43 28 -43 29 -37 73 14 97 23 117 56 124 17 3 49 6 70 6 21 0 44 6 51 14 11 12 14 11 18 -8 3 -11 22 -54 41 -93z m39 92 c0 -8 9 -15 20 -15 11 0 20 -7 20 -15 0 -8 7 -15 15 -15 8 0 15 -9 15 -20 0 -11 6 -20 14 -20 16 0 28 -48 14 -56 -20 -13 -74 34 -100 87 -32 64 -33 69 -13 69 8 0 15 -7 15 -15z m-312 -86 c3 -35 -1 -46 -22 -66 -14 -12 -30 -23 -36 -23 -5 0 -10 -3 -10 -8 0 -19 -46 -28 -76 -14 l-32 15 14 49 c9 37 24 60 56 88 l43 39 30 -19 c24 -15 31 -27 33 -61z m368 -151 c6 -4 14 -31 18 -58 7 -50 -12 -100 -37 -100 -6 0 -18 -7 -27 -15 -15 -14 -21 -13 -61 8 -44 24 -44 24 -40 73 1 27 7 50 11 52 5 2 24 16 42 32 33 29 64 32 94 8z m-179 -150 c-2 -13 -4 -3 -4 22 0 25 2 35 4 23 2 -13 2 -33 0 -45z m69 -67 c28 -17 54 -27 58 -24 3 3 -7 -28 -21 -70 -25 -72 -28 -76 -62 -82 -79 -13 -91 -17 -91 -31 0 -9 -11 -14 -30 -14 -20 0 -30 5 -30 15 0 12 -5 13 -26 4 -15 -5 -29 -7 -32 -5 -2 3 7 8 22 12 27 6 34 30 17 62 -4 9 -11 31 -14 47 -5 29 -2 33 61 73 36 23 73 42 81 42 8 0 38 -13 67 -29z m167 -18 c-7 -3 -13 -11 -13 -19 0 -8 -4 -14 -10 -14 -5 0 -10 -9 -10 -20 0 -11 -5 -20 -12 -20 -6 0 -19 -7 -28 -15 -16 -14 -17 -14 -12 11 7 38 76 101 92 86 3 -3 -1 -7 -7 -9z m-476 -39 c60 -30 58 -28 67 -70 6 -26 3 -32 -16 -41 -18 -8 -32 -6 -68 13 -66 34 -69 37 -80 73 -8 28 -6 33 13 41 12 5 24 9 26 9 2 1 28 -11 58 -25z"></path><path id="pckik3kjH" d="M1584 1454 c-19 -15 -19 -15 1 -6 11 5 27 12 35 15 13 5 13 6 -1 6 -8 1 -24 -6 -35 -15z"></path><path id="pwrby5hlZ" d="M530 1088 c-62 -79 -54 -75 -79 -34 -13 20 -26 35 -28 32 -3 -3 5 -21 17 -41 l22 -35 -36 -15 c-38 -16 -49 -30 -16 -21 11 3 29 8 39 11 17 5 21 -2 30 -47 l10 -53 -2 53 -2 52 45 -5 c41 -5 42 -4 15 6 -16 6 -36 12 -43 15 -10 3 -3 19 23 55 40 56 44 76 5 27z"></path><path id="pqSeZnUnC" d="M1726 1110 c4 -8 20 -34 36 -58 21 -30 25 -43 16 -46 -53 -17 -99 -35 -78 -32 14 3 41 7 60 11 l35 6 -2 -48 -2 -48 11 48 c9 43 13 48 32 43 56 -16 67 -14 28 4 l-44 20 21 35 c11 19 17 35 13 35 -4 0 -16 -14 -26 -31 l-19 -31 -22 28 c-38 48 -67 80 -59 64z"></path><path id="pq9hFmrlQ" d="M1542 742 c-2 -70 1 -69 -81 -36 -55 23 -50 15 12 -17 60 -31 61 -35 27 -69 -29 -29 -24 -36 6 -7 l40 37 33 -37 c33 -39 32 -29 -1 20 l-19 27 47 20 c26 11 45 23 42 25 -3 3 -22 -2 -43 -11 -21 -8 -41 -12 -46 -7 -4 4 -10 33 -12 63 l-3 55 -2 -63z"></path><path id="pJtEveJ1l" d="M732 745 c-3 -62 -12 -69 -57 -51 -21 9 -40 14 -43 11 -3 -2 16 -14 42 -25 l47 -20 -19 -27 c-33 -49 -34 -59 -1 -20 l33 37 40 -37 c39 -38 39 -38 17 -6 -12 18 -26 35 -31 38 -12 8 -13 25 -1 25 14 0 103 41 98 46 -2 3 -25 -5 -51 -16 -26 -11 -52 -20 -56 -20 -5 0 -11 24 -13 53 -3 44 -4 46 -5 12z"></path><path id="pLJB6O9yE" d="M623 743 c15 -2 37 -2 50 0 12 2 0 4 -28 4 -27 0 -38 -2 -22 -4z"></path><path id="p19lkYxxP8" d="M1070 635 c0 -3 12 -24 26 -46 14 -23 23 -44 19 -47 -4 -4 -23 -13 -43 -19 l-37 -13 48 5 47 5 1 -48 c0 -35 3 -42 9 -27 5 11 9 33 9 48 1 27 3 28 32 22 22 -5 29 -4 25 4 -4 6 -13 11 -21 11 -24 0 -27 19 -7 48 19 27 34 62 28 62 -2 0 -17 -20 -33 -45 -15 -25 -30 -45 -33 -45 -3 0 -18 20 -33 45 -27 42 -37 53 -37 40z"></path></g></g><g id="l5uBgTJ84LYlQ27Rq67lzju" fill="rgb(200,182,126)" style="transform: none;"><g><path id="psbXyyeKA" d="M804 2185 c-1 -40 1 -42 15 -16 7 13 7 23 -2 35 -10 14 -12 11 -13 -19z"></path><path id="pQBEXzlgI" d="M878 2208 c7 -7 12 -21 12 -32 0 -14 3 -17 11 -9 13 13 -5 53 -23 53 -9 0 -9 -3 0 -12z"></path><path id="pQ78dGZpm" d="M930 2179 c0 -48 16 -44 22 6 3 24 0 35 -9 35 -9 0 -13 -14 -13 -41z"></path><path id="pjkX2I4xu" d="M987 2213 c-11 -10 -8 -103 3 -103 6 0 10 9 10 20 0 11 6 20 14 20 7 0 19 6 25 14 24 29 -26 76 -52 49z m38 -28 c0 -10 -6 -20 -12 -22 -8 -3 -13 5 -13 22 0 17 5 25 13 23 6 -3 12 -13 12 -23z"></path><path id="pWpNk4rQk" d="M1060 2200 c0 -11 5 -20 10 -20 6 0 10 9 10 20 0 11 -4 20 -10 20 -5 0 -10 -9 -10 -20z"></path><path id="pHEQSalMh" d="M1098 2185 c-2 -19 -1 -35 3 -35 9 0 17 60 8 65 -4 3 -9 -11 -11 -30z"></path><path id="p1Asxd9Ret" d="M1140 2160 c0 -33 4 -60 10 -60 6 0 10 27 10 60 0 33 -4 60 -10 60 -6 0 -10 -27 -10 -60z"></path><path id="pgbtHTNDU" d="M1243 2213 c-24 -9 -13 -23 12 -17 15 4 25 2 25 -5 0 -6 -6 -11 -14 -11 -7 0 -19 -7 -26 -15 -10 -12 -10 -18 0 -30 15 -18 51 -16 58 3 3 9 -3 11 -24 6 -19 -5 -25 -4 -20 5 4 6 13 11 20 11 8 0 19 7 26 15 23 28 -17 55 -57 38z"></path><path id="pEsEQi58P" d="M1332 2208 c-26 -26 -1 -77 33 -64 22 8 18 25 -5 19 -16 -4 -20 0 -20 17 0 18 4 21 21 17 13 -3 19 -1 16 6 -5 17 -30 20 -45 5z"></path><path id="pUfjrsi46" d="M1400 2170 c0 -27 5 -50 10 -50 6 0 10 7 10 15 0 9 6 12 16 8 20 -7 34 13 34 50 0 35 -18 35 -22 0 -4 -39 -28 -42 -28 -4 0 17 -4 31 -10 31 -5 0 -10 -22 -10 -50z"></path><path id="pvLKGlgld" d="M1490 2200 c-14 -26 3 -60 30 -60 27 0 44 34 30 60 -6 11 -19 20 -30 20 -11 0 -24 -9 -30 -20z m46 -11 c10 -17 -13 -36 -27 -22 -12 12 -4 33 11 33 5 0 12 -5 16 -11z"></path><path id="pUJPoFHJN" d="M1580 2205 c-26 -31 13 -82 44 -56 19 16 21 42 4 59 -16 16 -33 15 -48 -3z m40 -25 c0 -11 -7 -20 -15 -20 -8 0 -15 9 -15 20 0 11 7 20 15 20 8 0 15 -9 15 -20z"></path><path id="pphN0cGiO" d="M1660 2170 c0 -27 5 -50 10 -50 6 0 10 23 10 50 0 28 -4 50 -10 50 -5 0 -10 -22 -10 -50z"></path><path id="paPFq2U8o" d="M690 2165 c0 -25 5 -45 10 -45 6 0 10 20 10 45 0 25 -4 45 -10 45 -5 0 -10 -20 -10 -45z"></path><path id="pYm7dv8kj" d="M760 2185 c0 -14 5 -25 10 -25 6 0 10 11 10 25 0 14 -4 25 -10 25 -5 0 -10 -11 -10 -25z"></path><path id="p14J9qO6eZ" d="M846 2197 c-9 -18 8 -47 28 -47 8 0 8 2 0 8 -7 4 -14 18 -16 32 -4 21 -6 22 -12 7z"></path><path id="p37UzRl58" d="M1180 2160 c0 -27 5 -50 10 -50 6 0 10 23 10 50 0 28 -4 50 -10 50 -5 0 -10 -22 -10 -50z"></path><path id="p10yDQICro" d="M606 2022 c-5 -8 4 -116 19 -232 2 -19 4 -47 5 -62 0 -25 4 -28 35 -28 19 0 35 5 35 10 0 6 23 59 51 118 l51 107 38 -83 c21 -45 44 -98 51 -117 11 -30 18 -35 45 -35 l31 0 6 72 c4 47 2 75 -5 79 -7 5 -7 8 1 10 18 6 26 79 10 90 -11 7 -11 11 -2 17 7 4 14 19 15 32 2 20 -2 26 -23 28 -31 4 -34 -7 -45 -143 -9 -108 -16 -118 -41 -53 -34 87 -87 197 -96 198 -5 0 -34 -54 -64 -120 -31 -66 -60 -120 -64 -120 -3 0 -10 53 -15 117 -6 72 -13 118 -21 120 -6 2 -14 0 -17 -5z"></path><path id="pINiPGgku" d="M1061 2011 c-28 -28 -27 -72 3 -100 21 -20 23 -27 14 -47 -8 -17 -7 -31 2 -54 11 -26 18 -30 50 -30 70 0 87 53 29 94 l-21 15 22 31 c26 36 43 35 50 -6 3 -17 12 -30 23 -32 22 -4 22 17 0 63 -16 34 -16 36 3 50 10 8 25 15 32 15 6 0 12 5 12 11 0 7 -13 9 -37 5 -51 -9 -71 -9 -119 -1 -35 6 -45 4 -63 -14z m99 -18 c0 -14 -45 -73 -56 -73 -16 0 -25 40 -13 62 9 17 69 27 69 11z m-10 -138 c17 -20 8 -50 -15 -50 -20 0 -31 25 -21 51 7 18 20 18 36 -1z"></path><path id="p6dRwe19e" d="M1314 1929 c11 -173 20 -234 34 -233 6 1 21 2 32 3 11 0 20 5 20 10 0 13 97 212 104 214 7 2 96 -192 96 -210 0 -8 13 -13 34 -13 33 0 34 1 40 52 5 34 4 54 -3 56 -14 5 -14 39 -1 44 11 4 30 94 30 145 0 32 -2 34 -27 31 -25 -3 -29 -8 -37 -56 -7 -43 -6 -56 5 -63 12 -8 12 -10 0 -18 -7 -5 -16 -29 -18 -55 -3 -25 -8 -46 -12 -46 -3 0 -30 54 -60 120 -29 66 -57 120 -61 120 -8 0 -70 -123 -107 -209 -8 -18 -17 -31 -20 -27 -3 3 -11 56 -17 117 -8 79 -15 114 -25 117 -11 4 -13 -13 -7 -99z"></path><path id="p14dRvMXwE" d="M1028 1638 c-21 -6 -38 -13 -38 -18 0 -4 26 -24 57 -45 55 -37 58 -37 127 -32 73 6 101 23 108 62 2 15 -6 23 -32 32 -42 14 -170 15 -222 1z"></path><path id="p13zTWCC8Y" d="M1304 1602 c-3 -9 -9 -25 -14 -34 -7 -12 1 -37 29 -90 31 -61 45 -77 81 -95 53 -28 68 -28 99 -4 l23 18 -22 43 c-26 50 -99 126 -153 158 -35 20 -38 20 -43 4z"></path><path id="pV1HsAMwC" d="M921 1539 c-47 -43 -55 -56 -71 -120 -11 -40 -17 -75 -15 -79 2 -3 26 -17 54 -30 l51 -23 70 46 c67 45 70 49 70 86 0 22 4 50 9 64 11 29 7 35 -44 68 -64 41 -67 41 -124 -12z m76 -120 c22 -7 30 -15 26 -25 -3 -8 -11 -14 -19 -14 -8 0 -14 -4 -14 -10 0 -5 -6 -10 -14 -10 -8 0 -16 -5 -18 -11 -3 -9 -13 -9 -41 0 -40 14 -40 13 -31 61 7 30 9 31 43 25 20 -3 50 -11 68 -16z"></path><path id="p16EX9PeON" d="M785 1445 c-15 -25 -33 -68 -41 -97 -15 -57 -19 -128 -6 -128 4 0 23 28 44 63 33 56 58 137 58 187 0 35 -28 22 -55 -25z"></path><path id="pC9jkqeef" d="M1302 1340 c-24 -22 -48 -40 -53 -40 -5 0 -9 -9 -9 -20 0 -22 38 -28 56 -10 7 7 26 -1 60 -27 65 -49 81 -73 49 -73 -8 0 -15 -9 -15 -20 0 -17 -7 -20 -45 -20 -33 0 -45 4 -45 15 0 8 -4 15 -10 15 -5 0 -10 16 -10 35 0 28 -4 35 -20 35 -17 0 -20 -7 -20 -50 0 -46 2 -51 33 -64 17 -8 44 -23 59 -32 26 -18 26 -17 85 34 l59 51 -9 78 c-9 82 -19 103 -46 103 -9 0 -21 4 -26 9 -27 24 -51 20 -93 -19z"></path><path id="p1GmwlqpVm" d="M1015 1317 l-60 -43 -3 -59 c-5 -88 0 -96 71 -133 35 -17 67 -32 71 -32 4 0 31 16 60 35 29 19 58 35 65 35 12 0 14 31 5 78 -10 47 -34 30 -34 -24 0 -41 -2 -44 -28 -44 -15 0 -37 -7 -49 -15 -21 -14 -26 -14 -73 10 -49 25 -50 26 -50 73 0 45 2 48 44 75 40 25 47 26 72 15 16 -7 35 -18 42 -25 18 -17 72 -17 72 0 0 17 -20 37 -38 37 -7 0 -33 14 -57 30 -24 17 -45 30 -47 30 -2 -1 -30 -20 -63 -43z"></path><path id="pkqvxrwS8" d="M736 1168 c13 -69 104 -231 121 -214 16 16 -95 246 -118 246 -5 0 -6 -15 -3 -32z"></path><path id="p1CfuwMnIG" d="M1422 1103 c-37 -29 -61 -56 -62 -68 0 -11 -9 -39 -20 -63 -16 -35 -17 -47 -7 -63 6 -10 15 -19 19 -19 19 0 137 130 157 173 22 46 23 49 6 67 -10 11 -21 20 -25 20 -4 0 -35 -21 -68 -47z m48 -28 c0 -8 -4 -15 -10 -15 -5 0 -10 -5 -10 -10 0 -10 -44 -60 -53 -60 -14 0 9 49 25 53 11 3 22 15 25 26 6 24 23 28 23 6z"></path><path id="plc8mELQO" d="M897 1086 c-26 -11 -47 -24 -47 -29 0 -5 7 -32 15 -61 15 -50 19 -55 83 -90 61 -35 70 -37 97 -26 17 7 40 14 53 17 19 5 22 10 17 27 -3 11 -12 41 -19 65 -11 41 -17 47 -82 81 l-69 36 -48 -20z m121 -55 c3 -9 11 -20 18 -26 6 -5 16 -24 22 -41 9 -28 8 -31 -19 -41 -16 -6 -29 -8 -29 -5 0 4 -21 18 -46 31 -40 21 -64 52 -64 80 0 29 107 31 118 2z"></path><path id="pJMqgR5SU" d="M444 1048 c21 -36 20 -43 -6 -56 -22 -11 -21 -11 5 -6 19 4 27 2 27 -7 0 -12 2 -12 9 0 6 10 20 12 47 8 l39 -6 -35 13 c-22 8 -34 19 -34 30 2 13 -1 14 -11 6 -10 -8 -18 -4 -35 17 l-22 28 16 -27z"></path><path id="ppDbDXlPJ" d="M1825 1044 c-16 -25 -17 -25 -37 -7 -21 18 -21 18 -9 -4 15 -28 14 -31 -6 -36 -14 -4 -12 -5 5 -6 12 0 22 -7 22 -13 0 -10 2 -10 9 0 5 8 18 11 37 7 28 -5 28 -5 4 5 -34 15 -33 14 -15 49 19 38 14 41 -10 5z"></path><path id="pRdCT4Rmx" d="M1190 900 c-41 -3 -95 -15 -120 -27 -41 -18 -43 -21 -22 -27 41 -14 96 -15 161 -5 77 12 123 33 115 54 -6 16 -10 16 -134 5z"></path><path id="pHSzz6lm5" d="M683 680 c38 -21 38 -22 22 -46 -9 -14 -14 -28 -11 -32 3 -3 6 -1 6 4 0 5 7 18 15 28 14 19 15 19 35 1 11 -10 20 -13 20 -7 0 6 -4 14 -10 17 -16 10 -12 21 13 33 21 11 20 11 -5 6 -20 -4 -28 -2 -28 7 0 12 -2 12 -9 0 -8 -13 -18 -13 -66 3 -11 4 -3 -2 18 -14z"></path><path id="p8MRrbPNg" d="M1540 691 c0 -9 -8 -11 -27 -7 -26 5 -27 5 -5 -6 25 -12 28 -27 10 -48 -7 -8 -3 -6 10 4 22 19 23 19 38 0 14 -18 15 -18 4 4 -7 13 -10 25 -8 26 2 1 14 8 28 14 l25 12 -29 -5 c-19 -4 -32 -1 -37 7 -7 11 -9 10 -9 -1z"></path><path id="pDKWm3HxS" d="M1112 565 c10 -22 9 -28 -3 -36 -10 -6 -5 -9 19 -9 17 0 32 3 32 6 0 3 -14 19 -30 36 l-31 30 13 -27z"></path></g></g><g id="lneGvISbfmxDrHhJBN6JGV" fill="rgb(237,208,140)" style="transform: none;"><g><path id="pXqJg3jJA" d="M993 2185 c0 -22 2 -30 4 -17 2 12 2 30 0 40 -3 9 -5 -1 -4 -23z"></path><path id="pqKL4HcVo" d="M690 2188 c0 -16 5 -28 10 -28 13 0 13 20 0 40 -8 12 -10 9 -10 -12z"></path><path id="pNeR34R9n" d="M930 2180 c0 -16 4 -30 8 -30 5 0 7 14 4 30 -2 17 -6 30 -8 30 -2 0 -4 -13 -4 -30z"></path><path id="pEeRaoruu" d="M1143 2160 c0 -30 2 -43 4 -27 2 15 2 39 0 55 -2 15 -4 2 -4 -28z"></path><path id="p1AmRHx3vW" d="M959 2023 c-13 -3 -19 -29 -29 -124 -7 -66 -17 -118 -22 -117 -9 3 -67 128 -99 211 -10 25 -39 39 -39 18 0 -15 -103 -231 -110 -231 -4 0 -12 53 -19 117 -6 64 -14 119 -16 122 -15 15 -17 -24 -6 -137 17 -176 18 -182 45 -182 20 0 31 18 77 115 29 63 58 114 63 112 6 -2 32 -54 59 -115 42 -95 53 -112 72 -112 27 0 29 8 46 183 12 129 10 147 -22 140z"></path><path id="pgYqNs41X" d="M1065 2006 c-32 -32 -32 -58 -1 -87 21 -20 24 -30 19 -65 -8 -62 34 -92 88 -64 26 15 24 46 -6 72 -32 28 -31 38 5 73 22 21 31 25 34 14 24 -67 27 -72 38 -61 8 8 5 22 -10 51 -23 43 -19 51 29 70 22 8 22 10 6 16 -11 5 -32 1 -51 -8 -20 -9 -38 -12 -47 -6 -9 4 -30 11 -48 14 -25 4 -37 0 -56 -19z m89 -2 c22 -9 21 -14 -18 -58 -36 -43 -56 -41 -56 4 0 46 33 70 74 54z m6 -175 c0 -30 -21 -44 -39 -26 -12 12 -14 37 -5 61 9 24 44 -3 44 -35z"></path><path id="pPoPPjL1C" d="M1310 2017 c0 -7 7 -79 15 -162 8 -82 15 -151 15 -152 0 -2 11 -3 23 -3 20 0 32 17 80 116 32 63 61 113 66 110 4 -3 30 -55 56 -116 41 -92 52 -110 71 -110 29 0 32 10 44 143 6 62 13 126 16 143 4 23 1 33 -10 37 -35 14 -44 -2 -51 -91 -7 -109 -14 -152 -23 -152 -6 1 -25 39 -98 203 -9 20 -20 37 -24 37 -4 0 -34 -54 -66 -120 -32 -66 -61 -120 -64 -120 -7 0 -20 124 -20 195 0 29 -5 45 -15 49 -8 3 -15 0 -15 -7z"></path><path id="pxoW0Z3db" d="M1043 1639 c-18 -5 -35 -13 -38 -19 -3 -5 8 -5 27 1 47 13 135 11 196 -5 41 -10 52 -10 52 -1 0 29 -164 45 -237 24z"></path><path id="pzBWy8iJH" d="M1310 1601 c0 -6 15 -18 33 -27 43 -22 135 -117 143 -149 3 -14 10 -25 15 -25 18 0 -16 64 -61 113 -47 52 -130 108 -130 88z"></path><path id="pXzbCqDDM" d="M808 1473 c-30 -35 -56 -99 -67 -168 -9 -59 -8 -89 2 -74 44 64 73 126 83 179 14 69 7 91 -18 63z"></path><path id="p19Sg8ZApT" d="M867 1473 c-3 -5 -10 -35 -16 -68 -10 -53 -9 -61 6 -72 9 -7 21 -13 27 -13 5 0 17 -7 27 -16 20 -18 41 -10 117 46 37 27 43 35 40 62 -2 18 -9 32 -18 34 -8 1 -46 9 -83 18 -76 18 -94 19 -100 9z"></path><path id="pUNxa1ImZ" d="M1010 1309 c-42 -30 -55 -46 -54 -65 0 -13 1 -46 2 -74 l2 -50 71 -36 c71 -35 71 -35 93 -16 11 11 39 29 61 40 l40 20 -3 76 c-2 44 -8 76 -14 76 -6 0 -36 16 -68 35 -32 19 -62 35 -66 34 -5 0 -34 -19 -64 -40z"></path><path id="p1C99mtc5X" d="M1266 1304 c-28 -25 -28 -26 -21 -99 l7 -73 52 -28 53 -28 31 23 c18 12 32 27 32 32 0 5 5 9 11 9 13 0 38 30 39 46 0 6 -8 20 -17 30 -24 27 -139 114 -150 114 -4 0 -21 -12 -37 -26z"></path><path id="pGGIsJVDY" d="M740 1188 c0 -31 37 -136 61 -170 30 -42 49 -62 49 -50 0 14 -32 106 -42 118 -4 6 -22 36 -38 65 -16 30 -30 47 -30 37z"></path><path id="pfYQ2aidY" d="M1430 1104 c-44 -38 -59 -58 -77 -108 -23 -61 -22 -96 1 -96 21 0 120 104 145 153 21 42 23 50 11 72 -7 14 -16 25 -19 25 -3 0 -31 -21 -61 -46z"></path><path id="p9dEIn1BB" d="M910 1085 c-14 -8 -33 -14 -43 -15 -10 0 -17 -6 -15 -12 2 -7 10 -34 17 -61 12 -43 20 -51 73 -82 66 -39 80 -41 132 -20 32 14 36 18 30 43 -21 82 -30 96 -90 129 -67 37 -70 38 -104 18z"></path><path id="pe6FiDvAh" d="M1797 993 c4 -10 8 -12 10 -6 3 7 12 9 21 6 15 -4 15 -3 2 6 -23 17 -40 13 -33 -6z"></path><path id="p1FU9mUVJF" d="M1205 898 c-98 -12 -177 -38 -149 -49 63 -25 259 6 259 41 0 19 -11 19 -110 8z"></path><path id="pR4YDvVa0" d="M1536 672 c-3 -6 -1 -14 5 -17 15 -10 25 3 12 16 -7 7 -13 7 -17 1z"></path></g></g></svg>