<?xml version="1.0" encoding="utf-8"?>
<!DOCTYPE svg PUBLIC "-//W3C//DTD SVG 20010904//EN" "http://www.w3.org/TR/2001/REC-SVG-20010904/DTD/svg10.dtd">
<svg version="1.0" xmlns="http://www.w3.org/2000/svg" width="500px" height="500px" viewBox="0 0 500 500" preserveAspectRatio="xMidYMid meet">
 <g fill="#000000">
  <path d="M115.4 491.4 c-1.2 -0.3 -3 -1.4 -4 -2.6 -1.7 -1.8 -1.9 -4.1 -2.2 -19.4 l-0.3 -17.4 3.1 -3.1 c3 -3 3.3 -3.1 10.6 -2.7 11.3 0.5 11.4 0.7 11.4 22.4 0 16.7 -0.1 17.4 -2.3 20 -2.1 2.3 -3.3 2.8 -8.3 3 -3.2 0.1 -6.9 0 -8 -0.2z"/>
  <path d="M241 490.8 c-3.4 -1.8 -5 -5.4 -5 -11.5 0 -5.2 0.1 -5.3 3 -5.3 l2.9 0 -2.4 -3.6 c-3 -4.4 -3.9 -9.1 -3.1 -15.2 0.9 -6.8 3.9 -9.2 11.6 -9.2 10.1 0 13 2.7 13 12 0 4.9 0 5 -3.2 5 l-3.1 0 2 2.3 c3.5 3.8 4.3 6.3 4.3 13.6 0 5.9 -0.4 7.4 -2.4 9.7 -2 2.4 -3.2 2.8 -8.7 3.1 -4 0.3 -7.3 -0.1 -8.9 -0.9z"/>
  <path d="M357 490.7 c-1.3 -0.7 -3 -2.4 -3.7 -3.7 -1.6 -3.2 -1.8 -32.8 -0.2 -36.3 1.5 -3.4 4.9 -4.7 12 -4.7 5 0 6.4 0.4 8.4 2.5 2.2 2.1 2.5 3.3 2.5 10 l0 7.5 -5.5 0 c-4.8 0 -5.5 0.2 -5.5 2 0 1.8 0.7 2 5.5 2 l5.5 0 0 8.1 c0 4.4 -0.4 8.9 -1 9.9 -2 3.7 -12.8 5.3 -18 2.7z"/>
  <path d="M142 488.1 c0 -1.6 1.4 -11.3 3 -21.4 1.7 -10.2 3 -18.8 3 -19.1 0 -0.4 3.5 -0.6 7.7 -0.4 l7.8 0.3 2.7 16.5 c1.4 9.1 2.7 18.9 2.7 21.8 l0.1 5.2 -6.4 0 c-6.3 0 -6.5 -0.1 -6.9 -2.7 l-0.4 -2.8 -0.2 2.8 c-0.1 2.7 -0.2 2.7 -6.6 2.7 l-6.5 0 0 -2.9z"/>
  <path d="M178.7 490.3 c-0.4 -0.3 -0.7 -4.3 -0.7 -8.8 0 -6.6 -0.6 -10 -3.5 -18.5 -1.9 -5.7 -3.5 -11.7 -3.5 -13.2 l0 -2.8 13.5 0 13.5 0 0 3.8 c0 2.1 -1.6 8.5 -3.5 14.2 -2.8 8.4 -3.5 11.9 -3.5 18.2 l0 7.8 -5.8 0 c-3.2 0 -6.2 -0.3 -6.5 -0.7z"/>
  <path d="M203 488.1 c0 -1.6 1.4 -11.3 3 -21.4 1.7 -10.2 3 -18.8 3 -19.1 0 -0.4 3.5 -0.6 7.7 -0.4 l7.8 0.3 2.7 16.5 c1.4 9.1 2.7 18.9 2.7 21.8 l0.1 5.2 -6.4 0 c-6.3 0 -6.5 -0.1 -6.9 -2.7 l-0.4 -2.8 -0.2 2.8 c-0.1 2.7 -0.2 2.7 -6.6 2.7 l-6.5 0 0 -2.9z"/>
  <path d="M294 475 l0 -16 -3 0 -3 0 0 -6 0 -6 12.5 0 12.5 0 0 6 0 6 -3 0 -3 0 0 16 0 16 -6.5 0 -6.5 0 0 -16z"/>
  <path d="M321.7 490.3 c-0.4 -0.3 -0.7 -10.2 -0.7 -22 l0 -21.3 11.5 0 11.5 0 0 6 0 6 -5 0 c-3.8 0 -5 0.4 -5 1.5 0 1.1 1.1 1.5 4 1.5 l4 0 0 6 0 6 -4 0 c-3.6 0 -4 0.3 -4 2.5 0 2.3 0.3 2.5 5 2.5 l5 0 0 6 0 6 -10.8 0 c-6 0 -11.2 -0.3 -11.5 -0.7z"/>
  <path d="M384.7 490.3 c-0.4 -0.3 -0.7 -10.2 -0.7 -22 l0 -21.3 12.5 0 12.5 0 0 22 0 22 -11.8 0 c-6.5 0 -12.2 -0.3 -12.5 -0.7z"/>
  <path d="M327.5 429.1 c-26.7 -7.5 -41.7 -34.5 -35 -63 4.2 -17.7 18.4 -32.1 35.5 -36 5.7 -1.3 22.1 -1.4 28 -0.1 7.3 1.6 16.6 6.8 22.2 12.4 10.5 10.3 15.4 24 14.5 40.6 -0.8 14.4 -4.8 24 -13.7 33 -12.7 12.8 -33.5 18.1 -51.5 13.1z"/>
  <path d="M235.1 332.4 c-58.5 -8 -107.3 -45.5 -130 -99.9 -19.1 -45.8 -16.9 -101 5.9 -145.3 21.4 -41.7 58.5 -71.3 105.2 -83.9 10.3 -2.8 10.4 -2.8 42.8 -2.8 32.4 0 32.5 0 42.8 2.8 25.9 7 46 17.5 66.7 34.9 42.5 35.8 64.2 95.8 55.4 153.5 -5.8 38.4 -21.3 69.1 -47.9 95.3 -36.5 35.9 -88.2 52.5 -140.9 45.4z m30.7 -83.8 l20.2 -35.3 0 -7 c0 -12.3 5.9 -17.7 18.7 -17.1 7.7 0.4 10.7 1.8 14.7 7.1 2.1 2.9 3.2 11.4 2.2 17.2 -0.9 4.7 -5.6 9.9 -10.4 11.3 -3.7 1.1 -4.4 2.1 -18 25.9 -7.8 13.7 -15.4 26.7 -16.8 29.1 -2.4 4 -2.4 4.2 -0.6 4.2 4.6 0 21.9 -5.3 30.5 -9.3 38.6 -18.1 64.7 -53.8 70.3 -96.3 1.6 -11.5 1.6 -13.3 0.1 -24.7 -6.4 -47.4 -38.1 -86.1 -83 -101.1 -23.6 -7.9 -45.8 -7.9 -69.4 0 -44.7 14.9 -76.5 53.5 -82.9 100.8 -1.8 12.9 -1.1 24.6 2.3 38.6 1.8 7.4 7 21.7 8.3 22.5 0.4 0.3 7.6 -11.2 15.9 -25.4 l15.1 -25.8 0 -8.5 c0 -7.2 0.4 -9 2.3 -11.8 3.9 -5.8 7 -7.4 15.1 -7.8 8.8 -0.5 13.3 1.3 17.4 6.6 2.2 2.9 2.7 4.8 3 10.9 0.3 4.3 -0.1 8.5 -0.8 10.2 -1.6 3.9 -6.1 8 -10.4 9.5 -3.3 1.1 -4.6 2.9 -14.4 19.7 -5.9 10.1 -14.7 25.1 -19.5 33.3 l-8.7 14.8 7.7 8 c9.3 9.5 18.1 16.5 19.2 15.2 0.5 -0.5 8.4 -13.9 17.6 -29.9 9.2 -15.9 19.3 -33.5 22.5 -39 24.1 -41.5 22 -37.3 22 -44.5 0 -8.6 2.1 -12.8 8 -15.7 9.2 -4.7 22.1 -1.9 26.1 5.7 2.3 4.3 2.6 15.8 0.5 19.8 -2 3.8 -5.5 6.8 -9.6 8.1 -3.3 1 -4.6 2.8 -15 20.9 -13.3 23.1 -21 36.4 -34.5 59.7 -5.4 9.4 -11.3 19.5 -13.1 22.7 l-3.2 5.6 8.2 2.6 c9.9 3.1 15.2 4.4 19.1 4.5 2.9 0.1 3.6 -1 23.3 -35.3z"/>
 </g>
 <g fill="#ffffff">
  <path d="M0 250 l0 -250 250 0 250 0 0 250 0 250 -250 0 -250 0 0 -250z m128.8 235.4 c2.1 -2.4 2.2 -3.4 2.2 -16.8 0 -17 -0.6 -18.5 -8.2 -19.3 -4.3 -0.5 -5 -0.3 -7.8 2.6 l-3.1 3.1 0.3 14.4 c0.3 12.3 0.6 14.7 2.2 16.4 3.5 3.9 10.8 3.7 14.4 -0.4z m127 0.1 c1.5 -1.8 2.2 -3.9 2.2 -6.6 0 -5 -1.1 -7.2 -6.5 -12.9 -5 -5.2 -6.2 -8.2 -4.1 -9.9 1.9 -1.6 3.6 -0.6 3.6 2 0 1.5 0.7 1.9 3.5 1.9 2.8 0 3.5 -0.4 3.5 -2 0 -10.9 -16.4 -12.3 -18.4 -1.6 -0.9 4.8 1.5 10.2 6.9 15.4 4.6 4.3 6.1 9.4 3.3 10.4 -2.3 0.9 -3.8 -0.3 -3.8 -2.8 0 -2.1 -0.5 -2.4 -3.5 -2.4 -3 0 -3.5 0.3 -3.5 2.3 0 3.3 2.2 7 5 8.5 3.6 1.8 9.1 0.8 11.8 -2.3z m112.1 2.4 c4 -1.4 5.1 -3.5 5.1 -9.8 0 -5 -0.1 -5.1 -3 -5.1 -2.8 0 -3 0.2 -3 3.9 0 4.3 -1.9 6.8 -3.8 4.9 -1.5 -1.5 -1.7 -25.4 -0.2 -26.3 1.8 -1.1 4 1.5 4 4.6 0 2.6 0.4 2.9 3 2.9 2.9 0 3 -0.2 3 -4.5 0 -7.8 -6.2 -11.6 -13.3 -8.4 -3.9 1.8 -4.7 5 -4.7 18.7 0 13.7 0.8 16.8 5 18.9 3.1 1.6 3.9 1.6 7.9 0.2z m-215.9 -2.1 c0 -3.4 1.5 -5 4.1 -4.6 1.9 0.2 2.5 1 2.7 3.6 0.3 2.9 0.6 3.2 3.8 3.2 4.2 0 4.1 0.9 0.6 -21 l-2.7 -16.5 -4.8 -0.3 c-2.6 -0.2 -4.7 0 -4.7 0.3 0 0.9 -4.9 31.6 -5.6 34.8 -0.5 2.5 -0.4 2.7 3 2.7 3.1 0 3.6 -0.3 3.6 -2.2z m36 -5.6 c0 -6.3 0.7 -9.8 3.5 -18.2 1.9 -5.7 3.5 -10.8 3.5 -11.2 0 -0.4 -1.5 -0.8 -3.3 -0.8 -3.1 0 -3.4 0.3 -4.6 5 -0.7 2.8 -1.6 5 -2 5 -0.4 0 -1.3 -2.2 -2 -5 -1.3 -4.9 -1.4 -5 -5.1 -5 l-3.9 0 3.5 10.2 c2.8 8.3 3.4 11.7 3.4 18.3 0 4.5 0.3 8.5 0.7 8.8 0.3 0.4 1.9 0.7 3.5 0.7 l2.8 0 0 -7.8z m25 5.6 c0 -3.4 1.5 -5 4.1 -4.6 1.9 0.2 2.5 1 2.7 3.6 0.3 2.9 0.6 3.2 3.8 3.2 4.2 0 4.1 0.9 0.6 -21 l-2.7 -16.5 -4.8 -0.3 c-2.6 -0.2 -4.7 0 -4.7 0.3 0 0.9 -4.9 31.6 -5.6 34.8 -0.5 2.5 -0.4 2.7 3 2.7 3.1 0 3.6 -0.3 3.6 -2.2z m91 -13.8 l0 -16 3 0 c2.7 0 3 -0.3 3 -3 l0 -3 -9.5 0 -9.5 0 0 3 c0 2.7 0.3 3 3 3 l3 0 0 16 0 16 3.5 0 3.5 0 0 -16z m37 13 c0 -2.9 -0.1 -3 -5 -3 l-5 0 0 -5.5 0 -5.5 4 0 c3.8 0 4 -0.2 4 -3 0 -2.8 -0.2 -3 -4 -3 l-4 0 0 -4.5 0 -4.5 5 0 c4.9 0 5 -0.1 5 -3 l0 -3 -8.5 0 -8.5 0 0 18.3 c0 10.1 0.3 18.7 0.7 19 0.3 0.4 4.2 0.7 8.5 0.7 l7.8 0 0 -3z m53 -5.5 c0 -8.4 0 -8.5 2.5 -8.5 2.4 0 2.4 0.2 2.7 8.3 l0.3 8.2 3.3 0.3 3.2 0.3 0 -19 0 -19.1 -3.5 0 -3.5 0 0 7.5 c0 7.3 -0.1 7.5 -2.5 7.5 -2.4 0 -2.5 -0.2 -2.5 -7.5 l0 -7.5 -3.5 0 -3.5 0 0 18.3 c0 10.1 0.3 18.7 0.7 19 0.3 0.4 1.9 0.7 3.5 0.7 l2.8 0 0 -8.5z m-41.8 -53.1 c21.2 -5.4 35.5 -21.9 37.4 -43.3 1.2 -13.1 -4.5 -28 -14.4 -37.7 -18.3 -18.1 -48.5 -17.9 -66.6 0.3 -11 11.1 -16.2 27 -13.7 41.2 3.4 19 17 34 35.6 39.2 7.8 2.2 13.9 2.3 21.7 0.3z m-73.5 -96.9 c36.8 -4.9 68.5 -20.2 94.3 -45.5 26.6 -26.2 42.1 -56.9 47.9 -95.3 3.3 -21.2 2.5 -37.4 -3 -61 -7.5 -32.7 -27.3 -65.4 -52.4 -86.5 -26.2 -22 -52.4 -33.7 -87 -38.6 -19.2 -2.8 -37.6 -1.5 -59.8 4 -58.3 14.6 -105.1 62.4 -118.6 121.1 -5.4 23.4 -6.2 39.4 -3.1 60.4 5.8 38.9 21.1 69.5 48 95.9 35.4 34.8 85.3 51.8 133.7 45.5z"/>
  <path d="M120.2 481.8 c-1.4 -1.4 -1.7 -23.5 -0.3 -25.7 0.5 -0.8 1.6 -1.1 2.5 -0.8 1.4 0.6 1.6 2.4 1.4 13.8 -0.3 13 -0.9 15.4 -3.6 12.7z"/>
  <path d="M154 473.6 c0 -0.7 0.3 -3.5 0.7 -6.2 0.7 -4.6 0.8 -4.7 1.4 -1.9 1.3 5.6 1 9.5 -0.6 9.5 -0.8 0 -1.5 -0.6 -1.5 -1.4z"/>
  <path d="M215 473.6 c0 -0.7 0.3 -3.5 0.7 -6.2 0.7 -4.6 0.8 -4.7 1.4 -1.9 1.3 5.6 1 9.5 -0.6 9.5 -0.8 0 -1.5 -0.6 -1.5 -1.4z"/>
  <path d="M267.6 288.1 c-0.3 -0.3 1.7 -4.2 4.3 -8.6 2.6 -4.4 10.9 -18.9 18.6 -32.2 12.9 -22.6 14.1 -24.3 17.4 -25.4 10.8 -3.4 14.4 -16 7 -24.4 -5.3 -6 -13.5 -7 -19.9 -2.5 -4.6 3.3 -6.2 7.3 -5.8 14.4 l0.3 6.1 -20.9 36.3 -20.9 36.4 -5.6 -0.7 c-11.1 -1.4 -32.1 -7.7 -32.1 -9.6 0 -0.5 1.1 -2.6 2.4 -4.7 1.3 -2 6.1 -10.2 10.6 -18.2 4.6 -8 10.4 -18.1 13 -22.5 2.6 -4.4 12.3 -21.2 21.6 -37.2 15.7 -27.3 17.1 -29.4 20.4 -30.4 13.1 -4.2 15 -21.3 3 -27.6 -5.4 -2.9 -8.4 -2.9 -14 0 -6.1 3 -8.3 7.3 -7.6 15.1 0.4 5.8 0.4 5.8 -8.1 20.5 -10.2 17.5 -14.8 25.4 -37.8 65.1 -9.7 16.8 -18 30.8 -18.3 31.2 -2.2 2.2 -32.2 -24.6 -32.2 -28.6 0 -0.9 4.8 -9.9 10.7 -19.9 5.9 -10 14.8 -25.4 19.9 -34.1 8.4 -14.4 9.7 -16 12.9 -17.2 10.8 -3.7 14.9 -16 8.2 -24.7 -9.4 -12.3 -28.7 -5.9 -28.7 9.5 0 2.6 0.5 5.6 1.1 6.6 0.9 1.4 -1.9 6.9 -16.4 31.7 -9.7 16.5 -18 30.1 -18.6 30.3 -2.8 0.9 -11.4 -24.5 -13.6 -39.8 -1.9 -13.9 -1.9 -20.1 0 -33.8 6.5 -46.2 38.6 -84.8 82.8 -99.6 13 -4.3 23.2 -5.9 37.7 -5.9 14.5 0 24.7 1.6 37.7 5.9 44.2 14.8 76.3 53.4 82.8 99.6 1.9 13.7 1.9 19.9 0 33.8 -3.9 27.4 -16.5 52.1 -36.4 71.3 -19 18.3 -40.3 28.9 -66.4 33 -4.8 0.8 -8.9 1.1 -9.1 0.8z"/>
 </g>
</svg>