<svg class="img-fluid safari" id="outputsvg" xmlns="http://www.w3.org/2000/svg" style=" " width="383.17472" height="468.17713056" viewBox="0 0 5950 7270"><g id="lcVuci1uekbG1tEabylnkc" fill="rgb(3,120,66)" style="transform: none;"><g style="transform: none;"><path id="p11p1rjH4v" d="M471 6634 c-74 -20 -141 -72 -177 -136 l-29 -53 -3 -363 c-3 -432 -2 -444 81 -526 141 -140 372 -105 457 68 l31 62 -3 385 -3 384 -27 46 c-67 114 -200 168 -327 133z m122 -195 c44 -20 47 -41 47 -382 0 -356 -1 -362 -61 -385 -31 -12 -41 -11 -72 1 -55 24 -59 50 -55 414 l3 315 28 24 c30 26 71 31 110 13z"></path><path id="poMAkYo9o" d="M2900 6641 c-96 -22 -159 -70 -200 -154 -27 -55 -31 -72 -28 -128 l3 -64 90 0 90 0 7 55 c8 71 39 100 104 100 77 0 100 -45 92 -179 -2 -49 -9 -75 -22 -90 -10 -11 -64 -38 -122 -61 -190 -77 -239 -148 -232 -340 4 -116 22 -165 82 -228 56 -60 100 -77 201 -77 104 0 149 18 215 86 54 56 72 107 68 199 l-3 75 -78 3 c-91 3 -107 -5 -107 -55 0 -60 -24 -100 -67 -113 -77 -23 -123 25 -123 129 0 91 8 99 165 161 182 72 220 135 213 354 -5 145 -26 205 -94 265 -61 53 -172 80 -254 62z"></path><path id="prHjifNqY" d="M4680 6640 c-95 -20 -176 -96 -199 -187 -7 -26 -11 -178 -11 -396 0 -394 4 -423 63 -493 56 -64 116 -89 217 -89 98 0 145 19 198 80 55 62 66 92 66 185 l1 85 -90 0 -90 0 -6 -59 c-8 -71 -32 -100 -84 -100 -45 0 -65 20 -76 76 -11 59 -11 593 1 643 11 47 32 65 76 65 52 0 76 -28 82 -93 2 -31 10 -61 17 -67 8 -6 46 -10 92 -8 l78 3 3 73 c3 85 -15 137 -72 200 -64 70 -166 102 -266 82z"></path><path id="p7AZUhRFm" d="M865 6622 c-4 -14 164 -798 240 -1120 5 -22 9 -23 87 -20 l82 3 123 550 c68 303 122 561 120 575 -2 24 -4 25 -93 28 l-91 3 -12 -73 c-7 -40 -17 -94 -23 -120 l-10 -48 -97 0 -97 0 -23 120 -23 120 -88 0 c-77 0 -89 -2 -95 -18z m382 -432 c-3 -11 -15 -76 -28 -145 -12 -69 -26 -122 -30 -118 -3 5 -16 62 -28 128 -12 66 -25 128 -27 138 -5 15 2 17 56 17 57 0 62 -2 57 -20z"></path><path id="p16qOmNZ41" d="M1662 6628 c-9 -9 -12 -73 -12 -245 l0 -233 -109 -321 c-60 -177 -107 -327 -104 -335 4 -11 28 -14 98 -14 81 0 94 2 99 18 11 38 97 338 103 356 3 10 8 14 12 10 5 -5 32 -93 62 -196 l53 -188 93 0 c71 0 95 3 99 14 3 8 -43 155 -103 327 l-108 314 -5 250 -5 250 -80 3 c-54 2 -84 -1 -93 -10z"></path><path id="piuXOkj04" d="M1975 6622 c-4 -14 164 -798 240 -1120 5 -22 9 -23 87 -20 l82 3 123 550 c68 303 122 561 120 575 -2 24 -4 25 -93 28 l-91 3 -12 -73 c-7 -40 -17 -94 -23 -120 l-10 -48 -97 0 -97 0 -23 120 -23 120 -88 0 c-77 0 -89 -2 -95 -18z m382 -432 c-3 -11 -15 -76 -28 -145 -12 -69 -26 -122 -30 -118 -3 5 -16 62 -28 128 -12 66 -25 128 -27 138 -5 15 2 17 56 17 57 0 62 -2 57 -20z"></path><path id="pA6J5HtM3" d="M3462 6628 c-9 -9 -12 -131 -12 -490 l0 -477 -87 -3 -88 -3 0 -85 0 -85 269 -3 c194 -2 272 1 283 9 10 9 13 32 11 88 l-3 76 -92 3 -93 3 0 477 c0 359 -3 481 -12 490 -7 7 -42 12 -88 12 -46 0 -81 -5 -88 -12z"></path><path id="pV1d8riWN" d="M3901 6627 c-8 -11 -10 -166 -9 -578 l3 -564 250 0 250 0 0 85 0 85 -155 5 -155 5 -3 147 -3 147 138 3 138 3 3 78 c2 50 -1 84 -9 93 -9 11 -42 14 -140 14 l-129 0 0 145 0 144 158 3 157 3 0 95 0 95 -241 3 c-195 2 -243 0 -253 -11z"></path><path id="pbVJhEaaO" d="M5151 6627 c-8 -11 -10 -161 -9 -578 l3 -564 90 0 90 0 3 238 2 237 85 0 85 0 2 -237 3 -238 90 0 90 0 0 575 0 575 -78 3 c-50 2 -84 -1 -93 -9 -11 -9 -14 -57 -14 -250 l0 -239 -85 0 -85 0 -2 248 -3 247 -81 3 c-60 2 -84 -1 -93 -11z"></path><path id="p1Fn0DXNTQ" d="M3950 5066 c-211 -59 -370 -220 -425 -431 -71 -274 130 -592 417 -660 191 -45 384 12 521 153 220 229 219 562 -3 782 -138 137 -347 201 -510 156z"></path><path id="pIos92XAr" d="M2891 3919 c-284 -30 -605 -143 -839 -295 -252 -164 -473 -388 -625 -634 -197 -319 -312 -791 -279 -1148 65 -718 476 -1322 1109 -1628 284 -137 669 -212 950 -186 442 42 799 190 1135 471 250 209 470 540 577 867 132 402 134 793 5 1204 -133 425 -398 776 -778 1031 -364 245 -828 362 -1255 318z m309 -907 l245 -427 5 -92 c4 -72 10 -98 26 -119 68 -92 176 -102 254 -24 90 90 63 219 -56 275 -63 30 -66 33 -291 425 -244 424 -234 396 -145 385 429 -51 809 -281 1044 -629 263 -393 326 -854 177 -1301 -148 -444 -494 -784 -944 -928 -161 -51 -235 -61 -440 -61 -146 0 -199 5 -282 22 -289 62 -521 189 -734 401 -171 172 -282 349 -354 564 -108 326 -106 614 5 962 38 119 75 195 94 195 8 0 36 -35 64 -77 70 -111 288 -484 334 -574 37 -73 38 -78 27 -120 -29 -107 42 -216 152 -234 32 -6 51 -2 94 20 56 27 88 66 105 127 21 70 -35 163 -117 200 -24 10 -54 33 -67 51 -31 41 -387 649 -433 740 -19 39 -31 76 -28 86 12 40 291 296 352 324 44 20 -10 104 549 -858 131 -225 244 -428 251 -449 9 -24 12 -55 8 -77 -13 -76 25 -144 102 -183 43 -21 86 -20 132 4 138 70 131 241 -13 308 -24 12 -56 37 -71 56 -14 18 -136 224 -271 457 -405 699 -484 837 -484 848 0 30 322 123 450 130 10 0 103 -153 260 -427z"></path></g></g></svg>