<?xml version="1.0" encoding="utf-8"?>
<!DOCTYPE svg PUBLIC "-//W3C//DTD SVG 20010904//EN" "http://www.w3.org/TR/2001/REC-SVG-20010904/DTD/svg10.dtd">
<svg version="1.0" xmlns="http://www.w3.org/2000/svg" width="500px" height="500px" viewBox="0 0 500 500" preserveAspectRatio="xMidYMid meet">
 <g fill="#000">
  <path d="M238 380.9 c-65.8 -3.6 -126.3 -43.7 -156 -103.4 -12 -24.3 -18.2 -46.7 -19.9 -72.2 -6.3 -98.6 62.9 -184.8 160.5 -199.8 13.1 -2 41.7 -2 54.8 0 97.3 14.9 166.7 101.1 160.5 199.3 -5.6 88.7 -73 161.8 -160.9 174.6 -12.9 1.9 -23.9 2.3 -39 1.5z m46 -21.8 c59.8 -13.2 107.5 -55.4 126.4 -112.2 6.9 -20.6 8 -27.7 8 -53.9 0.1 -25.6 -0.6 -30.8 -6.5 -50.2 -18.1 -59.6 -66.2 -103.4 -128.4 -117 -8.7 -2 -13 -2.2 -33.5 -2.2 -20.5 0 -24.8 0.2 -33.5 2.2 -62.1 13.6 -110.3 57.5 -128.4 116.9 -5.9 19.5 -6.6 24.7 -6.5 50.3 0 26.2 1.1 33.2 7.9 53.9 5 14.8 17.2 38.9 18.8 37.1 0.2 -0.3 11.3 -19.2 24.5 -42 l24.1 -41.5 -1.5 -4.5 c-5.6 -16.3 12.8 -30.7 27.3 -21.3 8.3 5.3 10.9 16.2 5.9 24.7 -2.4 4.1 -8.7 8.6 -12.2 8.6 -1.7 0 -20.5 31.3 -53.7 89.2 l-2.8 4.9 10.8 10.7 c10.1 10 26.1 22.7 28.5 22.7 0.5 0 19.2 -31.5 41.5 -70 l40.4 -70 -1.1 -4.3 c-1.9 -7.5 2 -16.1 9.1 -19.7 3.3 -1.8 12.1 -2 15.2 -0.4 6.3 3.3 9.8 8.8 9.9 15.8 0 8.1 -5.2 14.9 -13 17.1 -3.6 0.9 -4.4 2.2 -43.4 69.7 -21.8 37.9 -40 69.6 -40.3 70.5 -0.6 1.4 0.5 2.3 4.9 4.2 8.8 3.9 26.9 9.5 31.7 9.8 l4.3 0.3 28.4 -49 28.3 -49 -1.1 -4.3 c-2.7 -10.9 5.7 -21.4 17 -21.4 9.9 0 17.1 7.1 17.2 17.1 0 8.1 -5.2 14.9 -13 17.1 -3.6 0.9 -4.4 2.1 -29.9 46.4 -14.5 25 -26.3 45.8 -26.3 46.2 0 1.5 35.5 -0.5 45 -2.5z"/>
 </g>
 <g fill="#000">
  <path d="M315.1 495.9 c-9.3 -1.2 -19.9 -6.5 -27.2 -13.8 -18.9 -18.9 -18.9 -49.3 0 -68.2 14.6 -14.5 36.3 -18.3 54.9 -9.4 30 14.2 36.8 54 13.3 77.6 -6.7 6.6 -17.5 12.5 -25 13.4 -2.5 0.3 -5.7 0.7 -7.1 0.9 -1.4 0.1 -5.4 -0.1 -8.9 -0.5z"/>
 </g>
</svg>