<svg class="img-fluid" id="outputsvg" xmlns="http://www.w3.org/2000/svg" style="transform: matrix(0.856831, 0, 0, 0.856831, 0, 0); transform-origin: 50% 50%; cursor: move; max-height: none; transition: transform 200ms ease-in-out 0s;" width="200" height="223" viewBox="0 0 2000 2230"><g id="l7gE6aPyZIQ1of2LTDY2q6X" fill="rgb(255,255,255)" style="transform: none;"><g><path id="pacTJ5MEl" d="M462 1593 c-6 -2 -33 -31 -58 -64 -25 -32 -52 -59 -60 -59 -9 0 -14 -11 -14 -36 0 -47 31 -73 88 -74 40 0 42 -2 42 -29 0 -32 42 -71 77 -71 10 0 23 -10 28 -22 12 -27 62 -35 131 -20 24 5 41 6 38 1 -3 -5 -16 -9 -30 -9 -21 0 -24 -5 -24 -34 0 -43 41 -76 93 -76 31 0 35 4 42 33 7 30 9 27 15 -28 3 -33 14 -72 24 -87 51 -78 220 -77 260 1 25 47 22 161 -5 195 -36 45 -75 59 -148 52 -50 -4 -62 -3 -53 6 7 7 12 29 12 50 0 38 0 38 -50 38 -50 0 -50 0 -50 34 0 43 -41 76 -94 76 -32 0 -36 -3 -36 -26 0 -25 -52 -107 -87 -135 -15 -13 -15 -12 -5 6 6 11 22 35 36 54 49 66 46 149 -6 200 -29 28 -38 31 -92 30 -34 0 -67 -3 -74 -6z m98 -108 c13 -16 10 -23 -33 -77 -29 -39 -67 -51 -67 -22 0 18 67 114 80 114 4 0 13 -7 20 -15z m477 -352 c4 -9 -6 -27 -25 -46 -29 -29 -33 -30 -57 -17 -33 18 -32 43 6 74 25 21 34 24 50 15 11 -6 23 -17 26 -26z"></path></g></g><g id="l6AFA2f9bEpBoJ5W5gzkpIu" fill="rgb(39,120,190)" style="transform: none;"><g><path id="pT6ycsQyv" d="M1211 2206 c-23 -24 -23 -24 21 -31 130 -21 306 -121 403 -227 30 -34 57 -59 58 -57 11 13 254 288 275 312 26 27 26 27 -354 27 -381 0 -381 0 -403 -24z"></path><path id="piGKJSXJJ" d="M0 311 c0 -288 0 -288 123 -295 68 -4 163 -4 211 0 88 7 88 7 82 48 -21 159 -11 284 34 428 37 117 56 108 -215 108 -235 0 -235 0 -235 -289z"></path></g></g><g id="l4j1JHCPtysB0XQB3oBWOQL" fill="rgb(35,112,182)" style="transform: none;"><g><path id="pTtxljtv4" d="M1153 2142 c-62 -70 -62 -70 -14 -76 68 -9 188 -51 236 -83 62 -41 123 -102 165 -165 38 -57 38 -57 104 17 36 40 66 78 66 83 0 22 -105 124 -175 171 -80 53 -203 105 -275 116 -46 7 -46 7 -107 -63z"></path><path id="pQav0sQfY" d="M421 527 c-38 -129 -53 -251 -46 -370 3 -60 9 -115 12 -124 5 -12 18 -14 65 -10 33 3 62 7 64 10 3 3 0 35 -7 73 -16 94 -5 226 31 363 17 62 30 118 30 122 0 5 -29 9 -64 9 -63 0 -63 0 -85 -73z"></path><path id="pRXMpSR7B" d="M915 82 c-27 -14 -77 -34 -110 -43 -60 -18 -60 -18 67 -18 76 -1 129 3 133 9 9 15 -14 80 -28 79 -7 0 -34 -12 -62 -27z"></path></g></g><g id="l5UYSpu6r8UMLqRrQs64ABz" fill="rgb(31,103,172)" style="transform: none;"><g><path id="p1CImKngqg" d="M1087 2069 c-27 -34 -27 -34 41 -40 152 -15 294 -109 377 -248 17 -28 33 -51 36 -51 3 0 18 14 34 30 29 31 29 31 10 67 -25 47 -128 153 -180 187 -51 32 -174 74 -241 82 -49 6 -52 5 -77 -27z"></path><path id="pQpWYKuxy" d="M536 592 c-2 -4 -17 -55 -31 -112 -30 -115 -43 -317 -28 -400 9 -45 9 -45 48 -44 22 1 66 6 98 13 43 9 57 17 57 30 0 9 -4 21 -9 27 -14 15 -31 134 -31 215 1 68 11 129 39 219 19 59 18 60 -63 60 -41 0 -77 -4 -80 -8z"></path><path id="pphv1dx5V" d="M1147 361 c-3 -27 -16 -69 -27 -92 -27 -53 -99 -130 -143 -154 -33 -18 -33 -18 -14 -56 17 -35 21 -37 55 -32 96 13 208 35 268 54 63 20 66 21 59 47 -22 94 -136 282 -171 282 -18 0 -22 -8 -27 -49z"></path></g></g><g id="l3lOCGqpSxm1qUquHign5EP" fill="rgb(27,95,164)" style="transform: none;"><g><path id="pOzwTHbtA" d="M1037 2012 c-26 -26 -47 -50 -47 -54 0 -3 42 -5 93 -4 85 1 97 -2 160 -32 87 -43 157 -113 200 -203 34 -70 34 -70 80 -19 45 50 46 53 32 80 -21 41 -83 121 -119 153 -82 75 -204 126 -296 127 -53 0 -58 -2 -103 -48z"></path><path id="pqw2G46TT" d="M1063 637 c53 -66 86 -141 89 -204 1 -26 7 -54 15 -61 40 -40 130 -202 146 -262 5 -20 5 -20 59 1 29 11 70 30 91 42 45 25 44 31 -9 147 -49 104 -114 197 -197 281 -81 81 -132 109 -194 109 -43 0 -43 0 0 -53z"></path><path id="pJKluECUM" d="M654 583 c-3 -10 -10 -29 -14 -43 -33 -101 -41 -253 -19 -387 14 -89 23 -98 79 -83 36 10 41 14 37 33 -43 171 -47 263 -16 372 37 131 38 125 -15 125 -36 0 -48 -4 -52 -17z"></path></g></g><g id="l6h9KkH8qv8Z4eW1RdvnqcM" fill="rgb(23,87,155)" style="transform: none;"><g><path id="pHHP6ItcK" d="M1018 1984 c-9 -3 -24 -16 -32 -29 -15 -23 -15 -25 8 -40 20 -13 32 -14 64 -5 51 13 119 -1 182 -37 88 -50 145 -121 178 -217 19 -57 19 -57 51 -19 17 20 31 43 31 49 0 6 -14 39 -31 73 -41 82 -113 152 -196 192 -56 27 -80 32 -152 35 -47 2 -94 1 -103 -2z"></path><path id="p12UH6BaIB" d="M870 822 c25 -20 75 -65 111 -99 36 -35 72 -63 80 -63 57 0 199 -125 283 -248 39 -57 98 -174 119 -235 7 -18 8 -18 38 0 17 10 55 41 85 70 54 52 54 52 35 100 -63 160 -260 410 -351 445 -98 38 -253 67 -360 67 -85 0 -85 0 -40 -37z"></path><path id="p18cHfPDfU" d="M707 563 c-49 -125 -51 -375 -3 -470 11 -22 11 -22 95 18 74 34 83 41 78 61 -37 166 -37 171 -27 232 6 34 22 85 36 115 37 82 38 81 -70 81 -94 0 -94 0 -109 -37z"></path></g></g><g id="l3Jmfsb22DVtyAe9mGMfU1w" fill="rgb(85,85,85)" style="transform: none;"><g><path id="pxDrRqQr7" d="M535 2058 c-28 -16 -35 -28 -35 -65 0 -46 65 -86 86 -52 4 7 0 9 -14 5 -32 -11 -62 10 -62 43 0 34 28 61 64 61 21 0 30 -7 41 -32 8 -18 14 -26 15 -17 0 22 -30 56 -55 63 -11 3 -29 0 -40 -6z"></path><path id="p11e7Nl6L" d="M640 1950 c-41 -41 -13 -112 45 -112 62 0 87 73 39 111 -33 26 -58 27 -84 1z m78 -6 c42 -29 16 -94 -38 -94 -54 0 -68 54 -24 89 32 25 33 25 62 5z"></path><path id="p10VwzPf4R" d="M810 1871 c0 -4 -17 -26 -38 -49 -42 -46 -38 -49 37 -31 24 5 46 8 48 5 9 -9 -41 -66 -54 -62 -21 9 -15 -2 10 -15 12 -6 19 -8 15 -4 -4 5 8 28 28 52 20 24 34 46 31 49 -2 3 -24 0 -48 -5 -68 -16 -73 -14 -49 17 12 15 29 30 38 33 14 5 14 6 -1 12 -9 3 -17 3 -17 -2z"></path><path id="pfOIWbXvG" d="M920 1769 c-13 -9 -13 -10 2 -6 21 7 52 -16 46 -34 -3 -9 -20 -14 -48 -14 -28 0 -45 -5 -48 -14 -3 -10 0 -11 9 -5 8 5 32 9 54 9 46 0 58 24 29 56 -20 22 -24 23 -44 8z"></path><path id="pkJLHqF4l" d="M996 1656 c-17 -18 -37 -35 -44 -37 -8 -3 -5 -9 9 -17 12 -8 19 -10 16 -5 -3 5 10 26 29 47 33 36 36 37 57 23 12 -8 23 -22 25 -31 5 -23 -46 -88 -61 -79 -7 4 -5 -1 3 -11 11 -14 15 -15 19 -5 2 8 15 28 28 45 28 38 29 58 3 84 -28 28 -48 25 -84 -14z"></path><path id="p1EZvnTvIK" d="M879 1668 c15 -20 36 -23 46 -8 3 6 -1 7 -10 4 -8 -4 -23 0 -33 7 -15 13 -16 12 -3 -3z"></path><path id="p12jPrdshm" d="M1160 1596 c0 -8 -17 -33 -38 -55 -33 -35 -35 -40 -20 -50 13 -8 16 -8 13 2 -6 17 61 91 75 82 6 -4 15 -17 20 -29 8 -20 9 -20 9 -1 0 11 -13 30 -30 43 -23 18 -29 20 -29 8z"></path><path id="p1FuAa1F6g" d="M1242 1475 c-37 -50 -49 -55 -61 -23 -6 17 -9 18 -13 6 -4 -10 8 -26 35 -47 43 -33 76 -44 36 -12 -23 19 -23 19 11 57 19 22 38 38 44 36 5 -2 4 4 -4 12 -7 9 -13 16 -14 16 0 -1 -16 -21 -34 -45z"></path><path id="pu9PErIlO" d="M1350 1439 c0 -15 -49 -73 -69 -80 -13 -5 -11 -8 9 -19 14 -7 22 -9 18 -5 -9 10 62 96 73 89 5 -3 9 -3 9 0 0 3 -9 10 -20 16 -15 8 -20 8 -20 -1z"></path><path id="pnmHguAbM" d="M1420 1389 c0 -20 -55 -79 -75 -79 -14 0 -16 -3 -7 -9 7 -4 38 -4 68 2 30 5 58 6 62 2 4 -4 -8 -20 -25 -35 -22 -20 -29 -32 -21 -36 7 -4 14 -2 16 4 2 6 17 28 34 49 34 43 27 50 -40 34 -32 -7 -42 -6 -42 3 0 18 45 57 55 49 5 -5 3 0 -4 10 -15 20 -21 21 -21 6z"></path><path id="p5IgiTkyC" d="M1515 1255 c-14 -13 -25 -34 -25 -47 0 -20 3 -18 18 11 22 45 54 56 84 31 19 -15 21 -22 11 -37 -6 -10 -16 -17 -22 -15 -18 4 -12 -7 10 -19 12 -6 19 -7 15 -1 -3 5 1 15 9 22 19 16 2 54 -32 69 -34 16 -41 14 -68 -14z"></path><path id="pKgu51bj6" d="M1519 1160 c26 -23 46 -25 57 -8 4 7 3 8 -5 4 -6 -4 -26 0 -44 8 -32 16 -32 16 -8 -4z"></path><path id="pUtINt5LX" d="M181 1140 c-7 -16 -25 -43 -40 -59 -28 -30 -28 -30 5 -47 27 -15 35 -16 48 -5 9 8 16 21 16 31 0 20 54 44 74 33 7 -4 6 -1 -1 7 -10 11 -20 11 -51 2 -60 -18 -68 -12 -32 25 15 17 16 24 7 32 -9 7 -16 2 -26 -19z m19 -75 c0 -19 -25 -36 -44 -29 -20 8 -20 13 0 35 17 19 44 15 44 -6z"></path><path id="ph4qCmSFS" d="M314 1072 c5 -8 -8 -31 -33 -61 -40 -48 -40 -48 -10 -70 25 -18 33 -20 42 -11 8 9 8 11 1 7 -6 -4 -19 -1 -29 7 -14 10 -16 16 -6 34 6 12 15 22 20 22 14 0 31 -26 23 -36 -4 -4 1 -2 11 6 18 13 18 14 -1 21 -30 11 -34 24 -11 45 21 19 21 18 45 -9 22 -26 34 -27 16 -2 -11 16 -77 61 -68 47z"></path><path id="p1FHk4Wc5G" d="M391 944 c-12 -15 -21 -36 -21 -48 0 -16 4 -13 18 14 24 48 65 62 95 32 17 -18 20 -26 10 -40 -6 -9 -17 -16 -24 -14 -10 3 -10 0 0 -12 12 -14 15 -13 31 7 16 19 16 25 4 48 -24 47 -81 53 -113 13z"></path><path id="phhI61MEl" d="M554 881 c0 -9 -3 -34 -6 -56 -4 -22 -4 -32 -1 -22 5 21 28 18 28 -4 0 -8 -10 -15 -22 -17 -13 -2 -23 -10 -23 -18 0 -20 3 -19 71 25 45 28 57 40 45 44 -9 4 -16 2 -16 -2 0 -15 -31 -21 -51 -11 -21 12 -25 40 -8 57 7 7 6 12 -3 16 -8 3 -14 -2 -14 -12z"></path><path id="pHNPLLYAC" d="M380 865 c0 -6 62 -45 71 -45 4 0 9 6 12 14 4 10 0 12 -14 9 -10 -3 -30 2 -44 11 -14 9 -25 14 -25 11z"></path><path id="pGn99yyK2" d="M693 793 c9 -14 -62 -105 -76 -98 -7 4 -3 -1 8 -9 18 -15 20 -15 26 1 4 10 20 33 36 52 31 36 48 36 63 -3 8 -20 9 -20 9 -1 1 12 -13 29 -35 43 -20 13 -34 20 -31 15z"></path></g></g><g id="l2wkS3lNv6gey4gnVAvAdml" fill="rgb(19,78,145)" style="transform: none;"><g><path id="pT1e2tx7D" d="M1016 1937 c-38 -12 -38 -12 38 -65 99 -69 213 -161 294 -236 63 -59 63 -59 88 -35 30 28 29 58 -6 132 -56 119 -178 204 -305 212 -41 3 -86 0 -109 -8z"></path><path id="p16W4fQo2Y" d="M1174 1156 c-6 -16 -55 -75 -110 -132 -51 -53 -148 -34 -185 36 -10 19 -26 38 -35 43 -21 12 -165 -1 -197 -18 -14 -7 -39 -16 -56 -20 -17 -4 -31 -10 -31 -13 0 -4 17 -18 37 -32 20 -14 88 -62 149 -107 110 -80 115 -82 181 -87 116 -9 133 -12 233 -39 86 -24 102 -32 158 -82 107 -96 233 -280 282 -409 10 -28 10 -28 30 -3 35 44 69 129 76 188 19 159 -89 378 -293 597 -78 83 -78 83 -155 89 -68 5 -78 4 -84 -11z"></path><path id="pKfDoBfv4" d="M916 1045 c10 -8 26 -14 34 -14 11 0 10 3 -4 14 -11 8 -27 15 -35 15 -11 0 -10 -4 5 -15z"></path><path id="p1DErO1y9Y" d="M861 563 c-57 -112 -64 -249 -20 -390 6 -18 14 -33 19 -33 20 0 113 97 136 141 54 107 53 196 -3 280 -23 35 -30 39 -69 39 -40 0 -45 -3 -63 -37z"></path></g></g><g id="l4l4gfvShlxrE74UZVU1WP4" fill="rgb(16,68,127)" style="transform: none;"><g><path id="p1GpAPeFXx" d="M922 1469 c-23 -9 -23 -12 -17 -86 9 -108 11 -113 46 -113 30 0 95 -27 86 -36 -2 -3 11 -20 29 -38 28 -28 34 -41 34 -78 0 -44 -30 -108 -50 -108 -6 0 -9 -4 -5 -9 16 -27 137 68 158 123 5 13 17 15 64 10 32 -3 69 -7 83 -10 21 -3 16 4 -30 47 -53 49 -174 149 -310 256 -54 42 -69 49 -88 42z"></path><path id="pgS5IUu7p" d="M470 1281 c0 -5 -15 -14 -33 -20 -19 -6 -50 -20 -70 -30 -44 -22 -49 -16 108 -126 100 -70 113 -76 145 -70 19 4 40 11 47 17 6 5 40 13 74 18 63 9 87 4 117 -27 12 -12 32 -18 32 -10 0 2 -7 18 -16 35 -8 18 -14 46 -12 64 3 33 3 33 -42 33 -37 0 -44 -3 -42 -17 4 -24 -7 -22 -43 7 -30 24 -30 24 -2 25 30 0 34 14 15 55 -13 29 -11 28 -79 14 -44 -9 -54 -9 -67 5 -14 13 -14 16 -2 17 8 1 2 5 -15 9 -43 11 -115 12 -115 1z"></path><path id="p5fc0wo1Q" d="M924 1166 c-63 -63 -35 -136 52 -136 35 0 47 5 73 35 37 43 39 78 6 110 -37 38 -88 34 -131 -9z"></path></g></g><g id="lwaze96GxtCiC029sYaHhd" fill="rgb(15,59,112)" style="transform: none;"><g><path id="paMq6jMiV" d="M786 1593 c-10 -10 -7 -101 4 -108 6 -3 10 -21 10 -38 0 -50 10 -74 36 -87 13 -7 21 -17 18 -22 -3 -4 4 -8 15 -8 12 0 21 -3 21 -7 0 -5 -27 -44 -59 -88 -45 -61 -56 -83 -48 -93 6 -7 19 -11 29 -9 12 4 23 -3 32 -20 13 -26 13 -26 19 15 9 51 53 97 102 106 44 9 91 -15 120 -62 11 -17 23 -31 28 -32 17 0 5 58 -18 93 -29 43 -71 67 -115 67 -31 0 -33 5 -31 50 1 14 -3 38 -9 54 -9 24 -8 28 10 33 11 3 20 9 20 13 0 13 -177 150 -184 143z"></path><path id="pXmkWLbYZ" d="M350 1373 c-8 -3 -34 -19 -59 -35 -25 -15 -53 -28 -63 -28 -31 0 -20 -13 56 -67 78 -57 91 -61 121 -39 11 7 37 19 58 25 20 7 37 16 37 21 0 5 10 7 23 4 12 -3 37 -8 56 -10 30 -4 33 -3 21 11 -10 13 -9 15 7 15 11 0 28 9 38 20 18 19 17 20 -4 20 -12 0 -29 7 -38 15 -21 21 -46 15 -53 -12 -5 -23 -5 -23 -35 2 -28 23 -29 24 -7 25 12 0 22 5 22 10 0 6 -7 10 -15 10 -8 0 -15 5 -15 10 0 11 -124 13 -150 3z"></path><path id="pZ13dDq5a" d="M722 1261 c-69 -15 -87 -31 -36 -31 24 0 38 -22 23 -37 -5 -5 4 -9 23 -8 26 0 38 8 66 48 39 55 39 55 -76 28z"></path></g></g><g id="l21lkBRsAzaSmcTJ6m1oo8z" fill="rgb(13,50,95)" style="transform: none;"><g><path id="pzSjqdcda" d="M286 1875 c-62 -71 -130 -125 -226 -181 -61 -35 -61 -35 -58 -136 3 -101 3 -101 116 -190 66 -51 123 -88 136 -88 12 0 44 14 72 31 54 35 144 49 144 23 0 -8 5 -14 10 -14 6 0 10 5 10 10 0 6 9 10 20 10 29 0 102 101 98 136 -4 36 -48 69 -82 60 -29 -7 -109 -113 -102 -133 8 -19 -15 -15 -41 6 -27 22 -29 31 -8 31 8 0 33 25 56 55 47 62 65 75 106 75 32 0 79 -39 93 -76 12 -30 2 -58 -45 -122 -21 -30 -33 -56 -29 -66 3 -9 10 -13 15 -10 5 3 9 0 9 -5 0 -6 13 -11 29 -11 25 0 38 11 76 61 31 40 45 67 42 80 -7 25 2 24 38 -6 27 -22 28 -24 9 -25 -23 0 -68 -55 -58 -71 6 -11 56 -8 142 7 26 5 32 3 32 -12 0 -13 3 -15 11 -7 18 18 2 60 -30 79 -31 19 -41 39 -41 91 0 17 -4 34 -9 37 -5 3 -7 18 -5 34 3 27 -13 42 -227 210 -126 100 -233 182 -237 182 -4 0 -33 -29 -66 -65z"></path></g></g><g id="l64vj10hbLfUyZoGon7R6DY" fill="rgb(12,43,81)" style="transform: none;"><g><path id="p1DohFPCxd" d="M0 1921 c0 -165 3 -301 6 -301 12 0 119 63 181 108 61 42 196 180 191 193 -2 4 -82 68 -178 144 -96 76 -181 142 -187 148 -10 7 -13 -52 -13 -292z"></path></g></g></svg>