<svg class="img-fluid" id="outputsvg" xmlns="http://www.w3.org/2000/svg" style="transform: matrix(1.01591, 0, 0, 1.01591, 0, 0); transform-origin: 50% 50%; cursor: move; max-height: none; transition: transform 200ms ease-in-out 0s;" width="487" height="469" viewBox="0 0 4870 4690"><g id="l2FRVfmfmAp4vWeIcutybKd" fill="rgb(2,172,240)" style="transform: none;"><g><path id="p1TqW49xy" d="M0 4190 l0 -500 2435 0 2435 0 0 500 0 500 -2435 0 -2435 0 0 -500z m425 374 c50 -33 51 -36 119 -394 8 -41 18 -99 22 -127 6 -52 7 -53 40 -53 18 0 36 5 39 10 6 9 64 288 84 400 5 25 14 75 22 112 l13 68 41 -7 c50 -8 82 -28 99 -62 14 -29 52 -166 91 -336 14 -60 32 -137 40 -170 23 -93 43 -210 39 -214 -8 -8 -59 36 -71 61 -7 14 -19 54 -27 89 -8 35 -23 102 -34 149 -11 47 -32 139 -47 205 -15 66 -29 123 -32 128 -5 8 -73 10 -73 1 0 -13 -84 -420 -106 -514 -30 -128 -33 -133 -68 -124 -58 14 -76 68 -151 454 l-37 190 -38 0 c-37 0 -38 -1 -45 -42 -4 -24 -23 -113 -42 -198 -20 -85 -39 -174 -44 -198 -24 -120 -67 -202 -106 -202 -18 0 -17 4 22 158 19 76 60 243 91 372 30 129 57 241 59 248 6 17 71 15 100 -4z m701 -12 c15 -15 46 -72 68 -127 l41 -100 209 0 209 0 25 60 c57 137 71 164 96 181 15 9 29 14 32 11 3 -3 -13 -47 -34 -98 -22 -52 -88 -215 -147 -364 -129 -323 -161 -371 -213 -323 -29 28 -54 75 -76 148 -10 30 -23 66 -31 80 -7 14 -42 99 -78 190 -36 91 -84 209 -106 262 -23 54 -41 100 -41 103 0 13 21 2 46 -23z m1201 2 l28 -19 -96 -6 c-202 -13 -218 -45 -219 -419 l0 -235 -26 -39 -27 -39 -13 33 c-20 47 -19 433 1 530 26 125 75 179 190 211 48 13 130 5 162 -17z m723 8 c0 -3 -15 -23 -33 -46 -19 -23 -64 -86 -100 -141 -37 -55 -74 -111 -83 -125 -57 -84 -64 -98 -64 -136 1 -38 4 -42 122 -134 66 -52 116 -96 110 -98 -23 -7 -91 34 -212 128 -108 85 -133 100 -164 100 l-36 0 0 -160 c0 -98 -4 -160 -10 -160 -5 0 -24 13 -42 29 l-33 29 0 331 0 330 29 30 c53 55 56 48 56 -136 l0 -167 27 -28 c21 -22 36 -28 69 -28 37 0 46 5 66 33 12 17 26 37 30 42 13 17 73 110 111 172 47 76 122 154 142 147 8 -4 15 -9 15 -12z m1632 -47 c-21 -54 -29 -65 -49 -65 -27 0 -28 8 -9 54 13 30 59 76 76 76 5 0 -3 -29 -18 -65z m-1437 31 l30 -24 9 -361 c5 -199 6 -364 2 -368 -9 -10 -59 30 -73 58 -14 27 -19 719 -5 719 4 0 21 -11 37 -24z m515 -115 c0 -139 0 -140 34 -208 127 -253 208 -433 197 -433 -36 0 -99 107 -211 358 -22 49 -26 52 -59 52 -36 0 -37 -1 -93 -112 -31 -62 -72 -147 -92 -189 -20 -42 -47 -84 -61 -93 -34 -22 -38 -20 -22 12 8 15 26 52 41 82 14 30 30 62 35 70 5 8 18 38 29 65 12 28 41 94 66 147 44 93 46 101 46 190 0 69 5 104 19 134 17 38 42 63 64 64 4 0 7 -63 7 -139z m268 117 c20 -22 42 -68 42 -89 0 -6 -10 -9 -22 -7 -16 2 -30 18 -45 48 -12 25 -22 51 -22 58 -1 19 24 14 47 -10z m229 -558 c17 -47 34 -93 36 -102 4 -13 15 -18 44 -18 l38 0 30 77 c17 42 34 89 40 105 7 22 15 28 38 28 l29 0 -21 -36 c-12 -19 -21 -39 -21 -44 0 -5 -11 -34 -25 -64 -14 -30 -25 -62 -25 -70 0 -8 -14 -31 -31 -51 -24 -27 -39 -35 -58 -33 -22 3 -34 19 -78 108 -29 58 -52 113 -53 122 0 9 -4 20 -10 23 -5 3 -10 15 -10 26 0 15 6 20 23 17 18 -2 28 -19 54 -88z"></path><path id="p2Vi14Yjj" d="M1290 4220 c0 -33 11 -77 34 -132 18 -46 44 -114 57 -151 l23 -68 39 3 39 3 55 140 c30 77 58 144 64 149 5 6 9 24 9 42 0 65 3 64 -166 64 l-154 0 0 -50z"></path><path id="p7Cg9yJfq" d="M2417 3543 c-9 -2 -122 -65 -250 -140 -127 -74 -329 -189 -447 -255 -118 -67 -316 -180 -440 -253 -124 -72 -258 -151 -298 -174 -40 -23 -79 -52 -87 -64 -12 -19 -13 -139 -8 -881 l6 -859 26 -28 c14 -16 103 -70 196 -121 94 -52 194 -111 224 -131 29 -20 58 -37 63 -37 6 0 9 313 6 880 l-3 880 35 34 c19 19 175 113 345 209 171 96 373 211 450 257 205 122 168 128 515 -75 157 -92 371 -214 475 -272 105 -58 200 -115 213 -126 l22 -20 0 -541 c0 -298 -3 -565 -7 -594 l-6 -53 -95 -56 c-177 -103 -240 -135 -262 -128 -19 6 -20 16 -22 571 l-3 566 -30 25 c-32 27 -385 243 -397 243 -4 0 -9 -373 -10 -829 l-3 -829 -30 -38 c-17 -20 -56 -50 -87 -67 l-56 -29 -66 22 c-35 11 -82 34 -103 49 l-38 27 3 858 3 857 -62 -42 c-34 -22 -111 -64 -173 -91 -127 -58 -162 -87 -202 -166 l-28 -57 -2 -810 c-2 -515 1 -822 7 -842 13 -42 46 -65 224 -158 83 -43 197 -109 255 -145 103 -66 170 -90 193 -72 7 5 136 78 287 163 151 84 419 236 595 339 176 102 382 222 459 265 76 44 145 90 153 102 21 31 20 1688 -1 1737 -11 28 -47 51 -242 161 -424 237 -1003 577 -1151 677 -100 67 -110 70 -146 61z"></path></g></g><g id="l2fiG4U96HxmqkiNSKyoE2k" fill="rgb(254,254,254)" style="transform: none;"><g><path id="pu7ekRKAt" d="M322 4612 c-13 -2 -25 -9 -27 -15 -2 -7 -29 -118 -59 -247 -31 -129 -75 -307 -96 -395 -22 -88 -40 -167 -40 -176 0 -38 78 -32 122 9 27 24 49 83 67 175 5 23 24 112 44 197 19 85 38 174 42 198 4 23 10 42 15 42 4 0 24 -85 45 -190 86 -440 95 -460 205 -460 44 0 44 0 79 150 21 89 101 483 101 496 0 5 4 4 9 -1 5 -6 21 -64 36 -130 15 -66 36 -158 47 -205 11 -47 26 -114 34 -149 18 -80 32 -109 65 -134 25 -18 92 -28 104 -15 6 5 -20 147 -50 273 -8 33 -26 110 -40 170 -40 171 -77 307 -91 337 -21 41 -70 64 -141 67 -59 2 -63 1 -63 -19 0 -12 -7 -48 -15 -79 -8 -31 -17 -72 -19 -91 -15 -96 -76 -384 -84 -392 -6 -6 -12 12 -16 44 -4 29 -14 87 -22 128 -68 356 -69 362 -117 393 -23 15 -96 25 -135 19z"></path><path id="pMe0vkbm2" d="M1030 4599 c0 -6 26 -74 59 -152 32 -78 84 -207 116 -287 31 -80 63 -156 71 -170 7 -14 20 -50 30 -80 36 -119 77 -170 136 -170 67 0 89 36 224 373 67 166 138 342 158 391 20 49 36 92 36 97 0 5 -22 9 -49 9 -70 0 -92 -23 -144 -150 l-43 -105 -180 0 -179 0 -41 100 c-52 127 -78 155 -145 155 -28 0 -49 -5 -49 -11z m544 -375 c4 -9 2 -22 -3 -28 -6 -7 -35 -75 -64 -151 -30 -77 -59 -141 -64 -142 -5 -2 -20 27 -32 64 -13 38 -39 105 -57 151 -52 128 -56 122 90 122 105 0 125 -2 130 -16z"></path><path id="pdbtKOxsT" d="M2135 4600 c-113 -29 -164 -85 -190 -210 -18 -86 -22 -549 -5 -581 7 -13 7 -19 0 -19 -5 0 -10 -9 -10 -20 0 -15 7 -20 28 -20 35 0 65 21 91 64 20 31 21 48 21 267 1 304 12 353 90 395 28 15 57 18 142 19 93 0 108 2 108 16 0 25 -40 70 -76 85 -35 15 -149 17 -199 4z"></path><path id="plEdr630n" d="M2554 4603 c-12 -2 -34 -18 -50 -34 l-29 -30 0 -359 0 -358 24 -26 c22 -23 75 -46 109 -46 9 0 12 40 12 165 0 91 3 165 6 165 3 0 64 -45 134 -100 71 -55 144 -107 164 -115 47 -20 110 -19 131 1 21 21 18 24 -129 141 -67 53 -123 98 -125 100 -5 4 12 37 47 89 15 22 58 88 96 145 38 57 83 122 101 144 17 22 39 52 48 67 17 27 17 28 -12 43 -54 27 -86 20 -136 -32 -25 -27 -62 -74 -82 -106 -38 -62 -98 -155 -111 -172 -4 -5 -18 -25 -30 -42 -28 -40 -41 -41 -75 -5 l-27 28 0 172 0 172 -22 -1 c-13 -1 -33 -4 -44 -6z"></path><path id="ptpQChsG6" d="M3170 4216 l5 -394 24 -26 c22 -24 75 -46 110 -46 12 0 13 59 7 387 -4 212 -12 396 -16 408 -11 29 -70 65 -106 65 l-29 0 5 -394z"></path><path id="pRwPbTIi2" d="M3704 4591 c-45 -28 -64 -83 -64 -192 0 -86 -2 -94 -46 -187 -25 -53 -54 -119 -66 -147 -11 -27 -24 -57 -29 -65 -5 -8 -20 -37 -33 -65 -59 -120 -78 -166 -72 -172 12 -12 87 -3 112 14 13 8 40 50 60 92 66 141 149 301 155 301 3 0 16 -24 29 -52 77 -173 154 -320 177 -338 26 -20 123 -30 123 -11 0 13 -122 275 -221 474 l-39 78 0 145 0 144 -27 0 c-16 0 -42 -9 -59 -19z"></path><path id="p1FWVyMtQh" d="M3920 4602 c0 -10 61 -150 73 -169 9 -14 141 -19 135 -5 -2 4 -14 35 -27 69 -31 84 -57 106 -126 110 -30 2 -55 -1 -55 -5z"></path><path id="pSz755f2P" d="M4631 4583 c-18 -16 -41 -56 -55 -95 l-25 -68 68 0 c66 0 69 1 79 28 6 15 22 57 36 95 l26 67 -50 0 c-40 0 -55 -5 -79 -27z"></path><path id="p18AjOljVc" d="M4125 4093 c4 -10 13 -33 19 -50 7 -18 15 -36 19 -39 4 -4 7 -13 7 -21 0 -7 22 -60 50 -118 51 -109 67 -125 125 -125 31 0 93 54 101 89 4 14 17 50 30 79 13 29 24 57 24 63 0 5 7 20 15 32 8 12 21 41 29 65 l15 42 -67 0 c-66 0 -68 -1 -77 -28 -30 -89 -71 -182 -78 -179 -5 1 -24 44 -42 94 -18 50 -35 96 -39 102 -4 6 -35 11 -73 11 -58 0 -64 -2 -58 -17z"></path></g></g><g id="l20z6fahERP6BogoZ8qQhw2" fill="rgb(0,79,110)" style="transform: none;"><g><path id="pXqqwn7EM" d="M4030 4274 c0 -105 2 -115 18 -112 14 3 17 17 20 101 l3 97 29 0 c20 0 30 5 30 15 0 11 -12 15 -50 15 l-50 0 0 -116z"></path><path id="p12DN6f2WR" d="M4320 4295 c0 -88 -1 -95 -20 -95 -13 0 -20 -7 -20 -20 0 -19 5 -21 57 -18 58 3 85 24 44 35 -19 5 -21 12 -21 99 0 87 -1 94 -20 94 -19 0 -20 -7 -20 -95z"></path><path id="p12tnyXwhr" d="M4570 4274 l0 -117 40 6 c63 8 70 19 70 109 0 103 -8 118 -65 118 l-45 0 0 -116z m65 6 c0 -50 -4 -75 -12 -78 -10 -3 -13 17 -13 78 0 61 3 81 13 78 8 -3 12 -28 12 -78z"></path></g></g></svg>