<?xml version="1.0" encoding="iso-8859-1"?>
<!-- Generator: Adobe Illustrator 19.0.0, SVG Export Plug-In . SVG Version: 6.00 Build 0)  -->
<svg version="1.1" id="Capa_1" xmlns="http://www.w3.org/2000/svg" xmlns:xlink="http://www.w3.org/1999/xlink" x="0px" y="0px"
	 viewBox="0 0 512 512" style="enable-background:new 0 0 512 512;" xml:space="preserve">
<rect x="10.249" y="351.784" style="fill:#A0E557;" width="491.756" height="150.135"/>
<circle style="fill:#EDF2FA;" cx="256.003" cy="77.21" r="67.137"/>
<polygon style="fill:#898998;" points="234.066,104.63 220.394,62.55 256.188,36.543 291.983,62.55 278.311,104.63 "/>
<g>
	<path style="fill:#F9D6BD;" d="M176.022,250.462V88.072l0,0c-29.834,0-54.02,24.186-54.02,54.02v108.37"/>
	<path style="fill:#F9D6BD;" d="M389.985,250.462V142.091c0-29.834-24.186-54.02-54.02-54.02l0,0v162.39"/>
</g>
<path style="fill:#FF5D5D;" d="M335.964,250.462v24.3l0,0c-52.196,15.445-107.748,15.445-159.943,0l0,0v-24.3h-54.02v55.483
	c0,25.681,20.819,46.501,46.501,46.501h7.519v149.677h159.943V352.447h7.519c25.681,0,46.501-20.819,46.501-46.501v-55.483H335.964z
	"/>
<path style="fill:#FFB954;" d="M277.546,177.028H234.44c-18.94,0-33.421,16.886-30.536,35.604l7.523,48.8
	c2.323,15.068,15.289,26.189,30.536,26.189h28.059c15.245,0,28.213-11.12,30.536-26.189l7.523-48.8
	C310.968,193.912,296.486,177.028,277.546,177.028z"/>
<path d="M450.716,361.779h51.288c5.519,0,9.995-4.476,9.995-9.995c0-5.519-4.476-9.995-9.995-9.995h-51.288
	c-5.519,0-9.995,4.476-9.995,9.995C440.721,357.303,445.197,361.779,450.716,361.779z"/>
<path d="M502.005,491.921H345.96V362.388c30.008-1.299,54.02-26.119,54.02-56.442v-53.878c0.085-0.524,0.141-1.057,0.141-1.604
	s-0.056-1.081-0.141-1.604V142.092c0-35.297-28.717-64.015-64.015-64.015c-0.997,0-1.96,0.151-2.87,0.423
	c0.007-0.43,0.033-0.855,0.033-1.285c0-5.618-0.62-11.092-1.766-16.373c-0.073-0.421-0.163-0.837-0.286-1.237
	c-7.963-33.949-38.396-59.333-74.698-59.508c-0.064-0.001-0.126-0.01-0.19-0.01c-0.021,0-0.042,0.003-0.063,0.003
	c-0.042,0-0.083-0.003-0.125-0.003c-36.483,0-67.109,25.469-75.085,59.556c-0.117,0.386-0.205,0.784-0.275,1.187
	c-1.148,5.284-1.769,10.763-1.769,16.386c0,0.433,0.026,0.859,0.033,1.289c-0.914-0.275-1.88-0.427-2.883-0.427
	c-35.297,0-64.015,28.717-64.015,64.015v108.37v55.484c0,30.323,24.012,55.143,54.021,56.442v129.535H10.249
	c-5.519,0-9.995,4.476-9.995,9.995c0,5.519,4.476,9.995,9.995,9.995h491.756c5.519,0,9.995-4.476,9.995-9.995
	C512,496.4,507.524,491.921,502.005,491.921z M379.99,142.092v98.375h-34.03V99.21C365.436,103.75,379.99,121.253,379.99,142.092z
	 M313.139,77.213c0,13.457-4.688,25.834-12.501,35.608l-10.929-10.929l9.535-29.348h13.687
	C313.058,74.087,313.139,75.64,313.139,77.213z M199.068,72.546h14.064l9.535,29.347l-11.139,11.139
	c-7.914-9.806-12.666-22.265-12.666-35.818C198.861,75.64,198.942,74.087,199.068,72.546z M256.188,48.897l24.045,17.47
	l-9.183,28.267h-29.721l-9.183-28.267L256.188,48.897z M238.206,114.625h35.964l11.44,11.441c-8.641,5.256-18.779,8.287-29.61,8.287
	c-10.735,0-20.783-2.98-29.372-8.149L238.206,114.625z M307.536,52.555H295.23l-29.047-21.105V21.002
	C284.451,24.303,299.729,36.302,307.536,52.555z M246.193,20.934v10.517l-29.047,21.105h-12.684
	C212.325,36.19,227.759,24.138,246.193,20.934z M256,154.342c19.476,0,37.276-7.271,50.866-19.222
	c0.361-0.274,0.712-0.564,1.041-0.894c0.036-0.036,0.066-0.075,0.101-0.112c7.498-6.86,13.628-15.182,17.962-24.506V250.46
	l-0.001,16.729c-5.875,1.566-11.786,2.93-17.722,4.096c0.997-2.646,1.743-5.429,2.19-8.332l7.524-48.8
	c1.819-11.808-1.598-23.783-9.376-32.852c-7.777-9.068-19.092-14.27-31.04-14.27H234.44c-11.948,0-23.261,5.201-31.041,14.271
	c-7.777,9.068-11.194,21.044-9.373,32.851l7.522,48.8c0.448,2.903,1.194,5.686,2.19,8.332c-5.936-1.165-11.847-2.529-17.722-4.095
	v-15.13c0.084-0.522,0.14-1.052,0.14-1.598s-0.056-1.076-0.14-1.598l-0.001-139.285C198.276,135.981,225.026,154.342,256,154.342z
	 M232.434,275.341c-5.811-2.957-10.068-8.556-11.128-15.431l-7.522-48.8c-0.931-6.036,0.816-12.156,4.792-16.793
	c3.977-4.636,9.759-7.294,15.866-7.294h43.106c6.107,0,11.89,2.659,15.866,7.294c3.976,4.636,5.723,10.757,4.793,16.793l-7.523,48.8
	c-1.06,6.876-5.317,12.475-11.128,15.432C263.873,276.711,248.114,276.711,232.434,275.341z M166.027,99.21v141.256h-34.031v-98.375
	C131.997,121.253,146.55,103.75,166.027,99.21z M176.022,342.452h-7.519c-20.13,0-36.506-16.377-36.506-36.505v-45.488h34.031
	v14.304c0,4.428,2.914,8.328,7.158,9.584c17.776,5.26,35.885,8.783,54.109,10.591c4.561,1.733,9.506,2.678,14.67,2.678h28.058
	c5.163,0,10.11-0.945,14.67-2.678c18.224-1.808,36.333-5.33,54.109-10.591c4.245-1.256,7.158-5.156,7.158-9.584v-14.305h34.03
	v45.488c0,20.129-16.377,36.505-36.506,36.505h-7.518c-5.519,0-9.995,4.476-9.995,9.995v139.476H186.017V352.447
	C186.017,346.926,181.542,342.452,176.022,342.452z"/>
<path d="M414.234,361.778c2.629,0,5.207-1.068,7.065-2.929c1.859-1.859,2.93-4.438,2.93-7.066c0-2.629-1.069-5.207-2.93-7.065
	c-1.858-1.859-4.437-2.93-7.065-2.93c-2.629,0-5.207,1.069-7.066,2.93c-1.859,1.858-2.929,4.437-2.929,7.065
	c0,2.629,1.068,5.207,2.929,7.066C409.028,360.709,411.607,361.778,414.234,361.778z"/>
<path d="M9.995,361.779h51.288c5.519,0,9.995-4.476,9.995-9.995c0-5.519-4.476-9.995-9.995-9.995H9.995
	c-5.519,0-9.995,4.476-9.995,9.995C0,357.303,4.476,361.779,9.995,361.779z"/>
<path d="M97.762,361.778c2.629,0,5.207-1.068,7.065-2.929c1.869-1.859,2.93-4.438,2.93-7.066c0-2.629-1.06-5.207-2.93-7.065
	c-1.858-1.859-4.437-2.93-7.065-2.93s-5.207,1.069-7.066,2.93c-1.859,1.858-2.929,4.437-2.929,7.065
	c0,2.629,1.068,5.207,2.929,7.066C92.556,360.709,95.134,361.778,97.762,361.778z"/>
<path d="M240.752,444.398c-1.428,0-2.88-0.308-4.257-0.957c-4.993-2.355-7.131-8.311-4.777-13.304l32.241-68.358h-35.286
	c-5.519,0-9.995-4.476-9.995-9.995c0-5.519,4.476-9.995,9.995-9.995h51.051c3.423,0,6.608,1.752,8.441,4.644s2.06,6.519,0.6,9.615
	l-38.966,82.616C248.094,442.279,244.5,444.398,240.752,444.398z"/>
<g>
</g>
<g>
</g>
<g>
</g>
<g>
</g>
<g>
</g>
<g>
</g>
<g>
</g>
<g>
</g>
<g>
</g>
<g>
</g>
<g>
</g>
<g>
</g>
<g>
</g>
<g>
</g>
<g>
</g>
</svg>
