<svg fill="#ffdeb8" xmlns="http://www.w3.org/2000/svg"  viewBox="0 0 64 64" width="64px" height="64px"><path d="M 32 4 C 16.547862 4 4 16.547873 4 32 C 4 47.452127 16.547862 60 32 60 C 47.452138 60 60 47.452127 60 32 C 60 16.547873 47.452138 4 32 4 z M 32 6 C 46.371259 6 58 17.628751 58 32 C 58 46.371249 46.371259 58 32 58 C 17.628741 58 6 46.371249 6 32 C 6 17.628751 17.628741 6 32 6 z M 32 10 C 26.86639 10 22.133 11.763371 18.388672 14.714844 A 1.0001 1.0001 0 1 0 19.626953 16.285156 C 23.032625 13.600629 27.32361 12 32 12 A 1.0001 1.0001 0 1 0 32 10 z M 22.5 20 C 19.474423 20 17 22.474423 17 25.5 C 17 28.525577 19.474423 31 22.5 31 C 23.027778 31 23.325066 31.139082 23.560547 31.408203 C 23.796028 31.677324 24 32.166667 24 33 C 24 33.961333 22.963026 36.596522 20.365234 38.726562 C 19.852733 39.146777 19.337729 39.495154 18.871094 39.976562 C 18.404458 40.457971 18 41.174197 18 42 C 18 43.64497 19.35503 45 21 45 C 21.51915 45 21.990142 44.844109 22.394531 44.628906 C 24.567081 43.784845 26.63797 41.873143 28.242188 39.447266 C 29.865016 36.993245 31 34.006788 31 31 C 31 27.596154 30.219572 24.868802 28.726562 22.949219 C 27.233553 21.029636 25.009259 20 22.5 20 z M 38.5 20 C 35.474423 20 33 22.474423 33 25.5 C 33 28.525577 35.474423 31 38.5 31 C 39.027778 31 39.325066 31.139082 39.560547 31.408203 C 39.796028 31.677324 40 32.166667 40 33 C 40 33.961333 38.963026 36.596522 36.365234 38.726562 C 35.852733 39.146777 35.337729 39.495154 34.871094 39.976562 C 34.404458 40.457971 34 41.174197 34 42 C 34 43.64497 35.35503 45 37 45 C 37.51915 45 37.990142 44.844109 38.394531 44.628906 C 40.567081 43.784845 42.63797 41.873143 44.242188 39.447266 C 45.865015 36.993245 47 34.006788 47 31 C 47 27.596154 46.219572 24.868802 44.726562 22.949219 C 43.233553 21.029636 41.009259 20 38.5 20 z M 22.5 22 C 24.490741 22 26.016447 22.720364 27.148438 24.175781 C 28.280428 25.631198 29 27.903846 29 31 C 29 33.493212 28.01814 36.162223 26.574219 38.345703 C 25.130297 40.529183 23.209998 42.203068 21.617188 42.802734 A 1.0001 1.0001 0 0 0 21.482422 42.865234 C 21.319791 42.955835 21.165676 43 21 43 C 20.43497 43 20 42.56503 20 42 C 20 41.720803 20.04873 41.635278 20.308594 41.367188 C 20.568458 41.099095 21.053267 40.750223 21.634766 40.273438 C 24.612974 37.831477 26 35.038667 26 33 C 26 31.833333 25.703972 30.822676 25.064453 30.091797 C 24.424934 29.360918 23.472222 29 22.5 29 C 20.555577 29 19 27.444423 19 25.5 C 19 23.555577 20.555577 22 22.5 22 z M 38.5 22 C 40.490741 22 42.016447 22.720364 43.148438 24.175781 C 44.280428 25.631198 45 27.903846 45 31 C 45 33.493212 44.01814 36.162223 42.574219 38.345703 C 41.130297 40.529183 39.209998 42.203068 37.617188 42.802734 A 1.0001 1.0001 0 0 0 37.482422 42.865234 C 37.319791 42.955835 37.165676 43 37 43 C 36.43497 43 36 42.56503 36 42 C 36 41.720803 36.04873 41.635278 36.308594 41.367188 C 36.568458 41.099095 37.053267 40.750223 37.634766 40.273438 C 40.612974 37.831477 42 35.038667 42 33 C 42 31.833333 41.703972 30.822676 41.064453 30.091797 C 40.424934 29.360918 39.472222 29 38.5 29 C 36.555577 29 35 27.444423 35 25.5 C 35 23.555577 36.555577 22 38.5 22 z M 51.820312 34.804688 C 51.276312 34.699688 50.752437 35.055656 50.648438 35.597656 C 50.545438 36.139656 50.901359 36.663578 51.443359 36.767578 L 53.40625 37.144531 C 53.46925 37.156531 53.532703 37.162109 53.595703 37.162109 C 54.065703 37.162109 54.485125 36.829563 54.578125 36.351562 C 54.681125 35.809562 54.325203 35.285641 53.783203 35.181641 L 51.820312 34.804688 z M 50.207031 39.300781 C 49.817031 39.28925 49.441281 39.509016 49.269531 39.884766 C 49.039531 40.386766 49.261672 40.981938 49.763672 41.210938 L 51.582031 42.042969 C 51.717031 42.104969 51.857094 42.132812 51.996094 42.132812 C 52.376094 42.132813 52.73825 41.915828 52.90625 41.548828 C 53.13625 41.046828 52.916063 40.453609 52.414062 40.224609 L 50.595703 39.392578 C 50.469453 39.334328 50.337031 39.304625 50.207031 39.300781 z M 47.589844 43.361328 C 47.335844 43.391828 47.093375 43.517875 46.921875 43.734375 C 46.580875 44.168375 46.655844 44.796672 47.089844 45.138672 L 48.660156 46.376953 C 48.843156 46.520953 49.061344 46.589844 49.277344 46.589844 C 49.573344 46.589844 49.866453 46.458984 50.064453 46.208984 C 50.405453 45.774984 50.332437 45.146687 49.898438 44.804688 L 48.326172 43.568359 C 48.108672 43.396859 47.843844 43.330828 47.589844 43.361328 z M 44.472656 46.716797 C 44.218656 46.686297 43.952375 46.752328 43.734375 46.923828 C 43.300375 47.264828 43.225406 47.894125 43.566406 48.328125 L 44.804688 49.898438 C 45.002688 50.148438 45.295797 50.279297 45.591797 50.279297 C 45.807797 50.279297 46.024984 50.210406 46.208984 50.066406 C 46.642984 49.725406 46.717953 49.096109 46.376953 48.662109 L 45.138672 47.091797 C 44.967672 46.875297 44.726656 46.747297 44.472656 46.716797 z M 40.271484 49.177734 C 40.141531 49.181578 40.010766 49.211281 39.884766 49.269531 C 39.382766 49.498531 39.163578 50.093703 39.392578 50.595703 L 40.224609 52.414062 C 40.392609 52.781063 40.754766 52.998047 41.134766 52.998047 C 41.272766 52.998047 41.413828 52.96825 41.548828 52.90625 C 42.050828 52.67725 42.271969 52.084031 42.042969 51.582031 L 41.210938 49.763672 C 41.039187 49.387922 40.661344 49.166203 40.271484 49.177734 z M 35.597656 50.648438 C 35.055656 50.752438 34.698734 51.276359 34.802734 51.818359 L 35.179688 53.783203 C 35.270688 54.262203 35.690156 54.595703 36.160156 54.595703 C 36.223156 54.595703 36.287562 54.589172 36.351562 54.576172 C 36.893562 54.472172 37.248531 53.94825 37.144531 53.40625 L 36.767578 51.441406 C 36.662578 50.899406 36.137656 50.543438 35.597656 50.648438 z"/></svg>