<?xml version="1.0" encoding="iso-8859-1"?>
<!-- Generator: Adobe Illustrator 19.0.0, SVG Export Plug-In . SVG Version: 6.00 Build 0)  -->
<svg version="1.1" id="Capa_1" xmlns="http://www.w3.org/2000/svg" xmlns:xlink="http://www.w3.org/1999/xlink" x="0px" y="0px"
	 viewBox="0 0 511.999 511.999" style="enable-background:new 0 0 511.999 511.999;" xml:space="preserve">
<g>
	<rect x="9.998" y="186.683" style="fill:#99BBFF;" width="491.938" height="275.232"/>
	<rect x="438.141" y="56.714" style="fill:#99BBFF;" width="63.859" height="129.968"/>
</g>
<g>
	<path style="fill:#7D9BFF;" d="M502.002,56.714h-63.859v-6.633c0-22.086,17.905-39.99,39.99-39.99h23.869V56.714z"/>
	<path style="fill:#7D9BFF;" d="M237.877,56.714H110.159v-6.633c0-22.086,17.905-39.99,39.99-39.99h47.738
		c22.086,0,39.99,17.905,39.99,39.99V56.714z"/>
</g>
<rect x="110.163" y="56.714" style="fill:#99BBFF;" width="127.718" height="129.968"/>
<path style="fill:#7D9BFF;" d="M401.775,56.714H274.057v-6.633c0-22.086,17.905-39.99,39.99-39.99h47.738
	c22.086,0,39.99,17.905,39.99,39.99V56.714z"/>
<g>
	<rect x="274.052" y="56.714" style="fill:#99BBFF;" width="127.718" height="129.968"/>
	<rect x="10.068" y="56.714" style="fill:#99BBFF;" width="63.859" height="129.968"/>
</g>
<rect x="236.131" y="393.492" style="fill:#C9F3FF;" width="39.99" height="68.423"/>
<rect x="174.147" y="353.502" style="fill:#FFC66C;" width="163.959" height="39.99"/>
<path style="fill:#FF5D5D;" d="M338.106,353.506H174.147l0,0c0-22.086,17.905-39.99,39.99-39.99h83.979
	C320.203,313.516,338.106,331.42,338.106,353.506L338.106,353.506z"/>
<g>
	<path style="fill:#FE8F8D;" d="M319.986,186.682H192.267v-6.633c0-22.086,17.905-39.99,39.99-39.99h47.738
		c22.086,0,39.99,17.905,39.99,39.99V186.682z"/>
	<rect x="192.262" y="226.673" style="fill:#FE8F8D;" width="127.718" height="86.838"/>
</g>
<rect x="192.262" y="186.683" style="fill:#FFC66C;" width="127.718" height="39.99"/>
<rect x="399.961" y="393.492" style="fill:#C9F3FF;" width="39.99" height="68.423"/>
<rect x="337.976" y="353.502" style="fill:#FFC66C;" width="163.959" height="39.99"/>
<path style="fill:#FF5D5D;" d="M501.938,353.506H337.979l0,0c0-22.086,17.905-39.99,39.99-39.99h83.979
	C484.035,313.516,501.938,331.42,501.938,353.506L501.938,353.506z"/>
<g>
	<path style="fill:#FE8F8D;" d="M483.818,186.682H356.1v-6.633c0-22.086,17.905-39.99,39.99-39.99h47.738
		c22.086,0,39.99,17.905,39.99,39.99V186.682z"/>
	<rect x="356.102" y="226.673" style="fill:#FE8F8D;" width="127.718" height="86.838"/>
</g>
<rect x="356.102" y="186.683" style="fill:#FFC66C;" width="127.718" height="39.99"/>
<rect x="72.042" y="393.492" style="fill:#C9F3FF;" width="39.99" height="68.423"/>
<rect x="10.058" y="461.915" style="fill:#D8D8E4;" width="491.878" height="39.99"/>
<rect x="10.058" y="353.502" style="fill:#FFC66C;" width="163.959" height="39.99"/>
<path style="fill:#FF5D5D;" d="M174.02,353.506H10.061l0,0c0-22.086,17.905-39.99,39.99-39.99h83.979
	C156.116,313.516,174.02,331.42,174.02,353.506L174.02,353.506z"/>
<g>
	<path style="fill:#FE8F8D;" d="M155.899,186.682H28.181v-6.633c0-22.086,17.905-39.99,39.99-39.99h47.738
		c22.086,0,39.99,17.905,39.99,39.99V186.682z"/>
	<rect x="28.183" y="226.673" style="fill:#FE8F8D;" width="127.718" height="86.838"/>
</g>
<path style="fill:#7D9BFF;" d="M10.064,56.714h63.859v-6.633c0-22.086-17.905-39.99-39.99-39.99H10.064V56.714z"/>
<rect x="28.183" y="186.683" style="fill:#FFC66C;" width="127.718" height="39.99"/>
<path d="M341.645,491.909H10.061c-5.521,0-9.998,4.476-9.998,9.998s4.477,9.997,9.998,9.997h331.585
	c5.521,0,9.998-4.476,9.998-9.998S347.167,491.909,341.645,491.909z"/>
<path d="M385.637,491.91c-2.639,0-5.209,1.07-7.078,2.929c-1.86,1.86-2.919,4.439-2.919,7.068s1.06,5.209,2.919,7.068
	c1.87,1.859,4.449,2.929,7.078,2.929c2.629,0,5.199-1.07,7.068-2.929c1.859-1.86,2.929-4.439,2.929-7.068
	c0-2.639-1.07-5.209-2.929-7.068C390.846,492.98,388.267,491.91,385.637,491.91z"/>
<path d="M501.938,491.909h-74.594c-5.521,0-9.998,4.476-9.998,9.998s4.477,9.997,9.998,9.997h74.594
	c5.521,0,9.997-4.476,9.997-9.998S507.46,491.909,501.938,491.909z"/>
<path d="M493.705,314.929c0.066-0.463,0.111-0.933,0.111-1.414v-86.843V196.68h8.186c5.521,0,9.998-4.476,9.998-9.998
	s-4.477-9.998-9.998-9.998h-8.312c-1.644-24.591-21.142-44.36-45.616-46.43V66.712h53.862c5.521,0,9.998-4.476,9.998-9.998
	s-4.477-9.998-9.998-9.998h-53.675c1.679-14.959,14.404-26.628,29.806-26.628h23.869c5.521,0,9.998-4.476,9.998-9.998
	s-4.477-9.998-9.998-9.998h-23.869c-27.563,0-49.988,22.424-49.988,49.988v6.633v73.347h-16.24V56.714v-6.633
	c0-27.563-22.424-49.988-49.988-49.988h-47.738c-27.563,0-49.988,22.424-49.988,49.988v6.633v73.347h-16.252V56.714v-6.633
	c0-27.563-22.424-49.988-49.988-49.988h-47.738c-27.563,0-49.988,22.424-49.988,49.988v6.633v73.347H83.92V56.714v-6.633
	c0-27.563-22.424-49.988-49.988-49.988H10.064c-5.521,0-9.998,4.476-9.998,9.998s4.477,9.998,9.998,9.998h23.869
	c15.4,0,28.127,11.668,29.806,26.628H10.064c-5.521,0-9.998,4.476-9.998,9.998s4.477,9.998,9.998,9.998h53.862v63.542
	c-24.474,2.07-43.972,21.839-45.616,46.43H9.998c-5.521,0-9.998,4.476-9.998,9.998s4.477,9.998,9.998,9.998h8.186v29.993v86.843
	c0,0.481,0.046,0.951,0.111,1.414c-11.126,9.176-18.231,23.062-18.231,38.576v39.99c0,5.522,4.477,9.998,9.998,9.998h51.987v48.426
	H10.061c-5.521,0-9.998,4.476-9.998,9.998s4.477,9.998,9.998,9.998h491.878c5.521,0,9.997-4.476,9.997-9.998
	s-4.477-9.998-9.997-9.998h-51.987v-48.426h51.987c5.521,0,9.997-4.476,9.997-9.998v-39.99
	C511.936,337.992,504.832,324.105,493.705,314.929z M174.02,403.493c0.021,0,0.042-0.003,0.063-0.003
	c0.021,0,0.042,0.003,0.063,0.003h51.987v48.426h-104.1v-48.426H174.02z M50.051,323.513h83.979
	c13.034,0,24.153,8.357,28.279,19.995H21.772C25.898,331.871,37.017,323.513,50.051,323.513z M391.844,130.254
	c-24.474,2.07-43.972,21.839-45.616,46.43h-16.371c-1.647-24.632-21.206-44.424-45.737-46.439V66.712h107.723L391.844,130.254
	L391.844,130.254z M473.82,216.675H366.097V196.68H473.82V216.675z M309.988,196.68v19.995H202.265V196.68H309.988z
	 M202.265,303.518V236.67h107.723v66.848h-11.999H214.01H202.265z M214.01,323.513h83.979c13.034,0,24.153,8.357,28.279,19.995
	H185.731C189.857,331.871,200.976,323.513,214.01,323.513z M337.979,323.548c-2.365-3.149-5.094-6.01-8.122-8.523
	c0.075-0.494,0.126-0.995,0.126-1.509v-86.843v-29.993h16.119v29.993v86.843c0,0.481,0.046,0.951,0.111,1.414
	C343.14,317.465,340.375,320.359,337.979,323.548z M279.996,150.056c15.4,0,28.127,11.668,29.806,26.628H202.453
	c1.679-14.959,14.404-26.628,29.806-26.628H279.996z M227.879,130.265c-24.412,2.13-43.842,21.874-45.483,46.419h-16.625
	c-1.644-24.591-21.142-44.36-45.616-46.43V66.712h107.723V130.265z M165.897,313.516v-86.843V196.68h16.373v29.993v86.843
	c0,0.45,0.04,0.89,0.098,1.325c-3.118,2.556-5.924,5.481-8.348,8.708c-2.395-3.189-5.161-6.083-8.234-8.619
	C165.852,314.466,165.897,313.998,165.897,313.516z M184.144,383.498v-19.995h143.837v19.995H184.144z M337.979,403.493h0.127h51.86
	v48.426H286.119v-48.426H337.979z M377.969,323.513h83.979c13.034,0,24.153,8.357,28.279,19.995H349.69
	C353.816,331.871,364.935,323.513,377.969,323.513z M366.097,303.518V236.67H473.82v66.848H366.097z M473.634,176.685H366.285
	c1.679-14.959,14.404-26.628,29.806-26.628h47.738C459.229,150.056,471.955,161.725,473.634,176.685z M314.113,20.088h47.738
	c15.4,0,28.127,11.668,29.806,26.628H284.308C285.987,31.758,298.713,20.088,314.113,20.088z M150.149,20.088h47.738
	c15.4,0,28.127,11.668,29.806,26.628H120.343C122.022,31.758,134.748,20.088,150.149,20.088z M68.171,150.056h47.738
	c15.4,0,28.127,11.668,29.806,26.628H38.366C40.045,161.725,52.771,150.056,68.171,150.056z M38.179,303.518V236.67h16.204
	c5.521,0,9.998-4.476,9.998-9.998c0-5.522-4.477-9.998-9.998-9.998H38.179V196.68h107.723v19.995h-16.204
	c-5.521,0-9.998,4.476-9.998,9.998c0,5.522,4.477,9.998,9.998,9.998h16.204v66.848H38.179z M20.058,363.503h143.964v19.995H20.058
	C20.058,383.498,20.058,363.503,20.058,363.503z M82.043,451.919v-48.426h19.995v48.426H82.043z M246.129,451.919v-48.426h19.995
	v48.426H246.129z M429.956,451.919h-19.995v-48.426h19.995V451.919z M491.941,383.498H348.104v-19.995h143.837V383.498z"/>
<path d="M92.04,216.679c-2.629,0-5.209,1.06-7.068,2.929c-1.86,1.86-2.929,4.429-2.929,7.068c0,2.629,1.069,5.209,2.929,7.068
	c1.861,1.86,4.439,2.929,7.068,2.929c2.629,0,5.209-1.07,7.067-2.929c1.86-1.86,2.93-4.439,2.93-7.068
	c0-2.639-1.07-5.209-2.93-7.068C97.249,217.738,94.67,216.679,92.04,216.679z"/>
<g>
</g>
<g>
</g>
<g>
</g>
<g>
</g>
<g>
</g>
<g>
</g>
<g>
</g>
<g>
</g>
<g>
</g>
<g>
</g>
<g>
</g>
<g>
</g>
<g>
</g>
<g>
</g>
<g>
</g>
</svg>
