<?xml version="1.0" encoding="iso-8859-1"?>
<!-- Generator: Adobe Illustrator 19.0.0, SVG Export Plug-In . SVG Version: 6.00 Build 0)  -->
<svg version="1.1" id="Capa_1" xmlns="http://www.w3.org/2000/svg" xmlns:xlink="http://www.w3.org/1999/xlink" x="0px" y="0px"
	 viewBox="0 0 512.001 512.001" style="enable-background:new 0 0 512.001 512.001;" xml:space="preserve">
<rect x="57.048" y="97.179" style="fill:#898998;" width="397.914" height="39.991"/>
<polygon style="fill:#A0E557;" points="99.035,97.177 99.035,413.592 256,502.003 412.966,413.592 412.966,97.177 "/>
<g>
	<rect x="99.039" y="97.179" style="fill:#D8D8E4;" width="313.932" height="39.991"/>
	<circle style="fill:#D8D8E4;" cx="256.004" cy="34.992" r="24.995"/>
</g>
<g>
	<circle style="fill:#EDF2FA;" cx="256.004" cy="260.983" r="84.292"/>
	<polygon style="fill:#EDF2FA;" points="232.728,291.934 218.345,247.667 256,220.309 293.655,247.667 279.272,291.934 	"/>
</g>
<polygon style="fill:#898998;" points="232.728,291.934 218.345,247.667 256,220.309 293.655,247.667 279.272,291.934 "/>
<path d="M454.957,87.179h-39.4L284.103,14.17C277.721,5.579,267.501,0,256,0c-11.501,0-21.72,5.579-28.103,14.169L96.444,87.179
	h-39.4c-5.522,0-9.998,4.476-9.998,9.998v39.991c0,5.522,4.476,9.998,9.998,9.998h31.993v266.426v48.302
	c0,5.521,4.476,9.998,9.998,9.998s9.998-4.477,9.998-9.998v-31.195l15.747,8.869v48.427c0,5.521,4.476,9.998,9.998,9.998
	c5.522,0,9.998-4.477,9.998-9.998V450.83l15.747,8.869v42.304c0,5.521,4.476,9.998,9.998,9.998c5.522,0,9.998-4.477,9.998-9.998
	v-31.041l15.747,8.869v22.172c0,5.521,4.476,9.998,9.998,9.998s9.998-4.477,9.998-9.998v-10.91l34.834,19.621
	c1.523,0.858,3.215,1.287,4.907,1.287c1.692,0,3.383-0.429,4.907-1.287l34.834-19.621v10.91c0,5.521,4.476,9.998,9.998,9.998
	c5.522,0,9.998-4.477,9.998-9.998v-22.172l15.747-8.869v31.041c0,5.521,4.476,9.998,9.998,9.998s9.998-4.477,9.998-9.998v-42.304
	l15.747-8.869v37.165c0,5.521,4.476,9.998,9.998,9.998s9.998-4.477,9.998-9.998v-48.427l15.747-8.869v31.195
	c0,5.521,4.476,9.998,9.998,9.998s9.998-4.477,9.998-9.998v-48.302V147.166h31.993c5.522,0,9.998-4.476,9.998-9.998V97.177
	C464.955,91.655,460.479,87.179,454.957,87.179z M109.032,127.17v-19.996h293.936v19.996H109.032z M256,19.996
	c8.269,0,14.997,6.728,14.997,14.997S264.27,49.989,256,49.989s-14.997-6.728-14.997-14.997S247.731,19.996,256,19.996z
	 M221.465,40.614c2.698,16.63,17.154,29.371,34.536,29.371s31.836-12.739,34.535-29.37l83.839,46.564H137.626L221.465,40.614z
	 M67.041,107.175h21.995v19.996H67.041V107.175z M256,490.528L211.034,465.2c-0.004-0.002-0.007-0.004-0.011-0.006l-35.736-20.129
	c-0.001-0.001-0.002-0.001-0.003-0.002l-66.252-37.316V147.166h293.936v260.583l-66.252,37.316c-0.001,0-0.002,0.001-0.003,0.002
	l-35.736,20.129c-0.004,0.002-0.007,0.004-0.011,0.006L256,490.528z M444.96,127.17h-21.995v-19.996h21.995V127.17z"/>
<path d="M200.581,337.225c15.568,11.348,34.723,18.055,55.42,18.055c20.687,0,39.834-6.702,55.398-18.04
	c0.267-0.162,0.53-0.334,0.786-0.524c0.263-0.196,0.513-0.403,0.751-0.619c22.683-17.236,37.359-44.49,37.359-75.112
	c0-5.933-0.557-11.737-1.61-17.369c-0.018-0.099-0.036-0.199-0.057-0.297c-8.294-43.579-46.67-76.628-92.627-76.628
	s-84.334,33.05-92.627,76.628c-0.021,0.098-0.039,0.198-0.057,0.297c-1.053,5.632-1.61,11.437-1.61,17.369
	c0,30.663,14.715,57.95,37.451,75.183c0.172,0.152,0.341,0.306,0.525,0.447C199.973,336.84,200.274,337.038,200.581,337.225z
	 M220.34,326.146l18.614-24.215h34.959l17.906,24.124c-10.63,5.875-22.838,9.23-35.819,9.23
	C243.084,335.284,230.932,331.966,220.34,326.146z M256,232.667l25.902,18.82l-9.894,30.449h-32.017l-9.894-30.45L256,232.667z
	 M307.861,314.12l-17.587-23.693l11.367-34.98h28.43c0.136,1.832,0.228,3.675,0.228,5.541
	C330.298,281.793,321.69,300.619,307.861,314.12z M325.776,235.45h-31.927l-27.851-20.236v-27.835
	C293.6,191.111,316.446,210.036,325.776,235.45z M246.003,187.379v27.835l-27.852,20.236h-31.927
	C195.554,210.036,218.401,191.111,246.003,187.379z M181.702,260.986c0-1.866,0.093-3.709,0.228-5.541h28.429l11.619,35.759
	l-17.709,23.039C190.365,300.734,181.702,281.858,181.702,260.986z"/>
<path d="M301.593,448.459c5.522,0,9.998-4.477,9.998-9.998c0-5.521-4.476-9.998-9.998-9.998h-13.164
	c-7.626,0-13.83-6.205-13.83-13.831v-16.328c0-7.626,6.205-13.831,13.83-13.831h13.164c5.522,0,9.998-4.477,9.998-9.998
	c0-5.521-4.476-9.998-9.998-9.998h-13.164c-18.652,0-33.826,15.175-33.826,33.827v16.328c0,18.652,15.175,33.827,33.826,33.827
	L301.593,448.459L301.593,448.459z"/>
<path d="M233.81,384.473c5.522,0,9.998-4.477,9.998-9.998c0-5.521-4.476-9.998-9.998-9.998h-23.403
	c-5.522,0-9.998,4.477-9.998,9.998v63.986c0,5.521,4.476,9.998,9.998,9.998c5.522,0,9.998-4.477,9.998-9.998v-21.995h13.405
	c5.522,0,9.998-4.477,9.998-9.998s-4.476-9.998-9.998-9.998h-13.405v-11.997H233.81z"/>
<g>
</g>
<g>
</g>
<g>
</g>
<g>
</g>
<g>
</g>
<g>
</g>
<g>
</g>
<g>
</g>
<g>
</g>
<g>
</g>
<g>
</g>
<g>
</g>
<g>
</g>
<g>
</g>
<g>
</g>
</svg>
