<svg class="img-fluid" id="outputsvg" xmlns="http://www.w3.org/2000/svg" style="transform: matrix(0.85683, 0, 0, 0.85683, 0, 0); transform-origin: 50% 50%; cursor: move; max-height: none; transition: transform 200ms ease-in-out 0s;" width="120" height="100" viewBox="0 0 1200 1000"><g id="l5TVhc70F1hTVHkEFKpKNzt" fill="rgb(255,255,255)" style="transform: none;"><g><path id="pGiIyVo2v" d="M481 908 l-113 -91 -36 -48 -37 -48 -17 0 -18 -1 0 -25 0 -25 33 0 32 1 70 79 c39 43 74 79 78 79 4 1 36 24 70 51 l62 50 32 0 33 0 0 15 0 15 -27 17 c-14 9 -31 18 -38 19 l-12 2 -112 -90z"></path><path id="ps1OnPZEP" d="M680 908 l0 -33 85 -72 84 -73 15 0 15 0 3 -27 3 -28 125 -5 125 -5 3 -43 3 -43 -12 -15 -11 -14 -28 0 c-15 0 -42 3 -59 6 l-31 7 0 38 0 39 -35 0 -35 0 0 -39 0 -40 23 -4 22 -4 -32 -2 -33 -1 0 -50 0 -50 -20 0 -20 0 0 50 0 50 -85 0 -84 0 -4 -97 -3 -98 -2 98 -2 97 -45 0 -44 0 -4 -92 -3 -93 -2 93 -2 92 -50 0 -50 0 0 -50 0 -50 -15 0 -15 0 0 50 0 50 -86 0 -85 0 -20 -10 -19 -11 0 11 0 10 -35 0 -35 0 0 -20 0 -20 10 0 10 0 0 -15 0 -15 10 0 10 0 -6 -39 -6 -40 12 -49 11 -50 26 -23 25 -24 66 -2 c37 -1 81 -2 97 -2 l31 -1 -4 -35 -4 -35 -24 0 -24 0 0 8 0 8 -68 22 -68 22 -32 0 -32 0 0 -18 0 -18 83 -27 c45 -14 103 -31 130 -38 l47 -11 0 -20 0 -20 38 -38 38 -39 57 0 57 0 30 26 30 25 0 14 0 14 10 0 10 0 0 19 0 19 28 7 c15 3 51 13 80 21 l52 15 0 20 0 19 -27 0 c-16 0 -52 -7 -80 -14 l-53 -14 0 19 0 19 -45 0 -45 0 0 14 0 14 58 6 c69 7 69 7 155 0 l68 -6 24 16 25 16 0 -10 0 -10 -25 -12 -25 -11 0 -28 0 -29 48 18 47 18 0 94 c0 52 -3 118 -7 146 l-7 50 60 -4 59 -4 25 16 25 16 0 76 0 75 -10 20 -11 19 -119 0 -118 0 -64 66 c-58 61 -168 154 -182 154 -3 0 -6 -15 -6 -32z m223 -543 l-5 -16 -11 4 c-6 2 -13 9 -15 15 l-4 12 21 0 20 0 -6 -15z m-253 -200 l0 -15 -10 0 -10 0 0 15 0 15 10 0 10 0 0 -15z"></path><path id="pk9k4Da8R" d="M480 750 l0 -41 128 3 127 3 3 38 3 37 -130 0 -131 0 0 -40z"></path><path id="phml4qxDX" d="M50 616 l0 -34 23 -6 c13 -3 49 -8 80 -12 l57 -7 0 37 0 36 -30 0 -30 0 0 10 0 10 -50 0 -50 0 0 -34z"></path><path id="pAIiA3h2l" d="M240 616 l0 -33 48 -7 c26 -4 73 -10 105 -13 l57 -5 0 11 0 11 30 0 30 0 0 35 0 35 -34 0 -34 0 -4 -12 -5 -13 -59 13 c-33 6 -77 12 -97 12 l-37 0 0 -34z"></path><path id="p2MQSzunV" d="M618 643 l-48 -4 0 -33 0 -33 84 -6 84 -6 91 6 91 6 0 34 0 34 -82 -1 c-46 0 -103 1 -128 3 -25 3 -66 2 -92 0z"></path><path id="pCLfl9X8p" d="M1020 605 l0 -35 35 0 35 0 0 35 0 35 -35 0 -35 0 0 -35z"></path></g></g><g id="l4UecdDgyeVrWAaKFAtrhpr" fill="rgb(234,234,234)" style="transform: none;"><g><path id="p1HRucJeAq" d="M614 993 l7 -13 -12 0 c-6 0 -33 -18 -59 -40 -26 -22 -51 -40 -55 -40 l-8 0 19 22 19 22 -53 -43 -52 -43 5 -8 5 -9 -11 -7 -12 -7 7 11 7 12 -5 0 c-11 0 -66 -53 -66 -63 l0 -10 22 19 23 19 -44 -50 c-24 -27 -49 -54 -54 -60 l-10 -10 7 13 8 13 -144 -3 -143 -3 -3 -32 -3 -33 25 0 26 0 0 10 0 10 130 0 131 0 5 15 6 15 14 0 14 0 0 24 0 24 21 5 21 6 -4 33 -3 33 43 -3 42 -4 6 31 7 31 18 0 18 0 6 10 6 10 20 0 19 0 0 20 0 20 10 0 c6 0 23 -11 38 -25 l27 -26 23 -5 22 -6 0 -9 0 -9 14 0 14 0 6 -15 5 -15 21 0 20 0 0 -26 0 -25 30 -10 30 -11 0 -16 1 -17 24 -27 24 -28 31 0 30 0 0 14 0 14 -21 5 -21 6 7 11 7 12 -37 38 -38 39 -7 -4 -7 -4 -59 50 -59 50 2 9 3 9 -43 32 c-23 18 -48 37 -56 43 l-15 11 8 -12z"></path><path id="p8jF2xLKD" d="M745 886 c17 -13 32 -22 34 -20 5 5 -42 43 -54 44 l-10 0 30 -24z"></path><path id="ps0l2oy3" d="M490 745 l0 -35 34 0 34 0 -1 35 -1 35 -33 0 -33 0 0 -35z"></path><path id="p8177jWQH" d="M580 745 l0 -35 34 0 34 0 -1 35 -1 35 -33 0 -33 0 0 -35z"></path><path id="pNyCEjAuX" d="M670 745 l0 -35 35 0 35 0 0 35 0 35 -35 0 -35 0 0 -35z"></path><path id="pjQf5U7UA" d="M113 615 l1 -35 31 0 31 0 2 35 3 35 -35 0 -34 0 1 -35z"></path><path id="pf9UqOP6w" d="M310 605 l0 -45 35 0 35 0 0 45 0 45 -35 0 -35 0 0 -45z"></path><path id="p1BSZa4Irz" d="M480 610 l0 -40 35 0 35 0 0 40 0 40 -35 0 -35 0 0 -40z"></path><path id="p1CtzoSFlD" d="M570 615 l0 -35 25 0 25 0 0 -10 0 -10 35 0 34 0 -1 35 -1 35 -24 0 -23 0 0 10 0 10 -35 0 -35 0 0 -35z"></path><path id="p12r5dPsP9" d="M813 643 l-13 -5 0 -35 0 -36 45 5 45 6 0 -9 0 -9 79 0 c43 0 106 3 140 6 l61 7 0 32 0 33 -62 7 -62 7 -4 -11 -4 -11 -74 0 -74 0 0 10 0 10 -32 -1 c-18 0 -39 -3 -45 -6z"></path><path id="pDki3Cypv" d="M10 550 l0 -29 21 -12 22 -11 73 4 74 3 0 -12 0 -13 14 0 14 0 -10 -37 -10 -36 7 -44 6 -43 14 0 c7 0 22 -3 32 -6 l18 -7 -12 14 c-7 7 -13 16 -13 20 l0 8 32 -10 c18 -5 34 -9 35 -9 2 0 3 9 3 20 l0 20 16 0 16 0 -4 -32 -3 -33 27 -3 26 -3 -5 20 -5 21 15 0 15 0 12 -15 12 -15 24 0 23 0 -5 -15 -6 -15 -14 0 -14 0 0 -14 0 -15 38 -3 37 -3 -3 -25 -3 -25 10 16 10 16 26 -5 25 -4 0 -14 0 -14 9 0 10 0 4 18 5 17 1 -27 1 -28 16 0 16 0 -4 -12 c-2 -6 -10 -14 -16 -16 l-12 -4 0 16 0 16 -12 0 c-22 0 -58 -12 -58 -19 0 -3 10 -11 23 -16 l22 -10 0 -27 c-1 -34 2 -34 31 -3 25 27 32 29 51 17 l12 -8 -5 -21 -6 -22 -29 -6 -29 -7 0 -14 0 -14 9 0 c6 0 13 5 16 10 3 6 12 10 18 10 l12 0 -15 -11 -15 -10 20 3 20 3 3 27 3 27 20 6 c10 4 19 10 19 14 0 4 9 18 19 30 l19 22 36 10 36 10 10 -6 10 -6 80 26 c44 15 80 29 80 31 0 3 -10 3 -22 0 l-23 -6 23 12 23 11 -6 15 c-3 7 -5 18 -5 23 l0 9 -15 0 -15 0 6 58 7 57 10 6 9 7 -7 43 c-3 24 -9 52 -11 61 l-5 16 21 -5 20 -5 0 10 0 9 -37 7 c-21 3 -48 6 -60 6 l-23 0 0 -45 0 -45 -30 0 -30 0 0 45 0 45 -74 0 -73 0 -7 -52 c-3 -29 -7 -82 -8 -118 l-1 -65 -4 35 c-1 19 -6 72 -9 118 l-6 82 -33 0 -32 0 -7 -52 c-3 -29 -7 -82 -8 -118 l-1 -65 -4 45 c-1 25 -5 78 -9 118 l-6 72 -39 0 -39 0 0 -32 c0 -18 -3 -43 -6 -55 l-6 -23 -13 0 -13 0 -6 23 c-3 12 -6 37 -6 55 l0 33 -82 -3 -83 -3 -3 -22 -3 -23 -15 0 -14 0 0 30 0 31 -90 -7 -90 -7 -6 17 -6 16 -24 0 -24 0 0 -30z m305 -40 l-6 -10 13 0 c8 0 19 5 26 12 l12 12 0 -12 0 -11 -22 -12 c-13 -6 -31 -21 -41 -33 l-17 -21 6 18 6 17 -10 0 c-6 0 -16 -8 -21 -17 l-10 -18 -1 13 0 14 29 29 c16 16 32 29 36 29 l6 0 -6 -10z m106 1 l9 14 -1 -45 -1 -45 -5 19 -5 19 -9 -14 -9 -14 1 40 1 40 5 -14 5 -13 9 13z m125 0 l14 11 0 -37 0 -37 -14 11 -14 12 -5 -18 -5 -18 0 45 0 45 5 -13 5 -13 14 12z m105 0 l9 14 -1 -45 -1 -45 -5 19 -5 19 -9 -14 -9 -14 1 40 1 40 5 -14 5 -13 9 13z m112 1 l5 13 0 -45 0 -45 -5 18 -5 18 -14 -12 -14 -11 0 37 0 37 14 -11 14 -12 5 13z m68 -1 l9 14 -1 -45 -1 -45 -5 19 -5 19 -9 -14 -9 -14 1 40 1 40 5 -14 5 -13 9 13z m130 0 l9 14 -1 -45 0 -45 -8 20 -8 20 -5 -20 -6 -20 0 45 0 45 5 -14 5 -13 9 13z m-401 -103 l0 -10 -14 5 -15 6 -5 -12 -4 -12 -1 22 -1 21 20 -5 20 -5 0 -10z m99 0 l-1 -23 -5 14 -5 13 -9 -13 -9 -14 0 17 0 16 13 5 c6 3 13 6 15 6 1 1 2 -9 1 -21z m110 0 l-1 -23 -4 12 -5 12 -15 -6 -14 -5 0 10 0 11 18 4 c9 3 18 5 20 6 1 0 2 -9 1 -21z m200 0 l-1 -23 -5 14 -5 13 -9 -13 -9 -14 0 13 0 12 -50 0 -50 0 -2 -32 -1 -33 -4 33 -4 32 -10 -5 -9 -6 0 10 0 10 78 4 c42 1 78 4 80 5 1 1 2 -8 1 -20z m-609 -3 l0 -15 -37 1 -38 2 35 8 35 8 -57 -3 -58 -3 0 9 0 8 60 0 60 0 0 -15z m134 1 l-5 -14 -35 10 -34 9 -10 -6 -10 -6 0 10 0 11 50 0 49 0 -5 -14z m409 -30 l6 -14 -13 -5 -12 -5 -12 19 -12 19 19 0 19 0 5 -14z m43 -73 l-27 -23 -15 0 -14 0 0 -15 0 -15 31 0 30 0 20 10 19 11 0 -11 c0 -6 -6 -12 -12 -14 -7 -2 -42 -13 -78 -24 -36 -11 -82 -23 -103 -27 l-37 -6 -25 25 c-32 32 -31 36 5 36 l30 0 0 31 0 31 25 -4 25 -5 -5 18 -6 19 14 0 15 0 12 -15 12 -15 24 0 23 0 13 13 c7 8 20 16 28 19 l15 5 4 -10 4 -11 -27 -23z m-376 22 l12 -15 15 0 14 0 5 15 6 15 18 0 18 0 12 -15 c7 -8 18 -15 25 -15 7 0 18 7 25 15 l12 15 19 0 19 0 0 -10 c0 -6 -9 -19 -20 -30 l-20 -20 -23 0 -23 0 -20 14 -20 14 -19 -14 -19 -14 -23 0 -23 0 -20 20 c-11 11 -20 25 -20 30 l0 10 19 0 19 0 12 -15z"></path><path id="pLHIDBTfM" d="M290 274 l0 -24 35 0 35 0 0 13 0 14 -35 10 -35 11 0 -24z"></path><path id="pc6ybkTMr" d="M200 231 l0 -19 31 -11 c40 -14 48 -14 29 0 l-15 11 15 -5 c8 -2 41 -13 73 -23 l57 -18 -11 -7 -11 -6 36 -7 36 -7 12 7 11 7 -7 -11 -7 -12 15 0 14 0 5 -12 5 -13 1 32 1 32 -17 10 c-10 5 -48 12 -85 16 l-68 7 0 9 0 9 -25 0 -25 0 0 15 0 15 -35 0 -35 0 0 -19z"></path><path id="powwESNsb" d="M500 116 l0 -14 -12 -5 -13 -4 41 -41 42 -42 31 0 31 0 0 24 0 25 -32 3 -33 3 -15 32 -15 33 -12 0 -13 0 0 -14z m48 -71 l-6 -6 -21 22 c-12 13 -21 27 -21 33 l0 11 27 -27 27 -27 -6 -6z"></path></g></g><g id="l1rg5KiXamPLi0egitun7sG" fill="rgb(215,215,215)" style="transform: none;"><g><path id="p17LTd5YKa" d="M593 970 c-17 -10 -34 -23 -37 -29 l-7 -11 35 0 36 0 0 -10 0 -10 15 0 16 0 5 -14 5 -14 25 -6 24 -6 0 -15 0 -15 37 0 36 0 -16 18 -17 19 5 5 5 5 -57 45 c-32 24 -63 47 -69 51 l-10 6 -31 -19z m93 -42 c4 -7 -9 1 -29 16 -20 16 -37 30 -37 33 0 7 58 -36 66 -49z m59 -46 l-6 -6 -22 23 -22 23 28 -17 28 -18 -6 -5z"></path><path id="pFvEcROpI" d="M515 909 l-7 -10 -14 5 -13 5 -61 -51 -61 -50 6 -6 5 -6 43 40 c90 85 76 64 -21 -33 l-103 -103 -123 0 -122 0 -13 -12 -13 -13 4 15 5 15 129 6 129 5 -135 0 -135 -1 -3 -95 -3 -95 18 -12 17 -13 70 2 71 2 -70 3 -69 4 -13 11 c-7 6 -13 16 -13 22 l1 11 13 -18 14 -19 86 4 86 3 0 -7 c0 -5 -4 -8 -10 -8 l-9 0 -7 -37 -7 -37 12 -4 11 -4 0 -39 0 -39 9 0 9 0 5 -19 4 -18 26 -5 26 -5 -19 25 -20 25 1 16 0 16 9 -22 9 -23 12 0 11 0 -6 18 -6 17 17 -21 c10 -12 28 -27 41 -33 l22 -12 0 -14 0 -15 -20 0 -20 0 0 -21 0 -22 53 7 c28 3 62 6 75 6 l22 0 0 13 0 13 -29 11 -29 10 -11 22 -12 21 16 0 15 0 1 28 2 27 6 -35 6 -35 33 -10 32 -9 0 -13 0 -13 9 0 10 0 3 16 c2 9 2 54 0 100 l-3 84 -10 0 -9 0 0 -65 0 -65 -14 0 -15 0 -6 19 -6 19 -21 6 -22 5 -8 -12 -8 -12 -1 13 c-1 6 -2 18 -3 24 l-1 13 38 -3 37 -4 0 17 0 16 -14 15 c-21 20 -26 18 -27 -13 l-1 -28 -5 13 -5 12 -9 -5 -8 -6 -7 26 -6 25 6 15 5 15 16 0 15 0 0 -15 0 -15 15 0 15 0 0 35 0 35 15 0 15 0 0 -35 0 -35 15 0 15 0 0 15 0 15 20 0 20 0 0 20 0 20 33 -1 32 -1 -17 -5 -18 -4 0 -94 0 -93 13 -5 12 -5 -17 -1 -18 -1 0 65 0 65 -10 0 -11 0 3 -76 3 -77 18 -11 18 -11 15 19 14 20 0 88 0 88 15 0 15 0 0 -15 0 -15 15 0 15 0 0 33 0 34 26 12 27 12 6 -7 6 -7 -12 -4 -13 -5 0 -19 0 -19 20 0 20 0 0 -15 0 -15 15 0 15 0 0 15 0 15 20 0 20 0 0 -15 0 -15 15 0 15 0 0 35 0 35 23 4 c12 3 34 7 50 9 l27 4 0 -7 0 -8 -35 -6 -35 -7 0 -54 0 -55 -10 0 -10 0 0 14 0 14 -16 6 c-23 9 -24 8 -24 -12 l0 -19 -16 0 -17 0 -5 19 -4 18 -14 0 -14 0 0 -78 0 -78 -16 -22 -15 -22 35 0 36 0 0 -15 0 -15 35 0 35 0 0 15 0 15 -15 0 -15 0 -20 20 -20 20 0 16 0 15 10 -6 10 -6 0 30 0 31 -12 -2 -13 -3 0 15 0 15 78 0 77 0 0 13 0 13 -10 -6 -10 -6 0 40 0 41 16 0 15 0 -3 -105 -3 -105 13 0 12 0 0 35 0 35 16 0 16 0 -6 48 c-4 26 -9 58 -12 72 l-5 25 71 -3 70 -4 17 18 18 17 -10 4 -10 3 3 45 4 46 -473 1 c-261 0 -509 0 -551 -1 l-78 -1 0 15 0 15 125 0 125 0 0 15 0 15 30 0 30 0 0 30 0 30 18 0 19 0 18 20 18 20 14 0 13 0 0 16 0 16 30 11 30 11 0 28 c0 30 -5 35 -15 17z m-217 -356 l-28 -4 0 -30 0 -30 22 15 22 16 23 0 23 0 0 -15 0 -15 -15 0 -15 0 0 -10 0 -10 15 0 15 0 0 -10 0 -10 -15 0 -15 0 0 -15 0 -15 15 0 15 0 0 -14 0 -15 -17 -3 -18 -4 -24 8 -24 9 -20 -7 -20 -6 7 28 c4 16 9 37 12 47 l5 17 -10 0 -11 0 0 40 0 40 43 -1 42 -2 -27 -4z"></path><path id="p1GvUt9E4L" d="M300 456 l-11 -15 -15 6 -14 5 0 -14 0 -14 30 -2 30 -2 0 25 c0 29 -3 30 -20 11z"></path><path id="p1Gv7c5pgc" d="M800 792 l0 -29 18 -16 c10 -10 23 -17 29 -17 l11 0 6 -15 5 -15 20 0 19 0 6 17 7 16 -27 29 c-15 15 -30 26 -32 23 -3 -2 -18 5 -33 16 l-29 20 0 -29z m91 -44 l23 -33 -17 14 c-18 14 -42 51 -33 51 3 0 15 -15 27 -32z"></path><path id="p8i4Pw13A" d="M477 793 c-4 -3 -7 -24 -7 -45 l0 -38 35 0 35 0 0 8 0 7 55 0 55 0 0 -7 0 -8 34 0 34 0 6 16 c3 9 6 29 6 45 l0 29 -123 0 -124 0 -6 -7z"></path><path id="p1CiirAgAY" d="M660 406 l0 -74 14 -11 15 -12 20 11 c12 6 21 15 21 20 l0 9 15 -5 15 -6 0 31 c0 37 -7 40 -20 9 l-9 -23 0 37 -1 37 15 -5 15 -6 0 17 0 17 -15 -6 -15 -5 0 20 0 21 -12 -5 -13 -4 -2 -39 c-1 -21 -2 -45 -2 -51 l-1 -13 -10 0 -10 0 0 55 0 55 -10 0 -10 0 0 -74z"></path><path id="pCkCiTvVt" d="M530 435 l0 -15 10 0 10 0 0 15 0 15 -10 0 -10 0 0 -15z"></path><path id="p6s38VMSE" d="M840 376 l0 -35 16 -15 c8 -9 20 -16 25 -16 l9 0 0 24 0 25 -17 4 -18 5 23 1 22 1 0 -32 0 -31 18 16 c10 10 24 17 30 17 l12 0 -1 33 -1 32 -8 -30 -7 -30 -4 30 -4 30 -47 3 -48 3 0 -35z"></path><path id="p15i8v10su" d="M530 371 l0 -31 10 0 10 0 0 24 0 25 -10 6 -10 6 0 -30z"></path><path id="p1AHaSv620" d="M642 370 l0 -35 5 18 c2 9 2 25 0 35 l-5 17 0 -35z"></path><path id="pYDEqewNy" d="M615 284 l-29 -23 -48 6 -49 6 -6 -22 -5 -21 -9 0 -9 0 0 -20 0 -20 -8 0 c-4 0 -55 16 -112 35 l-104 35 -28 0 -28 0 0 -12 c0 -22 14 -34 49 -46 l33 -12 9 6 9 5 55 -17 55 -18 -12 -8 -13 -9 35 6 35 6 -15 -11 -15 -12 24 6 24 5 13 -13 c7 -8 16 -25 20 -40 l6 -26 9 0 8 0 -6 18 -6 17 29 -27 28 -27 -7 -7 -7 -7 -17 13 c-10 7 -5 1 10 -14 l28 -26 54 0 53 0 31 27 31 27 0 18 0 18 10 0 10 0 0 14 0 15 25 19 c32 25 31 30 -2 34 l-28 3 -3 19 c-3 11 -10 25 -17 33 -7 7 -15 16 -17 20 -1 5 -17 18 -33 29 l-31 21 -29 -23z m-17 -82 l3 -22 25 -6 c13 -3 24 -9 24 -13 l0 -6 -57 4 -58 3 -7 11 -6 10 15 23 15 24 22 -4 21 -3 3 -21z m7 -79 l13 -18 -9 -16 -8 -17 -20 -5 -20 -5 -15 17 c-30 33 -19 61 22 61 l25 0 12 -17z m89 -22 c-1 -6 -2 -18 -2 -26 l-2 -15 -26 -6 -25 -7 -11 11 -10 10 18 30 17 30 21 -8 21 -7 -1 -12z"></path><path id="pbTVVZEzv" d="M958 247 l-13 -13 -57 -14 -58 -13 0 -17 0 -18 26 -5 c14 -2 34 -2 45 0 l19 5 -7 11 -6 10 11 -7 11 -7 26 7 27 7 -14 9 -13 10 23 -5 22 -5 -5 8 -5 8 15 6 15 5 0 16 0 15 -24 0 -25 0 -13 -13z"></path></g></g><g id="l3Xk8ul7sJI9Q4BWgq9CMeE" fill="rgb(167,167,167)" style="transform: none;"><g><path id="p1GsoDRwkh" d="M497 895 l-105 -85 -47 -55 -47 -55 -14 0 -14 0 0 -16 0 -15 38 3 37 3 3 23 3 22 13 0 12 0 42 43 42 43 0 17 0 17 26 0 26 0 5 20 5 20 19 0 18 0 8 14 8 14 26 7 26 6 6 -15 6 -16 15 0 14 0 6 -15 5 -15 21 0 20 0 0 -14 c0 -7 6 -19 14 -25 l15 -12 33 3 33 3 -72 59 c-40 33 -70 62 -68 64 2 3 11 -1 20 -8 8 -7 15 -10 15 -7 0 3 -15 16 -32 28 l-33 23 14 -17 13 -17 -10 0 c-6 0 -14 4 -17 10 -3 5 -14 14 -24 20 l-18 9 -106 -84z"></path><path id="pX3dScodu" d="M642 791 l-14 -8 -44 5 -44 5 0 -42 0 -41 80 0 80 0 0 10 0 10 20 0 20 0 0 35 0 35 -42 0 -43 0 -13 -9z m-72 -36 l0 -15 -10 0 -10 0 0 15 0 15 10 0 10 0 0 -15z m50 0 l0 -15 -9 0 c-6 0 -12 4 -15 9 l-5 8 6 7 c3 3 10 6 15 6 l8 0 0 -15z m40 0 l0 -15 -10 0 -10 0 0 15 0 15 10 0 10 0 0 -15z m50 -6 l0 -9 -15 0 -15 0 0 8 c0 5 3 12 6 15 l7 6 8 -5 c5 -3 9 -9 9 -15z"></path><path id="pgWZaJ8tc" d="M862 725 l3 -40 34 -3 34 -3 10 10 11 11 -23 0 -22 0 6 19 5 18 -17 14 -18 13 13 -14 c6 -8 12 -18 12 -24 l0 -9 -26 24 -25 24 3 -40z"></path><path id="p8YuD7Kuh" d="M1130 680 l0 -20 -540 0 -540 0 -4 -22 c-3 -13 -7 -39 -10 -59 l-4 -37 10 -10 10 -10 19 5 19 5 0 14 0 14 50 0 50 0 0 -9 c0 -5 -6 -12 -12 -14 l-13 -5 28 -1 27 -1 0 -10 0 -10 -10 0 -10 0 6 -27 6 -28 -10 13 -9 13 -7 -62 c-3 -34 -6 -89 -6 -123 l0 -61 8 -11 c4 -6 18 -15 32 -19 l25 -7 -20 15 -20 16 133 -42 132 -42 10 -35 10 -36 30 -29 30 -29 59 -3 60 -4 35 32 36 31 10 39 11 38 42 12 c23 7 59 13 79 13 l37 1 -12 7 -12 8 13 0 c7 0 36 10 63 21 l49 21 0 14 0 14 -25 0 -25 0 0 10 0 10 14 0 14 0 12 36 12 36 -6 56 c-4 31 -10 72 -13 90 l-5 32 16 0 16 0 0 15 0 15 50 0 50 0 0 -15 c0 -17 2 -18 24 -9 l16 6 0 73 0 73 -16 6 c-23 9 -24 8 -24 -14z m-640 -75 l0 -15 -10 0 -10 0 0 15 0 15 10 0 10 0 0 -15z m604 3 l-5 -8 15 0 16 0 0 11 0 10 11 -7 12 -7 -18 -10 -18 -10 -17 11 -17 11 -12 -12 -11 -11 0 11 c0 12 15 20 37 20 l12 0 -5 -9z m-676 -6 l13 -9 -31 0 -31 0 13 9 c7 4 15 8 18 8 3 0 11 -4 18 -8z m75 -50 l-12 -7 -4 -45 -4 -45 -1 53 -2 52 18 0 17 0 -12 -8z m407 -27 l0 -35 15 0 15 0 0 14 0 14 20 5 20 5 0 -104 0 -104 -20 -20 -20 -20 -43 0 -44 0 -19 21 -19 21 -3 98 -4 97 21 6 20 5 3 -47 3 -46 43 -3 42 -3 0 20 0 21 -25 0 -25 0 0 45 0 45 10 0 10 0 0 -35z m-536 -27 c-3 -4 -10 -8 -16 -8 -7 0 -22 -10 -35 -22 l-23 -21 0 -14 0 -13 38 0 39 0 0 -15 0 -15 -39 0 -38 0 0 -13 0 -14 23 -20 c12 -11 30 -23 40 -26 l18 -7 -3 -17 -4 -18 -19 3 c-11 2 -31 11 -45 21 l-25 17 -19 38 -18 37 6 34 7 34 25 30 25 30 27 3 27 3 7 -10 7 -9 -5 -8z m104 -76 l32 -3 0 -15 0 -14 10 0 10 0 0 69 0 69 20 -5 20 -5 0 -14 0 -14 30 0 30 0 0 14 0 14 20 5 20 5 0 -92 0 -92 14 -20 15 -19 18 11 18 11 3 22 3 21 -15 0 -16 0 0 60 0 60 15 0 15 0 0 14 0 14 20 5 20 5 0 -106 0 -105 -17 -19 -16 -18 -29 0 -28 0 -20 12 -20 12 -12 -12 -12 -12 -32 0 -33 0 -15 22 -16 22 0 28 0 28 -19 0 -19 0 -5 -12 -5 -13 -1 18 -1 17 -20 0 -20 0 0 -22 c0 -13 4 -29 9 -37 l9 -14 24 -2 23 -2 3 -31 3 -32 -14 0 -15 0 -6 -25 -6 -25 -23 1 c-12 0 -44 8 -72 18 l-50 18 73 7 72 7 0 14 0 13 -25 6 -26 7 -9 25 -10 25 0 89 0 89 18 3 17 3 5 -50 5 -50 33 -3z m-193 -170 c-6 -7 -45 19 -45 29 l0 10 24 -18 c13 -10 23 -19 21 -21z m555 13 l0 -25 43 -1 42 -1 -60 -20 -60 -19 -17 10 c-10 6 -27 11 -38 11 l-20 0 0 10 0 10 15 0 15 0 0 10 0 10 20 0 20 0 0 15 0 15 20 0 20 0 0 -25z m-156 -31 l16 -16 -6 -10 -6 -10 -27 7 c-14 3 -30 10 -35 15 l-8 8 6 11 7 11 19 0 19 0 15 -16z m-150 -19 c-9 -14 -20 -25 -25 -25 l-9 0 16 25 c9 14 20 25 25 25 l9 0 -16 -25z m71 4 l7 -10 -6 -25 -6 -24 -30 0 -29 0 -6 10 -7 11 16 24 16 25 20 0 19 0 6 -11z m118 -26 c3 -5 7 -21 8 -37 l4 -29 -12 -4 -13 -5 -10 28 -11 27 5 14 c6 14 22 17 29 6z m-216 -56 l2 -32 -10 18 -11 18 6 15 c8 21 11 17 13 -19z m112 -11 l12 -14 -12 -26 -12 -26 -15 0 -16 0 -22 21 -22 20 5 20 5 19 33 0 33 0 11 -14z m89 -27 l3 -17 -17 -16 -16 -17 -21 3 -20 3 -4 12 -4 12 21 21 21 21 17 -3 17 -3 3 -16z m-148 -58 l-1 -16 -24 28 c-14 15 -25 33 -25 39 l0 11 25 -23 25 -23 0 -16z"></path><path id="pAh65hos3" d="M840 372 l0 -29 18 -16 19 -17 16 0 17 0 16 25 16 24 -4 18 -3 18 -16 3 -15 3 -11 -28 -11 -28 -1 28 -1 27 -20 0 -20 0 0 -28z"></path><path id="pGjmz3TP4" d="M590 420 l0 -50 -15 0 -15 0 0 -19 0 -19 14 -11 13 -11 16 6 16 6 5 16 c3 10 3 37 1 62 -2 25 -4 51 -4 58 l-1 12 -15 0 -15 0 0 -50z"></path></g></g><g id="l6aZaOA7XE6dUoJsZffd2tJ" fill="rgb(255,0,49)" style="transform: none;"><g><path id="pfBm8BHoT" d="M509 879 c-35 -28 -85 -72 -111 -97 l-48 -46 0 -33 0 -33 145 0 145 0 0 15 0 15 43 0 42 0 14 9 14 9 19 -11 18 -12 0 -12 0 -13 35 0 35 0 0 35 0 35 -9 0 -9 0 -5 20 -5 20 -15 6 c-8 3 -36 25 -62 50 -26 24 -51 44 -56 44 -4 0 -19 11 -33 25 l-25 25 -34 0 -33 0 -65 -51z m21 -124 l0 -15 -15 0 -15 0 0 8 c0 11 11 22 22 22 l8 0 0 -15z m48 -3 l4 -12 -16 0 -16 0 0 16 0 16 12 -4 c6 -2 14 -10 16 -16z m42 3 l0 -15 -15 0 -15 0 0 8 c0 11 11 22 22 22 l8 0 0 -15z m48 -3 l4 -12 -16 0 -16 0 0 16 0 16 12 -4 c6 -2 14 -10 16 -16z m42 3 l0 -15 -15 0 -15 0 0 15 0 15 15 0 15 0 0 -15z"></path><path id="pHq3ZCCuI" d="M362 273 l-12 -12 0 -19 0 -19 51 -11 c28 -7 60 -12 71 -12 l20 0 20 26 c24 30 35 25 17 -8 l-12 -23 16 14 17 13 0 32 0 32 -88 0 -89 0 -11 -13z"></path><path id="p1ivDyBAd" d="M725 278 l-16 -10 -15 6 -14 5 0 -22 0 -23 20 -17 20 -17 19 0 c11 0 42 5 70 12 l51 11 0 28 0 28 -18 5 c-10 3 -36 5 -59 4 l-41 -1 -17 -9z"></path></g></g><g id="l3yXi3dcY7uVMMoJK8E922c" fill="rgb(198,0,37)" style="transform: none;"><g><path id="phaYFvpUH" d="M554 915 l-6 -15 -15 0 -15 0 -5 -20 -5 -20 -17 0 c-9 0 -22 -5 -29 -12 l-12 -12 0 -18 0 -18 -23 0 -24 0 -16 -18 -17 -19 0 -32 0 -33 75 70 c41 38 95 83 120 101 l45 32 0 -63 0 -63 11 -15 11 -15 5 13 5 12 13 0 13 0 5 -12 5 -13 1 13 1 12 14 0 14 0 6 -15 5 -15 -12 -1 c-7 -1 -31 -1 -54 -1 l-43 0 0 -19 0 -19 -15 0 -15 0 0 -15 0 -15 145 0 145 0 0 30 0 31 -53 54 c-30 30 -56 55 -59 55 -3 0 -23 16 -44 35 l-38 35 -13 0 -13 0 0 10 0 10 -45 0 -46 0 -5 -15z"></path><path id="pKR828AAg" d="M370 285 l0 -15 -15 0 -15 0 0 -24 0 -24 71 -17 72 -18 18 24 c10 13 19 27 19 32 l0 7 -17 -11 -18 -11 -55 15 -55 15 60 2 60 2 -42 11 -43 10 0 8 0 9 -20 0 -20 0 0 -15z"></path><path id="pKtYxd1BQ" d="M718 277 l-28 -11 0 -26 0 -26 12 -12 12 -12 21 0 c11 0 50 8 88 17 l67 17 0 21 0 21 -33 12 -33 12 -40 -1 -39 -1 -27 -11z"></path></g></g><g id="l7atAbmcZDAMN511xqQ4kPN" fill="rgb(43,11,17)" style="transform: none;"><g><path id="pfQg0oOzC" d="M570 925 l0 -15 -20 0 -20 0 0 -15 0 -15 -21 0 -21 0 -5 -20 -5 -20 -18 0 -17 0 -16 -18 -17 -19 0 -21 0 -22 -23 0 -23 0 -12 -12 -12 -12 0 -38 0 -38 270 0 270 0 0 35 0 35 -36 40 -36 40 -23 0 -24 0 -3 23 -3 22 -22 3 -23 3 0 15 0 15 -17 6 c-10 4 -24 15 -31 25 l-13 18 -40 0 -39 0 0 -15z m114 -79 c39 -30 91 -75 116 -100 l44 -46 -233 0 -233 0 19 25 c21 29 194 175 207 175 5 0 41 -24 80 -54z"></path><path id="pwPHNtgMt" d="M372 283 l3 -18 74 -3 73 -3 -16 -18 -17 -19 -57 15 c-31 8 -59 18 -62 22 -3 4 -13 10 -22 14 l-18 6 0 -28 0 -28 60 -16 c33 -10 68 -17 78 -17 l18 0 23 31 23 31 5 -6 6 -5 -18 -28 -18 -28 27 24 26 24 0 24 0 23 -27 13 -26 12 -5 -13 -4 -12 -38 0 -39 0 -6 10 -6 10 -20 0 -20 0 3 -17z"></path><path id="pv8nGxncG" d="M737 284 l-28 -15 -19 6 -20 6 3 -18 c16 -77 45 -87 163 -56 l64 17 0 23 0 23 -18 0 -18 0 -20 15 -19 14 -30 0 -30 0 -28 -15z m108 -31 c-11 -3 -39 -11 -62 -18 l-42 -13 -17 19 -17 19 79 -1 79 -1 -20 -5z"></path></g></g><g id="l1VgTdoXq8oM6proSCu5T9e" fill="rgb(0,0,0)" style="transform: none;"><g><path id="p13Xslj330" d="M510 901 c-47 -37 -112 -97 -145 -132 l-60 -64 -135 -5 -135 -5 0 -80 0 -80 96 -3 97 -3 -10 -42 -9 -42 -2 -105 -2 -105 60 -21 c33 -12 89 -30 125 -40 l65 -17 11 -14 12 -14 6 35 7 34 20 26 c11 14 17 26 13 26 -4 0 -12 -7 -19 -17 l-12 -16 -66 18 -67 18 0 7 c0 4 -18 14 -40 23 l-39 15 -21 34 -20 33 0 38 0 38 14 28 15 28 25 17 25 16 26 0 25 0 0 -20 0 -20 -15 0 -16 0 -27 -27 -27 -28 40 -5 40 -5 3 -22 3 -23 -41 0 -41 0 12 -21 11 -22 29 -10 29 -11 0 -23 0 -23 79 0 79 0 6 -17 7 -17 -21 -28 -20 -27 0 -35 0 -34 31 -35 31 -35 14 5 14 5 0 -9 0 -10 25 -11 25 -12 0 10 0 10 26 11 c37 13 42 4 7 -15 l-28 -15 12 -1 c7 0 28 14 48 31 l35 31 11 43 11 43 36 7 c21 4 79 20 131 37 l94 31 -7 112 c-4 61 -11 127 -15 148 l-9 36 82 3 81 3 0 80 0 80 -117 3 -118 3 -77 78 -78 78 -76 56 c-42 32 -80 57 -85 57 -5 0 -47 -31 -94 -69z m214 -83 l105 -87 11 -20 11 -21 -241 0 -240 0 0 8 c0 20 225 214 242 209 3 -1 54 -41 112 -89z m-549 -205 l-4 -13 8 0 c5 0 12 8 16 18 l6 17 15 -19 14 -20 1 20 0 19 9 -20 9 -20 0 20 1 20 10 -15 10 -15 0 14 0 13 15 -12 15 -12 0 11 0 11 9 0 10 0 -2 -19 -1 -19 -50 -1 -51 0 -7 12 -8 12 0 -11 0 -12 -65 -1 -65 -1 0 13 c0 21 7 24 60 23 l50 -1 -5 -12z m188 4 l12 7 102 1 c57 0 103 0 103 -1 0 -1 -3 -10 -6 -19 l-7 -17 -8 14 -9 13 -10 -15 -10 -15 0 15 0 15 -8 -11 -7 -11 -52 0 -53 -1 4 7 5 7 -19 0 -19 0 5 -7 4 -6 -25 0 -25 0 1 21 1 21 5 -13 5 -12 11 7z m546 -6 l9 -14 4 19 4 19 6 -22 6 -21 -77 0 -76 0 -14 12 -15 11 8 -12 7 -13 -8 0 c-5 0 -14 5 -21 12 l-12 12 0 -10 0 -10 -27 -2 -27 -2 -8 12 -8 13 0 -14 0 -13 -15 12 -15 12 0 -9 0 -9 -19 -1 -19 -2 5 17 4 17 150 0 150 0 8 -14z m196 0 l-6 -16 12 13 c17 16 26 15 33 -3 l5 -15 -62 1 -62 1 -14 12 -15 11 7 -12 7 -12 -27 3 -28 3 -3 15 -3 14 81 0 81 0 -6 -15z m-665 -131 l0 -50 30 0 30 0 0 -20 0 -20 -31 0 -30 0 3 -32 3 -33 28 -3 27 -3 0 -20 0 -19 -37 0 -36 0 -19 17 -18 16 0 109 0 108 25 0 25 0 0 -50z m120 -42 l0 -93 9 -13 8 -14 19 4 19 3 3 103 3 102 24 0 24 0 3 -102 3 -103 19 -3 19 -4 8 14 9 13 0 93 0 93 23 -3 22 -3 2 -85 3 -85 -11 -32 -10 -32 -20 -6 c-10 -4 -19 -9 -19 -13 l0 -7 66 3 66 4 9 -9 9 -9 -68 -18 -67 -18 -25 30 c-14 16 -33 33 -44 39 l-19 10 -29 -14 -29 -15 -29 12 -29 12 -6 17 c-3 9 -7 59 -10 110 l-5 94 6 8 5 9 20 0 19 0 0 -92z m290 47 l0 -45 40 0 40 0 0 45 0 45 25 0 25 0 0 -99 0 -100 -22 -26 -23 -26 -36 -5 -35 -6 -32 27 -32 27 0 104 0 104 25 0 25 0 0 -45z m-184 -220 l19 -14 -9 -1 -8 0 12 -15 13 -16 -10 -10 -11 -11 -28 4 -29 3 0 25 0 25 30 -2 30 -3 -22 10 c-13 5 -23 12 -23 15 0 9 16 5 36 -10z m-62 -51 l6 -15 -10 -20 -11 -19 -22 -1 -22 -2 21 -4 22 -4 18 -20 17 -19 -11 -25 -12 -25 -18 0 -19 0 -22 24 -23 24 11 21 11 21 -12 19 -12 20 18 20 19 21 22 0 23 0 6 -16z m116 -36 l9 -23 0 18 1 18 10 -6 10 -6 0 -27 0 -27 -9 13 -8 14 -6 -22 -5 -21 -21 13 -21 13 0 26 c0 43 25 54 40 17z m-21 -100 l-10 -19 -26 -10 -25 -9 -14 11 -13 11 11 23 10 23 22 10 21 10 17 -15 17 -16 -10 -19z"></path><path id="p19ulxZSwG" d="M850 365 l0 -34 19 -11 c25 -13 27 -13 45 6 l16 15 0 30 0 29 -40 0 -40 0 0 -35z"></path><path id="pL6JaV6ax" d="M527 43 l33 -33 12 0 13 1 -20 11 c-11 6 -31 20 -45 32 l-26 21 33 -32z"></path></g></g></svg>