<?xml version="1.0" standalone="no"?>
<!DOCTYPE svg PUBLIC "-//W3C//DTD SVG 20010904//EN"
 "http://www.w3.org/TR/2001/REC-SVG-20010904/DTD/svg10.dtd">
<svg version="1.0" xmlns="http://www.w3.org/2000/svg"
 width="1414.000000pt" height="1176.000000pt" viewBox="0 0 1414.000000 1176.000000"
 preserveAspectRatio="xMidYMid meet">

<g transform="translate(0.000000,1176.000000) scale(0.100000,-0.100000)"
fill="#bd202e" stroke="none">
<path d="M6950 11751 c-14 -5 -53 -14 -88 -20 -84 -16 -228 -65 -329 -111 -87
-40 -262 -140 -285 -163 -7 -7 -40 -33 -73 -57 -89 -65 -295 -275 -295 -301 0
-5 -7 -12 -15 -15 -8 -4 -15 -11 -15 -16 0 -6 -12 -27 -27 -47 -34 -44 -49
-68 -65 -101 -7 -14 -25 -46 -41 -73 -16 -26 -30 -53 -31 -60 -1 -6 -8 -23
-16 -37 -18 -33 -69 -174 -80 -225 -5 -22 -14 -56 -20 -75 -19 -59 -41 -239
-44 -360 l-3 -114 -74 -17 c-505 -113 -1029 -258 -1594 -443 -402 -131 -842
-283 -1095 -378 -107 -41 -229 -87 -271 -102 l-76 -27 -6 -193 c-29 -867 -10
-1596 58 -2206 25 -218 73 -532 100 -655 41 -187 86 -381 91 -397 5 -17 -40
-18 -1064 -18 l-1070 0 -53 -28 c-43 -22 -59 -38 -81 -81 l-28 -53 0 -832 0
-832 26 -52 c19 -39 38 -59 72 -80 l47 -27 1534 -5 1534 -5 138 -190 c545
-747 1293 -1448 2669 -2500 102 -78 244 -186 315 -241 72 -55 201 -155 288
-222 l159 -121 66 52 c121 95 182 141 251 192 38 28 102 75 143 106 40 31 127
96 193 145 66 48 210 161 320 249 110 89 236 188 280 221 240 180 482 373 681
544 460 395 625 548 956 888 253 258 426 459 628 727 l113 150 1391 5 1391 5
45 27 c28 16 55 43 70 70 l25 43 0 850 0 850 -27 45 c-16 28 -43 55 -70 70
l-43 25 -928 3 c-874 2 -928 3 -923 20 11 37 96 425 116 532 29 154 72 458 85
612 8 95 20 207 25 248 13 100 39 586 50 950 21 687 30 932 35 968 2 20 7 60
10 89 l5 51 -277 111 c-153 60 -404 153 -558 206 -154 53 -311 108 -350 121
-357 122 -1252 370 -1675 464 -246 54 -223 44 -217 93 7 64 -11 312 -29 397
-18 90 -69 255 -99 325 -23 52 -65 139 -78 160 -56 91 -143 220 -170 251 -109
129 -246 255 -362 335 -113 77 -352 199 -391 199 -8 0 -25 6 -37 14 -12 8 -65
24 -117 35 -52 12 -114 26 -138 31 -50 12 -545 12 -582 1z m381 -141 c47 0 49
-2 64 -36 8 -20 15 -38 15 -39 0 -1 -48 -5 -107 -8 -60 -3 -142 -13 -183 -22
-104 -22 -270 -74 -270 -84 0 -5 15 -12 34 -15 33 -6 58 -27 69 -57 8 -24 -25
-88 -73 -142 l-43 -49 -66 6 c-36 4 -78 9 -92 12 l-27 5 2 161 1 161 70 24
c165 57 431 100 529 87 16 -2 50 -4 77 -4z m256 -35 c173 -37 329 -105 503
-220 171 -114 169 -111 96 -146 l-43 -20 -109 36 c-60 19 -183 62 -274 94
l-165 59 -47 106 c-26 58 -43 106 -38 106 5 0 39 -7 77 -15z m-1037 -275 l0
-151 -177 -187 c-98 -103 -212 -224 -253 -268 l-75 -80 -128 -3 c-88 -2 -127
1 -127 9 0 24 103 221 162 310 75 112 232 279 341 362 73 56 233 157 250 158
4 0 7 -68 7 -150z m1278 -115 c146 -53 271 -100 276 -104 6 -5 16 -10 21 -11
6 -1 17 -22 26 -48 47 -141 71 -209 79 -227 5 -11 23 -63 41 -115 17 -52 35
-102 40 -111 7 -13 -5 -27 -54 -65 -34 -26 -65 -53 -69 -60 -11 -16 -174 -154
-183 -154 -4 0 -69 22 -144 50 -75 27 -201 72 -281 100 l-145 51 -37 92 c-20
51 -62 153 -93 227 -31 74 -65 156 -75 183 l-18 47 171 119 c95 66 174 120
175 120 2 1 123 -42 270 -94z m-1030 -131 c59 -7 150 -19 202 -26 52 -6 100
-16 106 -22 6 -6 51 -108 99 -226 48 -118 96 -235 106 -259 11 -24 19 -48 19
-53 0 -10 -126 -149 -317 -351 l-92 -98 -308 16 c-169 9 -313 18 -319 20 -5 1
-16 23 -23 46 -7 24 -42 135 -78 246 l-65 202 82 88 c46 48 158 168 249 266
162 174 167 178 199 172 19 -3 82 -13 140 -21z m-873 -561 c-16 -39 -64 -254
-76 -338 -15 -100 -18 -342 -6 -421 l7 -51 -56 13 c-31 7 -60 16 -64 21 -19
20 -40 209 -40 356 0 154 12 254 47 380 l16 57 89 0 c82 0 89 -2 83 -17z
m2570 -145 c99 -88 113 -105 110 -127 -4 -25 -13 -89 -55 -391 -11 -80 -25
-179 -31 -220 l-11 -75 -56 -33 c-32 -17 -99 -57 -151 -87 l-93 -55 -92 70
c-50 38 -104 79 -119 92 l-28 23 15 90 c23 141 43 278 62 425 l18 134 40 38
c23 21 46 38 52 38 5 0 24 13 41 30 29 28 175 149 181 150 2 0 54 -46 117
-102z m294 -269 c1 -192 -21 -330 -86 -521 -15 -43 -29 -78 -33 -78 -4 0 -16
10 -28 23 -21 22 -21 24 -7 117 8 52 28 196 45 320 17 124 33 241 36 260 3 21
16 44 32 57 l27 21 6 -26 c4 -15 7 -93 8 -173z m-2145 -150 c72 -5 161 -9 198
-9 l68 0 134 -269 135 -269 -42 -84 c-23 -46 -58 -121 -77 -167 l-35 -83 -275
7 c-237 6 -278 9 -294 23 -23 21 -365 467 -372 487 -5 12 81 182 173 343 l25
43 116 -6 c64 -3 175 -10 246 -16z m-726 -365 c29 -5 46 -14 54 -28 6 -11 84
-115 172 -231 223 -290 238 -314 227 -351 -5 -16 -14 -55 -21 -86 l-13 -57
-56 44 c-85 67 -272 262 -321 334 -63 95 -107 175 -150 276 -61 144 -61 136 7
119 32 -7 77 -17 101 -20z m2096 -200 c95 -70 115 -90 110 -106 -3 -10 -35
-81 -70 -156 -35 -75 -72 -153 -81 -172 -16 -35 -18 -36 -290 -125 l-273 -90
-78 80 c-42 44 -105 110 -140 146 l-63 65 17 39 c9 21 35 80 58 129 24 50 49
108 57 129 14 39 17 41 99 52 54 7 341 61 425 79 103 23 103 23 229 -70z m60
-584 c17 0 14 -4 -16 -25 -126 -86 -380 -181 -558 -209 -58 -9 -113 -18 -122
-20 -13 -3 -9 7 15 34 29 36 46 43 207 96 96 32 225 74 285 95 66 23 121 36
139 33 16 -2 38 -4 50 -4z m-3744 -473 l0 -253 -88 -16 c-338 -64 -596 -250
-750 -538 -32 -59 -92 -220 -92 -246 0 -2 209 -4 465 -4 l465 0 0 -240 0 -240
-466 0 c-438 0 -465 -1 -460 -17 3 -10 10 -37 16 -60 6 -23 24 -75 42 -115
132 -313 412 -529 784 -605 l84 -18 0 -208 0 -208 -257 3 -258 3 -98 44 c-342
153 -666 497 -806 856 -160 409 -142 844 50 1229 245 491 685 812 1204 879 17
2 60 5 98 6 l67 1 0 -253z m6300 228 c142 -23 287 -68 393 -121 201 -101 366
-300 436 -529 50 -160 51 -187 51 -1302 l0 -1043 -270 0 -270 0 0 530 0 530
-505 0 -505 0 0 -530 0 -530 -270 0 -270 0 0 1015 c0 653 4 1050 11 1111 14
131 42 234 89 333 138 288 390 480 705 535 108 19 289 19 405 1z m-3588 -9
c170 -33 339 -121 471 -246 l85 -80 64 63 c222 218 536 319 812 262 299 -62
546 -301 615 -595 19 -81 20 -132 24 -1030 3 -520 2 -1038 -1 -1152 l-5 -208
-263 0 -264 0 -2 1113 c-3 1060 -4 1114 -22 1152 -49 105 -114 174 -206 218
-55 27 -76 31 -140 31 -91 0 -141 -14 -204 -56 -57 -37 -97 -89 -128 -167
l-23 -56 -3 -1117 -3 -1118 -263 0 -263 0 -5 208 c-4 114 -4 608 -1 1099 l4
892 -26 72 c-58 162 -163 243 -315 243 -66 1 -85 -4 -142 -32 -80 -39 -139
-101 -181 -190 l-32 -67 -3 -1112 -2 -1113 -270 0 -270 0 0 1114 c0 743 4
1141 11 1193 42 307 253 561 547 657 112 37 278 46 404 22z m-1152 -266 l0
-230 -220 0 c-218 0 -297 -8 -354 -37 -47 -24 -116 -94 -141 -143 -38 -76 -45
-137 -45 -400 l0 -250 380 0 380 0 0 -235 0 -235 -380 0 -380 0 0 -595 0 -595
-270 0 -271 0 3 1163 3 1162 22 78 c42 146 132 286 241 372 74 60 217 130 312
155 66 17 112 19 398 19 l322 1 0 -230z m-3751 -3449 c61 -32 66 -44 40 -91
-25 -44 -34 -48 -59 -25 -10 9 -34 18 -53 22 -31 5 -40 1 -67 -25 -42 -42 -42
-101 -1 -143 34 -34 63 -36 113 -10 34 19 37 19 51 3 45 -52 41 -73 -23 -111
-47 -28 -120 -28 -178 0 -141 68 -143 292 -4 376 48 29 127 31 181 4z m2104
12 c3 -5 8 -30 12 -57 l7 -48 -85 7 c-90 7 -104 2 -92 -36 6 -19 13 -21 78
-17 l72 3 0 -50 0 -49 -75 -1 -75 0 0 -80 0 -80 -52 0 c-29 1 -54 3 -56 5 -3
3 -7 94 -9 202 l-4 197 110 4 c61 1 123 4 138 5 15 1 29 -1 31 -5z m338 -16
c24 -13 58 -43 74 -66 27 -39 30 -50 30 -121 0 -71 -3 -82 -30 -122 -38 -54
-102 -88 -166 -88 -62 0 -89 11 -139 56 -105 95 -77 283 52 347 49 24 126 22
179 -6z m440 0 c24 -13 58 -43 74 -66 27 -39 30 -50 30 -121 0 -71 -3 -82 -30
-122 -38 -54 -102 -88 -166 -88 -62 0 -89 11 -139 56 -105 95 -77 283 52 347
49 24 126 22 179 -6z m1059 -11 c58 -145 140 -361 140 -368 0 -5 -28 -8 -62
-6 -57 3 -63 5 -68 28 -5 23 -11 25 -72 28 l-66 3 -7 -31 c-6 -29 -8 -30 -66
-30 -32 0 -59 2 -59 4 0 7 116 327 133 367 14 33 15 34 66 31 42 -3 54 -8 61
-26z m1670 0 c58 -145 140 -361 140 -368 0 -5 -28 -8 -62 -6 -57 3 -63 5 -68
28 -5 23 -11 25 -72 28 l-66 3 -7 -31 c-6 -29 -8 -30 -66 -30 -32 0 -59 2 -59
4 0 7 116 327 133 367 14 33 15 34 66 31 42 -3 54 -8 61 -26z m346 -76 c42
-60 80 -110 85 -110 4 0 5 50 2 110 l-6 110 63 0 63 0 -6 -67 c-4 -38 -7 -130
-7 -205 l0 -138 -50 0 -49 0 -78 106 -78 106 -3 -107 -3 -106 -56 3 -55 3 0
198 c1 108 1 199 1 202 1 3 23 5 50 5 l50 0 77 -110z m494 76 c58 -145 140
-361 140 -368 0 -5 -28 -8 -62 -6 -57 3 -63 5 -68 28 -5 23 -11 25 -72 28
l-66 3 -7 -31 c-6 -29 -8 -30 -66 -30 -32 0 -59 2 -59 4 0 7 116 327 133 367
14 33 15 34 66 31 42 -3 54 -8 61 -26z m433 18 c71 -36 81 -61 44 -107 l-23
-27 -39 20 c-54 27 -81 25 -116 -9 -23 -24 -29 -38 -29 -73 0 -70 46 -107 117
-93 l34 6 -2 52 c-2 36 1 52 9 51 7 -1 34 -2 61 -2 l49 -2 0 -109 0 -108 -117
-2 c-106 -1 -122 1 -162 22 -66 35 -103 100 -102 180 0 96 43 170 118 203 42
18 120 17 158 -2z m1463 -94 c42 -60 80 -110 85 -110 4 0 5 50 2 110 l-6 110
63 0 63 0 -6 -67 c-4 -38 -7 -130 -7 -205 l0 -138 -50 0 -49 0 -78 106 -78
106 -3 -107 -3 -106 -56 3 -55 3 0 198 c1 108 1 199 1 202 1 3 23 5 50 5 l50
0 77 -110z m944 76 c58 -145 140 -361 140 -368 0 -5 -28 -8 -62 -6 -57 3 -63
5 -68 28 -5 23 -11 25 -72 28 l-66 3 -7 -31 c-6 -29 -8 -30 -66 -30 -32 0 -59
2 -59 4 0 7 116 327 133 367 14 33 15 34 66 31 42 -3 54 -8 61 -26z m443 18
c71 -36 81 -61 44 -107 l-23 -27 -39 20 c-54 27 -81 25 -116 -9 -23 -24 -29
-38 -29 -73 0 -70 46 -107 117 -93 l34 6 -2 52 c-2 36 1 52 9 51 7 -1 34 -2
61 -2 l49 -2 0 -109 0 -108 -117 -2 c-106 -1 -122 1 -162 22 -66 35 -103 100
-102 180 0 96 43 170 118 203 42 18 120 17 158 -2z m653 -94 c42 -60 80 -110
85 -110 4 0 5 50 2 110 l-6 110 63 0 63 0 -6 -67 c-4 -38 -7 -130 -7 -205 l0
-138 -50 0 -49 0 -78 106 -78 106 -3 -107 -3 -106 -56 3 -55 3 0 198 c1 108 1
199 1 202 1 3 23 5 50 5 l50 0 77 -110z m523 91 c61 -32 66 -44 40 -91 -25
-44 -34 -48 -59 -25 -10 9 -34 18 -53 22 -31 5 -40 1 -67 -25 -42 -42 -42
-101 -1 -143 34 -34 63 -36 113 -10 34 19 37 19 51 3 45 -52 41 -73 -23 -111
-47 -28 -120 -28 -178 0 -141 68 -143 292 -4 376 48 29 127 31 181 4z m-11925
-22 c14 -71 15 -70 -76 -67 -83 3 -83 3 -83 -22 0 -25 1 -25 78 -22 85 3 83 5
71 -68 l-6 -35 -74 3 c-73 4 -74 4 -74 -21 0 -42 21 -50 106 -42 l77 7 -7 -39
c-12 -64 -17 -75 -33 -69 -8 3 -69 6 -136 6 l-122 0 0 200 0 200 136 0 137 0
6 -31z m165 -19 c18 -28 37 -50 41 -50 4 0 22 23 40 50 31 48 34 50 76 50 l44
0 0 -39 c0 -31 -9 -51 -45 -97 -25 -31 -45 -61 -45 -65 0 -3 20 -33 45 -65 35
-45 45 -66 45 -96 l0 -38 -45 0 c-43 0 -46 2 -77 50 -18 27 -36 50 -40 50 -5
0 -23 -22 -40 -50 -31 -47 -36 -50 -75 -50 l-43 0 0 40 c0 32 9 51 47 100 l46
60 -46 59 c-39 49 -47 67 -47 100 l0 41 43 0 c39 0 44 -4 76 -50z m525 19 c14
-71 15 -70 -76 -67 -83 3 -83 3 -83 -22 0 -25 1 -25 78 -22 85 3 83 5 71 -68
l-6 -35 -74 3 c-73 4 -74 4 -74 -21 0 -42 21 -50 106 -42 l77 7 -7 -39 c-12
-64 -17 -75 -33 -69 -8 3 -69 6 -136 6 l-122 0 0 200 0 200 136 0 137 0 6 -31z
m536 -113 c0 -156 6 -176 54 -176 51 0 55 14 58 170 l3 145 59 3 58 3 -4 -168
c-2 -102 -9 -176 -16 -189 -37 -68 -276 -74 -310 -7 -5 10 -12 96 -15 191 l-5
172 59 0 59 0 0 -144z m550 96 l0 -45 -46 6 -47 5 6 -159 5 -159 -64 0 -64 0
6 159 7 158 -51 -5 -52 -5 6 34 c3 19 7 39 9 44 1 6 59 10 144 11 l141 1 0
-45z m155 -149 l-1 -198 -59 0 c-59 0 -60 1 -59 28 0 15 1 104 2 197 l2 170
58 0 59 0 -2 -197z m157 120 c-3 -63 1 -79 26 -130 l30 -57 31 62 c26 51 31
73 31 132 l0 71 57 -3 58 -3 -4 -80 c-3 -74 -7 -87 -62 -198 l-60 -118 -52 3
-52 3 -57 113 c-57 112 -58 115 -58 198 l0 85 58 -3 57 -3 -3 -72z m552 46
c14 -71 15 -70 -76 -67 -83 3 -83 3 -83 -22 0 -25 1 -25 78 -22 85 3 83 5 71
-68 l-6 -35 -74 3 c-73 4 -74 4 -74 -21 0 -42 21 -50 106 -42 l77 7 -7 -39
c-12 -64 -17 -75 -33 -69 -8 3 -69 6 -136 6 l-122 0 0 200 0 200 136 0 137 0
6 -31z m1676 -17 l0 -45 -46 6 -47 5 6 -159 5 -159 -64 0 -64 0 6 159 7 158
-51 -5 -52 -5 6 34 c3 19 7 39 9 44 1 6 59 10 144 11 l141 1 0 -45z m279 42
c48 -10 81 -49 81 -97 0 -23 -7 -48 -16 -58 -14 -15 -13 -20 5 -50 39 -63 20
-144 -42 -176 -36 -18 -162 -29 -229 -19 l-43 6 2 198 c2 108 3 198 3 200 0 5
209 2 239 -4z m653 -149 l-4 -155 86 6 87 7 -3 -54 -3 -54 -85 -3 c-47 -2
-109 0 -137 3 l-53 6 0 200 0 199 58 0 58 0 -4 -155z m320 0 l-4 -155 86 6 87
7 -3 -54 -3 -54 -85 -3 c-47 -2 -109 0 -137 3 l-53 6 0 200 0 199 58 0 58 0
-4 -155z m505 48 l50 -108 51 108 51 107 55 0 55 0 0 -200 0 -200 -59 0 -59 0
-3 87 -3 87 -37 -89 c-20 -50 -43 -91 -50 -93 -10 -2 -29 28 -55 85 l-41 88
-1 -83 -1 -83 -56 3 -57 3 2 195 c0 107 1 196 1 198 0 1 24 2 53 2 l53 0 51
-107z m2257 76 c14 -71 15 -70 -76 -67 -83 3 -83 3 -83 -22 0 -25 1 -25 78
-22 85 3 83 5 71 -68 l-6 -35 -74 3 c-73 4 -74 4 -74 -21 0 -42 21 -50 106
-42 l77 7 -7 -39 c-12 -64 -17 -75 -33 -69 -8 3 -69 6 -136 6 l-122 0 0 200 0
200 136 0 137 0 6 -31z m213 -76 l50 -108 51 108 51 107 55 0 55 0 0 -200 0
-200 -59 0 -59 0 -3 87 -3 87 -37 -89 c-20 -50 -43 -91 -50 -93 -10 -2 -29 28
-55 85 l-41 88 -1 -83 -1 -83 -56 3 -57 3 2 195 c0 107 1 196 1 198 0 1 24 2
53 2 l53 0 51 -107z m587 76 c14 -71 15 -70 -76 -67 -83 3 -83 3 -83 -22 0
-25 1 -25 78 -22 85 3 83 5 71 -68 l-6 -35 -74 3 c-73 4 -74 4 -74 -21 0 -42
21 -50 106 -42 l77 7 -7 -39 c-12 -64 -17 -75 -33 -69 -8 3 -69 6 -136 6
l-122 0 0 200 0 200 136 0 137 0 6 -31z m766 -17 l0 -45 -46 6 -47 5 6 -159 5
-159 -64 0 -64 0 6 159 7 158 -51 -5 -52 -5 6 34 c3 19 7 39 9 44 1 6 59 10
144 11 l141 1 0 -45z m1274 17 c14 -71 15 -70 -76 -67 -83 3 -83 3 -83 -22 0
-25 1 -25 78 -22 85 3 83 5 71 -68 l-6 -35 -74 3 c-73 4 -74 4 -74 -21 0 -42
21 -50 106 -42 l77 7 -7 -39 c-12 -64 -17 -75 -33 -69 -8 3 -69 6 -136 6
l-122 0 0 200 0 200 136 0 137 0 6 -31z m954 -29 c2 -42 9 -63 27 -85 l25 -30
25 30 c20 24 25 41 25 88 l0 57 60 0 60 0 0 -64 c0 -62 -3 -69 -55 -147 -50
-74 -55 -87 -55 -136 l0 -53 -60 0 -60 0 0 58 c0 53 -4 63 -55 139 -52 77 -55
86 -55 143 l0 61 58 -3 57 -3 3 -55z m-7118 -1650 c22 -44 44 -80 48 -80 4 -1
46 -7 94 -14 73 -11 102 -11 170 0 46 8 84 14 85 14 2 0 21 36 43 80 22 44 42
80 45 80 3 0 23 -36 44 -79 l40 -79 64 -11 c35 -6 76 -11 90 -11 15 0 27 -3
27 -7 0 -4 -29 -37 -64 -73 l-64 -65 14 -84 c8 -46 13 -85 11 -88 -3 -2 -40
13 -83 35 l-79 40 -83 -45 c-79 -43 -83 -44 -78 -22 3 13 10 55 16 93 l11 70
-65 65 -66 66 -64 -65 -65 -65 15 -84 c8 -46 13 -85 11 -88 -3 -2 -40 13 -83
35 l-79 40 -83 -45 c-79 -43 -83 -44 -78 -22 3 13 10 55 16 93 l11 69 -67 68
c-73 74 -74 71 21 84 93 12 93 12 136 96 21 44 41 79 44 79 3 0 23 -36 45 -80z
m1070 0 c22 -44 44 -80 48 -80 4 -1 46 -7 95 -14 57 -9 104 -10 135 -5 26 5
62 11 80 14 29 5 37 15 72 85 22 44 42 80 45 80 3 0 23 -36 45 -80 22 -44 44
-80 48 -80 4 -1 46 -7 95 -14 57 -9 104 -10 135 -5 26 5 62 11 80 14 29 5 37
15 72 85 22 44 42 80 45 80 3 0 23 -36 44 -79 l40 -79 64 -11 c35 -6 73 -11
84 -11 39 0 33 -15 -31 -79 l-64 -66 14 -84 c7 -47 12 -87 10 -89 -2 -2 -39
15 -82 36 l-79 40 -83 -45 c-79 -43 -83 -44 -78 -22 3 13 10 55 16 93 l11 69
-63 64 -63 63 -61 -62 -62 -63 14 -84 c7 -47 12 -87 10 -89 -2 -2 -39 15 -82
36 l-79 40 -83 -45 c-79 -43 -83 -44 -78 -22 3 13 10 55 16 93 l11 70 -63 63
-63 63 -62 -62 -61 -63 14 -84 c7 -47 12 -87 10 -89 -2 -2 -39 14 -82 36 l-79
40 -83 -45 c-79 -43 -83 -44 -78 -22 3 13 10 55 16 93 l11 69 -67 68 c-73 74
-74 71 21 84 93 12 93 12 136 96 21 44 41 79 44 79 3 0 23 -36 45 -80z"/>
<path d="M10344 8065 c-135 -29 -263 -123 -324 -236 -50 -94 -59 -173 -60
-501 l0 -288 505 0 505 0 0 298 c0 217 -4 315 -14 364 -42 198 -169 319 -378
362 -91 19 -151 19 -234 1z"/>
<path d="M4441 4704 c-59 -42 -59 -139 1 -170 66 -34 138 14 138 93 0 67 -86
115 -139 77z"/>
<path d="M4881 4704 c-59 -42 -59 -139 1 -170 66 -34 138 14 138 93 0 67 -86
115 -139 77z"/>
<path d="M6001 4639 c-19 -54 -15 -69 19 -69 34 0 33 -3 19 56 -13 52 -23 55
-38 13z"/>
<path d="M7671 4639 c-19 -54 -15 -69 19 -69 34 0 33 -3 19 56 -13 52 -23 55
-38 13z"/>
<path d="M8511 4639 c-19 -54 -15 -69 19 -69 34 0 33 -3 19 56 -13 52 -23 55
-38 13z"/>
<path d="M11351 4639 c-19 -54 -15 -69 19 -69 34 0 33 -3 19 56 -13 52 -23 55
-38 13z"/>
<path d="M5590 4705 c0 -32 2 -35 31 -35 17 0 39 5 50 10 41 23 10 60 -50 60
-29 0 -31 -3 -31 -35z"/>
<path d="M5592 4548 c3 -41 4 -43 39 -46 38 -3 69 16 69 43 0 25 -31 45 -71
45 l-40 0 3 -42z"/>
</g>
</svg>
