<?xml version="1.0" standalone="no"?>
<!DOCTYPE svg PUBLIC "-//W3C//DTD SVG 20010904//EN"
 "http://www.w3.org/TR/2001/REC-SVG-20010904/DTD/svg10.dtd">
<svg version="1.0" xmlns="http://www.w3.org/2000/svg"
 width="1406.000000pt" height="1181.000000pt" viewBox="0 0 1406.000000 1181.000000"
 preserveAspectRatio="xMidYMid meet">

<g transform="translate(0.000000,1181.000000) scale(0.100000,-0.100000)"
fill="#ffdeb8" stroke="none">
<path d="M6950 11801 c-14 -5 -53 -14 -88 -20 -84 -16 -228 -65 -329 -111 -87
-40 -262 -140 -285 -163 -7 -7 -40 -33 -73 -57 -89 -65 -295 -275 -295 -301 0
-5 -7 -12 -15 -15 -8 -4 -15 -11 -15 -16 0 -6 -12 -27 -27 -47 -34 -44 -49
-68 -65 -101 -7 -14 -25 -46 -41 -73 -16 -26 -30 -53 -31 -60 -1 -6 -8 -23
-16 -37 -18 -33 -69 -174 -80 -225 -5 -22 -14 -56 -20 -75 -19 -59 -41 -239
-44 -360 l-3 -114 -74 -17 c-41 -9 -123 -28 -184 -42 -60 -15 -175 -42 -255
-61 -490 -117 -1542 -453 -2285 -731 -126 -47 -248 -92 -271 -101 l-41 -14 -7
-193 c-12 -298 -14 -1027 -5 -1277 12 -328 37 -684 65 -935 25 -227 84 -604
110 -703 8 -32 28 -118 44 -192 16 -75 32 -143 36 -153 6 -16 -54 -17 -1064
-17 l-1070 0 -53 -28 c-43 -22 -59 -38 -81 -81 l-28 -53 0 -833 0 -833 28 -53
c22 -43 38 -59 81 -81 l53 -28 1524 0 1523 0 24 -32 c13 -18 79 -109 146 -201
269 -367 638 -769 1091 -1188 385 -355 872 -756 1547 -1272 103 -79 247 -188
318 -243 72 -55 201 -155 288 -222 l159 -121 66 52 c121 95 182 141 251 192
38 28 102 75 143 106 40 31 127 96 193 145 66 48 210 161 320 249 110 89 236
188 280 221 242 181 493 382 670 535 55 47 137 117 181 155 372 314 920 858
1165 1155 75 90 186 232 249 314 l113 150 1391 5 1391 5 45 27 c28 16 55 43
70 70 l25 43 0 850 0 850 -27 45 c-16 28 -43 55 -70 70 l-43 25 -928 3 c-875
2 -928 3 -923 20 3 9 19 80 36 157 17 77 39 178 50 225 40 181 104 595 115
745 3 50 12 146 20 215 18 158 44 617 55 1000 19 632 30 932 35 968 2 20 7 60
10 89 l5 51 -302 120 c-167 66 -334 130 -373 142 -38 13 -171 58 -295 102
-507 178 -1359 420 -1890 538 -246 54 -223 44 -217 93 7 64 -11 312 -29 397
-18 90 -69 255 -99 325 -23 52 -65 139 -78 160 -56 91 -143 220 -170 251 -109
129 -246 255 -362 335 -113 77 -352 199 -391 199 -8 0 -25 6 -37 14 -12 8 -65
24 -117 35 -52 12 -114 26 -138 31 -50 12 -545 12 -582 1z m381 -141 c47 0 49
-2 64 -36 8 -20 15 -37 15 -39 0 -1 -48 -5 -107 -8 -60 -3 -142 -13 -183 -22
-109 -24 -270 -74 -270 -84 0 -5 15 -12 34 -15 33 -6 58 -27 69 -57 8 -24 -25
-88 -73 -142 l-43 -49 -66 6 c-36 4 -78 9 -94 12 l-27 6 2 160 3 161 70 24
c165 57 431 100 529 87 16 -2 50 -4 77 -4z m256 -34 c167 -36 331 -107 488
-212 139 -92 166 -114 159 -125 -3 -5 -25 -19 -48 -30 l-43 -20 -109 36 c-60
19 -183 62 -274 94 l-165 59 -47 106 c-26 58 -43 106 -38 106 5 0 39 -6 77
-14z m-1037 -276 l0 -151 -177 -187 c-97 -103 -212 -224 -255 -269 l-77 -83
-126 0 c-85 0 -125 4 -125 11 0 25 102 220 162 309 75 112 232 279 341 362 73
56 233 157 250 158 4 0 7 -68 7 -150z m1235 -100 c123 -44 226 -80 228 -80 3
0 27 -10 54 -22 26 -12 52 -22 57 -22 5 -1 17 -23 26 -51 57 -169 72 -212 80
-227 6 -10 10 -24 10 -32 0 -7 9 -35 19 -62 10 -27 28 -72 39 -101 l20 -51
-61 -48 c-34 -27 -65 -53 -69 -60 -11 -16 -174 -154 -183 -154 -4 0 -69 22
-144 50 -75 27 -202 72 -282 101 l-145 51 -36 91 c-20 51 -62 153 -93 227 -31
74 -65 156 -75 183 l-18 47 171 119 c95 66 173 120 175 120 2 1 104 -35 227
-79z m-987 -146 c59 -7 150 -19 202 -26 52 -6 100 -16 106 -22 6 -6 51 -108
99 -226 48 -118 96 -235 106 -259 11 -24 19 -48 19 -53 0 -6 -73 -89 -162
-185 -90 -96 -181 -195 -203 -220 l-40 -45 -315 17 c-173 9 -318 20 -321 23
-3 4 -34 95 -68 202 -35 107 -70 216 -78 242 l-15 48 73 78 c41 43 153 163
249 266 171 183 176 187 208 181 19 -3 82 -13 140 -21z m-873 -561 c-16 -39
-64 -254 -76 -338 -15 -100 -18 -342 -6 -421 l7 -51 -56 13 c-31 7 -60 16 -65
21 -18 20 -40 213 -40 357 0 145 15 263 50 394 l12 42 90 0 c83 0 90 -2 84
-17z m2570 -145 c99 -88 113 -105 110 -127 -4 -25 -13 -89 -55 -391 -11 -80
-25 -179 -31 -220 l-11 -75 -56 -33 c-32 -17 -99 -57 -151 -87 l-93 -55 -92
70 c-50 38 -104 79 -119 92 l-28 23 15 90 c20 121 42 272 63 430 l17 129 40
38 c23 21 46 38 52 38 5 0 24 13 41 30 29 28 175 149 181 150 2 0 54 -46 117
-102z m294 -269 c1 -146 -12 -260 -45 -384 -22 -86 -67 -215 -74 -215 -4 0
-16 10 -28 23 -21 22 -21 24 -7 117 8 52 28 196 45 320 17 124 33 241 36 260
3 21 16 44 32 57 l27 21 6 -26 c4 -15 7 -93 8 -173z m-2140 -150 c68 -5 155
-9 192 -9 l69 0 134 -269 135 -269 -42 -84 c-23 -46 -58 -121 -77 -167 l-35
-83 -275 7 c-316 7 -280 -5 -377 124 -32 42 -111 145 -175 230 -65 84 -118
158 -118 163 0 9 116 230 177 336 l25 44 121 -7 c67 -3 178 -11 246 -16z
m-731 -365 c28 -5 47 -14 53 -26 6 -11 83 -115 172 -231 229 -300 239 -315
227 -357 -5 -19 -14 -56 -21 -82 -6 -27 -14 -48 -17 -48 -15 0 -120 92 -218
192 -147 150 -225 267 -304 453 -61 144 -61 136 7 119 32 -7 77 -17 101 -20z
m2096 -200 c96 -71 115 -90 110 -106 -3 -11 -35 -81 -70 -156 -36 -75 -72
-153 -81 -172 -16 -35 -21 -37 -197 -94 -273 -89 -330 -108 -347 -117 -16 -8
-31 7 -237 222 l-63 65 19 45 c11 24 37 82 59 129 22 47 46 102 54 123 14 39
17 41 99 52 54 7 341 61 425 79 103 23 103 23 229 -70z m60 -584 c17 0 14 -4
-16 -25 -126 -86 -380 -181 -558 -209 -58 -9 -113 -18 -122 -20 -13 -3 -9 7
15 34 29 36 46 43 207 96 96 32 225 74 285 95 66 23 121 36 139 33 16 -2 38
-4 50 -4z m-3744 -473 l0 -253 -91 -17 c-335 -63 -612 -264 -754 -547 -26 -52
-85 -215 -85 -236 0 -2 209 -4 465 -4 l465 0 0 -240 0 -240 -465 0 c-258 0
-465 -4 -465 -9 0 -14 47 -152 69 -204 11 -27 42 -81 67 -120 159 -245 394
-399 710 -464 l84 -18 0 -207 0 -208 -246 0 -246 0 -76 31 c-168 67 -319 166
-461 304 -582 562 -662 1388 -198 2038 273 382 730 636 1160 646 l67 1 0 -253z
m6300 228 c142 -23 287 -68 393 -121 201 -101 366 -300 436 -529 50 -160 51
-187 51 -1302 l0 -1043 -270 0 -270 0 0 530 0 530 -505 0 -505 0 0 -530 0
-530 -270 0 -270 0 0 1015 c0 653 4 1050 11 1111 14 131 42 234 89 333 138
288 390 480 705 535 108 19 289 19 405 1z m-3588 -9 c89 -17 191 -55 278 -103
82 -44 128 -80 211 -160 l66 -64 65 64 c222 218 536 319 812 262 299 -62 546
-301 615 -595 19 -81 20 -131 24 -1025 2 -517 2 -1036 -1 -1152 l-5 -213 -264
0 -263 0 0 1085 c0 735 -3 1100 -11 1134 -12 56 -68 150 -120 200 -19 18 -63
47 -99 64 -54 26 -77 31 -140 31 -90 1 -140 -13 -204 -56 -57 -37 -97 -89
-128 -167 l-23 -56 -3 -1117 -3 -1118 -263 0 -263 0 -5 213 c-3 116 -3 611 -1
1099 l4 887 -26 72 c-58 162 -163 243 -315 243 -66 1 -85 -4 -142 -32 -80 -39
-139 -101 -181 -190 l-32 -67 -3 -1112 -2 -1113 -270 0 -270 0 0 1114 c0 743
4 1141 11 1193 42 307 253 561 547 657 112 37 278 46 404 22z m-1152 -266 l0
-230 -220 0 c-224 0 -297 -8 -360 -40 -53 -27 -116 -98 -147 -165 l-28 -60 -3
-282 -4 -283 381 0 381 0 0 -235 0 -235 -380 0 -380 0 0 -595 0 -595 -267 2
-268 3 0 1150 c0 1293 -4 1226 75 1383 78 153 175 248 335 328 157 78 192 83
563 83 l322 1 0 -230z m-3925 -3254 c71 -32 109 -68 139 -128 31 -61 36 -142
10 -152 -20 -8 -198 -8 -218 0 -9 3 -16 16 -16 28 0 12 -6 31 -14 42 -13 18
-30 19 -228 22 -117 2 -228 0 -246 -3 -63 -12 -81 -88 -27 -113 18 -8 115 -12
308 -13 189 0 292 -4 314 -12 60 -22 117 -72 148 -128 28 -51 30 -60 30 -169
0 -131 -12 -166 -82 -231 -78 -75 -70 -74 -441 -77 -381 -3 -402 0 -480 71
-60 56 -85 108 -86 182 l-1 60 122 3 122 3 7 -26 c3 -14 14 -30 24 -35 11 -6
126 -10 269 -10 238 0 252 1 271 20 29 29 26 74 -6 99 -26 20 -39 21 -303 21
-157 0 -292 5 -313 10 -63 18 -129 70 -162 130 -28 50 -31 63 -31 145 0 101
12 134 74 198 36 39 75 64 121 78 14 4 165 8 335 8 305 1 311 0 360 -23z
m1334 -7 c68 -34 108 -79 136 -154 25 -63 18 -354 -9 -405 -25 -49 -84 -108
-131 -133 -38 -21 -56 -22 -360 -27 l-320 -5 -5 -100 -5 -100 -125 0 -125 0
-3 465 c-1 256 0 471 3 478 3 9 101 12 443 12 l439 0 62 -31z m1266 7 c65 -30
112 -78 142 -143 24 -52 24 -56 21 -325 -3 -307 -5 -314 -85 -389 -79 -76 -67
-74 -463 -74 -396 0 -384 -2 -463 74 -80 75 -82 83 -85 381 -2 166 0 278 7
300 16 54 68 126 109 152 71 45 82 46 432 47 331 1 336 1 385 -23z m1180 0
c64 -29 112 -77 141 -141 32 -69 34 -227 3 -294 -19 -43 -19 -45 -2 -55 30
-16 79 -72 98 -113 13 -27 21 -76 27 -172 5 -74 6 -141 4 -148 -4 -11 -32 -13
-128 -11 l-123 3 -5 81 c-4 54 -12 90 -24 108 -33 52 -63 57 -324 54 l-237 -3
-5 -120 -5 -120 -125 0 -125 0 -3 465 c-1 256 0 471 3 478 3 9 91 12 392 12
386 0 388 0 438 -24z m1490 -91 l0 -110 -190 -5 -190 -5 -5 -360 -5 -360 -125
0 -125 0 -5 360 -5 360 -190 5 -190 5 -3 99 c-1 55 0 106 2 113 5 11 99 13
518 11 l513 -3 0 -110z m1830 91 c71 -32 109 -68 139 -128 31 -61 36 -142 10
-152 -20 -8 -198 -8 -218 0 -9 3 -16 16 -16 28 0 12 -6 31 -14 42 -13 18 -30
19 -228 22 -117 2 -228 0 -246 -3 -63 -12 -81 -88 -27 -113 18 -8 115 -12 308
-13 189 0 292 -4 314 -12 60 -22 117 -72 148 -128 28 -51 30 -60 30 -169 0
-131 -12 -166 -82 -231 -78 -75 -70 -74 -441 -77 -381 -3 -402 0 -480 71 -60
56 -85 108 -86 182 l-1 60 122 3 122 3 7 -26 c3 -14 14 -30 24 -35 11 -6 126
-10 269 -10 238 0 252 1 271 20 29 29 26 74 -6 99 -26 20 -39 21 -303 21 -157
0 -292 5 -313 10 -63 18 -129 70 -162 130 -28 50 -31 63 -31 145 0 101 12 134
74 198 36 39 75 64 121 78 14 4 165 8 335 8 305 1 311 0 360 -23z m643 -158
l2 -178 255 0 255 0 0 164 c0 90 3 171 6 180 9 24 249 24 258 0 8 -20 8 -908
0 -928 -5 -13 -26 -16 -130 -16 l-124 0 -2 178 -3 177 -255 0 -255 0 -5 -175
-5 -175 -125 0 -125 0 -3 465 c-1 256 0 471 3 478 3 9 35 12 127 10 l123 -3 3
-177z m1887 158 c65 -30 112 -78 142 -143 24 -52 24 -56 21 -325 -3 -307 -5
-314 -85 -389 -79 -76 -67 -74 -463 -74 -396 0 -384 -2 -463 74 -80 75 -82 83
-85 381 -2 166 0 278 7 300 16 54 68 126 109 152 71 45 82 46 432 47 331 1
336 1 385 -23z m1294 -7 c68 -34 108 -79 136 -154 25 -63 18 -354 -9 -405 -25
-49 -84 -108 -131 -133 -38 -21 -56 -22 -360 -27 l-320 -5 -5 -100 -5 -100
-125 0 -125 0 -3 465 c-1 256 0 471 3 478 3 9 101 12 443 12 l439 0 62 -31z
m-6759 -1889 c22 -44 44 -80 48 -80 4 -1 46 -7 94 -14 73 -11 102 -11 170 0
46 8 84 14 85 14 2 0 21 36 43 80 22 44 42 80 45 80 3 0 23 -36 44 -79 l40
-79 64 -11 c35 -6 76 -11 90 -11 15 0 27 -3 27 -7 0 -4 -29 -37 -64 -73 l-64
-65 13 -75 c22 -117 26 -113 -67 -65 l-82 43 -83 -45 -83 -45 5 29 c3 15 10
57 15 93 l10 65 -65 65 -65 65 -64 -65 -65 -65 14 -75 c22 -117 26 -113 -67
-65 l-82 43 -83 -45 -83 -45 5 29 c3 15 10 57 15 93 l10 65 -66 66 c-73 74
-74 71 21 84 93 12 93 12 136 96 21 44 41 79 44 79 3 0 23 -36 45 -80z m1070
0 c22 -44 44 -80 48 -80 4 -1 46 -7 95 -14 57 -9 104 -10 135 -5 26 5 62 11
80 14 29 5 37 15 72 85 22 44 42 80 45 80 3 0 23 -36 45 -80 22 -44 44 -80 48
-80 4 -1 46 -7 95 -14 57 -9 104 -10 135 -5 26 5 62 11 80 14 29 5 37 15 72
85 22 44 42 80 45 80 3 0 23 -36 44 -79 l40 -79 64 -11 c35 -6 73 -11 84 -11
39 0 33 -15 -31 -79 l-64 -66 14 -84 c8 -46 13 -85 11 -88 -3 -2 -40 14 -83
35 l-79 40 -83 -45 c-79 -43 -83 -44 -78 -22 3 13 10 55 16 93 l11 69 -63 64
-63 63 -62 -62 -62 -63 15 -84 c8 -46 13 -85 11 -88 -3 -2 -40 14 -83 35 l-79
40 -83 -45 c-79 -43 -83 -44 -78 -22 3 13 10 55 16 93 l11 70 -63 63 -63 63
-62 -62 -61 -63 14 -84 c8 -46 13 -85 11 -88 -3 -2 -40 13 -83 35 l-79 40 -82
-45 -83 -45 5 29 c3 15 10 57 15 93 l10 65 -66 66 c-73 74 -74 71 21 84 93 12
93 12 136 96 21 44 41 79 44 79 3 0 23 -36 45 -80z"/>
<path d="M10344 8115 c-135 -29 -263 -123 -324 -236 -50 -94 -59 -173 -60
-501 l0 -288 505 0 505 0 0 298 c0 223 -4 314 -15 367 -42 195 -169 316 -377
359 -91 19 -151 19 -234 1z"/>
<path d="M2612 4708 l3 -133 243 -3 c319 -3 332 3 332 144 0 59 -3 68 -29 95
l-29 29 -262 0 -261 0 3 -132z"/>
<path d="M3963 4843 c-12 -2 -34 -18 -48 -34 -25 -30 -25 -32 -25 -216 l0
-185 29 -29 29 -29 232 0 232 0 29 29 29 29 0 186 0 186 -29 32 -29 33 -214 1
c-117 1 -223 0 -235 -3z"/>
<path d="M5174 4837 c-2 -7 -3 -60 -2 -118 l3 -104 193 -3 c212 -3 248 5 271
54 16 36 14 106 -5 133 -31 44 -69 51 -269 51 -144 0 -187 -3 -191 -13z"/>
<path d="M10993 4843 c-12 -2 -34 -18 -48 -34 -25 -30 -25 -32 -25 -216 l0
-185 29 -29 29 -29 232 0 232 0 29 29 29 29 0 186 0 186 -29 32 -29 33 -214 1
c-117 1 -223 0 -235 -3z"/>
<path d="M12202 4708 l3 -133 243 -3 c319 -3 332 3 332 144 0 59 -3 68 -29 95
l-29 29 -262 0 -261 0 3 -132z"/>
</g>
</svg>
